<?xml version="1.0" encoding="utf-8" standalone="no"?>
<!DOCTYPE svg PUBLIC "-//W3C//DTD SVG 1.1//EN"
  "http://www.w3.org/Graphics/SVG/1.1/DTD/svg11.dtd">
<!-- Created with matplotlib (http://matplotlib.org/) -->
<svg height="288pt" version="1.1" viewBox="0 0 432 288" width="432pt" xmlns="http://www.w3.org/2000/svg" xmlns:xlink="http://www.w3.org/1999/xlink">
 <defs>
  <style type="text/css">
*{stroke-linecap:butt;stroke-linejoin:round;}
  </style>
 </defs>
 <g id="figure_1">
  <g id="patch_1">
   <path d="M 0 288 
L 432 288 
L 432 0 
L 0 0 
z
" style="fill:#ffffff;"/>
  </g>
  <g id="axes_1">
   <g id="patch_2">
    <path d="M 54 252 
L 388.8 252 
L 388.8 34.56 
L 54 34.56 
z
" style="fill:#ffffff;"/>
   </g>
   <g id="matplotlib.axis_1">
    <g id="xtick_1">
     <g id="line2d_1">
      <defs>
       <path d="M 0 0 
L 0 3.5 
" id="m1719a37fa5" style="stroke:#000000;stroke-width:0.8;"/>
      </defs>
      <g>
       <use style="stroke:#000000;stroke-width:0.8;" x="67.688716" xlink:href="#m1719a37fa5" y="252"/>
      </g>
     </g>
     <g id="text_1">
      <!-- 0 -->
      <defs>
       <path d="M 31.78125 66.40625 
Q 24.171875 66.40625 20.328125 58.90625 
Q 16.5 51.421875 16.5 36.375 
Q 16.5 21.390625 20.328125 13.890625 
Q 24.171875 6.390625 31.78125 6.390625 
Q 39.453125 6.390625 43.28125 13.890625 
Q 47.125 21.390625 47.125 36.375 
Q 47.125 51.421875 43.28125 58.90625 
Q 39.453125 66.40625 31.78125 66.40625 
z
M 31.78125 74.21875 
Q 44.046875 74.21875 50.515625 64.515625 
Q 56.984375 54.828125 56.984375 36.375 
Q 56.984375 17.96875 50.515625 8.265625 
Q 44.046875 -1.421875 31.78125 -1.421875 
Q 19.53125 -1.421875 13.0625 8.265625 
Q 6.59375 17.96875 6.59375 36.375 
Q 6.59375 54.828125 13.0625 64.515625 
Q 19.53125 74.21875 31.78125 74.21875 
z
" id="DejaVuSans-30"/>
      </defs>
      <g transform="translate(64.507466 266.598437)scale(0.1 -0.1)">
       <use xlink:href="#DejaVuSans-30"/>
      </g>
     </g>
    </g>
    <g id="xtick_2">
     <g id="line2d_2">
      <g>
       <use style="stroke:#000000;stroke-width:0.8;" x="105.925354" xlink:href="#m1719a37fa5" y="252"/>
      </g>
     </g>
     <g id="text_2">
      <!-- 25 -->
      <defs>
       <path d="M 19.1875 8.296875 
L 53.609375 8.296875 
L 53.609375 0 
L 7.328125 0 
L 7.328125 8.296875 
Q 12.9375 14.109375 22.625 23.890625 
Q 32.328125 33.6875 34.8125 36.53125 
Q 39.546875 41.84375 41.421875 45.53125 
Q 43.3125 49.21875 43.3125 52.78125 
Q 43.3125 58.59375 39.234375 62.25 
Q 35.15625 65.921875 28.609375 65.921875 
Q 23.96875 65.921875 18.8125 64.3125 
Q 13.671875 62.703125 7.8125 59.421875 
L 7.8125 69.390625 
Q 13.765625 71.78125 18.9375 73 
Q 24.125 74.21875 28.421875 74.21875 
Q 39.75 74.21875 46.484375 68.546875 
Q 53.21875 62.890625 53.21875 53.421875 
Q 53.21875 48.921875 51.53125 44.890625 
Q 49.859375 40.875 45.40625 35.40625 
Q 44.1875 33.984375 37.640625 27.21875 
Q 31.109375 20.453125 19.1875 8.296875 
z
" id="DejaVuSans-32"/>
       <path d="M 10.796875 72.90625 
L 49.515625 72.90625 
L 49.515625 64.59375 
L 19.828125 64.59375 
L 19.828125 46.734375 
Q 21.96875 47.46875 24.109375 47.828125 
Q 26.265625 48.1875 28.421875 48.1875 
Q 40.625 48.1875 47.75 41.5 
Q 54.890625 34.8125 54.890625 23.390625 
Q 54.890625 11.625 47.5625 5.09375 
Q 40.234375 -1.421875 26.90625 -1.421875 
Q 22.3125 -1.421875 17.546875 -0.640625 
Q 12.796875 0.140625 7.71875 1.703125 
L 7.71875 11.625 
Q 12.109375 9.234375 16.796875 8.0625 
Q 21.484375 6.890625 26.703125 6.890625 
Q 35.15625 6.890625 40.078125 11.328125 
Q 45.015625 15.765625 45.015625 23.390625 
Q 45.015625 31 40.078125 35.4375 
Q 35.15625 39.890625 26.703125 39.890625 
Q 22.75 39.890625 18.8125 39.015625 
Q 14.890625 38.140625 10.796875 36.28125 
z
" id="DejaVuSans-35"/>
      </defs>
      <g transform="translate(99.562854 266.598437)scale(0.1 -0.1)">
       <use xlink:href="#DejaVuSans-32"/>
       <use x="63.623047" xlink:href="#DejaVuSans-35"/>
      </g>
     </g>
    </g>
    <g id="xtick_3">
     <g id="line2d_3">
      <g>
       <use style="stroke:#000000;stroke-width:0.8;" x="144.161992" xlink:href="#m1719a37fa5" y="252"/>
      </g>
     </g>
     <g id="text_3">
      <!-- 50 -->
      <g transform="translate(137.799492 266.598437)scale(0.1 -0.1)">
       <use xlink:href="#DejaVuSans-35"/>
       <use x="63.623047" xlink:href="#DejaVuSans-30"/>
      </g>
     </g>
    </g>
    <g id="xtick_4">
     <g id="line2d_4">
      <g>
       <use style="stroke:#000000;stroke-width:0.8;" x="182.39863" xlink:href="#m1719a37fa5" y="252"/>
      </g>
     </g>
     <g id="text_4">
      <!-- 75 -->
      <defs>
       <path d="M 8.203125 72.90625 
L 55.078125 72.90625 
L 55.078125 68.703125 
L 28.609375 0 
L 18.3125 0 
L 43.21875 64.59375 
L 8.203125 64.59375 
z
" id="DejaVuSans-37"/>
      </defs>
      <g transform="translate(176.03613 266.598437)scale(0.1 -0.1)">
       <use xlink:href="#DejaVuSans-37"/>
       <use x="63.623047" xlink:href="#DejaVuSans-35"/>
      </g>
     </g>
    </g>
    <g id="xtick_5">
     <g id="line2d_5">
      <g>
       <use style="stroke:#000000;stroke-width:0.8;" x="220.635267" xlink:href="#m1719a37fa5" y="252"/>
      </g>
     </g>
     <g id="text_5">
      <!-- 100 -->
      <defs>
       <path d="M 12.40625 8.296875 
L 28.515625 8.296875 
L 28.515625 63.921875 
L 10.984375 60.40625 
L 10.984375 69.390625 
L 28.421875 72.90625 
L 38.28125 72.90625 
L 38.28125 8.296875 
L 54.390625 8.296875 
L 54.390625 0 
L 12.40625 0 
z
" id="DejaVuSans-31"/>
      </defs>
      <g transform="translate(211.091517 266.598437)scale(0.1 -0.1)">
       <use xlink:href="#DejaVuSans-31"/>
       <use x="63.623047" xlink:href="#DejaVuSans-30"/>
       <use x="127.246094" xlink:href="#DejaVuSans-30"/>
      </g>
     </g>
    </g>
    <g id="xtick_6">
     <g id="line2d_6">
      <g>
       <use style="stroke:#000000;stroke-width:0.8;" x="258.871905" xlink:href="#m1719a37fa5" y="252"/>
      </g>
     </g>
     <g id="text_6">
      <!-- 125 -->
      <g transform="translate(249.328155 266.598437)scale(0.1 -0.1)">
       <use xlink:href="#DejaVuSans-31"/>
       <use x="63.623047" xlink:href="#DejaVuSans-32"/>
       <use x="127.246094" xlink:href="#DejaVuSans-35"/>
      </g>
     </g>
    </g>
    <g id="xtick_7">
     <g id="line2d_7">
      <g>
       <use style="stroke:#000000;stroke-width:0.8;" x="297.108543" xlink:href="#m1719a37fa5" y="252"/>
      </g>
     </g>
     <g id="text_7">
      <!-- 150 -->
      <g transform="translate(287.564793 266.598437)scale(0.1 -0.1)">
       <use xlink:href="#DejaVuSans-31"/>
       <use x="63.623047" xlink:href="#DejaVuSans-35"/>
       <use x="127.246094" xlink:href="#DejaVuSans-30"/>
      </g>
     </g>
    </g>
    <g id="xtick_8">
     <g id="line2d_8">
      <g>
       <use style="stroke:#000000;stroke-width:0.8;" x="335.34518" xlink:href="#m1719a37fa5" y="252"/>
      </g>
     </g>
     <g id="text_8">
      <!-- 175 -->
      <g transform="translate(325.80143 266.598437)scale(0.1 -0.1)">
       <use xlink:href="#DejaVuSans-31"/>
       <use x="63.623047" xlink:href="#DejaVuSans-37"/>
       <use x="127.246094" xlink:href="#DejaVuSans-35"/>
      </g>
     </g>
    </g>
    <g id="xtick_9">
     <g id="line2d_9">
      <g>
       <use style="stroke:#000000;stroke-width:0.8;" x="373.581818" xlink:href="#m1719a37fa5" y="252"/>
      </g>
     </g>
     <g id="text_9">
      <!-- 200 -->
      <g transform="translate(364.038068 266.598437)scale(0.1 -0.1)">
       <use xlink:href="#DejaVuSans-32"/>
       <use x="63.623047" xlink:href="#DejaVuSans-30"/>
       <use x="127.246094" xlink:href="#DejaVuSans-30"/>
      </g>
     </g>
    </g>
    <g id="text_10">
     <!-- Epochs -->
     <defs>
      <path d="M 9.8125 72.90625 
L 55.90625 72.90625 
L 55.90625 64.59375 
L 19.671875 64.59375 
L 19.671875 43.015625 
L 54.390625 43.015625 
L 54.390625 34.71875 
L 19.671875 34.71875 
L 19.671875 8.296875 
L 56.78125 8.296875 
L 56.78125 0 
L 9.8125 0 
z
" id="DejaVuSans-45"/>
      <path d="M 18.109375 8.203125 
L 18.109375 -20.796875 
L 9.078125 -20.796875 
L 9.078125 54.6875 
L 18.109375 54.6875 
L 18.109375 46.390625 
Q 20.953125 51.265625 25.265625 53.625 
Q 29.59375 56 35.59375 56 
Q 45.5625 56 51.78125 48.09375 
Q 58.015625 40.1875 58.015625 27.296875 
Q 58.015625 14.40625 51.78125 6.484375 
Q 45.5625 -1.421875 35.59375 -1.421875 
Q 29.59375 -1.421875 25.265625 0.953125 
Q 20.953125 3.328125 18.109375 8.203125 
z
M 48.6875 27.296875 
Q 48.6875 37.203125 44.609375 42.84375 
Q 40.53125 48.484375 33.40625 48.484375 
Q 26.265625 48.484375 22.1875 42.84375 
Q 18.109375 37.203125 18.109375 27.296875 
Q 18.109375 17.390625 22.1875 11.75 
Q 26.265625 6.109375 33.40625 6.109375 
Q 40.53125 6.109375 44.609375 11.75 
Q 48.6875 17.390625 48.6875 27.296875 
z
" id="DejaVuSans-70"/>
      <path d="M 30.609375 48.390625 
Q 23.390625 48.390625 19.1875 42.75 
Q 14.984375 37.109375 14.984375 27.296875 
Q 14.984375 17.484375 19.15625 11.84375 
Q 23.34375 6.203125 30.609375 6.203125 
Q 37.796875 6.203125 41.984375 11.859375 
Q 46.1875 17.53125 46.1875 27.296875 
Q 46.1875 37.015625 41.984375 42.703125 
Q 37.796875 48.390625 30.609375 48.390625 
z
M 30.609375 56 
Q 42.328125 56 49.015625 48.375 
Q 55.71875 40.765625 55.71875 27.296875 
Q 55.71875 13.875 49.015625 6.21875 
Q 42.328125 -1.421875 30.609375 -1.421875 
Q 18.84375 -1.421875 12.171875 6.21875 
Q 5.515625 13.875 5.515625 27.296875 
Q 5.515625 40.765625 12.171875 48.375 
Q 18.84375 56 30.609375 56 
z
" id="DejaVuSans-6f"/>
      <path d="M 48.78125 52.59375 
L 48.78125 44.1875 
Q 44.96875 46.296875 41.140625 47.34375 
Q 37.3125 48.390625 33.40625 48.390625 
Q 24.65625 48.390625 19.8125 42.84375 
Q 14.984375 37.3125 14.984375 27.296875 
Q 14.984375 17.28125 19.8125 11.734375 
Q 24.65625 6.203125 33.40625 6.203125 
Q 37.3125 6.203125 41.140625 7.25 
Q 44.96875 8.296875 48.78125 10.40625 
L 48.78125 2.09375 
Q 45.015625 0.34375 40.984375 -0.53125 
Q 36.96875 -1.421875 32.421875 -1.421875 
Q 20.0625 -1.421875 12.78125 6.34375 
Q 5.515625 14.109375 5.515625 27.296875 
Q 5.515625 40.671875 12.859375 48.328125 
Q 20.21875 56 33.015625 56 
Q 37.15625 56 41.109375 55.140625 
Q 45.0625 54.296875 48.78125 52.59375 
z
" id="DejaVuSans-63"/>
      <path d="M 54.890625 33.015625 
L 54.890625 0 
L 45.90625 0 
L 45.90625 32.71875 
Q 45.90625 40.484375 42.875 44.328125 
Q 39.84375 48.1875 33.796875 48.1875 
Q 26.515625 48.1875 22.3125 43.546875 
Q 18.109375 38.921875 18.109375 30.90625 
L 18.109375 0 
L 9.078125 0 
L 9.078125 75.984375 
L 18.109375 75.984375 
L 18.109375 46.1875 
Q 21.34375 51.125 25.703125 53.5625 
Q 30.078125 56 35.796875 56 
Q 45.21875 56 50.046875 50.171875 
Q 54.890625 44.34375 54.890625 33.015625 
z
" id="DejaVuSans-68"/>
      <path d="M 44.28125 53.078125 
L 44.28125 44.578125 
Q 40.484375 46.53125 36.375 47.5 
Q 32.28125 48.484375 27.875 48.484375 
Q 21.1875 48.484375 17.84375 46.4375 
Q 14.5 44.390625 14.5 40.28125 
Q 14.5 37.15625 16.890625 35.375 
Q 19.28125 33.59375 26.515625 31.984375 
L 29.59375 31.296875 
Q 39.15625 29.25 43.1875 25.515625 
Q 47.21875 21.78125 47.21875 15.09375 
Q 47.21875 7.46875 41.1875 3.015625 
Q 35.15625 -1.421875 24.609375 -1.421875 
Q 20.21875 -1.421875 15.453125 -0.5625 
Q 10.6875 0.296875 5.421875 2 
L 5.421875 11.28125 
Q 10.40625 8.6875 15.234375 7.390625 
Q 20.0625 6.109375 24.8125 6.109375 
Q 31.15625 6.109375 34.5625 8.28125 
Q 37.984375 10.453125 37.984375 14.40625 
Q 37.984375 18.0625 35.515625 20.015625 
Q 33.0625 21.96875 24.703125 23.78125 
L 21.578125 24.515625 
Q 13.234375 26.265625 9.515625 29.90625 
Q 5.8125 33.546875 5.8125 39.890625 
Q 5.8125 47.609375 11.28125 51.796875 
Q 16.75 56 26.8125 56 
Q 31.78125 56 36.171875 55.265625 
Q 40.578125 54.546875 44.28125 53.078125 
z
" id="DejaVuSans-73"/>
     </defs>
     <g transform="translate(203.484375 280.276563)scale(0.1 -0.1)">
      <use xlink:href="#DejaVuSans-45"/>
      <use x="63.183594" xlink:href="#DejaVuSans-70"/>
      <use x="126.660156" xlink:href="#DejaVuSans-6f"/>
      <use x="187.841797" xlink:href="#DejaVuSans-63"/>
      <use x="242.822266" xlink:href="#DejaVuSans-68"/>
      <use x="306.201172" xlink:href="#DejaVuSans-73"/>
     </g>
    </g>
   </g>
   <g id="matplotlib.axis_2">
    <g id="ytick_1">
     <g id="line2d_10">
      <defs>
       <path d="M 0 0 
L -3.5 0 
" id="mb09aa6732c" style="stroke:#000000;stroke-width:0.8;"/>
      </defs>
      <g>
       <use style="stroke:#000000;stroke-width:0.8;" x="54" xlink:href="#mb09aa6732c" y="220.271071"/>
      </g>
     </g>
     <g id="text_11">
      <!-- 0.70 -->
      <defs>
       <path d="M 10.6875 12.40625 
L 21 12.40625 
L 21 0 
L 10.6875 0 
z
" id="DejaVuSans-2e"/>
      </defs>
      <g transform="translate(24.734375 224.07029)scale(0.1 -0.1)">
       <use xlink:href="#DejaVuSans-30"/>
       <use x="63.623047" xlink:href="#DejaVuSans-2e"/>
       <use x="95.410156" xlink:href="#DejaVuSans-37"/>
       <use x="159.033203" xlink:href="#DejaVuSans-30"/>
      </g>
     </g>
    </g>
    <g id="ytick_2">
     <g id="line2d_11">
      <g>
       <use style="stroke:#000000;stroke-width:0.8;" x="54" xlink:href="#mb09aa6732c" y="187.666156"/>
      </g>
     </g>
     <g id="text_12">
      <!-- 0.75 -->
      <g transform="translate(24.734375 191.465375)scale(0.1 -0.1)">
       <use xlink:href="#DejaVuSans-30"/>
       <use x="63.623047" xlink:href="#DejaVuSans-2e"/>
       <use x="95.410156" xlink:href="#DejaVuSans-37"/>
       <use x="159.033203" xlink:href="#DejaVuSans-35"/>
      </g>
     </g>
    </g>
    <g id="ytick_3">
     <g id="line2d_12">
      <g>
       <use style="stroke:#000000;stroke-width:0.8;" x="54" xlink:href="#mb09aa6732c" y="155.061242"/>
      </g>
     </g>
     <g id="text_13">
      <!-- 0.80 -->
      <defs>
       <path d="M 31.78125 34.625 
Q 24.75 34.625 20.71875 30.859375 
Q 16.703125 27.09375 16.703125 20.515625 
Q 16.703125 13.921875 20.71875 10.15625 
Q 24.75 6.390625 31.78125 6.390625 
Q 38.8125 6.390625 42.859375 10.171875 
Q 46.921875 13.96875 46.921875 20.515625 
Q 46.921875 27.09375 42.890625 30.859375 
Q 38.875 34.625 31.78125 34.625 
z
M 21.921875 38.8125 
Q 15.578125 40.375 12.03125 44.71875 
Q 8.5 49.078125 8.5 55.328125 
Q 8.5 64.0625 14.71875 69.140625 
Q 20.953125 74.21875 31.78125 74.21875 
Q 42.671875 74.21875 48.875 69.140625 
Q 55.078125 64.0625 55.078125 55.328125 
Q 55.078125 49.078125 51.53125 44.71875 
Q 48 40.375 41.703125 38.8125 
Q 48.828125 37.15625 52.796875 32.3125 
Q 56.78125 27.484375 56.78125 20.515625 
Q 56.78125 9.90625 50.3125 4.234375 
Q 43.84375 -1.421875 31.78125 -1.421875 
Q 19.734375 -1.421875 13.25 4.234375 
Q 6.78125 9.90625 6.78125 20.515625 
Q 6.78125 27.484375 10.78125 32.3125 
Q 14.796875 37.15625 21.921875 38.8125 
z
M 18.3125 54.390625 
Q 18.3125 48.734375 21.84375 45.5625 
Q 25.390625 42.390625 31.78125 42.390625 
Q 38.140625 42.390625 41.71875 45.5625 
Q 45.3125 48.734375 45.3125 54.390625 
Q 45.3125 60.0625 41.71875 63.234375 
Q 38.140625 66.40625 31.78125 66.40625 
Q 25.390625 66.40625 21.84375 63.234375 
Q 18.3125 60.0625 18.3125 54.390625 
z
" id="DejaVuSans-38"/>
      </defs>
      <g transform="translate(24.734375 158.860461)scale(0.1 -0.1)">
       <use xlink:href="#DejaVuSans-30"/>
       <use x="63.623047" xlink:href="#DejaVuSans-2e"/>
       <use x="95.410156" xlink:href="#DejaVuSans-38"/>
       <use x="159.033203" xlink:href="#DejaVuSans-30"/>
      </g>
     </g>
    </g>
    <g id="ytick_4">
     <g id="line2d_13">
      <g>
       <use style="stroke:#000000;stroke-width:0.8;" x="54" xlink:href="#mb09aa6732c" y="122.456328"/>
      </g>
     </g>
     <g id="text_14">
      <!-- 0.85 -->
      <g transform="translate(24.734375 126.255547)scale(0.1 -0.1)">
       <use xlink:href="#DejaVuSans-30"/>
       <use x="63.623047" xlink:href="#DejaVuSans-2e"/>
       <use x="95.410156" xlink:href="#DejaVuSans-38"/>
       <use x="159.033203" xlink:href="#DejaVuSans-35"/>
      </g>
     </g>
    </g>
    <g id="ytick_5">
     <g id="line2d_14">
      <g>
       <use style="stroke:#000000;stroke-width:0.8;" x="54" xlink:href="#mb09aa6732c" y="89.851414"/>
      </g>
     </g>
     <g id="text_15">
      <!-- 0.90 -->
      <defs>
       <path d="M 10.984375 1.515625 
L 10.984375 10.5 
Q 14.703125 8.734375 18.5 7.8125 
Q 22.3125 6.890625 25.984375 6.890625 
Q 35.75 6.890625 40.890625 13.453125 
Q 46.046875 20.015625 46.78125 33.40625 
Q 43.953125 29.203125 39.59375 26.953125 
Q 35.25 24.703125 29.984375 24.703125 
Q 19.046875 24.703125 12.671875 31.3125 
Q 6.296875 37.9375 6.296875 49.421875 
Q 6.296875 60.640625 12.9375 67.421875 
Q 19.578125 74.21875 30.609375 74.21875 
Q 43.265625 74.21875 49.921875 64.515625 
Q 56.59375 54.828125 56.59375 36.375 
Q 56.59375 19.140625 48.40625 8.859375 
Q 40.234375 -1.421875 26.421875 -1.421875 
Q 22.703125 -1.421875 18.890625 -0.6875 
Q 15.09375 0.046875 10.984375 1.515625 
z
M 30.609375 32.421875 
Q 37.25 32.421875 41.125 36.953125 
Q 45.015625 41.5 45.015625 49.421875 
Q 45.015625 57.28125 41.125 61.84375 
Q 37.25 66.40625 30.609375 66.40625 
Q 23.96875 66.40625 20.09375 61.84375 
Q 16.21875 57.28125 16.21875 49.421875 
Q 16.21875 41.5 20.09375 36.953125 
Q 23.96875 32.421875 30.609375 32.421875 
z
" id="DejaVuSans-39"/>
      </defs>
      <g transform="translate(24.734375 93.650632)scale(0.1 -0.1)">
       <use xlink:href="#DejaVuSans-30"/>
       <use x="63.623047" xlink:href="#DejaVuSans-2e"/>
       <use x="95.410156" xlink:href="#DejaVuSans-39"/>
       <use x="159.033203" xlink:href="#DejaVuSans-30"/>
      </g>
     </g>
    </g>
    <g id="ytick_6">
     <g id="line2d_15">
      <g>
       <use style="stroke:#000000;stroke-width:0.8;" x="54" xlink:href="#mb09aa6732c" y="57.246499"/>
      </g>
     </g>
     <g id="text_16">
      <!-- 0.95 -->
      <g transform="translate(24.734375 61.045718)scale(0.1 -0.1)">
       <use xlink:href="#DejaVuSans-30"/>
       <use x="63.623047" xlink:href="#DejaVuSans-2e"/>
       <use x="95.410156" xlink:href="#DejaVuSans-39"/>
       <use x="159.033203" xlink:href="#DejaVuSans-35"/>
      </g>
     </g>
    </g>
    <g id="text_17">
     <!-- Accuracy -->
     <defs>
      <path d="M 34.1875 63.1875 
L 20.796875 26.90625 
L 47.609375 26.90625 
z
M 28.609375 72.90625 
L 39.796875 72.90625 
L 67.578125 0 
L 57.328125 0 
L 50.6875 18.703125 
L 17.828125 18.703125 
L 11.1875 0 
L 0.78125 0 
z
" id="DejaVuSans-41"/>
      <path d="M 8.5 21.578125 
L 8.5 54.6875 
L 17.484375 54.6875 
L 17.484375 21.921875 
Q 17.484375 14.15625 20.5 10.265625 
Q 23.53125 6.390625 29.59375 6.390625 
Q 36.859375 6.390625 41.078125 11.03125 
Q 45.3125 15.671875 45.3125 23.6875 
L 45.3125 54.6875 
L 54.296875 54.6875 
L 54.296875 0 
L 45.3125 0 
L 45.3125 8.40625 
Q 42.046875 3.421875 37.71875 1 
Q 33.40625 -1.421875 27.6875 -1.421875 
Q 18.265625 -1.421875 13.375 4.4375 
Q 8.5 10.296875 8.5 21.578125 
z
M 31.109375 56 
z
" id="DejaVuSans-75"/>
      <path d="M 41.109375 46.296875 
Q 39.59375 47.171875 37.8125 47.578125 
Q 36.03125 48 33.890625 48 
Q 26.265625 48 22.1875 43.046875 
Q 18.109375 38.09375 18.109375 28.8125 
L 18.109375 0 
L 9.078125 0 
L 9.078125 54.6875 
L 18.109375 54.6875 
L 18.109375 46.1875 
Q 20.953125 51.171875 25.484375 53.578125 
Q 30.03125 56 36.53125 56 
Q 37.453125 56 38.578125 55.875 
Q 39.703125 55.765625 41.0625 55.515625 
z
" id="DejaVuSans-72"/>
      <path d="M 34.28125 27.484375 
Q 23.390625 27.484375 19.1875 25 
Q 14.984375 22.515625 14.984375 16.5 
Q 14.984375 11.71875 18.140625 8.90625 
Q 21.296875 6.109375 26.703125 6.109375 
Q 34.1875 6.109375 38.703125 11.40625 
Q 43.21875 16.703125 43.21875 25.484375 
L 43.21875 27.484375 
z
M 52.203125 31.203125 
L 52.203125 0 
L 43.21875 0 
L 43.21875 8.296875 
Q 40.140625 3.328125 35.546875 0.953125 
Q 30.953125 -1.421875 24.3125 -1.421875 
Q 15.921875 -1.421875 10.953125 3.296875 
Q 6 8.015625 6 15.921875 
Q 6 25.140625 12.171875 29.828125 
Q 18.359375 34.515625 30.609375 34.515625 
L 43.21875 34.515625 
L 43.21875 35.40625 
Q 43.21875 41.609375 39.140625 45 
Q 35.0625 48.390625 27.6875 48.390625 
Q 23 48.390625 18.546875 47.265625 
Q 14.109375 46.140625 10.015625 43.890625 
L 10.015625 52.203125 
Q 14.9375 54.109375 19.578125 55.046875 
Q 24.21875 56 28.609375 56 
Q 40.484375 56 46.34375 49.84375 
Q 52.203125 43.703125 52.203125 31.203125 
z
" id="DejaVuSans-61"/>
      <path d="M 32.171875 -5.078125 
Q 28.375 -14.84375 24.75 -17.8125 
Q 21.140625 -20.796875 15.09375 -20.796875 
L 7.90625 -20.796875 
L 7.90625 -13.28125 
L 13.1875 -13.28125 
Q 16.890625 -13.28125 18.9375 -11.515625 
Q 21 -9.765625 23.484375 -3.21875 
L 25.09375 0.875 
L 2.984375 54.6875 
L 12.5 54.6875 
L 29.59375 11.921875 
L 46.6875 54.6875 
L 56.203125 54.6875 
z
" id="DejaVuSans-79"/>
     </defs>
     <g transform="translate(18.654687 166.194844)rotate(-90)scale(0.1 -0.1)">
      <use xlink:href="#DejaVuSans-41"/>
      <use x="68.392578" xlink:href="#DejaVuSans-63"/>
      <use x="123.373047" xlink:href="#DejaVuSans-63"/>
      <use x="178.353516" xlink:href="#DejaVuSans-75"/>
      <use x="241.732422" xlink:href="#DejaVuSans-72"/>
      <use x="282.845703" xlink:href="#DejaVuSans-61"/>
      <use x="344.125" xlink:href="#DejaVuSans-63"/>
      <use x="399.105469" xlink:href="#DejaVuSans-79"/>
     </g>
    </g>
   </g>
   <g id="line2d_16">
    <path clip-path="url(#pf797d6d562)" d="M 69.218182 241.714236 
L 70.747647 238.660242 
L 72.277113 231.802342 
L 75.336044 161.03881 
L 76.865509 141.062866 
L 78.394975 127.901349 
L 79.92444 119.695778 
L 81.453906 114.185548 
L 82.983371 109.75128 
L 84.512837 105.751744 
L 86.042302 102.676013 
L 87.571768 100.741455 
L 89.101233 98.14393 
L 90.630699 95.959401 
L 92.160164 94.111789 
L 93.68963 92.829329 
L 95.219095 91.383845 
L 96.748561 90.13399 
L 98.278026 88.688505 
L 99.807492 87.482123 
L 101.336958 86.895235 
L 102.866423 85.862746 
L 104.395889 85.51496 
L 105.925354 83.439114 
L 107.45482 82.623991 
L 108.984285 82.558781 
L 110.513751 81.276321 
L 112.043216 80.993745 
L 113.572682 80.374252 
L 115.102147 78.885294 
L 116.631613 79.146133 
L 118.161078 78.178854 
L 119.690544 77.070287 
L 121.220009 77.135497 
L 122.749475 76.244296 
L 125.808406 75.103124 
L 127.337871 74.440157 
L 128.867337 74.624919 
L 130.396802 74.277133 
L 131.926268 73.114224 
L 133.455733 73.212039 
L 134.985199 72.212155 
L 136.514664 71.864369 
L 138.04413 71.983921 
L 139.573595 71.081851 
L 141.103061 70.744934 
L 142.632526 70.158045 
L 144.161992 70.408016 
L 145.691457 69.81026 
L 147.220923 69.429869 
L 148.750388 69.342923 
L 151.809319 68.190882 
L 153.338785 67.201867 
L 154.86825 67.31055 
L 156.397716 67.277945 
L 157.927181 66.854081 
L 159.456647 66.832344 
L 160.986112 66.071563 
L 162.515578 65.093415 
L 164.045043 65.289045 
L 165.574509 65.365123 
L 167.103974 65.223835 
L 168.63344 64.560868 
L 170.162905 64.093531 
L 171.692371 64.865181 
L 174.751302 63.180594 
L 176.280767 63.245804 
L 177.810233 62.745862 
L 179.339698 63.474038 
L 180.869164 62.430681 
L 182.39863 62.017685 
L 183.928095 61.365587 
L 185.457561 62.811071 
L 186.987026 61.496007 
L 188.516492 60.713489 
L 190.045957 61.300377 
L 191.575423 61.072143 
L 194.634354 60.246152 
L 196.163819 60.452649 
L 197.693285 59.800551 
L 199.22275 59.48537 
L 200.752216 60.050522 
L 203.811147 58.539828 
L 205.340612 58.583301 
L 206.870078 58.833272 
L 208.399543 58.311593 
L 209.929009 58.539828 
L 211.458474 58.887613 
L 212.98794 57.844256 
L 214.517405 58.029017 
L 216.046871 57.398656 
L 219.105802 56.746557 
L 220.635267 56.735689 
L 222.164733 56.844372 
L 223.694198 56.724821 
L 226.753129 56.34443 
L 228.282595 55.561912 
L 229.81206 55.953171 
L 231.341526 55.301073 
L 232.870991 55.355414 
L 234.400457 55.605385 
L 235.929922 54.703316 
L 237.459388 54.572896 
L 238.988853 54.29032 
L 240.518319 54.659843 
L 242.047784 54.127296 
L 243.57725 54.594633 
L 245.106715 53.996876 
L 246.636181 54.094691 
L 248.165646 53.768642 
L 249.695112 53.627354 
L 251.224577 53.344778 
L 252.754043 53.475198 
L 255.812974 53.2687 
L 257.342439 52.75789 
L 258.871905 52.942651 
L 261.930836 52.420972 
L 263.460302 52.43184 
L 264.989767 51.888425 
L 266.519233 52.225343 
L 268.048698 51.692796 
L 269.578164 51.779742 
L 274.16656 51.562376 
L 275.696026 50.562492 
L 277.225491 51.997108 
L 280.284422 50.692912 
L 281.813888 50.986356 
L 283.343353 51.073302 
L 286.402284 50.225575 
L 287.93175 50.453809 
L 290.990681 50.19297 
L 292.520146 49.649554 
L 295.579077 49.671291 
L 297.108543 49.214822 
L 298.638008 49.040929 
L 300.167474 49.062666 
L 301.696939 48.823563 
L 303.226405 49.453925 
L 304.75587 49.127876 
L 306.285336 48.486646 
L 307.814801 48.551856 
L 309.344267 48.095387 
L 310.873732 48.856168 
L 312.403198 47.693259 
L 313.932663 47.410684 
L 315.462129 48.551856 
L 316.991594 47.541103 
L 318.52106 47.997572 
L 321.579991 47.36721 
L 324.638922 47.05203 
L 326.168387 47.215054 
L 327.697853 47.551972 
L 329.227318 46.519483 
L 330.756784 47.291132 
L 332.286249 46.497746 
L 333.815715 46.878137 
L 335.34518 46.28038 
L 336.874646 46.584692 
L 338.404111 46.693375 
L 339.933577 46.28038 
L 341.463042 46.497746 
L 342.992508 46.193433 
L 344.521974 46.639034 
L 346.051439 46.182565 
L 347.580905 45.954331 
L 349.11037 46.095619 
L 350.639836 45.693491 
L 352.169301 45.747833 
L 353.698767 45.606545 
L 355.228232 45.258759 
L 356.757698 45.715228 
L 358.287163 44.519715 
L 359.816629 44.987052 
L 361.346094 45.193549 
L 362.87556 44.465373 
L 364.405025 45.400047 
L 365.934491 44.758817 
L 367.463956 44.726212 
L 368.993422 44.497978 
L 370.522887 44.737081 
L 372.052353 44.671871 
L 373.581818 44.443636 
L 373.581818 44.443636 
" style="fill:none;stroke:#0000ff;stroke-linecap:square;stroke-width:1.5;"/>
    <defs>
     <path d="M 0 3 
C 0.795609 3 1.55874 2.683901 2.12132 2.12132 
C 2.683901 1.55874 3 0.795609 3 0 
C 3 -0.795609 2.683901 -1.55874 2.12132 -2.12132 
C 1.55874 -2.683901 0.795609 -3 0 -3 
C -0.795609 -3 -1.55874 -2.683901 -2.12132 -2.12132 
C -2.683901 -1.55874 -3 -0.795609 -3 0 
C -3 0.795609 -2.683901 1.55874 -2.12132 2.12132 
C -1.55874 2.683901 -0.795609 3 0 3 
z
" id="madae2d6624" style="stroke:#0000ff;"/>
    </defs>
    <g clip-path="url(#pf797d6d562)">
     <use style="fill:#ffffff;stroke:#0000ff;" x="69.218182" xlink:href="#madae2d6624" y="241.714236"/>
     <use style="fill:#ffffff;stroke:#0000ff;" x="70.747647" xlink:href="#madae2d6624" y="238.660242"/>
     <use style="fill:#ffffff;stroke:#0000ff;" x="72.277113" xlink:href="#madae2d6624" y="231.802342"/>
     <use style="fill:#ffffff;stroke:#0000ff;" x="73.806578" xlink:href="#madae2d6624" y="197.078108"/>
     <use style="fill:#ffffff;stroke:#0000ff;" x="75.336044" xlink:href="#madae2d6624" y="161.03881"/>
     <use style="fill:#ffffff;stroke:#0000ff;" x="76.865509" xlink:href="#madae2d6624" y="141.062866"/>
     <use style="fill:#ffffff;stroke:#0000ff;" x="78.394975" xlink:href="#madae2d6624" y="127.901349"/>
     <use style="fill:#ffffff;stroke:#0000ff;" x="79.92444" xlink:href="#madae2d6624" y="119.695778"/>
     <use style="fill:#ffffff;stroke:#0000ff;" x="81.453906" xlink:href="#madae2d6624" y="114.185548"/>
     <use style="fill:#ffffff;stroke:#0000ff;" x="82.983371" xlink:href="#madae2d6624" y="109.75128"/>
     <use style="fill:#ffffff;stroke:#0000ff;" x="84.512837" xlink:href="#madae2d6624" y="105.751744"/>
     <use style="fill:#ffffff;stroke:#0000ff;" x="86.042302" xlink:href="#madae2d6624" y="102.676013"/>
     <use style="fill:#ffffff;stroke:#0000ff;" x="87.571768" xlink:href="#madae2d6624" y="100.741455"/>
     <use style="fill:#ffffff;stroke:#0000ff;" x="89.101233" xlink:href="#madae2d6624" y="98.14393"/>
     <use style="fill:#ffffff;stroke:#0000ff;" x="90.630699" xlink:href="#madae2d6624" y="95.959401"/>
     <use style="fill:#ffffff;stroke:#0000ff;" x="92.160164" xlink:href="#madae2d6624" y="94.111789"/>
     <use style="fill:#ffffff;stroke:#0000ff;" x="93.68963" xlink:href="#madae2d6624" y="92.829329"/>
     <use style="fill:#ffffff;stroke:#0000ff;" x="95.219095" xlink:href="#madae2d6624" y="91.383845"/>
     <use style="fill:#ffffff;stroke:#0000ff;" x="96.748561" xlink:href="#madae2d6624" y="90.13399"/>
     <use style="fill:#ffffff;stroke:#0000ff;" x="98.278026" xlink:href="#madae2d6624" y="88.688505"/>
     <use style="fill:#ffffff;stroke:#0000ff;" x="99.807492" xlink:href="#madae2d6624" y="87.482123"/>
     <use style="fill:#ffffff;stroke:#0000ff;" x="101.336958" xlink:href="#madae2d6624" y="86.895235"/>
     <use style="fill:#ffffff;stroke:#0000ff;" x="102.866423" xlink:href="#madae2d6624" y="85.862746"/>
     <use style="fill:#ffffff;stroke:#0000ff;" x="104.395889" xlink:href="#madae2d6624" y="85.51496"/>
     <use style="fill:#ffffff;stroke:#0000ff;" x="105.925354" xlink:href="#madae2d6624" y="83.439114"/>
     <use style="fill:#ffffff;stroke:#0000ff;" x="107.45482" xlink:href="#madae2d6624" y="82.623991"/>
     <use style="fill:#ffffff;stroke:#0000ff;" x="108.984285" xlink:href="#madae2d6624" y="82.558781"/>
     <use style="fill:#ffffff;stroke:#0000ff;" x="110.513751" xlink:href="#madae2d6624" y="81.276321"/>
     <use style="fill:#ffffff;stroke:#0000ff;" x="112.043216" xlink:href="#madae2d6624" y="80.993745"/>
     <use style="fill:#ffffff;stroke:#0000ff;" x="113.572682" xlink:href="#madae2d6624" y="80.374252"/>
     <use style="fill:#ffffff;stroke:#0000ff;" x="115.102147" xlink:href="#madae2d6624" y="78.885294"/>
     <use style="fill:#ffffff;stroke:#0000ff;" x="116.631613" xlink:href="#madae2d6624" y="79.146133"/>
     <use style="fill:#ffffff;stroke:#0000ff;" x="118.161078" xlink:href="#madae2d6624" y="78.178854"/>
     <use style="fill:#ffffff;stroke:#0000ff;" x="119.690544" xlink:href="#madae2d6624" y="77.070287"/>
     <use style="fill:#ffffff;stroke:#0000ff;" x="121.220009" xlink:href="#madae2d6624" y="77.135497"/>
     <use style="fill:#ffffff;stroke:#0000ff;" x="122.749475" xlink:href="#madae2d6624" y="76.244296"/>
     <use style="fill:#ffffff;stroke:#0000ff;" x="124.27894" xlink:href="#madae2d6624" y="75.700881"/>
     <use style="fill:#ffffff;stroke:#0000ff;" x="125.808406" xlink:href="#madae2d6624" y="75.103124"/>
     <use style="fill:#ffffff;stroke:#0000ff;" x="127.337871" xlink:href="#madae2d6624" y="74.440157"/>
     <use style="fill:#ffffff;stroke:#0000ff;" x="128.867337" xlink:href="#madae2d6624" y="74.624919"/>
     <use style="fill:#ffffff;stroke:#0000ff;" x="130.396802" xlink:href="#madae2d6624" y="74.277133"/>
     <use style="fill:#ffffff;stroke:#0000ff;" x="131.926268" xlink:href="#madae2d6624" y="73.114224"/>
     <use style="fill:#ffffff;stroke:#0000ff;" x="133.455733" xlink:href="#madae2d6624" y="73.212039"/>
     <use style="fill:#ffffff;stroke:#0000ff;" x="134.985199" xlink:href="#madae2d6624" y="72.212155"/>
     <use style="fill:#ffffff;stroke:#0000ff;" x="136.514664" xlink:href="#madae2d6624" y="71.864369"/>
     <use style="fill:#ffffff;stroke:#0000ff;" x="138.04413" xlink:href="#madae2d6624" y="71.983921"/>
     <use style="fill:#ffffff;stroke:#0000ff;" x="139.573595" xlink:href="#madae2d6624" y="71.081851"/>
     <use style="fill:#ffffff;stroke:#0000ff;" x="141.103061" xlink:href="#madae2d6624" y="70.744934"/>
     <use style="fill:#ffffff;stroke:#0000ff;" x="142.632526" xlink:href="#madae2d6624" y="70.158045"/>
     <use style="fill:#ffffff;stroke:#0000ff;" x="144.161992" xlink:href="#madae2d6624" y="70.408016"/>
     <use style="fill:#ffffff;stroke:#0000ff;" x="145.691457" xlink:href="#madae2d6624" y="69.81026"/>
     <use style="fill:#ffffff;stroke:#0000ff;" x="147.220923" xlink:href="#madae2d6624" y="69.429869"/>
     <use style="fill:#ffffff;stroke:#0000ff;" x="148.750388" xlink:href="#madae2d6624" y="69.342923"/>
     <use style="fill:#ffffff;stroke:#0000ff;" x="150.279854" xlink:href="#madae2d6624" y="68.799507"/>
     <use style="fill:#ffffff;stroke:#0000ff;" x="151.809319" xlink:href="#madae2d6624" y="68.190882"/>
     <use style="fill:#ffffff;stroke:#0000ff;" x="153.338785" xlink:href="#madae2d6624" y="67.201867"/>
     <use style="fill:#ffffff;stroke:#0000ff;" x="154.86825" xlink:href="#madae2d6624" y="67.31055"/>
     <use style="fill:#ffffff;stroke:#0000ff;" x="156.397716" xlink:href="#madae2d6624" y="67.277945"/>
     <use style="fill:#ffffff;stroke:#0000ff;" x="157.927181" xlink:href="#madae2d6624" y="66.854081"/>
     <use style="fill:#ffffff;stroke:#0000ff;" x="159.456647" xlink:href="#madae2d6624" y="66.832344"/>
     <use style="fill:#ffffff;stroke:#0000ff;" x="160.986112" xlink:href="#madae2d6624" y="66.071563"/>
     <use style="fill:#ffffff;stroke:#0000ff;" x="162.515578" xlink:href="#madae2d6624" y="65.093415"/>
     <use style="fill:#ffffff;stroke:#0000ff;" x="164.045043" xlink:href="#madae2d6624" y="65.289045"/>
     <use style="fill:#ffffff;stroke:#0000ff;" x="165.574509" xlink:href="#madae2d6624" y="65.365123"/>
     <use style="fill:#ffffff;stroke:#0000ff;" x="167.103974" xlink:href="#madae2d6624" y="65.223835"/>
     <use style="fill:#ffffff;stroke:#0000ff;" x="168.63344" xlink:href="#madae2d6624" y="64.560868"/>
     <use style="fill:#ffffff;stroke:#0000ff;" x="170.162905" xlink:href="#madae2d6624" y="64.093531"/>
     <use style="fill:#ffffff;stroke:#0000ff;" x="171.692371" xlink:href="#madae2d6624" y="64.865181"/>
     <use style="fill:#ffffff;stroke:#0000ff;" x="173.221836" xlink:href="#madae2d6624" y="64.03919"/>
     <use style="fill:#ffffff;stroke:#0000ff;" x="174.751302" xlink:href="#madae2d6624" y="63.180594"/>
     <use style="fill:#ffffff;stroke:#0000ff;" x="176.280767" xlink:href="#madae2d6624" y="63.245804"/>
     <use style="fill:#ffffff;stroke:#0000ff;" x="177.810233" xlink:href="#madae2d6624" y="62.745862"/>
     <use style="fill:#ffffff;stroke:#0000ff;" x="179.339698" xlink:href="#madae2d6624" y="63.474038"/>
     <use style="fill:#ffffff;stroke:#0000ff;" x="180.869164" xlink:href="#madae2d6624" y="62.430681"/>
     <use style="fill:#ffffff;stroke:#0000ff;" x="182.39863" xlink:href="#madae2d6624" y="62.017685"/>
     <use style="fill:#ffffff;stroke:#0000ff;" x="183.928095" xlink:href="#madae2d6624" y="61.365587"/>
     <use style="fill:#ffffff;stroke:#0000ff;" x="185.457561" xlink:href="#madae2d6624" y="62.811071"/>
     <use style="fill:#ffffff;stroke:#0000ff;" x="186.987026" xlink:href="#madae2d6624" y="61.496007"/>
     <use style="fill:#ffffff;stroke:#0000ff;" x="188.516492" xlink:href="#madae2d6624" y="60.713489"/>
     <use style="fill:#ffffff;stroke:#0000ff;" x="190.045957" xlink:href="#madae2d6624" y="61.300377"/>
     <use style="fill:#ffffff;stroke:#0000ff;" x="191.575423" xlink:href="#madae2d6624" y="61.072143"/>
     <use style="fill:#ffffff;stroke:#0000ff;" x="193.104888" xlink:href="#madae2d6624" y="60.670015"/>
     <use style="fill:#ffffff;stroke:#0000ff;" x="194.634354" xlink:href="#madae2d6624" y="60.246152"/>
     <use style="fill:#ffffff;stroke:#0000ff;" x="196.163819" xlink:href="#madae2d6624" y="60.452649"/>
     <use style="fill:#ffffff;stroke:#0000ff;" x="197.693285" xlink:href="#madae2d6624" y="59.800551"/>
     <use style="fill:#ffffff;stroke:#0000ff;" x="199.22275" xlink:href="#madae2d6624" y="59.48537"/>
     <use style="fill:#ffffff;stroke:#0000ff;" x="200.752216" xlink:href="#madae2d6624" y="60.050522"/>
     <use style="fill:#ffffff;stroke:#0000ff;" x="202.281681" xlink:href="#madae2d6624" y="59.322346"/>
     <use style="fill:#ffffff;stroke:#0000ff;" x="203.811147" xlink:href="#madae2d6624" y="58.539828"/>
     <use style="fill:#ffffff;stroke:#0000ff;" x="205.340612" xlink:href="#madae2d6624" y="58.583301"/>
     <use style="fill:#ffffff;stroke:#0000ff;" x="206.870078" xlink:href="#madae2d6624" y="58.833272"/>
     <use style="fill:#ffffff;stroke:#0000ff;" x="208.399543" xlink:href="#madae2d6624" y="58.311593"/>
     <use style="fill:#ffffff;stroke:#0000ff;" x="209.929009" xlink:href="#madae2d6624" y="58.539828"/>
     <use style="fill:#ffffff;stroke:#0000ff;" x="211.458474" xlink:href="#madae2d6624" y="58.887613"/>
     <use style="fill:#ffffff;stroke:#0000ff;" x="212.98794" xlink:href="#madae2d6624" y="57.844256"/>
     <use style="fill:#ffffff;stroke:#0000ff;" x="214.517405" xlink:href="#madae2d6624" y="58.029017"/>
     <use style="fill:#ffffff;stroke:#0000ff;" x="216.046871" xlink:href="#madae2d6624" y="57.398656"/>
     <use style="fill:#ffffff;stroke:#0000ff;" x="217.576336" xlink:href="#madae2d6624" y="57.11608"/>
     <use style="fill:#ffffff;stroke:#0000ff;" x="219.105802" xlink:href="#madae2d6624" y="56.746557"/>
     <use style="fill:#ffffff;stroke:#0000ff;" x="220.635267" xlink:href="#madae2d6624" y="56.735689"/>
     <use style="fill:#ffffff;stroke:#0000ff;" x="222.164733" xlink:href="#madae2d6624" y="56.844372"/>
     <use style="fill:#ffffff;stroke:#0000ff;" x="223.694198" xlink:href="#madae2d6624" y="56.724821"/>
     <use style="fill:#ffffff;stroke:#0000ff;" x="225.223664" xlink:href="#madae2d6624" y="56.485718"/>
     <use style="fill:#ffffff;stroke:#0000ff;" x="226.753129" xlink:href="#madae2d6624" y="56.34443"/>
     <use style="fill:#ffffff;stroke:#0000ff;" x="228.282595" xlink:href="#madae2d6624" y="55.561912"/>
     <use style="fill:#ffffff;stroke:#0000ff;" x="229.81206" xlink:href="#madae2d6624" y="55.953171"/>
     <use style="fill:#ffffff;stroke:#0000ff;" x="231.341526" xlink:href="#madae2d6624" y="55.301073"/>
     <use style="fill:#ffffff;stroke:#0000ff;" x="232.870991" xlink:href="#madae2d6624" y="55.355414"/>
     <use style="fill:#ffffff;stroke:#0000ff;" x="234.400457" xlink:href="#madae2d6624" y="55.605385"/>
     <use style="fill:#ffffff;stroke:#0000ff;" x="235.929922" xlink:href="#madae2d6624" y="54.703316"/>
     <use style="fill:#ffffff;stroke:#0000ff;" x="237.459388" xlink:href="#madae2d6624" y="54.572896"/>
     <use style="fill:#ffffff;stroke:#0000ff;" x="238.988853" xlink:href="#madae2d6624" y="54.29032"/>
     <use style="fill:#ffffff;stroke:#0000ff;" x="240.518319" xlink:href="#madae2d6624" y="54.659843"/>
     <use style="fill:#ffffff;stroke:#0000ff;" x="242.047784" xlink:href="#madae2d6624" y="54.127296"/>
     <use style="fill:#ffffff;stroke:#0000ff;" x="243.57725" xlink:href="#madae2d6624" y="54.594633"/>
     <use style="fill:#ffffff;stroke:#0000ff;" x="245.106715" xlink:href="#madae2d6624" y="53.996876"/>
     <use style="fill:#ffffff;stroke:#0000ff;" x="246.636181" xlink:href="#madae2d6624" y="54.094691"/>
     <use style="fill:#ffffff;stroke:#0000ff;" x="248.165646" xlink:href="#madae2d6624" y="53.768642"/>
     <use style="fill:#ffffff;stroke:#0000ff;" x="249.695112" xlink:href="#madae2d6624" y="53.627354"/>
     <use style="fill:#ffffff;stroke:#0000ff;" x="251.224577" xlink:href="#madae2d6624" y="53.344778"/>
     <use style="fill:#ffffff;stroke:#0000ff;" x="252.754043" xlink:href="#madae2d6624" y="53.475198"/>
     <use style="fill:#ffffff;stroke:#0000ff;" x="254.283508" xlink:href="#madae2d6624" y="53.366515"/>
     <use style="fill:#ffffff;stroke:#0000ff;" x="255.812974" xlink:href="#madae2d6624" y="53.2687"/>
     <use style="fill:#ffffff;stroke:#0000ff;" x="257.342439" xlink:href="#madae2d6624" y="52.75789"/>
     <use style="fill:#ffffff;stroke:#0000ff;" x="258.871905" xlink:href="#madae2d6624" y="52.942651"/>
     <use style="fill:#ffffff;stroke:#0000ff;" x="260.40137" xlink:href="#madae2d6624" y="52.649206"/>
     <use style="fill:#ffffff;stroke:#0000ff;" x="261.930836" xlink:href="#madae2d6624" y="52.420972"/>
     <use style="fill:#ffffff;stroke:#0000ff;" x="263.460302" xlink:href="#madae2d6624" y="52.43184"/>
     <use style="fill:#ffffff;stroke:#0000ff;" x="264.989767" xlink:href="#madae2d6624" y="51.888425"/>
     <use style="fill:#ffffff;stroke:#0000ff;" x="266.519233" xlink:href="#madae2d6624" y="52.225343"/>
     <use style="fill:#ffffff;stroke:#0000ff;" x="268.048698" xlink:href="#madae2d6624" y="51.692796"/>
     <use style="fill:#ffffff;stroke:#0000ff;" x="269.578164" xlink:href="#madae2d6624" y="51.779742"/>
     <use style="fill:#ffffff;stroke:#0000ff;" x="271.107629" xlink:href="#madae2d6624" y="51.692796"/>
     <use style="fill:#ffffff;stroke:#0000ff;" x="272.637095" xlink:href="#madae2d6624" y="51.714532"/>
     <use style="fill:#ffffff;stroke:#0000ff;" x="274.16656" xlink:href="#madae2d6624" y="51.562376"/>
     <use style="fill:#ffffff;stroke:#0000ff;" x="275.696026" xlink:href="#madae2d6624" y="50.562492"/>
     <use style="fill:#ffffff;stroke:#0000ff;" x="277.225491" xlink:href="#madae2d6624" y="51.997108"/>
     <use style="fill:#ffffff;stroke:#0000ff;" x="278.754957" xlink:href="#madae2d6624" y="51.323273"/>
     <use style="fill:#ffffff;stroke:#0000ff;" x="280.284422" xlink:href="#madae2d6624" y="50.692912"/>
     <use style="fill:#ffffff;stroke:#0000ff;" x="281.813888" xlink:href="#madae2d6624" y="50.986356"/>
     <use style="fill:#ffffff;stroke:#0000ff;" x="283.343353" xlink:href="#madae2d6624" y="51.073302"/>
     <use style="fill:#ffffff;stroke:#0000ff;" x="284.872819" xlink:href="#madae2d6624" y="50.682043"/>
     <use style="fill:#ffffff;stroke:#0000ff;" x="286.402284" xlink:href="#madae2d6624" y="50.225575"/>
     <use style="fill:#ffffff;stroke:#0000ff;" x="287.93175" xlink:href="#madae2d6624" y="50.453809"/>
     <use style="fill:#ffffff;stroke:#0000ff;" x="289.461215" xlink:href="#madae2d6624" y="50.279916"/>
     <use style="fill:#ffffff;stroke:#0000ff;" x="290.990681" xlink:href="#madae2d6624" y="50.19297"/>
     <use style="fill:#ffffff;stroke:#0000ff;" x="292.520146" xlink:href="#madae2d6624" y="49.649554"/>
     <use style="fill:#ffffff;stroke:#0000ff;" x="294.049612" xlink:href="#madae2d6624" y="49.660423"/>
     <use style="fill:#ffffff;stroke:#0000ff;" x="295.579077" xlink:href="#madae2d6624" y="49.671291"/>
     <use style="fill:#ffffff;stroke:#0000ff;" x="297.108543" xlink:href="#madae2d6624" y="49.214822"/>
     <use style="fill:#ffffff;stroke:#0000ff;" x="298.638008" xlink:href="#madae2d6624" y="49.040929"/>
     <use style="fill:#ffffff;stroke:#0000ff;" x="300.167474" xlink:href="#madae2d6624" y="49.062666"/>
     <use style="fill:#ffffff;stroke:#0000ff;" x="301.696939" xlink:href="#madae2d6624" y="48.823563"/>
     <use style="fill:#ffffff;stroke:#0000ff;" x="303.226405" xlink:href="#madae2d6624" y="49.453925"/>
     <use style="fill:#ffffff;stroke:#0000ff;" x="304.75587" xlink:href="#madae2d6624" y="49.127876"/>
     <use style="fill:#ffffff;stroke:#0000ff;" x="306.285336" xlink:href="#madae2d6624" y="48.486646"/>
     <use style="fill:#ffffff;stroke:#0000ff;" x="307.814801" xlink:href="#madae2d6624" y="48.551856"/>
     <use style="fill:#ffffff;stroke:#0000ff;" x="309.344267" xlink:href="#madae2d6624" y="48.095387"/>
     <use style="fill:#ffffff;stroke:#0000ff;" x="310.873732" xlink:href="#madae2d6624" y="48.856168"/>
     <use style="fill:#ffffff;stroke:#0000ff;" x="312.403198" xlink:href="#madae2d6624" y="47.693259"/>
     <use style="fill:#ffffff;stroke:#0000ff;" x="313.932663" xlink:href="#madae2d6624" y="47.410684"/>
     <use style="fill:#ffffff;stroke:#0000ff;" x="315.462129" xlink:href="#madae2d6624" y="48.551856"/>
     <use style="fill:#ffffff;stroke:#0000ff;" x="316.991594" xlink:href="#madae2d6624" y="47.541103"/>
     <use style="fill:#ffffff;stroke:#0000ff;" x="318.52106" xlink:href="#madae2d6624" y="47.997572"/>
     <use style="fill:#ffffff;stroke:#0000ff;" x="320.050525" xlink:href="#madae2d6624" y="47.704128"/>
     <use style="fill:#ffffff;stroke:#0000ff;" x="321.579991" xlink:href="#madae2d6624" y="47.36721"/>
     <use style="fill:#ffffff;stroke:#0000ff;" x="323.109456" xlink:href="#madae2d6624" y="47.236791"/>
     <use style="fill:#ffffff;stroke:#0000ff;" x="324.638922" xlink:href="#madae2d6624" y="47.05203"/>
     <use style="fill:#ffffff;stroke:#0000ff;" x="326.168387" xlink:href="#madae2d6624" y="47.215054"/>
     <use style="fill:#ffffff;stroke:#0000ff;" x="327.697853" xlink:href="#madae2d6624" y="47.551972"/>
     <use style="fill:#ffffff;stroke:#0000ff;" x="329.227318" xlink:href="#madae2d6624" y="46.519483"/>
     <use style="fill:#ffffff;stroke:#0000ff;" x="330.756784" xlink:href="#madae2d6624" y="47.291132"/>
     <use style="fill:#ffffff;stroke:#0000ff;" x="332.286249" xlink:href="#madae2d6624" y="46.497746"/>
     <use style="fill:#ffffff;stroke:#0000ff;" x="333.815715" xlink:href="#madae2d6624" y="46.878137"/>
     <use style="fill:#ffffff;stroke:#0000ff;" x="335.34518" xlink:href="#madae2d6624" y="46.28038"/>
     <use style="fill:#ffffff;stroke:#0000ff;" x="336.874646" xlink:href="#madae2d6624" y="46.584692"/>
     <use style="fill:#ffffff;stroke:#0000ff;" x="338.404111" xlink:href="#madae2d6624" y="46.693375"/>
     <use style="fill:#ffffff;stroke:#0000ff;" x="339.933577" xlink:href="#madae2d6624" y="46.28038"/>
     <use style="fill:#ffffff;stroke:#0000ff;" x="341.463042" xlink:href="#madae2d6624" y="46.497746"/>
     <use style="fill:#ffffff;stroke:#0000ff;" x="342.992508" xlink:href="#madae2d6624" y="46.193433"/>
     <use style="fill:#ffffff;stroke:#0000ff;" x="344.521974" xlink:href="#madae2d6624" y="46.639034"/>
     <use style="fill:#ffffff;stroke:#0000ff;" x="346.051439" xlink:href="#madae2d6624" y="46.182565"/>
     <use style="fill:#ffffff;stroke:#0000ff;" x="347.580905" xlink:href="#madae2d6624" y="45.954331"/>
     <use style="fill:#ffffff;stroke:#0000ff;" x="349.11037" xlink:href="#madae2d6624" y="46.095619"/>
     <use style="fill:#ffffff;stroke:#0000ff;" x="350.639836" xlink:href="#madae2d6624" y="45.693491"/>
     <use style="fill:#ffffff;stroke:#0000ff;" x="352.169301" xlink:href="#madae2d6624" y="45.747833"/>
     <use style="fill:#ffffff;stroke:#0000ff;" x="353.698767" xlink:href="#madae2d6624" y="45.606545"/>
     <use style="fill:#ffffff;stroke:#0000ff;" x="355.228232" xlink:href="#madae2d6624" y="45.258759"/>
     <use style="fill:#ffffff;stroke:#0000ff;" x="356.757698" xlink:href="#madae2d6624" y="45.715228"/>
     <use style="fill:#ffffff;stroke:#0000ff;" x="358.287163" xlink:href="#madae2d6624" y="44.519715"/>
     <use style="fill:#ffffff;stroke:#0000ff;" x="359.816629" xlink:href="#madae2d6624" y="44.987052"/>
     <use style="fill:#ffffff;stroke:#0000ff;" x="361.346094" xlink:href="#madae2d6624" y="45.193549"/>
     <use style="fill:#ffffff;stroke:#0000ff;" x="362.87556" xlink:href="#madae2d6624" y="44.465373"/>
     <use style="fill:#ffffff;stroke:#0000ff;" x="364.405025" xlink:href="#madae2d6624" y="45.400047"/>
     <use style="fill:#ffffff;stroke:#0000ff;" x="365.934491" xlink:href="#madae2d6624" y="44.758817"/>
     <use style="fill:#ffffff;stroke:#0000ff;" x="367.463956" xlink:href="#madae2d6624" y="44.726212"/>
     <use style="fill:#ffffff;stroke:#0000ff;" x="368.993422" xlink:href="#madae2d6624" y="44.497978"/>
     <use style="fill:#ffffff;stroke:#0000ff;" x="370.522887" xlink:href="#madae2d6624" y="44.737081"/>
     <use style="fill:#ffffff;stroke:#0000ff;" x="372.052353" xlink:href="#madae2d6624" y="44.671871"/>
     <use style="fill:#ffffff;stroke:#0000ff;" x="373.581818" xlink:href="#madae2d6624" y="44.443636"/>
    </g>
   </g>
   <g id="line2d_17">
    <path clip-path="url(#pf797d6d562)" d="M 69.218182 242.116364 
L 70.747647 241.464265 
L 72.277113 228.29188 
L 73.806578 191.578746 
L 75.336044 159.49551 
L 76.865509 150.822603 
L 78.394975 141.301968 
L 79.92444 139.606512 
L 81.453906 136.998119 
L 82.983371 131.064025 
L 84.512837 130.020668 
L 86.042302 130.281507 
L 87.571768 126.368918 
L 89.101233 127.021016 
L 90.630699 125.71682 
L 92.160164 126.760177 
L 93.68963 124.021364 
L 95.219095 123.434475 
L 96.748561 123.304056 
L 98.278026 122.978007 
L 99.807492 123.630105 
L 101.336958 123.238846 
L 102.866423 125.847239 
L 104.395889 122.065069 
L 105.925354 123.564895 
L 107.45482 123.369265 
L 108.984285 122.260699 
L 110.513751 123.238846 
L 112.043216 121.412971 
L 113.572682 121.282551 
L 115.102147 121.999859 
L 116.631613 124.282203 
L 118.161078 123.173636 
L 119.690544 122.717168 
L 121.220009 122.456328 
L 122.749475 123.890944 
L 124.27894 122.912797 
L 125.808406 122.847587 
L 127.337871 123.304056 
L 128.867337 124.151784 
L 130.396802 122.325908 
L 131.926268 123.108426 
L 133.455733 121.86944 
L 134.985199 121.412971 
L 136.514664 120.826082 
L 138.04413 124.347413 
L 139.573595 123.825734 
L 141.103061 122.782377 
L 144.161992 122.391118 
L 145.691457 124.803882 
L 147.220923 122.130279 
L 148.750388 123.369266 
L 150.279854 123.043217 
L 151.809319 123.434476 
L 153.338785 124.673462 
L 154.86825 123.760525 
L 156.397716 123.564895 
L 157.927181 123.238846 
L 159.456647 123.825735 
L 160.986112 123.108427 
L 162.515578 123.499685 
L 164.045043 122.586748 
L 165.574509 122.521538 
L 167.103974 122.912797 
L 168.63344 121.73902 
L 170.162905 123.499686 
L 171.692371 123.434476 
L 173.221836 122.847587 
L 174.751302 123.760525 
L 176.280767 124.021364 
L 177.810233 122.130279 
L 179.339698 124.021364 
L 180.869164 123.173636 
L 182.39863 121.934649 
L 183.928095 124.738672 
L 185.457561 125.71682 
L 186.987026 123.043217 
L 188.516492 123.238846 
L 190.045957 124.477833 
L 191.575423 123.108427 
L 193.104888 124.151783 
L 194.634354 122.847586 
L 196.163819 124.021363 
L 197.693285 122.065069 
L 199.22275 123.695315 
L 200.752216 124.477832 
L 202.281681 124.543043 
L 203.811147 123.499685 
L 205.340612 124.021364 
L 206.870078 124.151784 
L 208.399543 122.260699 
L 209.929009 121.999859 
L 211.458474 122.978007 
L 212.98794 122.847587 
L 214.517405 123.304056 
L 216.046871 123.108427 
L 217.576336 121.152132 
L 219.105802 122.065069 
L 220.635267 122.325908 
L 222.164733 122.260699 
L 223.694198 123.304056 
L 225.223664 122.391119 
L 226.753129 122.391119 
L 228.282595 123.173636 
L 229.81206 122.195489 
L 231.341526 123.890944 
L 232.870991 123.369266 
L 234.400457 125.195141 
L 235.929922 122.260699 
L 237.459388 123.956154 
L 238.988853 122.065069 
L 240.518319 124.021364 
L 242.047784 122.391119 
L 243.57725 121.152132 
L 245.106715 122.912797 
L 246.636181 123.695315 
L 248.165646 124.347413 
L 249.695112 124.673462 
L 251.224577 124.869092 
L 252.754043 121.999859 
L 254.283508 123.564895 
L 255.812974 123.108426 
L 257.342439 123.238846 
L 258.871905 121.67381 
L 260.40137 124.021364 
L 261.930836 122.586748 
L 263.460302 121.67381 
L 264.989767 121.934649 
L 266.519233 122.782377 
L 268.048698 124.216993 
L 269.578164 123.890944 
L 271.107629 122.456328 
L 272.637095 121.478181 
L 274.16656 123.956154 
L 275.696026 122.717168 
L 277.225491 125.195141 
L 278.754957 122.456328 
L 280.284422 123.564895 
L 281.813888 124.869092 
L 283.343353 122.847587 
L 284.872819 122.325908 
L 286.402284 124.412623 
L 287.93175 123.108426 
L 289.461215 123.630105 
L 290.990681 122.325908 
L 292.520146 121.934649 
L 294.049612 122.195489 
L 295.579077 121.6086 
L 297.108543 123.108426 
L 298.638008 120.891292 
L 300.167474 123.108426 
L 301.696939 123.173636 
L 303.226405 121.80423 
L 304.75587 122.391118 
L 306.285336 123.304056 
L 307.814801 123.238846 
L 309.344267 122.130279 
L 310.873732 122.456328 
L 312.403198 121.80423 
L 313.932663 122.782377 
L 315.462129 124.086574 
L 316.991594 123.825734 
L 318.52106 125.064721 
L 320.050525 122.391118 
L 321.579991 123.825734 
L 323.109456 122.391118 
L 324.638922 121.73902 
L 326.168387 122.260699 
L 327.697853 121.67381 
L 329.227318 122.456328 
L 330.756784 121.6086 
L 332.286249 123.369266 
L 333.815715 122.260698 
L 335.34518 123.825734 
L 336.874646 122.717167 
L 338.404111 123.890944 
L 339.933577 122.782377 
L 341.463042 122.325908 
L 342.992508 122.325908 
L 344.521974 123.369266 
L 346.051439 122.521538 
L 347.580905 123.304056 
L 349.11037 123.043217 
L 350.639836 123.956154 
L 352.169301 125.39077 
L 353.698767 125.195141 
L 355.228232 123.890944 
L 356.757698 123.238846 
L 358.287163 122.978007 
L 359.816629 123.956154 
L 361.346094 124.021364 
L 362.87556 123.499685 
L 365.934491 123.695315 
L 367.463956 126.238498 
L 368.993422 122.456328 
L 370.522887 121.80423 
L 372.052353 123.043216 
L 373.581818 122.847587 
L 373.581818 122.847587 
" style="fill:none;stroke:#ff0000;stroke-linecap:square;stroke-width:1.5;"/>
    <defs>
     <path d="M 0 3 
C 0.795609 3 1.55874 2.683901 2.12132 2.12132 
C 2.683901 1.55874 3 0.795609 3 0 
C 3 -0.795609 2.683901 -1.55874 2.12132 -2.12132 
C 1.55874 -2.683901 0.795609 -3 0 -3 
C -0.795609 -3 -1.55874 -2.683901 -2.12132 -2.12132 
C -2.683901 -1.55874 -3 -0.795609 -3 0 
C -3 0.795609 -2.683901 1.55874 -2.12132 2.12132 
C -1.55874 2.683901 -0.795609 3 0 3 
z
" id="mf34b5db3d5" style="stroke:#ff0000;"/>
    </defs>
    <g clip-path="url(#pf797d6d562)">
     <use style="fill:#ffffff;stroke:#ff0000;" x="69.218182" xlink:href="#mf34b5db3d5" y="242.116364"/>
     <use style="fill:#ffffff;stroke:#ff0000;" x="70.747647" xlink:href="#mf34b5db3d5" y="241.464265"/>
     <use style="fill:#ffffff;stroke:#ff0000;" x="72.277113" xlink:href="#mf34b5db3d5" y="228.29188"/>
     <use style="fill:#ffffff;stroke:#ff0000;" x="73.806578" xlink:href="#mf34b5db3d5" y="191.578746"/>
     <use style="fill:#ffffff;stroke:#ff0000;" x="75.336044" xlink:href="#mf34b5db3d5" y="159.49551"/>
     <use style="fill:#ffffff;stroke:#ff0000;" x="76.865509" xlink:href="#mf34b5db3d5" y="150.822603"/>
     <use style="fill:#ffffff;stroke:#ff0000;" x="78.394975" xlink:href="#mf34b5db3d5" y="141.301968"/>
     <use style="fill:#ffffff;stroke:#ff0000;" x="79.92444" xlink:href="#mf34b5db3d5" y="139.606512"/>
     <use style="fill:#ffffff;stroke:#ff0000;" x="81.453906" xlink:href="#mf34b5db3d5" y="136.998119"/>
     <use style="fill:#ffffff;stroke:#ff0000;" x="82.983371" xlink:href="#mf34b5db3d5" y="131.064025"/>
     <use style="fill:#ffffff;stroke:#ff0000;" x="84.512837" xlink:href="#mf34b5db3d5" y="130.020668"/>
     <use style="fill:#ffffff;stroke:#ff0000;" x="86.042302" xlink:href="#mf34b5db3d5" y="130.281507"/>
     <use style="fill:#ffffff;stroke:#ff0000;" x="87.571768" xlink:href="#mf34b5db3d5" y="126.368918"/>
     <use style="fill:#ffffff;stroke:#ff0000;" x="89.101233" xlink:href="#mf34b5db3d5" y="127.021016"/>
     <use style="fill:#ffffff;stroke:#ff0000;" x="90.630699" xlink:href="#mf34b5db3d5" y="125.71682"/>
     <use style="fill:#ffffff;stroke:#ff0000;" x="92.160164" xlink:href="#mf34b5db3d5" y="126.760177"/>
     <use style="fill:#ffffff;stroke:#ff0000;" x="93.68963" xlink:href="#mf34b5db3d5" y="124.021364"/>
     <use style="fill:#ffffff;stroke:#ff0000;" x="95.219095" xlink:href="#mf34b5db3d5" y="123.434475"/>
     <use style="fill:#ffffff;stroke:#ff0000;" x="96.748561" xlink:href="#mf34b5db3d5" y="123.304056"/>
     <use style="fill:#ffffff;stroke:#ff0000;" x="98.278026" xlink:href="#mf34b5db3d5" y="122.978007"/>
     <use style="fill:#ffffff;stroke:#ff0000;" x="99.807492" xlink:href="#mf34b5db3d5" y="123.630105"/>
     <use style="fill:#ffffff;stroke:#ff0000;" x="101.336958" xlink:href="#mf34b5db3d5" y="123.238846"/>
     <use style="fill:#ffffff;stroke:#ff0000;" x="102.866423" xlink:href="#mf34b5db3d5" y="125.847239"/>
     <use style="fill:#ffffff;stroke:#ff0000;" x="104.395889" xlink:href="#mf34b5db3d5" y="122.065069"/>
     <use style="fill:#ffffff;stroke:#ff0000;" x="105.925354" xlink:href="#mf34b5db3d5" y="123.564895"/>
     <use style="fill:#ffffff;stroke:#ff0000;" x="107.45482" xlink:href="#mf34b5db3d5" y="123.369265"/>
     <use style="fill:#ffffff;stroke:#ff0000;" x="108.984285" xlink:href="#mf34b5db3d5" y="122.260699"/>
     <use style="fill:#ffffff;stroke:#ff0000;" x="110.513751" xlink:href="#mf34b5db3d5" y="123.238846"/>
     <use style="fill:#ffffff;stroke:#ff0000;" x="112.043216" xlink:href="#mf34b5db3d5" y="121.412971"/>
     <use style="fill:#ffffff;stroke:#ff0000;" x="113.572682" xlink:href="#mf34b5db3d5" y="121.282551"/>
     <use style="fill:#ffffff;stroke:#ff0000;" x="115.102147" xlink:href="#mf34b5db3d5" y="121.999859"/>
     <use style="fill:#ffffff;stroke:#ff0000;" x="116.631613" xlink:href="#mf34b5db3d5" y="124.282203"/>
     <use style="fill:#ffffff;stroke:#ff0000;" x="118.161078" xlink:href="#mf34b5db3d5" y="123.173636"/>
     <use style="fill:#ffffff;stroke:#ff0000;" x="119.690544" xlink:href="#mf34b5db3d5" y="122.717168"/>
     <use style="fill:#ffffff;stroke:#ff0000;" x="121.220009" xlink:href="#mf34b5db3d5" y="122.456328"/>
     <use style="fill:#ffffff;stroke:#ff0000;" x="122.749475" xlink:href="#mf34b5db3d5" y="123.890944"/>
     <use style="fill:#ffffff;stroke:#ff0000;" x="124.27894" xlink:href="#mf34b5db3d5" y="122.912797"/>
     <use style="fill:#ffffff;stroke:#ff0000;" x="125.808406" xlink:href="#mf34b5db3d5" y="122.847587"/>
     <use style="fill:#ffffff;stroke:#ff0000;" x="127.337871" xlink:href="#mf34b5db3d5" y="123.304056"/>
     <use style="fill:#ffffff;stroke:#ff0000;" x="128.867337" xlink:href="#mf34b5db3d5" y="124.151784"/>
     <use style="fill:#ffffff;stroke:#ff0000;" x="130.396802" xlink:href="#mf34b5db3d5" y="122.325908"/>
     <use style="fill:#ffffff;stroke:#ff0000;" x="131.926268" xlink:href="#mf34b5db3d5" y="123.108426"/>
     <use style="fill:#ffffff;stroke:#ff0000;" x="133.455733" xlink:href="#mf34b5db3d5" y="121.86944"/>
     <use style="fill:#ffffff;stroke:#ff0000;" x="134.985199" xlink:href="#mf34b5db3d5" y="121.412971"/>
     <use style="fill:#ffffff;stroke:#ff0000;" x="136.514664" xlink:href="#mf34b5db3d5" y="120.826082"/>
     <use style="fill:#ffffff;stroke:#ff0000;" x="138.04413" xlink:href="#mf34b5db3d5" y="124.347413"/>
     <use style="fill:#ffffff;stroke:#ff0000;" x="139.573595" xlink:href="#mf34b5db3d5" y="123.825734"/>
     <use style="fill:#ffffff;stroke:#ff0000;" x="141.103061" xlink:href="#mf34b5db3d5" y="122.782377"/>
     <use style="fill:#ffffff;stroke:#ff0000;" x="142.632526" xlink:href="#mf34b5db3d5" y="122.586748"/>
     <use style="fill:#ffffff;stroke:#ff0000;" x="144.161992" xlink:href="#mf34b5db3d5" y="122.391118"/>
     <use style="fill:#ffffff;stroke:#ff0000;" x="145.691457" xlink:href="#mf34b5db3d5" y="124.803882"/>
     <use style="fill:#ffffff;stroke:#ff0000;" x="147.220923" xlink:href="#mf34b5db3d5" y="122.130279"/>
     <use style="fill:#ffffff;stroke:#ff0000;" x="148.750388" xlink:href="#mf34b5db3d5" y="123.369266"/>
     <use style="fill:#ffffff;stroke:#ff0000;" x="150.279854" xlink:href="#mf34b5db3d5" y="123.043217"/>
     <use style="fill:#ffffff;stroke:#ff0000;" x="151.809319" xlink:href="#mf34b5db3d5" y="123.434476"/>
     <use style="fill:#ffffff;stroke:#ff0000;" x="153.338785" xlink:href="#mf34b5db3d5" y="124.673462"/>
     <use style="fill:#ffffff;stroke:#ff0000;" x="154.86825" xlink:href="#mf34b5db3d5" y="123.760525"/>
     <use style="fill:#ffffff;stroke:#ff0000;" x="156.397716" xlink:href="#mf34b5db3d5" y="123.564895"/>
     <use style="fill:#ffffff;stroke:#ff0000;" x="157.927181" xlink:href="#mf34b5db3d5" y="123.238846"/>
     <use style="fill:#ffffff;stroke:#ff0000;" x="159.456647" xlink:href="#mf34b5db3d5" y="123.825735"/>
     <use style="fill:#ffffff;stroke:#ff0000;" x="160.986112" xlink:href="#mf34b5db3d5" y="123.108427"/>
     <use style="fill:#ffffff;stroke:#ff0000;" x="162.515578" xlink:href="#mf34b5db3d5" y="123.499685"/>
     <use style="fill:#ffffff;stroke:#ff0000;" x="164.045043" xlink:href="#mf34b5db3d5" y="122.586748"/>
     <use style="fill:#ffffff;stroke:#ff0000;" x="165.574509" xlink:href="#mf34b5db3d5" y="122.521538"/>
     <use style="fill:#ffffff;stroke:#ff0000;" x="167.103974" xlink:href="#mf34b5db3d5" y="122.912797"/>
     <use style="fill:#ffffff;stroke:#ff0000;" x="168.63344" xlink:href="#mf34b5db3d5" y="121.73902"/>
     <use style="fill:#ffffff;stroke:#ff0000;" x="170.162905" xlink:href="#mf34b5db3d5" y="123.499686"/>
     <use style="fill:#ffffff;stroke:#ff0000;" x="171.692371" xlink:href="#mf34b5db3d5" y="123.434476"/>
     <use style="fill:#ffffff;stroke:#ff0000;" x="173.221836" xlink:href="#mf34b5db3d5" y="122.847587"/>
     <use style="fill:#ffffff;stroke:#ff0000;" x="174.751302" xlink:href="#mf34b5db3d5" y="123.760525"/>
     <use style="fill:#ffffff;stroke:#ff0000;" x="176.280767" xlink:href="#mf34b5db3d5" y="124.021364"/>
     <use style="fill:#ffffff;stroke:#ff0000;" x="177.810233" xlink:href="#mf34b5db3d5" y="122.130279"/>
     <use style="fill:#ffffff;stroke:#ff0000;" x="179.339698" xlink:href="#mf34b5db3d5" y="124.021364"/>
     <use style="fill:#ffffff;stroke:#ff0000;" x="180.869164" xlink:href="#mf34b5db3d5" y="123.173636"/>
     <use style="fill:#ffffff;stroke:#ff0000;" x="182.39863" xlink:href="#mf34b5db3d5" y="121.934649"/>
     <use style="fill:#ffffff;stroke:#ff0000;" x="183.928095" xlink:href="#mf34b5db3d5" y="124.738672"/>
     <use style="fill:#ffffff;stroke:#ff0000;" x="185.457561" xlink:href="#mf34b5db3d5" y="125.71682"/>
     <use style="fill:#ffffff;stroke:#ff0000;" x="186.987026" xlink:href="#mf34b5db3d5" y="123.043217"/>
     <use style="fill:#ffffff;stroke:#ff0000;" x="188.516492" xlink:href="#mf34b5db3d5" y="123.238846"/>
     <use style="fill:#ffffff;stroke:#ff0000;" x="190.045957" xlink:href="#mf34b5db3d5" y="124.477833"/>
     <use style="fill:#ffffff;stroke:#ff0000;" x="191.575423" xlink:href="#mf34b5db3d5" y="123.108427"/>
     <use style="fill:#ffffff;stroke:#ff0000;" x="193.104888" xlink:href="#mf34b5db3d5" y="124.151783"/>
     <use style="fill:#ffffff;stroke:#ff0000;" x="194.634354" xlink:href="#mf34b5db3d5" y="122.847586"/>
     <use style="fill:#ffffff;stroke:#ff0000;" x="196.163819" xlink:href="#mf34b5db3d5" y="124.021363"/>
     <use style="fill:#ffffff;stroke:#ff0000;" x="197.693285" xlink:href="#mf34b5db3d5" y="122.065069"/>
     <use style="fill:#ffffff;stroke:#ff0000;" x="199.22275" xlink:href="#mf34b5db3d5" y="123.695315"/>
     <use style="fill:#ffffff;stroke:#ff0000;" x="200.752216" xlink:href="#mf34b5db3d5" y="124.477832"/>
     <use style="fill:#ffffff;stroke:#ff0000;" x="202.281681" xlink:href="#mf34b5db3d5" y="124.543043"/>
     <use style="fill:#ffffff;stroke:#ff0000;" x="203.811147" xlink:href="#mf34b5db3d5" y="123.499685"/>
     <use style="fill:#ffffff;stroke:#ff0000;" x="205.340612" xlink:href="#mf34b5db3d5" y="124.021364"/>
     <use style="fill:#ffffff;stroke:#ff0000;" x="206.870078" xlink:href="#mf34b5db3d5" y="124.151784"/>
     <use style="fill:#ffffff;stroke:#ff0000;" x="208.399543" xlink:href="#mf34b5db3d5" y="122.260699"/>
     <use style="fill:#ffffff;stroke:#ff0000;" x="209.929009" xlink:href="#mf34b5db3d5" y="121.999859"/>
     <use style="fill:#ffffff;stroke:#ff0000;" x="211.458474" xlink:href="#mf34b5db3d5" y="122.978007"/>
     <use style="fill:#ffffff;stroke:#ff0000;" x="212.98794" xlink:href="#mf34b5db3d5" y="122.847587"/>
     <use style="fill:#ffffff;stroke:#ff0000;" x="214.517405" xlink:href="#mf34b5db3d5" y="123.304056"/>
     <use style="fill:#ffffff;stroke:#ff0000;" x="216.046871" xlink:href="#mf34b5db3d5" y="123.108427"/>
     <use style="fill:#ffffff;stroke:#ff0000;" x="217.576336" xlink:href="#mf34b5db3d5" y="121.152132"/>
     <use style="fill:#ffffff;stroke:#ff0000;" x="219.105802" xlink:href="#mf34b5db3d5" y="122.065069"/>
     <use style="fill:#ffffff;stroke:#ff0000;" x="220.635267" xlink:href="#mf34b5db3d5" y="122.325908"/>
     <use style="fill:#ffffff;stroke:#ff0000;" x="222.164733" xlink:href="#mf34b5db3d5" y="122.260699"/>
     <use style="fill:#ffffff;stroke:#ff0000;" x="223.694198" xlink:href="#mf34b5db3d5" y="123.304056"/>
     <use style="fill:#ffffff;stroke:#ff0000;" x="225.223664" xlink:href="#mf34b5db3d5" y="122.391119"/>
     <use style="fill:#ffffff;stroke:#ff0000;" x="226.753129" xlink:href="#mf34b5db3d5" y="122.391119"/>
     <use style="fill:#ffffff;stroke:#ff0000;" x="228.282595" xlink:href="#mf34b5db3d5" y="123.173636"/>
     <use style="fill:#ffffff;stroke:#ff0000;" x="229.81206" xlink:href="#mf34b5db3d5" y="122.195489"/>
     <use style="fill:#ffffff;stroke:#ff0000;" x="231.341526" xlink:href="#mf34b5db3d5" y="123.890944"/>
     <use style="fill:#ffffff;stroke:#ff0000;" x="232.870991" xlink:href="#mf34b5db3d5" y="123.369266"/>
     <use style="fill:#ffffff;stroke:#ff0000;" x="234.400457" xlink:href="#mf34b5db3d5" y="125.195141"/>
     <use style="fill:#ffffff;stroke:#ff0000;" x="235.929922" xlink:href="#mf34b5db3d5" y="122.260699"/>
     <use style="fill:#ffffff;stroke:#ff0000;" x="237.459388" xlink:href="#mf34b5db3d5" y="123.956154"/>
     <use style="fill:#ffffff;stroke:#ff0000;" x="238.988853" xlink:href="#mf34b5db3d5" y="122.065069"/>
     <use style="fill:#ffffff;stroke:#ff0000;" x="240.518319" xlink:href="#mf34b5db3d5" y="124.021364"/>
     <use style="fill:#ffffff;stroke:#ff0000;" x="242.047784" xlink:href="#mf34b5db3d5" y="122.391119"/>
     <use style="fill:#ffffff;stroke:#ff0000;" x="243.57725" xlink:href="#mf34b5db3d5" y="121.152132"/>
     <use style="fill:#ffffff;stroke:#ff0000;" x="245.106715" xlink:href="#mf34b5db3d5" y="122.912797"/>
     <use style="fill:#ffffff;stroke:#ff0000;" x="246.636181" xlink:href="#mf34b5db3d5" y="123.695315"/>
     <use style="fill:#ffffff;stroke:#ff0000;" x="248.165646" xlink:href="#mf34b5db3d5" y="124.347413"/>
     <use style="fill:#ffffff;stroke:#ff0000;" x="249.695112" xlink:href="#mf34b5db3d5" y="124.673462"/>
     <use style="fill:#ffffff;stroke:#ff0000;" x="251.224577" xlink:href="#mf34b5db3d5" y="124.869092"/>
     <use style="fill:#ffffff;stroke:#ff0000;" x="252.754043" xlink:href="#mf34b5db3d5" y="121.999859"/>
     <use style="fill:#ffffff;stroke:#ff0000;" x="254.283508" xlink:href="#mf34b5db3d5" y="123.564895"/>
     <use style="fill:#ffffff;stroke:#ff0000;" x="255.812974" xlink:href="#mf34b5db3d5" y="123.108426"/>
     <use style="fill:#ffffff;stroke:#ff0000;" x="257.342439" xlink:href="#mf34b5db3d5" y="123.238846"/>
     <use style="fill:#ffffff;stroke:#ff0000;" x="258.871905" xlink:href="#mf34b5db3d5" y="121.67381"/>
     <use style="fill:#ffffff;stroke:#ff0000;" x="260.40137" xlink:href="#mf34b5db3d5" y="124.021364"/>
     <use style="fill:#ffffff;stroke:#ff0000;" x="261.930836" xlink:href="#mf34b5db3d5" y="122.586748"/>
     <use style="fill:#ffffff;stroke:#ff0000;" x="263.460302" xlink:href="#mf34b5db3d5" y="121.67381"/>
     <use style="fill:#ffffff;stroke:#ff0000;" x="264.989767" xlink:href="#mf34b5db3d5" y="121.934649"/>
     <use style="fill:#ffffff;stroke:#ff0000;" x="266.519233" xlink:href="#mf34b5db3d5" y="122.782377"/>
     <use style="fill:#ffffff;stroke:#ff0000;" x="268.048698" xlink:href="#mf34b5db3d5" y="124.216993"/>
     <use style="fill:#ffffff;stroke:#ff0000;" x="269.578164" xlink:href="#mf34b5db3d5" y="123.890944"/>
     <use style="fill:#ffffff;stroke:#ff0000;" x="271.107629" xlink:href="#mf34b5db3d5" y="122.456328"/>
     <use style="fill:#ffffff;stroke:#ff0000;" x="272.637095" xlink:href="#mf34b5db3d5" y="121.478181"/>
     <use style="fill:#ffffff;stroke:#ff0000;" x="274.16656" xlink:href="#mf34b5db3d5" y="123.956154"/>
     <use style="fill:#ffffff;stroke:#ff0000;" x="275.696026" xlink:href="#mf34b5db3d5" y="122.717168"/>
     <use style="fill:#ffffff;stroke:#ff0000;" x="277.225491" xlink:href="#mf34b5db3d5" y="125.195141"/>
     <use style="fill:#ffffff;stroke:#ff0000;" x="278.754957" xlink:href="#mf34b5db3d5" y="122.456328"/>
     <use style="fill:#ffffff;stroke:#ff0000;" x="280.284422" xlink:href="#mf34b5db3d5" y="123.564895"/>
     <use style="fill:#ffffff;stroke:#ff0000;" x="281.813888" xlink:href="#mf34b5db3d5" y="124.869092"/>
     <use style="fill:#ffffff;stroke:#ff0000;" x="283.343353" xlink:href="#mf34b5db3d5" y="122.847587"/>
     <use style="fill:#ffffff;stroke:#ff0000;" x="284.872819" xlink:href="#mf34b5db3d5" y="122.325908"/>
     <use style="fill:#ffffff;stroke:#ff0000;" x="286.402284" xlink:href="#mf34b5db3d5" y="124.412623"/>
     <use style="fill:#ffffff;stroke:#ff0000;" x="287.93175" xlink:href="#mf34b5db3d5" y="123.108426"/>
     <use style="fill:#ffffff;stroke:#ff0000;" x="289.461215" xlink:href="#mf34b5db3d5" y="123.630105"/>
     <use style="fill:#ffffff;stroke:#ff0000;" x="290.990681" xlink:href="#mf34b5db3d5" y="122.325908"/>
     <use style="fill:#ffffff;stroke:#ff0000;" x="292.520146" xlink:href="#mf34b5db3d5" y="121.934649"/>
     <use style="fill:#ffffff;stroke:#ff0000;" x="294.049612" xlink:href="#mf34b5db3d5" y="122.195489"/>
     <use style="fill:#ffffff;stroke:#ff0000;" x="295.579077" xlink:href="#mf34b5db3d5" y="121.6086"/>
     <use style="fill:#ffffff;stroke:#ff0000;" x="297.108543" xlink:href="#mf34b5db3d5" y="123.108426"/>
     <use style="fill:#ffffff;stroke:#ff0000;" x="298.638008" xlink:href="#mf34b5db3d5" y="120.891292"/>
     <use style="fill:#ffffff;stroke:#ff0000;" x="300.167474" xlink:href="#mf34b5db3d5" y="123.108426"/>
     <use style="fill:#ffffff;stroke:#ff0000;" x="301.696939" xlink:href="#mf34b5db3d5" y="123.173636"/>
     <use style="fill:#ffffff;stroke:#ff0000;" x="303.226405" xlink:href="#mf34b5db3d5" y="121.80423"/>
     <use style="fill:#ffffff;stroke:#ff0000;" x="304.75587" xlink:href="#mf34b5db3d5" y="122.391118"/>
     <use style="fill:#ffffff;stroke:#ff0000;" x="306.285336" xlink:href="#mf34b5db3d5" y="123.304056"/>
     <use style="fill:#ffffff;stroke:#ff0000;" x="307.814801" xlink:href="#mf34b5db3d5" y="123.238846"/>
     <use style="fill:#ffffff;stroke:#ff0000;" x="309.344267" xlink:href="#mf34b5db3d5" y="122.130279"/>
     <use style="fill:#ffffff;stroke:#ff0000;" x="310.873732" xlink:href="#mf34b5db3d5" y="122.456328"/>
     <use style="fill:#ffffff;stroke:#ff0000;" x="312.403198" xlink:href="#mf34b5db3d5" y="121.80423"/>
     <use style="fill:#ffffff;stroke:#ff0000;" x="313.932663" xlink:href="#mf34b5db3d5" y="122.782377"/>
     <use style="fill:#ffffff;stroke:#ff0000;" x="315.462129" xlink:href="#mf34b5db3d5" y="124.086574"/>
     <use style="fill:#ffffff;stroke:#ff0000;" x="316.991594" xlink:href="#mf34b5db3d5" y="123.825734"/>
     <use style="fill:#ffffff;stroke:#ff0000;" x="318.52106" xlink:href="#mf34b5db3d5" y="125.064721"/>
     <use style="fill:#ffffff;stroke:#ff0000;" x="320.050525" xlink:href="#mf34b5db3d5" y="122.391118"/>
     <use style="fill:#ffffff;stroke:#ff0000;" x="321.579991" xlink:href="#mf34b5db3d5" y="123.825734"/>
     <use style="fill:#ffffff;stroke:#ff0000;" x="323.109456" xlink:href="#mf34b5db3d5" y="122.391118"/>
     <use style="fill:#ffffff;stroke:#ff0000;" x="324.638922" xlink:href="#mf34b5db3d5" y="121.73902"/>
     <use style="fill:#ffffff;stroke:#ff0000;" x="326.168387" xlink:href="#mf34b5db3d5" y="122.260699"/>
     <use style="fill:#ffffff;stroke:#ff0000;" x="327.697853" xlink:href="#mf34b5db3d5" y="121.67381"/>
     <use style="fill:#ffffff;stroke:#ff0000;" x="329.227318" xlink:href="#mf34b5db3d5" y="122.456328"/>
     <use style="fill:#ffffff;stroke:#ff0000;" x="330.756784" xlink:href="#mf34b5db3d5" y="121.6086"/>
     <use style="fill:#ffffff;stroke:#ff0000;" x="332.286249" xlink:href="#mf34b5db3d5" y="123.369266"/>
     <use style="fill:#ffffff;stroke:#ff0000;" x="333.815715" xlink:href="#mf34b5db3d5" y="122.260698"/>
     <use style="fill:#ffffff;stroke:#ff0000;" x="335.34518" xlink:href="#mf34b5db3d5" y="123.825734"/>
     <use style="fill:#ffffff;stroke:#ff0000;" x="336.874646" xlink:href="#mf34b5db3d5" y="122.717167"/>
     <use style="fill:#ffffff;stroke:#ff0000;" x="338.404111" xlink:href="#mf34b5db3d5" y="123.890944"/>
     <use style="fill:#ffffff;stroke:#ff0000;" x="339.933577" xlink:href="#mf34b5db3d5" y="122.782377"/>
     <use style="fill:#ffffff;stroke:#ff0000;" x="341.463042" xlink:href="#mf34b5db3d5" y="122.325908"/>
     <use style="fill:#ffffff;stroke:#ff0000;" x="342.992508" xlink:href="#mf34b5db3d5" y="122.325908"/>
     <use style="fill:#ffffff;stroke:#ff0000;" x="344.521974" xlink:href="#mf34b5db3d5" y="123.369266"/>
     <use style="fill:#ffffff;stroke:#ff0000;" x="346.051439" xlink:href="#mf34b5db3d5" y="122.521538"/>
     <use style="fill:#ffffff;stroke:#ff0000;" x="347.580905" xlink:href="#mf34b5db3d5" y="123.304056"/>
     <use style="fill:#ffffff;stroke:#ff0000;" x="349.11037" xlink:href="#mf34b5db3d5" y="123.043217"/>
     <use style="fill:#ffffff;stroke:#ff0000;" x="350.639836" xlink:href="#mf34b5db3d5" y="123.956154"/>
     <use style="fill:#ffffff;stroke:#ff0000;" x="352.169301" xlink:href="#mf34b5db3d5" y="125.39077"/>
     <use style="fill:#ffffff;stroke:#ff0000;" x="353.698767" xlink:href="#mf34b5db3d5" y="125.195141"/>
     <use style="fill:#ffffff;stroke:#ff0000;" x="355.228232" xlink:href="#mf34b5db3d5" y="123.890944"/>
     <use style="fill:#ffffff;stroke:#ff0000;" x="356.757698" xlink:href="#mf34b5db3d5" y="123.238846"/>
     <use style="fill:#ffffff;stroke:#ff0000;" x="358.287163" xlink:href="#mf34b5db3d5" y="122.978007"/>
     <use style="fill:#ffffff;stroke:#ff0000;" x="359.816629" xlink:href="#mf34b5db3d5" y="123.956154"/>
     <use style="fill:#ffffff;stroke:#ff0000;" x="361.346094" xlink:href="#mf34b5db3d5" y="124.021364"/>
     <use style="fill:#ffffff;stroke:#ff0000;" x="362.87556" xlink:href="#mf34b5db3d5" y="123.499685"/>
     <use style="fill:#ffffff;stroke:#ff0000;" x="364.405025" xlink:href="#mf34b5db3d5" y="123.564895"/>
     <use style="fill:#ffffff;stroke:#ff0000;" x="365.934491" xlink:href="#mf34b5db3d5" y="123.695315"/>
     <use style="fill:#ffffff;stroke:#ff0000;" x="367.463956" xlink:href="#mf34b5db3d5" y="126.238498"/>
     <use style="fill:#ffffff;stroke:#ff0000;" x="368.993422" xlink:href="#mf34b5db3d5" y="122.456328"/>
     <use style="fill:#ffffff;stroke:#ff0000;" x="370.522887" xlink:href="#mf34b5db3d5" y="121.80423"/>
     <use style="fill:#ffffff;stroke:#ff0000;" x="372.052353" xlink:href="#mf34b5db3d5" y="123.043216"/>
     <use style="fill:#ffffff;stroke:#ff0000;" x="373.581818" xlink:href="#mf34b5db3d5" y="122.847587"/>
    </g>
   </g>
   <g id="patch_3">
    <path d="M 54 252 
L 54 34.56 
" style="fill:none;stroke:#000000;stroke-linecap:square;stroke-linejoin:miter;stroke-width:0.8;"/>
   </g>
   <g id="patch_4">
    <path d="M 388.8 252 
L 388.8 34.56 
" style="fill:none;stroke:#000000;stroke-linecap:square;stroke-linejoin:miter;stroke-width:0.8;"/>
   </g>
   <g id="patch_5">
    <path d="M 54 252 
L 388.8 252 
" style="fill:none;stroke:#000000;stroke-linecap:square;stroke-linejoin:miter;stroke-width:0.8;"/>
   </g>
   <g id="patch_6">
    <path d="M 54 34.56 
L 388.8 34.56 
" style="fill:none;stroke:#000000;stroke-linecap:square;stroke-linejoin:miter;stroke-width:0.8;"/>
   </g>
   <g id="text_18">
    <!-- Training and validation accuracy -->
    <defs>
     <path d="M -0.296875 72.90625 
L 61.375 72.90625 
L 61.375 64.59375 
L 35.5 64.59375 
L 35.5 0 
L 25.59375 0 
L 25.59375 64.59375 
L -0.296875 64.59375 
z
" id="DejaVuSans-54"/>
     <path d="M 9.421875 54.6875 
L 18.40625 54.6875 
L 18.40625 0 
L 9.421875 0 
z
M 9.421875 75.984375 
L 18.40625 75.984375 
L 18.40625 64.59375 
L 9.421875 64.59375 
z
" id="DejaVuSans-69"/>
     <path d="M 54.890625 33.015625 
L 54.890625 0 
L 45.90625 0 
L 45.90625 32.71875 
Q 45.90625 40.484375 42.875 44.328125 
Q 39.84375 48.1875 33.796875 48.1875 
Q 26.515625 48.1875 22.3125 43.546875 
Q 18.109375 38.921875 18.109375 30.90625 
L 18.109375 0 
L 9.078125 0 
L 9.078125 54.6875 
L 18.109375 54.6875 
L 18.109375 46.1875 
Q 21.34375 51.125 25.703125 53.5625 
Q 30.078125 56 35.796875 56 
Q 45.21875 56 50.046875 50.171875 
Q 54.890625 44.34375 54.890625 33.015625 
z
" id="DejaVuSans-6e"/>
     <path d="M 45.40625 27.984375 
Q 45.40625 37.75 41.375 43.109375 
Q 37.359375 48.484375 30.078125 48.484375 
Q 22.859375 48.484375 18.828125 43.109375 
Q 14.796875 37.75 14.796875 27.984375 
Q 14.796875 18.265625 18.828125 12.890625 
Q 22.859375 7.515625 30.078125 7.515625 
Q 37.359375 7.515625 41.375 12.890625 
Q 45.40625 18.265625 45.40625 27.984375 
z
M 54.390625 6.78125 
Q 54.390625 -7.171875 48.1875 -13.984375 
Q 42 -20.796875 29.203125 -20.796875 
Q 24.46875 -20.796875 20.265625 -20.09375 
Q 16.0625 -19.390625 12.109375 -17.921875 
L 12.109375 -9.1875 
Q 16.0625 -11.328125 19.921875 -12.34375 
Q 23.78125 -13.375 27.78125 -13.375 
Q 36.625 -13.375 41.015625 -8.765625 
Q 45.40625 -4.15625 45.40625 5.171875 
L 45.40625 9.625 
Q 42.625 4.78125 38.28125 2.390625 
Q 33.9375 0 27.875 0 
Q 17.828125 0 11.671875 7.65625 
Q 5.515625 15.328125 5.515625 27.984375 
Q 5.515625 40.671875 11.671875 48.328125 
Q 17.828125 56 27.875 56 
Q 33.9375 56 38.28125 53.609375 
Q 42.625 51.21875 45.40625 46.390625 
L 45.40625 54.6875 
L 54.390625 54.6875 
z
" id="DejaVuSans-67"/>
     <path id="DejaVuSans-20"/>
     <path d="M 45.40625 46.390625 
L 45.40625 75.984375 
L 54.390625 75.984375 
L 54.390625 0 
L 45.40625 0 
L 45.40625 8.203125 
Q 42.578125 3.328125 38.25 0.953125 
Q 33.9375 -1.421875 27.875 -1.421875 
Q 17.96875 -1.421875 11.734375 6.484375 
Q 5.515625 14.40625 5.515625 27.296875 
Q 5.515625 40.1875 11.734375 48.09375 
Q 17.96875 56 27.875 56 
Q 33.9375 56 38.25 53.625 
Q 42.578125 51.265625 45.40625 46.390625 
z
M 14.796875 27.296875 
Q 14.796875 17.390625 18.875 11.75 
Q 22.953125 6.109375 30.078125 6.109375 
Q 37.203125 6.109375 41.296875 11.75 
Q 45.40625 17.390625 45.40625 27.296875 
Q 45.40625 37.203125 41.296875 42.84375 
Q 37.203125 48.484375 30.078125 48.484375 
Q 22.953125 48.484375 18.875 42.84375 
Q 14.796875 37.203125 14.796875 27.296875 
z
" id="DejaVuSans-64"/>
     <path d="M 2.984375 54.6875 
L 12.5 54.6875 
L 29.59375 8.796875 
L 46.6875 54.6875 
L 56.203125 54.6875 
L 35.6875 0 
L 23.484375 0 
z
" id="DejaVuSans-76"/>
     <path d="M 9.421875 75.984375 
L 18.40625 75.984375 
L 18.40625 0 
L 9.421875 0 
z
" id="DejaVuSans-6c"/>
     <path d="M 18.3125 70.21875 
L 18.3125 54.6875 
L 36.8125 54.6875 
L 36.8125 47.703125 
L 18.3125 47.703125 
L 18.3125 18.015625 
Q 18.3125 11.328125 20.140625 9.421875 
Q 21.96875 7.515625 27.59375 7.515625 
L 36.8125 7.515625 
L 36.8125 0 
L 27.59375 0 
Q 17.1875 0 13.234375 3.875 
Q 9.28125 7.765625 9.28125 18.015625 
L 9.28125 47.703125 
L 2.6875 47.703125 
L 2.6875 54.6875 
L 9.28125 54.6875 
L 9.28125 70.21875 
z
" id="DejaVuSans-74"/>
    </defs>
    <g transform="translate(123.23625 28.56)scale(0.12 -0.12)">
     <use xlink:href="#DejaVuSans-54"/>
     <use x="60.865234" xlink:href="#DejaVuSans-72"/>
     <use x="101.978516" xlink:href="#DejaVuSans-61"/>
     <use x="163.257812" xlink:href="#DejaVuSans-69"/>
     <use x="191.041016" xlink:href="#DejaVuSans-6e"/>
     <use x="254.419922" xlink:href="#DejaVuSans-69"/>
     <use x="282.203125" xlink:href="#DejaVuSans-6e"/>
     <use x="345.582031" xlink:href="#DejaVuSans-67"/>
     <use x="409.058594" xlink:href="#DejaVuSans-20"/>
     <use x="440.845703" xlink:href="#DejaVuSans-61"/>
     <use x="502.125" xlink:href="#DejaVuSans-6e"/>
     <use x="565.503906" xlink:href="#DejaVuSans-64"/>
     <use x="628.980469" xlink:href="#DejaVuSans-20"/>
     <use x="660.767578" xlink:href="#DejaVuSans-76"/>
     <use x="719.947266" xlink:href="#DejaVuSans-61"/>
     <use x="781.226562" xlink:href="#DejaVuSans-6c"/>
     <use x="809.009766" xlink:href="#DejaVuSans-69"/>
     <use x="836.792969" xlink:href="#DejaVuSans-64"/>
     <use x="900.269531" xlink:href="#DejaVuSans-61"/>
     <use x="961.548828" xlink:href="#DejaVuSans-74"/>
     <use x="1000.757812" xlink:href="#DejaVuSans-69"/>
     <use x="1028.541016" xlink:href="#DejaVuSans-6f"/>
     <use x="1089.722656" xlink:href="#DejaVuSans-6e"/>
     <use x="1153.101562" xlink:href="#DejaVuSans-20"/>
     <use x="1184.888672" xlink:href="#DejaVuSans-61"/>
     <use x="1246.167969" xlink:href="#DejaVuSans-63"/>
     <use x="1301.148438" xlink:href="#DejaVuSans-63"/>
     <use x="1356.128906" xlink:href="#DejaVuSans-75"/>
     <use x="1419.507812" xlink:href="#DejaVuSans-72"/>
     <use x="1460.621094" xlink:href="#DejaVuSans-61"/>
     <use x="1521.900391" xlink:href="#DejaVuSans-63"/>
     <use x="1576.880859" xlink:href="#DejaVuSans-79"/>
    </g>
   </g>
   <g id="legend_1">
    <g id="patch_7">
     <path d="M 279.351562 247 
L 381.8 247 
Q 383.8 247 383.8 245 
L 383.8 216.64375 
Q 383.8 214.64375 381.8 214.64375 
L 279.351562 214.64375 
Q 277.351562 214.64375 277.351562 216.64375 
L 277.351562 245 
Q 277.351562 247 279.351562 247 
z
" style="fill:#ffffff;opacity:0.8;stroke:#cccccc;stroke-linejoin:miter;"/>
    </g>
    <g id="line2d_18">
     <path d="M 281.351562 222.742188 
L 301.351562 222.742188 
" style="fill:none;stroke:#0000ff;stroke-linecap:square;stroke-width:1.5;"/>
    </g>
    <g id="line2d_19">
     <g>
      <use style="fill:#ffffff;stroke:#0000ff;" x="291.351562" xlink:href="#madae2d6624" y="222.742188"/>
     </g>
    </g>
    <g id="text_19">
     <!-- Training acc -->
     <g transform="translate(309.351562 226.242188)scale(0.1 -0.1)">
      <use xlink:href="#DejaVuSans-54"/>
      <use x="60.865234" xlink:href="#DejaVuSans-72"/>
      <use x="101.978516" xlink:href="#DejaVuSans-61"/>
      <use x="163.257812" xlink:href="#DejaVuSans-69"/>
      <use x="191.041016" xlink:href="#DejaVuSans-6e"/>
      <use x="254.419922" xlink:href="#DejaVuSans-69"/>
      <use x="282.203125" xlink:href="#DejaVuSans-6e"/>
      <use x="345.582031" xlink:href="#DejaVuSans-67"/>
      <use x="409.058594" xlink:href="#DejaVuSans-20"/>
      <use x="440.845703" xlink:href="#DejaVuSans-61"/>
      <use x="502.125" xlink:href="#DejaVuSans-63"/>
      <use x="557.105469" xlink:href="#DejaVuSans-63"/>
     </g>
    </g>
    <g id="line2d_20">
     <path d="M 281.351562 237.420312 
L 301.351562 237.420312 
" style="fill:none;stroke:#ff0000;stroke-linecap:square;stroke-width:1.5;"/>
    </g>
    <g id="line2d_21">
     <g>
      <use style="fill:#ffffff;stroke:#ff0000;" x="291.351562" xlink:href="#mf34b5db3d5" y="237.420312"/>
     </g>
    </g>
    <g id="text_20">
     <!-- Validation acc -->
     <defs>
      <path d="M 28.609375 0 
L 0.78125 72.90625 
L 11.078125 72.90625 
L 34.1875 11.53125 
L 57.328125 72.90625 
L 67.578125 72.90625 
L 39.796875 0 
z
" id="DejaVuSans-56"/>
     </defs>
     <g transform="translate(309.351562 240.920312)scale(0.1 -0.1)">
      <use xlink:href="#DejaVuSans-56"/>
      <use x="68.298828" xlink:href="#DejaVuSans-61"/>
      <use x="129.578125" xlink:href="#DejaVuSans-6c"/>
      <use x="157.361328" xlink:href="#DejaVuSans-69"/>
      <use x="185.144531" xlink:href="#DejaVuSans-64"/>
      <use x="248.621094" xlink:href="#DejaVuSans-61"/>
      <use x="309.900391" xlink:href="#DejaVuSans-74"/>
      <use x="349.109375" xlink:href="#DejaVuSans-69"/>
      <use x="376.892578" xlink:href="#DejaVuSans-6f"/>
      <use x="438.074219" xlink:href="#DejaVuSans-6e"/>
      <use x="501.453125" xlink:href="#DejaVuSans-20"/>
      <use x="533.240234" xlink:href="#DejaVuSans-61"/>
      <use x="594.519531" xlink:href="#DejaVuSans-63"/>
      <use x="649.5" xlink:href="#DejaVuSans-63"/>
     </g>
    </g>
   </g>
  </g>
 </g>
 <defs>
  <clipPath id="pf797d6d562">
   <rect height="217.44" width="334.8" x="54" y="34.56"/>
  </clipPath>
 </defs>
</svg>
