<?xml version="1.0" encoding="utf-8" standalone="no"?>
<!DOCTYPE svg PUBLIC "-//W3C//DTD SVG 1.1//EN"
  "http://www.w3.org/Graphics/SVG/1.1/DTD/svg11.dtd">
<!-- Created with matplotlib (http://matplotlib.org/) -->
<svg height="288pt" version="1.1" viewBox="0 0 432 288" width="432pt" xmlns="http://www.w3.org/2000/svg" xmlns:xlink="http://www.w3.org/1999/xlink">
 <defs>
  <style type="text/css">
*{stroke-linecap:butt;stroke-linejoin:round;}
  </style>
 </defs>
 <g id="figure_1">
  <g id="patch_1">
   <path d="M 0 288 
L 432 288 
L 432 0 
L 0 0 
z
" style="fill:#ffffff;"/>
  </g>
  <g id="axes_1">
   <g id="patch_2">
    <path d="M 54 252 
L 388.8 252 
L 388.8 34.56 
L 54 34.56 
z
" style="fill:#ffffff;"/>
   </g>
   <g id="matplotlib.axis_1">
    <g id="xtick_1">
     <g id="line2d_1">
      <defs>
       <path d="M 0 0 
L 0 3.5 
" id="mca760604b5" style="stroke:#000000;stroke-width:0.8;"/>
      </defs>
      <g>
       <use style="stroke:#000000;stroke-width:0.8;" x="67.688716" xlink:href="#mca760604b5" y="252"/>
      </g>
     </g>
     <g id="text_1">
      <!-- 0 -->
      <defs>
       <path d="M 31.78125 66.40625 
Q 24.171875 66.40625 20.328125 58.90625 
Q 16.5 51.421875 16.5 36.375 
Q 16.5 21.390625 20.328125 13.890625 
Q 24.171875 6.390625 31.78125 6.390625 
Q 39.453125 6.390625 43.28125 13.890625 
Q 47.125 21.390625 47.125 36.375 
Q 47.125 51.421875 43.28125 58.90625 
Q 39.453125 66.40625 31.78125 66.40625 
z
M 31.78125 74.21875 
Q 44.046875 74.21875 50.515625 64.515625 
Q 56.984375 54.828125 56.984375 36.375 
Q 56.984375 17.96875 50.515625 8.265625 
Q 44.046875 -1.421875 31.78125 -1.421875 
Q 19.53125 -1.421875 13.0625 8.265625 
Q 6.59375 17.96875 6.59375 36.375 
Q 6.59375 54.828125 13.0625 64.515625 
Q 19.53125 74.21875 31.78125 74.21875 
z
" id="DejaVuSans-30"/>
      </defs>
      <g transform="translate(64.507466 266.598437)scale(0.1 -0.1)">
       <use xlink:href="#DejaVuSans-30"/>
      </g>
     </g>
    </g>
    <g id="xtick_2">
     <g id="line2d_2">
      <g>
       <use style="stroke:#000000;stroke-width:0.8;" x="105.925354" xlink:href="#mca760604b5" y="252"/>
      </g>
     </g>
     <g id="text_2">
      <!-- 25 -->
      <defs>
       <path d="M 19.1875 8.296875 
L 53.609375 8.296875 
L 53.609375 0 
L 7.328125 0 
L 7.328125 8.296875 
Q 12.9375 14.109375 22.625 23.890625 
Q 32.328125 33.6875 34.8125 36.53125 
Q 39.546875 41.84375 41.421875 45.53125 
Q 43.3125 49.21875 43.3125 52.78125 
Q 43.3125 58.59375 39.234375 62.25 
Q 35.15625 65.921875 28.609375 65.921875 
Q 23.96875 65.921875 18.8125 64.3125 
Q 13.671875 62.703125 7.8125 59.421875 
L 7.8125 69.390625 
Q 13.765625 71.78125 18.9375 73 
Q 24.125 74.21875 28.421875 74.21875 
Q 39.75 74.21875 46.484375 68.546875 
Q 53.21875 62.890625 53.21875 53.421875 
Q 53.21875 48.921875 51.53125 44.890625 
Q 49.859375 40.875 45.40625 35.40625 
Q 44.1875 33.984375 37.640625 27.21875 
Q 31.109375 20.453125 19.1875 8.296875 
z
" id="DejaVuSans-32"/>
       <path d="M 10.796875 72.90625 
L 49.515625 72.90625 
L 49.515625 64.59375 
L 19.828125 64.59375 
L 19.828125 46.734375 
Q 21.96875 47.46875 24.109375 47.828125 
Q 26.265625 48.1875 28.421875 48.1875 
Q 40.625 48.1875 47.75 41.5 
Q 54.890625 34.8125 54.890625 23.390625 
Q 54.890625 11.625 47.5625 5.09375 
Q 40.234375 -1.421875 26.90625 -1.421875 
Q 22.3125 -1.421875 17.546875 -0.640625 
Q 12.796875 0.140625 7.71875 1.703125 
L 7.71875 11.625 
Q 12.109375 9.234375 16.796875 8.0625 
Q 21.484375 6.890625 26.703125 6.890625 
Q 35.15625 6.890625 40.078125 11.328125 
Q 45.015625 15.765625 45.015625 23.390625 
Q 45.015625 31 40.078125 35.4375 
Q 35.15625 39.890625 26.703125 39.890625 
Q 22.75 39.890625 18.8125 39.015625 
Q 14.890625 38.140625 10.796875 36.28125 
z
" id="DejaVuSans-35"/>
      </defs>
      <g transform="translate(99.562854 266.598437)scale(0.1 -0.1)">
       <use xlink:href="#DejaVuSans-32"/>
       <use x="63.623047" xlink:href="#DejaVuSans-35"/>
      </g>
     </g>
    </g>
    <g id="xtick_3">
     <g id="line2d_3">
      <g>
       <use style="stroke:#000000;stroke-width:0.8;" x="144.161992" xlink:href="#mca760604b5" y="252"/>
      </g>
     </g>
     <g id="text_3">
      <!-- 50 -->
      <g transform="translate(137.799492 266.598437)scale(0.1 -0.1)">
       <use xlink:href="#DejaVuSans-35"/>
       <use x="63.623047" xlink:href="#DejaVuSans-30"/>
      </g>
     </g>
    </g>
    <g id="xtick_4">
     <g id="line2d_4">
      <g>
       <use style="stroke:#000000;stroke-width:0.8;" x="182.39863" xlink:href="#mca760604b5" y="252"/>
      </g>
     </g>
     <g id="text_4">
      <!-- 75 -->
      <defs>
       <path d="M 8.203125 72.90625 
L 55.078125 72.90625 
L 55.078125 68.703125 
L 28.609375 0 
L 18.3125 0 
L 43.21875 64.59375 
L 8.203125 64.59375 
z
" id="DejaVuSans-37"/>
      </defs>
      <g transform="translate(176.03613 266.598437)scale(0.1 -0.1)">
       <use xlink:href="#DejaVuSans-37"/>
       <use x="63.623047" xlink:href="#DejaVuSans-35"/>
      </g>
     </g>
    </g>
    <g id="xtick_5">
     <g id="line2d_5">
      <g>
       <use style="stroke:#000000;stroke-width:0.8;" x="220.635267" xlink:href="#mca760604b5" y="252"/>
      </g>
     </g>
     <g id="text_5">
      <!-- 100 -->
      <defs>
       <path d="M 12.40625 8.296875 
L 28.515625 8.296875 
L 28.515625 63.921875 
L 10.984375 60.40625 
L 10.984375 69.390625 
L 28.421875 72.90625 
L 38.28125 72.90625 
L 38.28125 8.296875 
L 54.390625 8.296875 
L 54.390625 0 
L 12.40625 0 
z
" id="DejaVuSans-31"/>
      </defs>
      <g transform="translate(211.091517 266.598437)scale(0.1 -0.1)">
       <use xlink:href="#DejaVuSans-31"/>
       <use x="63.623047" xlink:href="#DejaVuSans-30"/>
       <use x="127.246094" xlink:href="#DejaVuSans-30"/>
      </g>
     </g>
    </g>
    <g id="xtick_6">
     <g id="line2d_6">
      <g>
       <use style="stroke:#000000;stroke-width:0.8;" x="258.871905" xlink:href="#mca760604b5" y="252"/>
      </g>
     </g>
     <g id="text_6">
      <!-- 125 -->
      <g transform="translate(249.328155 266.598437)scale(0.1 -0.1)">
       <use xlink:href="#DejaVuSans-31"/>
       <use x="63.623047" xlink:href="#DejaVuSans-32"/>
       <use x="127.246094" xlink:href="#DejaVuSans-35"/>
      </g>
     </g>
    </g>
    <g id="xtick_7">
     <g id="line2d_7">
      <g>
       <use style="stroke:#000000;stroke-width:0.8;" x="297.108543" xlink:href="#mca760604b5" y="252"/>
      </g>
     </g>
     <g id="text_7">
      <!-- 150 -->
      <g transform="translate(287.564793 266.598437)scale(0.1 -0.1)">
       <use xlink:href="#DejaVuSans-31"/>
       <use x="63.623047" xlink:href="#DejaVuSans-35"/>
       <use x="127.246094" xlink:href="#DejaVuSans-30"/>
      </g>
     </g>
    </g>
    <g id="xtick_8">
     <g id="line2d_8">
      <g>
       <use style="stroke:#000000;stroke-width:0.8;" x="335.34518" xlink:href="#mca760604b5" y="252"/>
      </g>
     </g>
     <g id="text_8">
      <!-- 175 -->
      <g transform="translate(325.80143 266.598437)scale(0.1 -0.1)">
       <use xlink:href="#DejaVuSans-31"/>
       <use x="63.623047" xlink:href="#DejaVuSans-37"/>
       <use x="127.246094" xlink:href="#DejaVuSans-35"/>
      </g>
     </g>
    </g>
    <g id="xtick_9">
     <g id="line2d_9">
      <g>
       <use style="stroke:#000000;stroke-width:0.8;" x="373.581818" xlink:href="#mca760604b5" y="252"/>
      </g>
     </g>
     <g id="text_9">
      <!-- 200 -->
      <g transform="translate(364.038068 266.598437)scale(0.1 -0.1)">
       <use xlink:href="#DejaVuSans-32"/>
       <use x="63.623047" xlink:href="#DejaVuSans-30"/>
       <use x="127.246094" xlink:href="#DejaVuSans-30"/>
      </g>
     </g>
    </g>
    <g id="text_10">
     <!-- Epochs -->
     <defs>
      <path d="M 9.8125 72.90625 
L 55.90625 72.90625 
L 55.90625 64.59375 
L 19.671875 64.59375 
L 19.671875 43.015625 
L 54.390625 43.015625 
L 54.390625 34.71875 
L 19.671875 34.71875 
L 19.671875 8.296875 
L 56.78125 8.296875 
L 56.78125 0 
L 9.8125 0 
z
" id="DejaVuSans-45"/>
      <path d="M 18.109375 8.203125 
L 18.109375 -20.796875 
L 9.078125 -20.796875 
L 9.078125 54.6875 
L 18.109375 54.6875 
L 18.109375 46.390625 
Q 20.953125 51.265625 25.265625 53.625 
Q 29.59375 56 35.59375 56 
Q 45.5625 56 51.78125 48.09375 
Q 58.015625 40.1875 58.015625 27.296875 
Q 58.015625 14.40625 51.78125 6.484375 
Q 45.5625 -1.421875 35.59375 -1.421875 
Q 29.59375 -1.421875 25.265625 0.953125 
Q 20.953125 3.328125 18.109375 8.203125 
z
M 48.6875 27.296875 
Q 48.6875 37.203125 44.609375 42.84375 
Q 40.53125 48.484375 33.40625 48.484375 
Q 26.265625 48.484375 22.1875 42.84375 
Q 18.109375 37.203125 18.109375 27.296875 
Q 18.109375 17.390625 22.1875 11.75 
Q 26.265625 6.109375 33.40625 6.109375 
Q 40.53125 6.109375 44.609375 11.75 
Q 48.6875 17.390625 48.6875 27.296875 
z
" id="DejaVuSans-70"/>
      <path d="M 30.609375 48.390625 
Q 23.390625 48.390625 19.1875 42.75 
Q 14.984375 37.109375 14.984375 27.296875 
Q 14.984375 17.484375 19.15625 11.84375 
Q 23.34375 6.203125 30.609375 6.203125 
Q 37.796875 6.203125 41.984375 11.859375 
Q 46.1875 17.53125 46.1875 27.296875 
Q 46.1875 37.015625 41.984375 42.703125 
Q 37.796875 48.390625 30.609375 48.390625 
z
M 30.609375 56 
Q 42.328125 56 49.015625 48.375 
Q 55.71875 40.765625 55.71875 27.296875 
Q 55.71875 13.875 49.015625 6.21875 
Q 42.328125 -1.421875 30.609375 -1.421875 
Q 18.84375 -1.421875 12.171875 6.21875 
Q 5.515625 13.875 5.515625 27.296875 
Q 5.515625 40.765625 12.171875 48.375 
Q 18.84375 56 30.609375 56 
z
" id="DejaVuSans-6f"/>
      <path d="M 48.78125 52.59375 
L 48.78125 44.1875 
Q 44.96875 46.296875 41.140625 47.34375 
Q 37.3125 48.390625 33.40625 48.390625 
Q 24.65625 48.390625 19.8125 42.84375 
Q 14.984375 37.3125 14.984375 27.296875 
Q 14.984375 17.28125 19.8125 11.734375 
Q 24.65625 6.203125 33.40625 6.203125 
Q 37.3125 6.203125 41.140625 7.25 
Q 44.96875 8.296875 48.78125 10.40625 
L 48.78125 2.09375 
Q 45.015625 0.34375 40.984375 -0.53125 
Q 36.96875 -1.421875 32.421875 -1.421875 
Q 20.0625 -1.421875 12.78125 6.34375 
Q 5.515625 14.109375 5.515625 27.296875 
Q 5.515625 40.671875 12.859375 48.328125 
Q 20.21875 56 33.015625 56 
Q 37.15625 56 41.109375 55.140625 
Q 45.0625 54.296875 48.78125 52.59375 
z
" id="DejaVuSans-63"/>
      <path d="M 54.890625 33.015625 
L 54.890625 0 
L 45.90625 0 
L 45.90625 32.71875 
Q 45.90625 40.484375 42.875 44.328125 
Q 39.84375 48.1875 33.796875 48.1875 
Q 26.515625 48.1875 22.3125 43.546875 
Q 18.109375 38.921875 18.109375 30.90625 
L 18.109375 0 
L 9.078125 0 
L 9.078125 75.984375 
L 18.109375 75.984375 
L 18.109375 46.1875 
Q 21.34375 51.125 25.703125 53.5625 
Q 30.078125 56 35.796875 56 
Q 45.21875 56 50.046875 50.171875 
Q 54.890625 44.34375 54.890625 33.015625 
z
" id="DejaVuSans-68"/>
      <path d="M 44.28125 53.078125 
L 44.28125 44.578125 
Q 40.484375 46.53125 36.375 47.5 
Q 32.28125 48.484375 27.875 48.484375 
Q 21.1875 48.484375 17.84375 46.4375 
Q 14.5 44.390625 14.5 40.28125 
Q 14.5 37.15625 16.890625 35.375 
Q 19.28125 33.59375 26.515625 31.984375 
L 29.59375 31.296875 
Q 39.15625 29.25 43.1875 25.515625 
Q 47.21875 21.78125 47.21875 15.09375 
Q 47.21875 7.46875 41.1875 3.015625 
Q 35.15625 -1.421875 24.609375 -1.421875 
Q 20.21875 -1.421875 15.453125 -0.5625 
Q 10.6875 0.296875 5.421875 2 
L 5.421875 11.28125 
Q 10.40625 8.6875 15.234375 7.390625 
Q 20.0625 6.109375 24.8125 6.109375 
Q 31.15625 6.109375 34.5625 8.28125 
Q 37.984375 10.453125 37.984375 14.40625 
Q 37.984375 18.0625 35.515625 20.015625 
Q 33.0625 21.96875 24.703125 23.78125 
L 21.578125 24.515625 
Q 13.234375 26.265625 9.515625 29.90625 
Q 5.8125 33.546875 5.8125 39.890625 
Q 5.8125 47.609375 11.28125 51.796875 
Q 16.75 56 26.8125 56 
Q 31.78125 56 36.171875 55.265625 
Q 40.578125 54.546875 44.28125 53.078125 
z
" id="DejaVuSans-73"/>
     </defs>
     <g transform="translate(203.484375 280.276563)scale(0.1 -0.1)">
      <use xlink:href="#DejaVuSans-45"/>
      <use x="63.183594" xlink:href="#DejaVuSans-70"/>
      <use x="126.660156" xlink:href="#DejaVuSans-6f"/>
      <use x="187.841797" xlink:href="#DejaVuSans-63"/>
      <use x="242.822266" xlink:href="#DejaVuSans-68"/>
      <use x="306.201172" xlink:href="#DejaVuSans-73"/>
     </g>
    </g>
   </g>
   <g id="matplotlib.axis_2">
    <g id="ytick_1">
     <g id="line2d_10">
      <defs>
       <path d="M 0 0 
L -3.5 0 
" id="m3a4b2112e6" style="stroke:#000000;stroke-width:0.8;"/>
      </defs>
      <g>
       <use style="stroke:#000000;stroke-width:0.8;" x="54" xlink:href="#m3a4b2112e6" y="244.647558"/>
      </g>
     </g>
     <g id="text_11">
      <!-- 0.65 -->
      <defs>
       <path d="M 10.6875 12.40625 
L 21 12.40625 
L 21 0 
L 10.6875 0 
z
" id="DejaVuSans-2e"/>
       <path d="M 33.015625 40.375 
Q 26.375 40.375 22.484375 35.828125 
Q 18.609375 31.296875 18.609375 23.390625 
Q 18.609375 15.53125 22.484375 10.953125 
Q 26.375 6.390625 33.015625 6.390625 
Q 39.65625 6.390625 43.53125 10.953125 
Q 47.40625 15.53125 47.40625 23.390625 
Q 47.40625 31.296875 43.53125 35.828125 
Q 39.65625 40.375 33.015625 40.375 
z
M 52.59375 71.296875 
L 52.59375 62.3125 
Q 48.875 64.0625 45.09375 64.984375 
Q 41.3125 65.921875 37.59375 65.921875 
Q 27.828125 65.921875 22.671875 59.328125 
Q 17.53125 52.734375 16.796875 39.40625 
Q 19.671875 43.65625 24.015625 45.921875 
Q 28.375 48.1875 33.59375 48.1875 
Q 44.578125 48.1875 50.953125 41.515625 
Q 57.328125 34.859375 57.328125 23.390625 
Q 57.328125 12.15625 50.6875 5.359375 
Q 44.046875 -1.421875 33.015625 -1.421875 
Q 20.359375 -1.421875 13.671875 8.265625 
Q 6.984375 17.96875 6.984375 36.375 
Q 6.984375 53.65625 15.1875 63.9375 
Q 23.390625 74.21875 37.203125 74.21875 
Q 40.921875 74.21875 44.703125 73.484375 
Q 48.484375 72.75 52.59375 71.296875 
z
" id="DejaVuSans-36"/>
      </defs>
      <g transform="translate(24.734375 248.446777)scale(0.1 -0.1)">
       <use xlink:href="#DejaVuSans-30"/>
       <use x="63.623047" xlink:href="#DejaVuSans-2e"/>
       <use x="95.410156" xlink:href="#DejaVuSans-36"/>
       <use x="159.033203" xlink:href="#DejaVuSans-35"/>
      </g>
     </g>
    </g>
    <g id="ytick_2">
     <g id="line2d_11">
      <g>
       <use style="stroke:#000000;stroke-width:0.8;" x="54" xlink:href="#m3a4b2112e6" y="213.398246"/>
      </g>
     </g>
     <g id="text_12">
      <!-- 0.70 -->
      <g transform="translate(24.734375 217.197465)scale(0.1 -0.1)">
       <use xlink:href="#DejaVuSans-30"/>
       <use x="63.623047" xlink:href="#DejaVuSans-2e"/>
       <use x="95.410156" xlink:href="#DejaVuSans-37"/>
       <use x="159.033203" xlink:href="#DejaVuSans-30"/>
      </g>
     </g>
    </g>
    <g id="ytick_3">
     <g id="line2d_12">
      <g>
       <use style="stroke:#000000;stroke-width:0.8;" x="54" xlink:href="#m3a4b2112e6" y="182.148935"/>
      </g>
     </g>
     <g id="text_13">
      <!-- 0.75 -->
      <g transform="translate(24.734375 185.948154)scale(0.1 -0.1)">
       <use xlink:href="#DejaVuSans-30"/>
       <use x="63.623047" xlink:href="#DejaVuSans-2e"/>
       <use x="95.410156" xlink:href="#DejaVuSans-37"/>
       <use x="159.033203" xlink:href="#DejaVuSans-35"/>
      </g>
     </g>
    </g>
    <g id="ytick_4">
     <g id="line2d_13">
      <g>
       <use style="stroke:#000000;stroke-width:0.8;" x="54" xlink:href="#m3a4b2112e6" y="150.899624"/>
      </g>
     </g>
     <g id="text_14">
      <!-- 0.80 -->
      <defs>
       <path d="M 31.78125 34.625 
Q 24.75 34.625 20.71875 30.859375 
Q 16.703125 27.09375 16.703125 20.515625 
Q 16.703125 13.921875 20.71875 10.15625 
Q 24.75 6.390625 31.78125 6.390625 
Q 38.8125 6.390625 42.859375 10.171875 
Q 46.921875 13.96875 46.921875 20.515625 
Q 46.921875 27.09375 42.890625 30.859375 
Q 38.875 34.625 31.78125 34.625 
z
M 21.921875 38.8125 
Q 15.578125 40.375 12.03125 44.71875 
Q 8.5 49.078125 8.5 55.328125 
Q 8.5 64.0625 14.71875 69.140625 
Q 20.953125 74.21875 31.78125 74.21875 
Q 42.671875 74.21875 48.875 69.140625 
Q 55.078125 64.0625 55.078125 55.328125 
Q 55.078125 49.078125 51.53125 44.71875 
Q 48 40.375 41.703125 38.8125 
Q 48.828125 37.15625 52.796875 32.3125 
Q 56.78125 27.484375 56.78125 20.515625 
Q 56.78125 9.90625 50.3125 4.234375 
Q 43.84375 -1.421875 31.78125 -1.421875 
Q 19.734375 -1.421875 13.25 4.234375 
Q 6.78125 9.90625 6.78125 20.515625 
Q 6.78125 27.484375 10.78125 32.3125 
Q 14.796875 37.15625 21.921875 38.8125 
z
M 18.3125 54.390625 
Q 18.3125 48.734375 21.84375 45.5625 
Q 25.390625 42.390625 31.78125 42.390625 
Q 38.140625 42.390625 41.71875 45.5625 
Q 45.3125 48.734375 45.3125 54.390625 
Q 45.3125 60.0625 41.71875 63.234375 
Q 38.140625 66.40625 31.78125 66.40625 
Q 25.390625 66.40625 21.84375 63.234375 
Q 18.3125 60.0625 18.3125 54.390625 
z
" id="DejaVuSans-38"/>
      </defs>
      <g transform="translate(24.734375 154.698843)scale(0.1 -0.1)">
       <use xlink:href="#DejaVuSans-30"/>
       <use x="63.623047" xlink:href="#DejaVuSans-2e"/>
       <use x="95.410156" xlink:href="#DejaVuSans-38"/>
       <use x="159.033203" xlink:href="#DejaVuSans-30"/>
      </g>
     </g>
    </g>
    <g id="ytick_5">
     <g id="line2d_14">
      <g>
       <use style="stroke:#000000;stroke-width:0.8;" x="54" xlink:href="#m3a4b2112e6" y="119.650312"/>
      </g>
     </g>
     <g id="text_15">
      <!-- 0.85 -->
      <g transform="translate(24.734375 123.449531)scale(0.1 -0.1)">
       <use xlink:href="#DejaVuSans-30"/>
       <use x="63.623047" xlink:href="#DejaVuSans-2e"/>
       <use x="95.410156" xlink:href="#DejaVuSans-38"/>
       <use x="159.033203" xlink:href="#DejaVuSans-35"/>
      </g>
     </g>
    </g>
    <g id="ytick_6">
     <g id="line2d_15">
      <g>
       <use style="stroke:#000000;stroke-width:0.8;" x="54" xlink:href="#m3a4b2112e6" y="88.401001"/>
      </g>
     </g>
     <g id="text_16">
      <!-- 0.90 -->
      <defs>
       <path d="M 10.984375 1.515625 
L 10.984375 10.5 
Q 14.703125 8.734375 18.5 7.8125 
Q 22.3125 6.890625 25.984375 6.890625 
Q 35.75 6.890625 40.890625 13.453125 
Q 46.046875 20.015625 46.78125 33.40625 
Q 43.953125 29.203125 39.59375 26.953125 
Q 35.25 24.703125 29.984375 24.703125 
Q 19.046875 24.703125 12.671875 31.3125 
Q 6.296875 37.9375 6.296875 49.421875 
Q 6.296875 60.640625 12.9375 67.421875 
Q 19.578125 74.21875 30.609375 74.21875 
Q 43.265625 74.21875 49.921875 64.515625 
Q 56.59375 54.828125 56.59375 36.375 
Q 56.59375 19.140625 48.40625 8.859375 
Q 40.234375 -1.421875 26.421875 -1.421875 
Q 22.703125 -1.421875 18.890625 -0.6875 
Q 15.09375 0.046875 10.984375 1.515625 
z
M 30.609375 32.421875 
Q 37.25 32.421875 41.125 36.953125 
Q 45.015625 41.5 45.015625 49.421875 
Q 45.015625 57.28125 41.125 61.84375 
Q 37.25 66.40625 30.609375 66.40625 
Q 23.96875 66.40625 20.09375 61.84375 
Q 16.21875 57.28125 16.21875 49.421875 
Q 16.21875 41.5 20.09375 36.953125 
Q 23.96875 32.421875 30.609375 32.421875 
z
" id="DejaVuSans-39"/>
      </defs>
      <g transform="translate(24.734375 92.20022)scale(0.1 -0.1)">
       <use xlink:href="#DejaVuSans-30"/>
       <use x="63.623047" xlink:href="#DejaVuSans-2e"/>
       <use x="95.410156" xlink:href="#DejaVuSans-39"/>
       <use x="159.033203" xlink:href="#DejaVuSans-30"/>
      </g>
     </g>
    </g>
    <g id="ytick_7">
     <g id="line2d_16">
      <g>
       <use style="stroke:#000000;stroke-width:0.8;" x="54" xlink:href="#m3a4b2112e6" y="57.15169"/>
      </g>
     </g>
     <g id="text_17">
      <!-- 0.95 -->
      <g transform="translate(24.734375 60.950908)scale(0.1 -0.1)">
       <use xlink:href="#DejaVuSans-30"/>
       <use x="63.623047" xlink:href="#DejaVuSans-2e"/>
       <use x="95.410156" xlink:href="#DejaVuSans-39"/>
       <use x="159.033203" xlink:href="#DejaVuSans-35"/>
      </g>
     </g>
    </g>
    <g id="text_18">
     <!-- Accuracy -->
     <defs>
      <path d="M 34.1875 63.1875 
L 20.796875 26.90625 
L 47.609375 26.90625 
z
M 28.609375 72.90625 
L 39.796875 72.90625 
L 67.578125 0 
L 57.328125 0 
L 50.6875 18.703125 
L 17.828125 18.703125 
L 11.1875 0 
L 0.78125 0 
z
" id="DejaVuSans-41"/>
      <path d="M 8.5 21.578125 
L 8.5 54.6875 
L 17.484375 54.6875 
L 17.484375 21.921875 
Q 17.484375 14.15625 20.5 10.265625 
Q 23.53125 6.390625 29.59375 6.390625 
Q 36.859375 6.390625 41.078125 11.03125 
Q 45.3125 15.671875 45.3125 23.6875 
L 45.3125 54.6875 
L 54.296875 54.6875 
L 54.296875 0 
L 45.3125 0 
L 45.3125 8.40625 
Q 42.046875 3.421875 37.71875 1 
Q 33.40625 -1.421875 27.6875 -1.421875 
Q 18.265625 -1.421875 13.375 4.4375 
Q 8.5 10.296875 8.5 21.578125 
z
M 31.109375 56 
z
" id="DejaVuSans-75"/>
      <path d="M 41.109375 46.296875 
Q 39.59375 47.171875 37.8125 47.578125 
Q 36.03125 48 33.890625 48 
Q 26.265625 48 22.1875 43.046875 
Q 18.109375 38.09375 18.109375 28.8125 
L 18.109375 0 
L 9.078125 0 
L 9.078125 54.6875 
L 18.109375 54.6875 
L 18.109375 46.1875 
Q 20.953125 51.171875 25.484375 53.578125 
Q 30.03125 56 36.53125 56 
Q 37.453125 56 38.578125 55.875 
Q 39.703125 55.765625 41.0625 55.515625 
z
" id="DejaVuSans-72"/>
      <path d="M 34.28125 27.484375 
Q 23.390625 27.484375 19.1875 25 
Q 14.984375 22.515625 14.984375 16.5 
Q 14.984375 11.71875 18.140625 8.90625 
Q 21.296875 6.109375 26.703125 6.109375 
Q 34.1875 6.109375 38.703125 11.40625 
Q 43.21875 16.703125 43.21875 25.484375 
L 43.21875 27.484375 
z
M 52.203125 31.203125 
L 52.203125 0 
L 43.21875 0 
L 43.21875 8.296875 
Q 40.140625 3.328125 35.546875 0.953125 
Q 30.953125 -1.421875 24.3125 -1.421875 
Q 15.921875 -1.421875 10.953125 3.296875 
Q 6 8.015625 6 15.921875 
Q 6 25.140625 12.171875 29.828125 
Q 18.359375 34.515625 30.609375 34.515625 
L 43.21875 34.515625 
L 43.21875 35.40625 
Q 43.21875 41.609375 39.140625 45 
Q 35.0625 48.390625 27.6875 48.390625 
Q 23 48.390625 18.546875 47.265625 
Q 14.109375 46.140625 10.015625 43.890625 
L 10.015625 52.203125 
Q 14.9375 54.109375 19.578125 55.046875 
Q 24.21875 56 28.609375 56 
Q 40.484375 56 46.34375 49.84375 
Q 52.203125 43.703125 52.203125 31.203125 
z
" id="DejaVuSans-61"/>
      <path d="M 32.171875 -5.078125 
Q 28.375 -14.84375 24.75 -17.8125 
Q 21.140625 -20.796875 15.09375 -20.796875 
L 7.90625 -20.796875 
L 7.90625 -13.28125 
L 13.1875 -13.28125 
Q 16.890625 -13.28125 18.9375 -11.515625 
Q 21 -9.765625 23.484375 -3.21875 
L 25.09375 0.875 
L 2.984375 54.6875 
L 12.5 54.6875 
L 29.59375 11.921875 
L 46.6875 54.6875 
L 56.203125 54.6875 
z
" id="DejaVuSans-79"/>
     </defs>
     <g transform="translate(18.654687 166.194844)rotate(-90)scale(0.1 -0.1)">
      <use xlink:href="#DejaVuSans-41"/>
      <use x="68.392578" xlink:href="#DejaVuSans-63"/>
      <use x="123.373047" xlink:href="#DejaVuSans-63"/>
      <use x="178.353516" xlink:href="#DejaVuSans-75"/>
      <use x="241.732422" xlink:href="#DejaVuSans-72"/>
      <use x="282.845703" xlink:href="#DejaVuSans-61"/>
      <use x="344.125" xlink:href="#DejaVuSans-63"/>
      <use x="399.105469" xlink:href="#DejaVuSans-79"/>
     </g>
    </g>
   </g>
   <g id="line2d_17">
    <path clip-path="url(#pa7868ee785)" d="M 69.218182 242.116364 
L 70.747647 234.606112 
L 72.277113 231.293685 
L 73.806578 200.533947 
L 75.336044 160.868154 
L 76.865509 137.31659 
L 78.394975 124.973112 
L 79.92444 117.05662 
L 82.983371 106.421437 
L 84.512837 103.879827 
L 86.042302 99.692419 
L 87.571768 97.171641 
L 89.101233 95.807088 
L 92.160164 91.869675 
L 93.68963 90.328042 
L 95.219095 88.546831 
L 99.807492 85.453149 
L 101.336958 84.203177 
L 102.866423 83.526108 
L 104.395889 81.494903 
L 105.925354 80.474092 
L 107.45482 79.817857 
L 108.984285 79.567862 
L 110.513751 78.672049 
L 112.043216 78.182476 
L 113.572682 77.036668 
L 115.102147 77.307495 
L 116.631613 75.474203 
L 118.161078 75.620033 
L 119.690544 74.786718 
L 121.220009 74.307562 
L 124.27894 73.047173 
L 125.808406 72.359688 
L 127.337871 73.057589 
L 128.867337 71.838866 
L 131.926268 70.943052 
L 133.455733 70.078488 
L 134.985199 69.557666 
L 136.514664 70.30765 
L 138.04413 69.120176 
L 139.573595 69.37017 
L 141.103061 68.911847 
L 142.632526 68.255612 
L 144.161992 68.099365 
L 145.691457 67.474379 
L 147.220923 67.370214 
L 148.750388 66.901475 
L 150.279854 66.088993 
L 151.809319 66.286905 
L 153.338785 66.182741 
L 154.86825 65.74525 
L 156.397716 65.620253 
L 157.927181 64.641108 
L 160.986112 64.98485 
L 162.515578 64.026538 
L 164.045043 63.547382 
L 165.574509 63.391135 
L 168.63344 63.839042 
L 170.162905 62.786982 
L 171.692371 62.828648 
L 173.221836 62.651568 
L 174.751302 61.776588 
L 176.280767 61.693256 
L 177.810233 61.912001 
L 179.339698 61.495344 
L 180.869164 61.224517 
L 183.928095 60.92244 
L 185.457561 60.505782 
L 188.516492 60.839108 
L 190.045957 60.224539 
L 191.575423 59.328725 
L 193.104888 59.630802 
L 194.634354 59.495388 
L 197.693285 58.484994 
L 199.22275 59.234977 
L 200.752216 58.599574 
L 202.281681 57.776676 
L 203.811147 58.297498 
L 205.340612 57.849591 
L 206.870078 57.630846 
L 208.399543 57.693344 
L 209.929009 57.235021 
L 211.458474 57.349602 
L 212.98794 56.807947 
L 214.517405 56.547536 
L 217.576336 56.630868 
L 219.105802 56.693366 
L 220.635267 55.807969 
L 222.164733 55.787136 
L 223.694198 56.485038 
L 225.223664 55.724638 
L 226.753129 55.120484 
L 228.282595 55.412145 
L 229.81206 54.797575 
L 231.341526 55.026736 
L 232.870991 54.985071 
L 234.400457 54.828824 
L 235.929922 54.266337 
L 238.988853 54.380917 
L 240.518319 53.776764 
L 242.047784 53.839263 
L 243.57725 53.703849 
L 245.106715 54.089257 
L 246.636181 53.505937 
L 248.165646 53.34969 
L 249.695112 53.558019 
L 251.224577 52.964282 
L 252.754043 53.047613 
L 254.283508 52.683038 
L 255.812974 52.683038 
L 257.342439 52.901783 
L 258.871905 52.172633 
L 260.40137 51.870556 
L 261.930836 52.224715 
L 263.460302 51.745559 
L 264.989767 52.1518 
L 269.578164 51.130989 
L 271.107629 51.672644 
L 274.16656 51.078907 
L 275.696026 50.745581 
L 277.225491 51.005992 
L 278.754957 50.328923 
L 280.284422 50.297674 
L 281.813888 50.92266 
L 283.343353 49.995597 
L 284.872819 50.474753 
L 286.402284 49.943515 
L 287.93175 50.276841 
L 289.461215 50.099762 
L 290.990681 49.620606 
L 292.520146 49.599773 
L 294.049612 49.120617 
L 295.579077 49.953932 
L 297.108543 48.901871 
L 298.638008 49.453943 
L 300.167474 49.516441 
L 301.696939 49.245614 
L 303.226405 48.828956 
L 304.75587 48.985203 
L 306.285336 47.995641 
L 307.814801 48.297718 
L 309.344267 48.828956 
L 310.873732 48.453965 
L 312.403198 48.433132 
L 313.932663 48.162304 
L 315.462129 48.912288 
L 316.991594 47.745647 
L 318.52106 47.787313 
L 320.050525 47.141494 
L 321.579991 47.756063 
L 323.109456 47.287324 
L 324.638922 46.943581 
L 326.168387 47.224825 
L 327.697853 47.00608 
L 329.227318 47.068579 
L 330.756784 46.922748 
L 332.286249 46.579006 
L 333.815715 46.558173 
L 335.34518 46.839417 
L 336.874646 46.110266 
L 338.404111 46.766502 
L 341.463042 45.891521 
L 342.992508 46.641505 
L 344.521974 46.193598 
L 346.051439 46.224847 
L 347.580905 45.95402 
L 349.11037 45.797773 
L 352.169301 45.141538 
L 353.698767 45.610277 
L 355.228232 45.026957 
L 356.757698 45.526946 
L 358.287163 45.329034 
L 359.816629 45.370699 
L 361.346094 45.079039 
L 362.87556 45.01654 
L 364.405025 44.568634 
L 365.934491 44.797795 
L 368.993422 44.443636 
L 370.522887 44.704047 
L 372.052353 44.776962 
L 373.581818 44.547801 
L 373.581818 44.547801 
" style="fill:none;stroke:#0000ff;stroke-linecap:square;stroke-width:1.5;"/>
    <defs>
     <path d="M 0 3 
C 0.795609 3 1.55874 2.683901 2.12132 2.12132 
C 2.683901 1.55874 3 0.795609 3 0 
C 3 -0.795609 2.683901 -1.55874 2.12132 -2.12132 
C 1.55874 -2.683901 0.795609 -3 0 -3 
C -0.795609 -3 -1.55874 -2.683901 -2.12132 -2.12132 
C -2.683901 -1.55874 -3 -0.795609 -3 0 
C -3 0.795609 -2.683901 1.55874 -2.12132 2.12132 
C -1.55874 2.683901 -0.795609 3 0 3 
z
" id="m9152904524" style="stroke:#0000ff;"/>
    </defs>
    <g clip-path="url(#pa7868ee785)">
     <use style="fill:#ffffff;stroke:#0000ff;" x="69.218182" xlink:href="#m9152904524" y="242.116364"/>
     <use style="fill:#ffffff;stroke:#0000ff;" x="70.747647" xlink:href="#m9152904524" y="234.606112"/>
     <use style="fill:#ffffff;stroke:#0000ff;" x="72.277113" xlink:href="#m9152904524" y="231.293685"/>
     <use style="fill:#ffffff;stroke:#0000ff;" x="73.806578" xlink:href="#m9152904524" y="200.533947"/>
     <use style="fill:#ffffff;stroke:#0000ff;" x="75.336044" xlink:href="#m9152904524" y="160.868154"/>
     <use style="fill:#ffffff;stroke:#0000ff;" x="76.865509" xlink:href="#m9152904524" y="137.31659"/>
     <use style="fill:#ffffff;stroke:#0000ff;" x="78.394975" xlink:href="#m9152904524" y="124.973112"/>
     <use style="fill:#ffffff;stroke:#0000ff;" x="79.92444" xlink:href="#m9152904524" y="117.05662"/>
     <use style="fill:#ffffff;stroke:#0000ff;" x="81.453906" xlink:href="#m9152904524" y="111.723404"/>
     <use style="fill:#ffffff;stroke:#0000ff;" x="82.983371" xlink:href="#m9152904524" y="106.421437"/>
     <use style="fill:#ffffff;stroke:#0000ff;" x="84.512837" xlink:href="#m9152904524" y="103.879827"/>
     <use style="fill:#ffffff;stroke:#0000ff;" x="86.042302" xlink:href="#m9152904524" y="99.692419"/>
     <use style="fill:#ffffff;stroke:#0000ff;" x="87.571768" xlink:href="#m9152904524" y="97.171641"/>
     <use style="fill:#ffffff;stroke:#0000ff;" x="89.101233" xlink:href="#m9152904524" y="95.807088"/>
     <use style="fill:#ffffff;stroke:#0000ff;" x="90.630699" xlink:href="#m9152904524" y="93.827965"/>
     <use style="fill:#ffffff;stroke:#0000ff;" x="92.160164" xlink:href="#m9152904524" y="91.869675"/>
     <use style="fill:#ffffff;stroke:#0000ff;" x="93.68963" xlink:href="#m9152904524" y="90.328042"/>
     <use style="fill:#ffffff;stroke:#0000ff;" x="95.219095" xlink:href="#m9152904524" y="88.546831"/>
     <use style="fill:#ffffff;stroke:#0000ff;" x="96.748561" xlink:href="#m9152904524" y="87.52602"/>
     <use style="fill:#ffffff;stroke:#0000ff;" x="98.278026" xlink:href="#m9152904524" y="86.557292"/>
     <use style="fill:#ffffff;stroke:#0000ff;" x="99.807492" xlink:href="#m9152904524" y="85.453149"/>
     <use style="fill:#ffffff;stroke:#0000ff;" x="101.336958" xlink:href="#m9152904524" y="84.203177"/>
     <use style="fill:#ffffff;stroke:#0000ff;" x="102.866423" xlink:href="#m9152904524" y="83.526108"/>
     <use style="fill:#ffffff;stroke:#0000ff;" x="104.395889" xlink:href="#m9152904524" y="81.494903"/>
     <use style="fill:#ffffff;stroke:#0000ff;" x="105.925354" xlink:href="#m9152904524" y="80.474092"/>
     <use style="fill:#ffffff;stroke:#0000ff;" x="107.45482" xlink:href="#m9152904524" y="79.817857"/>
     <use style="fill:#ffffff;stroke:#0000ff;" x="108.984285" xlink:href="#m9152904524" y="79.567862"/>
     <use style="fill:#ffffff;stroke:#0000ff;" x="110.513751" xlink:href="#m9152904524" y="78.672049"/>
     <use style="fill:#ffffff;stroke:#0000ff;" x="112.043216" xlink:href="#m9152904524" y="78.182476"/>
     <use style="fill:#ffffff;stroke:#0000ff;" x="113.572682" xlink:href="#m9152904524" y="77.036668"/>
     <use style="fill:#ffffff;stroke:#0000ff;" x="115.102147" xlink:href="#m9152904524" y="77.307495"/>
     <use style="fill:#ffffff;stroke:#0000ff;" x="116.631613" xlink:href="#m9152904524" y="75.474203"/>
     <use style="fill:#ffffff;stroke:#0000ff;" x="118.161078" xlink:href="#m9152904524" y="75.620033"/>
     <use style="fill:#ffffff;stroke:#0000ff;" x="119.690544" xlink:href="#m9152904524" y="74.786718"/>
     <use style="fill:#ffffff;stroke:#0000ff;" x="121.220009" xlink:href="#m9152904524" y="74.307562"/>
     <use style="fill:#ffffff;stroke:#0000ff;" x="122.749475" xlink:href="#m9152904524" y="73.703408"/>
     <use style="fill:#ffffff;stroke:#0000ff;" x="124.27894" xlink:href="#m9152904524" y="73.047173"/>
     <use style="fill:#ffffff;stroke:#0000ff;" x="125.808406" xlink:href="#m9152904524" y="72.359688"/>
     <use style="fill:#ffffff;stroke:#0000ff;" x="127.337871" xlink:href="#m9152904524" y="73.057589"/>
     <use style="fill:#ffffff;stroke:#0000ff;" x="128.867337" xlink:href="#m9152904524" y="71.838866"/>
     <use style="fill:#ffffff;stroke:#0000ff;" x="130.396802" xlink:href="#m9152904524" y="71.370126"/>
     <use style="fill:#ffffff;stroke:#0000ff;" x="131.926268" xlink:href="#m9152904524" y="70.943052"/>
     <use style="fill:#ffffff;stroke:#0000ff;" x="133.455733" xlink:href="#m9152904524" y="70.078488"/>
     <use style="fill:#ffffff;stroke:#0000ff;" x="134.985199" xlink:href="#m9152904524" y="69.557666"/>
     <use style="fill:#ffffff;stroke:#0000ff;" x="136.514664" xlink:href="#m9152904524" y="70.30765"/>
     <use style="fill:#ffffff;stroke:#0000ff;" x="138.04413" xlink:href="#m9152904524" y="69.120176"/>
     <use style="fill:#ffffff;stroke:#0000ff;" x="139.573595" xlink:href="#m9152904524" y="69.37017"/>
     <use style="fill:#ffffff;stroke:#0000ff;" x="141.103061" xlink:href="#m9152904524" y="68.911847"/>
     <use style="fill:#ffffff;stroke:#0000ff;" x="142.632526" xlink:href="#m9152904524" y="68.255612"/>
     <use style="fill:#ffffff;stroke:#0000ff;" x="144.161992" xlink:href="#m9152904524" y="68.099365"/>
     <use style="fill:#ffffff;stroke:#0000ff;" x="145.691457" xlink:href="#m9152904524" y="67.474379"/>
     <use style="fill:#ffffff;stroke:#0000ff;" x="147.220923" xlink:href="#m9152904524" y="67.370214"/>
     <use style="fill:#ffffff;stroke:#0000ff;" x="148.750388" xlink:href="#m9152904524" y="66.901475"/>
     <use style="fill:#ffffff;stroke:#0000ff;" x="150.279854" xlink:href="#m9152904524" y="66.088993"/>
     <use style="fill:#ffffff;stroke:#0000ff;" x="151.809319" xlink:href="#m9152904524" y="66.286905"/>
     <use style="fill:#ffffff;stroke:#0000ff;" x="153.338785" xlink:href="#m9152904524" y="66.182741"/>
     <use style="fill:#ffffff;stroke:#0000ff;" x="154.86825" xlink:href="#m9152904524" y="65.74525"/>
     <use style="fill:#ffffff;stroke:#0000ff;" x="156.397716" xlink:href="#m9152904524" y="65.620253"/>
     <use style="fill:#ffffff;stroke:#0000ff;" x="157.927181" xlink:href="#m9152904524" y="64.641108"/>
     <use style="fill:#ffffff;stroke:#0000ff;" x="159.456647" xlink:href="#m9152904524" y="64.849437"/>
     <use style="fill:#ffffff;stroke:#0000ff;" x="160.986112" xlink:href="#m9152904524" y="64.98485"/>
     <use style="fill:#ffffff;stroke:#0000ff;" x="162.515578" xlink:href="#m9152904524" y="64.026538"/>
     <use style="fill:#ffffff;stroke:#0000ff;" x="164.045043" xlink:href="#m9152904524" y="63.547382"/>
     <use style="fill:#ffffff;stroke:#0000ff;" x="165.574509" xlink:href="#m9152904524" y="63.391135"/>
     <use style="fill:#ffffff;stroke:#0000ff;" x="167.103974" xlink:href="#m9152904524" y="63.568215"/>
     <use style="fill:#ffffff;stroke:#0000ff;" x="168.63344" xlink:href="#m9152904524" y="63.839042"/>
     <use style="fill:#ffffff;stroke:#0000ff;" x="170.162905" xlink:href="#m9152904524" y="62.786982"/>
     <use style="fill:#ffffff;stroke:#0000ff;" x="171.692371" xlink:href="#m9152904524" y="62.828648"/>
     <use style="fill:#ffffff;stroke:#0000ff;" x="173.221836" xlink:href="#m9152904524" y="62.651568"/>
     <use style="fill:#ffffff;stroke:#0000ff;" x="174.751302" xlink:href="#m9152904524" y="61.776588"/>
     <use style="fill:#ffffff;stroke:#0000ff;" x="176.280767" xlink:href="#m9152904524" y="61.693256"/>
     <use style="fill:#ffffff;stroke:#0000ff;" x="177.810233" xlink:href="#m9152904524" y="61.912001"/>
     <use style="fill:#ffffff;stroke:#0000ff;" x="179.339698" xlink:href="#m9152904524" y="61.495344"/>
     <use style="fill:#ffffff;stroke:#0000ff;" x="180.869164" xlink:href="#m9152904524" y="61.224517"/>
     <use style="fill:#ffffff;stroke:#0000ff;" x="182.39863" xlink:href="#m9152904524" y="61.06827"/>
     <use style="fill:#ffffff;stroke:#0000ff;" x="183.928095" xlink:href="#m9152904524" y="60.92244"/>
     <use style="fill:#ffffff;stroke:#0000ff;" x="185.457561" xlink:href="#m9152904524" y="60.505782"/>
     <use style="fill:#ffffff;stroke:#0000ff;" x="186.987026" xlink:href="#m9152904524" y="60.620363"/>
     <use style="fill:#ffffff;stroke:#0000ff;" x="188.516492" xlink:href="#m9152904524" y="60.839108"/>
     <use style="fill:#ffffff;stroke:#0000ff;" x="190.045957" xlink:href="#m9152904524" y="60.224539"/>
     <use style="fill:#ffffff;stroke:#0000ff;" x="191.575423" xlink:href="#m9152904524" y="59.328725"/>
     <use style="fill:#ffffff;stroke:#0000ff;" x="193.104888" xlink:href="#m9152904524" y="59.630802"/>
     <use style="fill:#ffffff;stroke:#0000ff;" x="194.634354" xlink:href="#m9152904524" y="59.495388"/>
     <use style="fill:#ffffff;stroke:#0000ff;" x="196.163819" xlink:href="#m9152904524" y="58.995399"/>
     <use style="fill:#ffffff;stroke:#0000ff;" x="197.693285" xlink:href="#m9152904524" y="58.484994"/>
     <use style="fill:#ffffff;stroke:#0000ff;" x="199.22275" xlink:href="#m9152904524" y="59.234977"/>
     <use style="fill:#ffffff;stroke:#0000ff;" x="200.752216" xlink:href="#m9152904524" y="58.599574"/>
     <use style="fill:#ffffff;stroke:#0000ff;" x="202.281681" xlink:href="#m9152904524" y="57.776676"/>
     <use style="fill:#ffffff;stroke:#0000ff;" x="203.811147" xlink:href="#m9152904524" y="58.297498"/>
     <use style="fill:#ffffff;stroke:#0000ff;" x="205.340612" xlink:href="#m9152904524" y="57.849591"/>
     <use style="fill:#ffffff;stroke:#0000ff;" x="206.870078" xlink:href="#m9152904524" y="57.630846"/>
     <use style="fill:#ffffff;stroke:#0000ff;" x="208.399543" xlink:href="#m9152904524" y="57.693344"/>
     <use style="fill:#ffffff;stroke:#0000ff;" x="209.929009" xlink:href="#m9152904524" y="57.235021"/>
     <use style="fill:#ffffff;stroke:#0000ff;" x="211.458474" xlink:href="#m9152904524" y="57.349602"/>
     <use style="fill:#ffffff;stroke:#0000ff;" x="212.98794" xlink:href="#m9152904524" y="56.807947"/>
     <use style="fill:#ffffff;stroke:#0000ff;" x="214.517405" xlink:href="#m9152904524" y="56.547536"/>
     <use style="fill:#ffffff;stroke:#0000ff;" x="216.046871" xlink:href="#m9152904524" y="56.641284"/>
     <use style="fill:#ffffff;stroke:#0000ff;" x="217.576336" xlink:href="#m9152904524" y="56.630868"/>
     <use style="fill:#ffffff;stroke:#0000ff;" x="219.105802" xlink:href="#m9152904524" y="56.693366"/>
     <use style="fill:#ffffff;stroke:#0000ff;" x="220.635267" xlink:href="#m9152904524" y="55.807969"/>
     <use style="fill:#ffffff;stroke:#0000ff;" x="222.164733" xlink:href="#m9152904524" y="55.787136"/>
     <use style="fill:#ffffff;stroke:#0000ff;" x="223.694198" xlink:href="#m9152904524" y="56.485038"/>
     <use style="fill:#ffffff;stroke:#0000ff;" x="225.223664" xlink:href="#m9152904524" y="55.724638"/>
     <use style="fill:#ffffff;stroke:#0000ff;" x="226.753129" xlink:href="#m9152904524" y="55.120484"/>
     <use style="fill:#ffffff;stroke:#0000ff;" x="228.282595" xlink:href="#m9152904524" y="55.412145"/>
     <use style="fill:#ffffff;stroke:#0000ff;" x="229.81206" xlink:href="#m9152904524" y="54.797575"/>
     <use style="fill:#ffffff;stroke:#0000ff;" x="231.341526" xlink:href="#m9152904524" y="55.026736"/>
     <use style="fill:#ffffff;stroke:#0000ff;" x="232.870991" xlink:href="#m9152904524" y="54.985071"/>
     <use style="fill:#ffffff;stroke:#0000ff;" x="234.400457" xlink:href="#m9152904524" y="54.828824"/>
     <use style="fill:#ffffff;stroke:#0000ff;" x="235.929922" xlink:href="#m9152904524" y="54.266337"/>
     <use style="fill:#ffffff;stroke:#0000ff;" x="237.459388" xlink:href="#m9152904524" y="54.297586"/>
     <use style="fill:#ffffff;stroke:#0000ff;" x="238.988853" xlink:href="#m9152904524" y="54.380917"/>
     <use style="fill:#ffffff;stroke:#0000ff;" x="240.518319" xlink:href="#m9152904524" y="53.776764"/>
     <use style="fill:#ffffff;stroke:#0000ff;" x="242.047784" xlink:href="#m9152904524" y="53.839263"/>
     <use style="fill:#ffffff;stroke:#0000ff;" x="243.57725" xlink:href="#m9152904524" y="53.703849"/>
     <use style="fill:#ffffff;stroke:#0000ff;" x="245.106715" xlink:href="#m9152904524" y="54.089257"/>
     <use style="fill:#ffffff;stroke:#0000ff;" x="246.636181" xlink:href="#m9152904524" y="53.505937"/>
     <use style="fill:#ffffff;stroke:#0000ff;" x="248.165646" xlink:href="#m9152904524" y="53.34969"/>
     <use style="fill:#ffffff;stroke:#0000ff;" x="249.695112" xlink:href="#m9152904524" y="53.558019"/>
     <use style="fill:#ffffff;stroke:#0000ff;" x="251.224577" xlink:href="#m9152904524" y="52.964282"/>
     <use style="fill:#ffffff;stroke:#0000ff;" x="252.754043" xlink:href="#m9152904524" y="53.047613"/>
     <use style="fill:#ffffff;stroke:#0000ff;" x="254.283508" xlink:href="#m9152904524" y="52.683038"/>
     <use style="fill:#ffffff;stroke:#0000ff;" x="255.812974" xlink:href="#m9152904524" y="52.683038"/>
     <use style="fill:#ffffff;stroke:#0000ff;" x="257.342439" xlink:href="#m9152904524" y="52.901783"/>
     <use style="fill:#ffffff;stroke:#0000ff;" x="258.871905" xlink:href="#m9152904524" y="52.172633"/>
     <use style="fill:#ffffff;stroke:#0000ff;" x="260.40137" xlink:href="#m9152904524" y="51.870556"/>
     <use style="fill:#ffffff;stroke:#0000ff;" x="261.930836" xlink:href="#m9152904524" y="52.224715"/>
     <use style="fill:#ffffff;stroke:#0000ff;" x="263.460302" xlink:href="#m9152904524" y="51.745559"/>
     <use style="fill:#ffffff;stroke:#0000ff;" x="264.989767" xlink:href="#m9152904524" y="52.1518"/>
     <use style="fill:#ffffff;stroke:#0000ff;" x="266.519233" xlink:href="#m9152904524" y="51.82889"/>
     <use style="fill:#ffffff;stroke:#0000ff;" x="268.048698" xlink:href="#m9152904524" y="51.495564"/>
     <use style="fill:#ffffff;stroke:#0000ff;" x="269.578164" xlink:href="#m9152904524" y="51.130989"/>
     <use style="fill:#ffffff;stroke:#0000ff;" x="271.107629" xlink:href="#m9152904524" y="51.672644"/>
     <use style="fill:#ffffff;stroke:#0000ff;" x="272.637095" xlink:href="#m9152904524" y="51.412233"/>
     <use style="fill:#ffffff;stroke:#0000ff;" x="274.16656" xlink:href="#m9152904524" y="51.078907"/>
     <use style="fill:#ffffff;stroke:#0000ff;" x="275.696026" xlink:href="#m9152904524" y="50.745581"/>
     <use style="fill:#ffffff;stroke:#0000ff;" x="277.225491" xlink:href="#m9152904524" y="51.005992"/>
     <use style="fill:#ffffff;stroke:#0000ff;" x="278.754957" xlink:href="#m9152904524" y="50.328923"/>
     <use style="fill:#ffffff;stroke:#0000ff;" x="280.284422" xlink:href="#m9152904524" y="50.297674"/>
     <use style="fill:#ffffff;stroke:#0000ff;" x="281.813888" xlink:href="#m9152904524" y="50.92266"/>
     <use style="fill:#ffffff;stroke:#0000ff;" x="283.343353" xlink:href="#m9152904524" y="49.995597"/>
     <use style="fill:#ffffff;stroke:#0000ff;" x="284.872819" xlink:href="#m9152904524" y="50.474753"/>
     <use style="fill:#ffffff;stroke:#0000ff;" x="286.402284" xlink:href="#m9152904524" y="49.943515"/>
     <use style="fill:#ffffff;stroke:#0000ff;" x="287.93175" xlink:href="#m9152904524" y="50.276841"/>
     <use style="fill:#ffffff;stroke:#0000ff;" x="289.461215" xlink:href="#m9152904524" y="50.099762"/>
     <use style="fill:#ffffff;stroke:#0000ff;" x="290.990681" xlink:href="#m9152904524" y="49.620606"/>
     <use style="fill:#ffffff;stroke:#0000ff;" x="292.520146" xlink:href="#m9152904524" y="49.599773"/>
     <use style="fill:#ffffff;stroke:#0000ff;" x="294.049612" xlink:href="#m9152904524" y="49.120617"/>
     <use style="fill:#ffffff;stroke:#0000ff;" x="295.579077" xlink:href="#m9152904524" y="49.953932"/>
     <use style="fill:#ffffff;stroke:#0000ff;" x="297.108543" xlink:href="#m9152904524" y="48.901871"/>
     <use style="fill:#ffffff;stroke:#0000ff;" x="298.638008" xlink:href="#m9152904524" y="49.453943"/>
     <use style="fill:#ffffff;stroke:#0000ff;" x="300.167474" xlink:href="#m9152904524" y="49.516441"/>
     <use style="fill:#ffffff;stroke:#0000ff;" x="301.696939" xlink:href="#m9152904524" y="49.245614"/>
     <use style="fill:#ffffff;stroke:#0000ff;" x="303.226405" xlink:href="#m9152904524" y="48.828956"/>
     <use style="fill:#ffffff;stroke:#0000ff;" x="304.75587" xlink:href="#m9152904524" y="48.985203"/>
     <use style="fill:#ffffff;stroke:#0000ff;" x="306.285336" xlink:href="#m9152904524" y="47.995641"/>
     <use style="fill:#ffffff;stroke:#0000ff;" x="307.814801" xlink:href="#m9152904524" y="48.297718"/>
     <use style="fill:#ffffff;stroke:#0000ff;" x="309.344267" xlink:href="#m9152904524" y="48.828956"/>
     <use style="fill:#ffffff;stroke:#0000ff;" x="310.873732" xlink:href="#m9152904524" y="48.453965"/>
     <use style="fill:#ffffff;stroke:#0000ff;" x="312.403198" xlink:href="#m9152904524" y="48.433132"/>
     <use style="fill:#ffffff;stroke:#0000ff;" x="313.932663" xlink:href="#m9152904524" y="48.162304"/>
     <use style="fill:#ffffff;stroke:#0000ff;" x="315.462129" xlink:href="#m9152904524" y="48.912288"/>
     <use style="fill:#ffffff;stroke:#0000ff;" x="316.991594" xlink:href="#m9152904524" y="47.745647"/>
     <use style="fill:#ffffff;stroke:#0000ff;" x="318.52106" xlink:href="#m9152904524" y="47.787313"/>
     <use style="fill:#ffffff;stroke:#0000ff;" x="320.050525" xlink:href="#m9152904524" y="47.141494"/>
     <use style="fill:#ffffff;stroke:#0000ff;" x="321.579991" xlink:href="#m9152904524" y="47.756063"/>
     <use style="fill:#ffffff;stroke:#0000ff;" x="323.109456" xlink:href="#m9152904524" y="47.287324"/>
     <use style="fill:#ffffff;stroke:#0000ff;" x="324.638922" xlink:href="#m9152904524" y="46.943581"/>
     <use style="fill:#ffffff;stroke:#0000ff;" x="326.168387" xlink:href="#m9152904524" y="47.224825"/>
     <use style="fill:#ffffff;stroke:#0000ff;" x="327.697853" xlink:href="#m9152904524" y="47.00608"/>
     <use style="fill:#ffffff;stroke:#0000ff;" x="329.227318" xlink:href="#m9152904524" y="47.068579"/>
     <use style="fill:#ffffff;stroke:#0000ff;" x="330.756784" xlink:href="#m9152904524" y="46.922748"/>
     <use style="fill:#ffffff;stroke:#0000ff;" x="332.286249" xlink:href="#m9152904524" y="46.579006"/>
     <use style="fill:#ffffff;stroke:#0000ff;" x="333.815715" xlink:href="#m9152904524" y="46.558173"/>
     <use style="fill:#ffffff;stroke:#0000ff;" x="335.34518" xlink:href="#m9152904524" y="46.839417"/>
     <use style="fill:#ffffff;stroke:#0000ff;" x="336.874646" xlink:href="#m9152904524" y="46.110266"/>
     <use style="fill:#ffffff;stroke:#0000ff;" x="338.404111" xlink:href="#m9152904524" y="46.766502"/>
     <use style="fill:#ffffff;stroke:#0000ff;" x="339.933577" xlink:href="#m9152904524" y="46.381094"/>
     <use style="fill:#ffffff;stroke:#0000ff;" x="341.463042" xlink:href="#m9152904524" y="45.891521"/>
     <use style="fill:#ffffff;stroke:#0000ff;" x="342.992508" xlink:href="#m9152904524" y="46.641505"/>
     <use style="fill:#ffffff;stroke:#0000ff;" x="344.521974" xlink:href="#m9152904524" y="46.193598"/>
     <use style="fill:#ffffff;stroke:#0000ff;" x="346.051439" xlink:href="#m9152904524" y="46.224847"/>
     <use style="fill:#ffffff;stroke:#0000ff;" x="347.580905" xlink:href="#m9152904524" y="45.95402"/>
     <use style="fill:#ffffff;stroke:#0000ff;" x="349.11037" xlink:href="#m9152904524" y="45.797773"/>
     <use style="fill:#ffffff;stroke:#0000ff;" x="350.639836" xlink:href="#m9152904524" y="45.474864"/>
     <use style="fill:#ffffff;stroke:#0000ff;" x="352.169301" xlink:href="#m9152904524" y="45.141538"/>
     <use style="fill:#ffffff;stroke:#0000ff;" x="353.698767" xlink:href="#m9152904524" y="45.610277"/>
     <use style="fill:#ffffff;stroke:#0000ff;" x="355.228232" xlink:href="#m9152904524" y="45.026957"/>
     <use style="fill:#ffffff;stroke:#0000ff;" x="356.757698" xlink:href="#m9152904524" y="45.526946"/>
     <use style="fill:#ffffff;stroke:#0000ff;" x="358.287163" xlink:href="#m9152904524" y="45.329034"/>
     <use style="fill:#ffffff;stroke:#0000ff;" x="359.816629" xlink:href="#m9152904524" y="45.370699"/>
     <use style="fill:#ffffff;stroke:#0000ff;" x="361.346094" xlink:href="#m9152904524" y="45.079039"/>
     <use style="fill:#ffffff;stroke:#0000ff;" x="362.87556" xlink:href="#m9152904524" y="45.01654"/>
     <use style="fill:#ffffff;stroke:#0000ff;" x="364.405025" xlink:href="#m9152904524" y="44.568634"/>
     <use style="fill:#ffffff;stroke:#0000ff;" x="365.934491" xlink:href="#m9152904524" y="44.797795"/>
     <use style="fill:#ffffff;stroke:#0000ff;" x="367.463956" xlink:href="#m9152904524" y="44.631132"/>
     <use style="fill:#ffffff;stroke:#0000ff;" x="368.993422" xlink:href="#m9152904524" y="44.443636"/>
     <use style="fill:#ffffff;stroke:#0000ff;" x="370.522887" xlink:href="#m9152904524" y="44.704047"/>
     <use style="fill:#ffffff;stroke:#0000ff;" x="372.052353" xlink:href="#m9152904524" y="44.776962"/>
     <use style="fill:#ffffff;stroke:#0000ff;" x="373.581818" xlink:href="#m9152904524" y="44.547801"/>
    </g>
   </g>
   <g id="line2d_18">
    <path clip-path="url(#pa7868ee785)" d="M 69.218182 235.772753 
L 70.747647 235.522759 
L 72.277113 223.085533 
L 73.806578 181.02396 
L 75.336044 157.774473 
L 76.865509 141.08734 
L 78.394975 137.087428 
L 79.92444 130.462575 
L 81.453906 130.150081 
L 82.983371 127.02515 
L 84.512837 124.7752 
L 86.042302 124.275211 
L 87.571768 123.587725 
L 89.101233 121.337776 
L 90.630699 121.400274 
L 92.160164 119.900307 
L 93.68963 119.275321 
L 95.219095 120.150302 
L 96.748561 121.525272 
L 98.278026 119.77531 
L 99.807492 120.650291 
L 101.336958 118.212844 
L 102.866423 118.775332 
L 104.395889 118.087847 
L 105.925354 117.96285 
L 107.45482 121.025282 
L 108.984285 119.025327 
L 110.513751 117.900351 
L 112.043216 118.525338 
L 113.572682 118.40034 
L 115.102147 119.587814 
L 116.631613 120.025304 
L 118.161078 118.150346 
L 119.690544 119.33782 
L 121.220009 119.650313 
L 122.749475 120.2128 
L 124.27894 118.587836 
L 125.808406 117.650357 
L 127.337871 117.587858 
L 128.867337 120.337798 
L 130.396802 119.462817 
L 131.926268 118.837831 
L 133.455733 117.837852 
L 134.985199 118.587836 
L 136.514664 117.650356 
L 138.04413 120.025305 
L 139.573595 116.962872 
L 141.103061 117.96285 
L 142.632526 119.150324 
L 144.161992 117.650357 
L 145.691457 119.025326 
L 147.220923 117.900351 
L 148.750388 120.400296 
L 150.279854 118.025348 
L 151.809319 119.525316 
L 153.338785 116.650379 
L 154.86825 118.150346 
L 156.397716 116.275387 
L 157.927181 117.712855 
L 159.456647 118.150346 
L 160.986112 117.212866 
L 162.515578 117.96285 
L 164.045043 118.212844 
L 165.574509 117.900351 
L 167.103974 117.400362 
L 168.63344 118.587836 
L 170.162905 118.83783 
L 171.692371 117.587858 
L 173.221836 118.212844 
L 174.751302 118.025348 
L 176.280767 119.025326 
L 177.810233 118.775332 
L 179.339698 117.587858 
L 180.869164 119.212822 
L 182.39863 119.525315 
L 183.928095 118.275343 
L 185.457561 118.775332 
L 186.987026 118.962828 
L 188.516492 120.337797 
L 190.045957 120.900285 
L 191.575423 118.962828 
L 193.104888 120.337797 
L 194.634354 118.525337 
L 196.163819 119.77531 
L 197.693285 118.837831 
L 199.22275 119.087825 
L 200.752216 120.087803 
L 202.281681 118.40034 
L 203.811147 120.712789 
L 205.340612 120.587792 
L 206.870078 118.900329 
L 208.399543 121.275277 
L 209.929009 121.400274 
L 211.458474 119.400318 
L 212.98794 119.962806 
L 214.517405 120.337797 
L 216.046871 119.962806 
L 217.576336 119.400318 
L 219.105802 120.775288 
L 220.635267 118.837831 
L 222.164733 119.150324 
L 223.694198 120.462795 
L 225.223664 119.587814 
L 226.753129 120.775288 
L 228.282595 120.525293 
L 229.81206 120.525293 
L 232.870991 119.962806 
L 234.400457 120.837786 
L 235.929922 119.962806 
L 237.459388 120.962784 
L 238.988853 120.900285 
L 240.518319 120.712789 
L 242.047784 119.650312 
L 243.57725 121.337775 
L 246.636181 120.2128 
L 248.165646 119.525315 
L 251.224577 121.525271 
L 252.754043 119.462817 
L 254.283508 120.65029 
L 257.342439 121.087781 
L 258.871905 120.837786 
L 260.40137 119.900307 
L 261.930836 120.275299 
L 263.460302 121.087781 
L 264.989767 121.150279 
L 266.519233 120.2128 
L 268.048698 122.525249 
L 269.578164 120.2128 
L 271.107629 120.837786 
L 272.637095 120.962784 
L 274.16656 125.025194 
L 275.696026 122.650246 
L 277.225491 122.525249 
L 278.754957 121.837764 
L 280.284422 121.025282 
L 281.813888 120.712789 
L 283.343353 120.65029 
L 284.872819 120.025304 
L 286.402284 119.525315 
L 287.93175 121.462772 
L 289.461215 122.212756 
L 290.990681 120.775288 
L 292.520146 122.337753 
L 294.049612 121.462772 
L 295.579077 121.962762 
L 297.108543 120.2128 
L 298.638008 121.150279 
L 300.167474 121.087781 
L 301.696939 121.650268 
L 303.226405 123.462728 
L 304.75587 122.275255 
L 306.285336 123.337731 
L 307.814801 122.087759 
L 309.344267 122.337753 
L 310.873732 120.775288 
L 312.403198 120.837786 
L 313.932663 122.962739 
L 315.462129 122.212756 
L 316.991594 121.025282 
L 318.52106 121.462773 
L 320.050525 122.150257 
L 321.579991 120.525293 
L 323.109456 121.212778 
L 324.638922 121.462773 
L 326.168387 122.46275 
L 327.697853 122.46275 
L 329.227318 121.337775 
L 330.756784 121.150279 
L 332.286249 121.337776 
L 333.815715 124.150213 
L 335.34518 122.02526 
L 336.874646 122.02526 
L 338.404111 120.775288 
L 339.933577 125.400186 
L 341.463042 121.712767 
L 342.992508 121.775266 
L 344.521974 121.400274 
L 346.051439 123.587726 
L 347.580905 122.775244 
L 350.639836 121.712767 
L 352.169301 120.65029 
L 353.698767 123.087737 
L 355.228232 122.087759 
L 356.757698 123.525227 
L 358.287163 122.900241 
L 359.816629 123.40023 
L 361.346094 122.275255 
L 362.87556 123.337731 
L 364.405025 124.150213 
L 365.934491 121.650268 
L 367.463956 123.900219 
L 368.993422 123.775222 
L 370.522887 123.83772 
L 372.052353 124.212712 
L 373.581818 124.025216 
L 373.581818 124.025216 
" style="fill:none;stroke:#ff0000;stroke-linecap:square;stroke-width:1.5;"/>
    <defs>
     <path d="M 0 3 
C 0.795609 3 1.55874 2.683901 2.12132 2.12132 
C 2.683901 1.55874 3 0.795609 3 0 
C 3 -0.795609 2.683901 -1.55874 2.12132 -2.12132 
C 1.55874 -2.683901 0.795609 -3 0 -3 
C -0.795609 -3 -1.55874 -2.683901 -2.12132 -2.12132 
C -2.683901 -1.55874 -3 -0.795609 -3 0 
C -3 0.795609 -2.683901 1.55874 -2.12132 2.12132 
C -1.55874 2.683901 -0.795609 3 0 3 
z
" id="m56ee287edc" style="stroke:#ff0000;"/>
    </defs>
    <g clip-path="url(#pa7868ee785)">
     <use style="fill:#ffffff;stroke:#ff0000;" x="69.218182" xlink:href="#m56ee287edc" y="235.772753"/>
     <use style="fill:#ffffff;stroke:#ff0000;" x="70.747647" xlink:href="#m56ee287edc" y="235.522759"/>
     <use style="fill:#ffffff;stroke:#ff0000;" x="72.277113" xlink:href="#m56ee287edc" y="223.085533"/>
     <use style="fill:#ffffff;stroke:#ff0000;" x="73.806578" xlink:href="#m56ee287edc" y="181.02396"/>
     <use style="fill:#ffffff;stroke:#ff0000;" x="75.336044" xlink:href="#m56ee287edc" y="157.774473"/>
     <use style="fill:#ffffff;stroke:#ff0000;" x="76.865509" xlink:href="#m56ee287edc" y="141.08734"/>
     <use style="fill:#ffffff;stroke:#ff0000;" x="78.394975" xlink:href="#m56ee287edc" y="137.087428"/>
     <use style="fill:#ffffff;stroke:#ff0000;" x="79.92444" xlink:href="#m56ee287edc" y="130.462575"/>
     <use style="fill:#ffffff;stroke:#ff0000;" x="81.453906" xlink:href="#m56ee287edc" y="130.150081"/>
     <use style="fill:#ffffff;stroke:#ff0000;" x="82.983371" xlink:href="#m56ee287edc" y="127.02515"/>
     <use style="fill:#ffffff;stroke:#ff0000;" x="84.512837" xlink:href="#m56ee287edc" y="124.7752"/>
     <use style="fill:#ffffff;stroke:#ff0000;" x="86.042302" xlink:href="#m56ee287edc" y="124.275211"/>
     <use style="fill:#ffffff;stroke:#ff0000;" x="87.571768" xlink:href="#m56ee287edc" y="123.587725"/>
     <use style="fill:#ffffff;stroke:#ff0000;" x="89.101233" xlink:href="#m56ee287edc" y="121.337776"/>
     <use style="fill:#ffffff;stroke:#ff0000;" x="90.630699" xlink:href="#m56ee287edc" y="121.400274"/>
     <use style="fill:#ffffff;stroke:#ff0000;" x="92.160164" xlink:href="#m56ee287edc" y="119.900307"/>
     <use style="fill:#ffffff;stroke:#ff0000;" x="93.68963" xlink:href="#m56ee287edc" y="119.275321"/>
     <use style="fill:#ffffff;stroke:#ff0000;" x="95.219095" xlink:href="#m56ee287edc" y="120.150302"/>
     <use style="fill:#ffffff;stroke:#ff0000;" x="96.748561" xlink:href="#m56ee287edc" y="121.525272"/>
     <use style="fill:#ffffff;stroke:#ff0000;" x="98.278026" xlink:href="#m56ee287edc" y="119.77531"/>
     <use style="fill:#ffffff;stroke:#ff0000;" x="99.807492" xlink:href="#m56ee287edc" y="120.650291"/>
     <use style="fill:#ffffff;stroke:#ff0000;" x="101.336958" xlink:href="#m56ee287edc" y="118.212844"/>
     <use style="fill:#ffffff;stroke:#ff0000;" x="102.866423" xlink:href="#m56ee287edc" y="118.775332"/>
     <use style="fill:#ffffff;stroke:#ff0000;" x="104.395889" xlink:href="#m56ee287edc" y="118.087847"/>
     <use style="fill:#ffffff;stroke:#ff0000;" x="105.925354" xlink:href="#m56ee287edc" y="117.96285"/>
     <use style="fill:#ffffff;stroke:#ff0000;" x="107.45482" xlink:href="#m56ee287edc" y="121.025282"/>
     <use style="fill:#ffffff;stroke:#ff0000;" x="108.984285" xlink:href="#m56ee287edc" y="119.025327"/>
     <use style="fill:#ffffff;stroke:#ff0000;" x="110.513751" xlink:href="#m56ee287edc" y="117.900351"/>
     <use style="fill:#ffffff;stroke:#ff0000;" x="112.043216" xlink:href="#m56ee287edc" y="118.525338"/>
     <use style="fill:#ffffff;stroke:#ff0000;" x="113.572682" xlink:href="#m56ee287edc" y="118.40034"/>
     <use style="fill:#ffffff;stroke:#ff0000;" x="115.102147" xlink:href="#m56ee287edc" y="119.587814"/>
     <use style="fill:#ffffff;stroke:#ff0000;" x="116.631613" xlink:href="#m56ee287edc" y="120.025304"/>
     <use style="fill:#ffffff;stroke:#ff0000;" x="118.161078" xlink:href="#m56ee287edc" y="118.150346"/>
     <use style="fill:#ffffff;stroke:#ff0000;" x="119.690544" xlink:href="#m56ee287edc" y="119.33782"/>
     <use style="fill:#ffffff;stroke:#ff0000;" x="121.220009" xlink:href="#m56ee287edc" y="119.650313"/>
     <use style="fill:#ffffff;stroke:#ff0000;" x="122.749475" xlink:href="#m56ee287edc" y="120.2128"/>
     <use style="fill:#ffffff;stroke:#ff0000;" x="124.27894" xlink:href="#m56ee287edc" y="118.587836"/>
     <use style="fill:#ffffff;stroke:#ff0000;" x="125.808406" xlink:href="#m56ee287edc" y="117.650357"/>
     <use style="fill:#ffffff;stroke:#ff0000;" x="127.337871" xlink:href="#m56ee287edc" y="117.587858"/>
     <use style="fill:#ffffff;stroke:#ff0000;" x="128.867337" xlink:href="#m56ee287edc" y="120.337798"/>
     <use style="fill:#ffffff;stroke:#ff0000;" x="130.396802" xlink:href="#m56ee287edc" y="119.462817"/>
     <use style="fill:#ffffff;stroke:#ff0000;" x="131.926268" xlink:href="#m56ee287edc" y="118.837831"/>
     <use style="fill:#ffffff;stroke:#ff0000;" x="133.455733" xlink:href="#m56ee287edc" y="117.837852"/>
     <use style="fill:#ffffff;stroke:#ff0000;" x="134.985199" xlink:href="#m56ee287edc" y="118.587836"/>
     <use style="fill:#ffffff;stroke:#ff0000;" x="136.514664" xlink:href="#m56ee287edc" y="117.650356"/>
     <use style="fill:#ffffff;stroke:#ff0000;" x="138.04413" xlink:href="#m56ee287edc" y="120.025305"/>
     <use style="fill:#ffffff;stroke:#ff0000;" x="139.573595" xlink:href="#m56ee287edc" y="116.962872"/>
     <use style="fill:#ffffff;stroke:#ff0000;" x="141.103061" xlink:href="#m56ee287edc" y="117.96285"/>
     <use style="fill:#ffffff;stroke:#ff0000;" x="142.632526" xlink:href="#m56ee287edc" y="119.150324"/>
     <use style="fill:#ffffff;stroke:#ff0000;" x="144.161992" xlink:href="#m56ee287edc" y="117.650357"/>
     <use style="fill:#ffffff;stroke:#ff0000;" x="145.691457" xlink:href="#m56ee287edc" y="119.025326"/>
     <use style="fill:#ffffff;stroke:#ff0000;" x="147.220923" xlink:href="#m56ee287edc" y="117.900351"/>
     <use style="fill:#ffffff;stroke:#ff0000;" x="148.750388" xlink:href="#m56ee287edc" y="120.400296"/>
     <use style="fill:#ffffff;stroke:#ff0000;" x="150.279854" xlink:href="#m56ee287edc" y="118.025348"/>
     <use style="fill:#ffffff;stroke:#ff0000;" x="151.809319" xlink:href="#m56ee287edc" y="119.525316"/>
     <use style="fill:#ffffff;stroke:#ff0000;" x="153.338785" xlink:href="#m56ee287edc" y="116.650379"/>
     <use style="fill:#ffffff;stroke:#ff0000;" x="154.86825" xlink:href="#m56ee287edc" y="118.150346"/>
     <use style="fill:#ffffff;stroke:#ff0000;" x="156.397716" xlink:href="#m56ee287edc" y="116.275387"/>
     <use style="fill:#ffffff;stroke:#ff0000;" x="157.927181" xlink:href="#m56ee287edc" y="117.712855"/>
     <use style="fill:#ffffff;stroke:#ff0000;" x="159.456647" xlink:href="#m56ee287edc" y="118.150346"/>
     <use style="fill:#ffffff;stroke:#ff0000;" x="160.986112" xlink:href="#m56ee287edc" y="117.212866"/>
     <use style="fill:#ffffff;stroke:#ff0000;" x="162.515578" xlink:href="#m56ee287edc" y="117.96285"/>
     <use style="fill:#ffffff;stroke:#ff0000;" x="164.045043" xlink:href="#m56ee287edc" y="118.212844"/>
     <use style="fill:#ffffff;stroke:#ff0000;" x="165.574509" xlink:href="#m56ee287edc" y="117.900351"/>
     <use style="fill:#ffffff;stroke:#ff0000;" x="167.103974" xlink:href="#m56ee287edc" y="117.400362"/>
     <use style="fill:#ffffff;stroke:#ff0000;" x="168.63344" xlink:href="#m56ee287edc" y="118.587836"/>
     <use style="fill:#ffffff;stroke:#ff0000;" x="170.162905" xlink:href="#m56ee287edc" y="118.83783"/>
     <use style="fill:#ffffff;stroke:#ff0000;" x="171.692371" xlink:href="#m56ee287edc" y="117.587858"/>
     <use style="fill:#ffffff;stroke:#ff0000;" x="173.221836" xlink:href="#m56ee287edc" y="118.212844"/>
     <use style="fill:#ffffff;stroke:#ff0000;" x="174.751302" xlink:href="#m56ee287edc" y="118.025348"/>
     <use style="fill:#ffffff;stroke:#ff0000;" x="176.280767" xlink:href="#m56ee287edc" y="119.025326"/>
     <use style="fill:#ffffff;stroke:#ff0000;" x="177.810233" xlink:href="#m56ee287edc" y="118.775332"/>
     <use style="fill:#ffffff;stroke:#ff0000;" x="179.339698" xlink:href="#m56ee287edc" y="117.587858"/>
     <use style="fill:#ffffff;stroke:#ff0000;" x="180.869164" xlink:href="#m56ee287edc" y="119.212822"/>
     <use style="fill:#ffffff;stroke:#ff0000;" x="182.39863" xlink:href="#m56ee287edc" y="119.525315"/>
     <use style="fill:#ffffff;stroke:#ff0000;" x="183.928095" xlink:href="#m56ee287edc" y="118.275343"/>
     <use style="fill:#ffffff;stroke:#ff0000;" x="185.457561" xlink:href="#m56ee287edc" y="118.775332"/>
     <use style="fill:#ffffff;stroke:#ff0000;" x="186.987026" xlink:href="#m56ee287edc" y="118.962828"/>
     <use style="fill:#ffffff;stroke:#ff0000;" x="188.516492" xlink:href="#m56ee287edc" y="120.337797"/>
     <use style="fill:#ffffff;stroke:#ff0000;" x="190.045957" xlink:href="#m56ee287edc" y="120.900285"/>
     <use style="fill:#ffffff;stroke:#ff0000;" x="191.575423" xlink:href="#m56ee287edc" y="118.962828"/>
     <use style="fill:#ffffff;stroke:#ff0000;" x="193.104888" xlink:href="#m56ee287edc" y="120.337797"/>
     <use style="fill:#ffffff;stroke:#ff0000;" x="194.634354" xlink:href="#m56ee287edc" y="118.525337"/>
     <use style="fill:#ffffff;stroke:#ff0000;" x="196.163819" xlink:href="#m56ee287edc" y="119.77531"/>
     <use style="fill:#ffffff;stroke:#ff0000;" x="197.693285" xlink:href="#m56ee287edc" y="118.837831"/>
     <use style="fill:#ffffff;stroke:#ff0000;" x="199.22275" xlink:href="#m56ee287edc" y="119.087825"/>
     <use style="fill:#ffffff;stroke:#ff0000;" x="200.752216" xlink:href="#m56ee287edc" y="120.087803"/>
     <use style="fill:#ffffff;stroke:#ff0000;" x="202.281681" xlink:href="#m56ee287edc" y="118.40034"/>
     <use style="fill:#ffffff;stroke:#ff0000;" x="203.811147" xlink:href="#m56ee287edc" y="120.712789"/>
     <use style="fill:#ffffff;stroke:#ff0000;" x="205.340612" xlink:href="#m56ee287edc" y="120.587792"/>
     <use style="fill:#ffffff;stroke:#ff0000;" x="206.870078" xlink:href="#m56ee287edc" y="118.900329"/>
     <use style="fill:#ffffff;stroke:#ff0000;" x="208.399543" xlink:href="#m56ee287edc" y="121.275277"/>
     <use style="fill:#ffffff;stroke:#ff0000;" x="209.929009" xlink:href="#m56ee287edc" y="121.400274"/>
     <use style="fill:#ffffff;stroke:#ff0000;" x="211.458474" xlink:href="#m56ee287edc" y="119.400318"/>
     <use style="fill:#ffffff;stroke:#ff0000;" x="212.98794" xlink:href="#m56ee287edc" y="119.962806"/>
     <use style="fill:#ffffff;stroke:#ff0000;" x="214.517405" xlink:href="#m56ee287edc" y="120.337797"/>
     <use style="fill:#ffffff;stroke:#ff0000;" x="216.046871" xlink:href="#m56ee287edc" y="119.962806"/>
     <use style="fill:#ffffff;stroke:#ff0000;" x="217.576336" xlink:href="#m56ee287edc" y="119.400318"/>
     <use style="fill:#ffffff;stroke:#ff0000;" x="219.105802" xlink:href="#m56ee287edc" y="120.775288"/>
     <use style="fill:#ffffff;stroke:#ff0000;" x="220.635267" xlink:href="#m56ee287edc" y="118.837831"/>
     <use style="fill:#ffffff;stroke:#ff0000;" x="222.164733" xlink:href="#m56ee287edc" y="119.150324"/>
     <use style="fill:#ffffff;stroke:#ff0000;" x="223.694198" xlink:href="#m56ee287edc" y="120.462795"/>
     <use style="fill:#ffffff;stroke:#ff0000;" x="225.223664" xlink:href="#m56ee287edc" y="119.587814"/>
     <use style="fill:#ffffff;stroke:#ff0000;" x="226.753129" xlink:href="#m56ee287edc" y="120.775288"/>
     <use style="fill:#ffffff;stroke:#ff0000;" x="228.282595" xlink:href="#m56ee287edc" y="120.525293"/>
     <use style="fill:#ffffff;stroke:#ff0000;" x="229.81206" xlink:href="#m56ee287edc" y="120.525293"/>
     <use style="fill:#ffffff;stroke:#ff0000;" x="231.341526" xlink:href="#m56ee287edc" y="120.275299"/>
     <use style="fill:#ffffff;stroke:#ff0000;" x="232.870991" xlink:href="#m56ee287edc" y="119.962806"/>
     <use style="fill:#ffffff;stroke:#ff0000;" x="234.400457" xlink:href="#m56ee287edc" y="120.837786"/>
     <use style="fill:#ffffff;stroke:#ff0000;" x="235.929922" xlink:href="#m56ee287edc" y="119.962806"/>
     <use style="fill:#ffffff;stroke:#ff0000;" x="237.459388" xlink:href="#m56ee287edc" y="120.962784"/>
     <use style="fill:#ffffff;stroke:#ff0000;" x="238.988853" xlink:href="#m56ee287edc" y="120.900285"/>
     <use style="fill:#ffffff;stroke:#ff0000;" x="240.518319" xlink:href="#m56ee287edc" y="120.712789"/>
     <use style="fill:#ffffff;stroke:#ff0000;" x="242.047784" xlink:href="#m56ee287edc" y="119.650312"/>
     <use style="fill:#ffffff;stroke:#ff0000;" x="243.57725" xlink:href="#m56ee287edc" y="121.337775"/>
     <use style="fill:#ffffff;stroke:#ff0000;" x="245.106715" xlink:href="#m56ee287edc" y="120.775288"/>
     <use style="fill:#ffffff;stroke:#ff0000;" x="246.636181" xlink:href="#m56ee287edc" y="120.2128"/>
     <use style="fill:#ffffff;stroke:#ff0000;" x="248.165646" xlink:href="#m56ee287edc" y="119.525315"/>
     <use style="fill:#ffffff;stroke:#ff0000;" x="249.695112" xlink:href="#m56ee287edc" y="120.462795"/>
     <use style="fill:#ffffff;stroke:#ff0000;" x="251.224577" xlink:href="#m56ee287edc" y="121.525271"/>
     <use style="fill:#ffffff;stroke:#ff0000;" x="252.754043" xlink:href="#m56ee287edc" y="119.462817"/>
     <use style="fill:#ffffff;stroke:#ff0000;" x="254.283508" xlink:href="#m56ee287edc" y="120.65029"/>
     <use style="fill:#ffffff;stroke:#ff0000;" x="255.812974" xlink:href="#m56ee287edc" y="120.900285"/>
     <use style="fill:#ffffff;stroke:#ff0000;" x="257.342439" xlink:href="#m56ee287edc" y="121.087781"/>
     <use style="fill:#ffffff;stroke:#ff0000;" x="258.871905" xlink:href="#m56ee287edc" y="120.837786"/>
     <use style="fill:#ffffff;stroke:#ff0000;" x="260.40137" xlink:href="#m56ee287edc" y="119.900307"/>
     <use style="fill:#ffffff;stroke:#ff0000;" x="261.930836" xlink:href="#m56ee287edc" y="120.275299"/>
     <use style="fill:#ffffff;stroke:#ff0000;" x="263.460302" xlink:href="#m56ee287edc" y="121.087781"/>
     <use style="fill:#ffffff;stroke:#ff0000;" x="264.989767" xlink:href="#m56ee287edc" y="121.150279"/>
     <use style="fill:#ffffff;stroke:#ff0000;" x="266.519233" xlink:href="#m56ee287edc" y="120.2128"/>
     <use style="fill:#ffffff;stroke:#ff0000;" x="268.048698" xlink:href="#m56ee287edc" y="122.525249"/>
     <use style="fill:#ffffff;stroke:#ff0000;" x="269.578164" xlink:href="#m56ee287edc" y="120.2128"/>
     <use style="fill:#ffffff;stroke:#ff0000;" x="271.107629" xlink:href="#m56ee287edc" y="120.837786"/>
     <use style="fill:#ffffff;stroke:#ff0000;" x="272.637095" xlink:href="#m56ee287edc" y="120.962784"/>
     <use style="fill:#ffffff;stroke:#ff0000;" x="274.16656" xlink:href="#m56ee287edc" y="125.025194"/>
     <use style="fill:#ffffff;stroke:#ff0000;" x="275.696026" xlink:href="#m56ee287edc" y="122.650246"/>
     <use style="fill:#ffffff;stroke:#ff0000;" x="277.225491" xlink:href="#m56ee287edc" y="122.525249"/>
     <use style="fill:#ffffff;stroke:#ff0000;" x="278.754957" xlink:href="#m56ee287edc" y="121.837764"/>
     <use style="fill:#ffffff;stroke:#ff0000;" x="280.284422" xlink:href="#m56ee287edc" y="121.025282"/>
     <use style="fill:#ffffff;stroke:#ff0000;" x="281.813888" xlink:href="#m56ee287edc" y="120.712789"/>
     <use style="fill:#ffffff;stroke:#ff0000;" x="283.343353" xlink:href="#m56ee287edc" y="120.65029"/>
     <use style="fill:#ffffff;stroke:#ff0000;" x="284.872819" xlink:href="#m56ee287edc" y="120.025304"/>
     <use style="fill:#ffffff;stroke:#ff0000;" x="286.402284" xlink:href="#m56ee287edc" y="119.525315"/>
     <use style="fill:#ffffff;stroke:#ff0000;" x="287.93175" xlink:href="#m56ee287edc" y="121.462772"/>
     <use style="fill:#ffffff;stroke:#ff0000;" x="289.461215" xlink:href="#m56ee287edc" y="122.212756"/>
     <use style="fill:#ffffff;stroke:#ff0000;" x="290.990681" xlink:href="#m56ee287edc" y="120.775288"/>
     <use style="fill:#ffffff;stroke:#ff0000;" x="292.520146" xlink:href="#m56ee287edc" y="122.337753"/>
     <use style="fill:#ffffff;stroke:#ff0000;" x="294.049612" xlink:href="#m56ee287edc" y="121.462772"/>
     <use style="fill:#ffffff;stroke:#ff0000;" x="295.579077" xlink:href="#m56ee287edc" y="121.962762"/>
     <use style="fill:#ffffff;stroke:#ff0000;" x="297.108543" xlink:href="#m56ee287edc" y="120.2128"/>
     <use style="fill:#ffffff;stroke:#ff0000;" x="298.638008" xlink:href="#m56ee287edc" y="121.150279"/>
     <use style="fill:#ffffff;stroke:#ff0000;" x="300.167474" xlink:href="#m56ee287edc" y="121.087781"/>
     <use style="fill:#ffffff;stroke:#ff0000;" x="301.696939" xlink:href="#m56ee287edc" y="121.650268"/>
     <use style="fill:#ffffff;stroke:#ff0000;" x="303.226405" xlink:href="#m56ee287edc" y="123.462728"/>
     <use style="fill:#ffffff;stroke:#ff0000;" x="304.75587" xlink:href="#m56ee287edc" y="122.275255"/>
     <use style="fill:#ffffff;stroke:#ff0000;" x="306.285336" xlink:href="#m56ee287edc" y="123.337731"/>
     <use style="fill:#ffffff;stroke:#ff0000;" x="307.814801" xlink:href="#m56ee287edc" y="122.087759"/>
     <use style="fill:#ffffff;stroke:#ff0000;" x="309.344267" xlink:href="#m56ee287edc" y="122.337753"/>
     <use style="fill:#ffffff;stroke:#ff0000;" x="310.873732" xlink:href="#m56ee287edc" y="120.775288"/>
     <use style="fill:#ffffff;stroke:#ff0000;" x="312.403198" xlink:href="#m56ee287edc" y="120.837786"/>
     <use style="fill:#ffffff;stroke:#ff0000;" x="313.932663" xlink:href="#m56ee287edc" y="122.962739"/>
     <use style="fill:#ffffff;stroke:#ff0000;" x="315.462129" xlink:href="#m56ee287edc" y="122.212756"/>
     <use style="fill:#ffffff;stroke:#ff0000;" x="316.991594" xlink:href="#m56ee287edc" y="121.025282"/>
     <use style="fill:#ffffff;stroke:#ff0000;" x="318.52106" xlink:href="#m56ee287edc" y="121.462773"/>
     <use style="fill:#ffffff;stroke:#ff0000;" x="320.050525" xlink:href="#m56ee287edc" y="122.150257"/>
     <use style="fill:#ffffff;stroke:#ff0000;" x="321.579991" xlink:href="#m56ee287edc" y="120.525293"/>
     <use style="fill:#ffffff;stroke:#ff0000;" x="323.109456" xlink:href="#m56ee287edc" y="121.212778"/>
     <use style="fill:#ffffff;stroke:#ff0000;" x="324.638922" xlink:href="#m56ee287edc" y="121.462773"/>
     <use style="fill:#ffffff;stroke:#ff0000;" x="326.168387" xlink:href="#m56ee287edc" y="122.46275"/>
     <use style="fill:#ffffff;stroke:#ff0000;" x="327.697853" xlink:href="#m56ee287edc" y="122.46275"/>
     <use style="fill:#ffffff;stroke:#ff0000;" x="329.227318" xlink:href="#m56ee287edc" y="121.337775"/>
     <use style="fill:#ffffff;stroke:#ff0000;" x="330.756784" xlink:href="#m56ee287edc" y="121.150279"/>
     <use style="fill:#ffffff;stroke:#ff0000;" x="332.286249" xlink:href="#m56ee287edc" y="121.337776"/>
     <use style="fill:#ffffff;stroke:#ff0000;" x="333.815715" xlink:href="#m56ee287edc" y="124.150213"/>
     <use style="fill:#ffffff;stroke:#ff0000;" x="335.34518" xlink:href="#m56ee287edc" y="122.02526"/>
     <use style="fill:#ffffff;stroke:#ff0000;" x="336.874646" xlink:href="#m56ee287edc" y="122.02526"/>
     <use style="fill:#ffffff;stroke:#ff0000;" x="338.404111" xlink:href="#m56ee287edc" y="120.775288"/>
     <use style="fill:#ffffff;stroke:#ff0000;" x="339.933577" xlink:href="#m56ee287edc" y="125.400186"/>
     <use style="fill:#ffffff;stroke:#ff0000;" x="341.463042" xlink:href="#m56ee287edc" y="121.712767"/>
     <use style="fill:#ffffff;stroke:#ff0000;" x="342.992508" xlink:href="#m56ee287edc" y="121.775266"/>
     <use style="fill:#ffffff;stroke:#ff0000;" x="344.521974" xlink:href="#m56ee287edc" y="121.400274"/>
     <use style="fill:#ffffff;stroke:#ff0000;" x="346.051439" xlink:href="#m56ee287edc" y="123.587726"/>
     <use style="fill:#ffffff;stroke:#ff0000;" x="347.580905" xlink:href="#m56ee287edc" y="122.775244"/>
     <use style="fill:#ffffff;stroke:#ff0000;" x="349.11037" xlink:href="#m56ee287edc" y="122.212756"/>
     <use style="fill:#ffffff;stroke:#ff0000;" x="350.639836" xlink:href="#m56ee287edc" y="121.712767"/>
     <use style="fill:#ffffff;stroke:#ff0000;" x="352.169301" xlink:href="#m56ee287edc" y="120.65029"/>
     <use style="fill:#ffffff;stroke:#ff0000;" x="353.698767" xlink:href="#m56ee287edc" y="123.087737"/>
     <use style="fill:#ffffff;stroke:#ff0000;" x="355.228232" xlink:href="#m56ee287edc" y="122.087759"/>
     <use style="fill:#ffffff;stroke:#ff0000;" x="356.757698" xlink:href="#m56ee287edc" y="123.525227"/>
     <use style="fill:#ffffff;stroke:#ff0000;" x="358.287163" xlink:href="#m56ee287edc" y="122.900241"/>
     <use style="fill:#ffffff;stroke:#ff0000;" x="359.816629" xlink:href="#m56ee287edc" y="123.40023"/>
     <use style="fill:#ffffff;stroke:#ff0000;" x="361.346094" xlink:href="#m56ee287edc" y="122.275255"/>
     <use style="fill:#ffffff;stroke:#ff0000;" x="362.87556" xlink:href="#m56ee287edc" y="123.337731"/>
     <use style="fill:#ffffff;stroke:#ff0000;" x="364.405025" xlink:href="#m56ee287edc" y="124.150213"/>
     <use style="fill:#ffffff;stroke:#ff0000;" x="365.934491" xlink:href="#m56ee287edc" y="121.650268"/>
     <use style="fill:#ffffff;stroke:#ff0000;" x="367.463956" xlink:href="#m56ee287edc" y="123.900219"/>
     <use style="fill:#ffffff;stroke:#ff0000;" x="368.993422" xlink:href="#m56ee287edc" y="123.775222"/>
     <use style="fill:#ffffff;stroke:#ff0000;" x="370.522887" xlink:href="#m56ee287edc" y="123.83772"/>
     <use style="fill:#ffffff;stroke:#ff0000;" x="372.052353" xlink:href="#m56ee287edc" y="124.212712"/>
     <use style="fill:#ffffff;stroke:#ff0000;" x="373.581818" xlink:href="#m56ee287edc" y="124.025216"/>
    </g>
   </g>
   <g id="patch_3">
    <path d="M 54 252 
L 54 34.56 
" style="fill:none;stroke:#000000;stroke-linecap:square;stroke-linejoin:miter;stroke-width:0.8;"/>
   </g>
   <g id="patch_4">
    <path d="M 388.8 252 
L 388.8 34.56 
" style="fill:none;stroke:#000000;stroke-linecap:square;stroke-linejoin:miter;stroke-width:0.8;"/>
   </g>
   <g id="patch_5">
    <path d="M 54 252 
L 388.8 252 
" style="fill:none;stroke:#000000;stroke-linecap:square;stroke-linejoin:miter;stroke-width:0.8;"/>
   </g>
   <g id="patch_6">
    <path d="M 54 34.56 
L 388.8 34.56 
" style="fill:none;stroke:#000000;stroke-linecap:square;stroke-linejoin:miter;stroke-width:0.8;"/>
   </g>
   <g id="text_19">
    <!-- Training and validation accuracy -->
    <defs>
     <path d="M -0.296875 72.90625 
L 61.375 72.90625 
L 61.375 64.59375 
L 35.5 64.59375 
L 35.5 0 
L 25.59375 0 
L 25.59375 64.59375 
L -0.296875 64.59375 
z
" id="DejaVuSans-54"/>
     <path d="M 9.421875 54.6875 
L 18.40625 54.6875 
L 18.40625 0 
L 9.421875 0 
z
M 9.421875 75.984375 
L 18.40625 75.984375 
L 18.40625 64.59375 
L 9.421875 64.59375 
z
" id="DejaVuSans-69"/>
     <path d="M 54.890625 33.015625 
L 54.890625 0 
L 45.90625 0 
L 45.90625 32.71875 
Q 45.90625 40.484375 42.875 44.328125 
Q 39.84375 48.1875 33.796875 48.1875 
Q 26.515625 48.1875 22.3125 43.546875 
Q 18.109375 38.921875 18.109375 30.90625 
L 18.109375 0 
L 9.078125 0 
L 9.078125 54.6875 
L 18.109375 54.6875 
L 18.109375 46.1875 
Q 21.34375 51.125 25.703125 53.5625 
Q 30.078125 56 35.796875 56 
Q 45.21875 56 50.046875 50.171875 
Q 54.890625 44.34375 54.890625 33.015625 
z
" id="DejaVuSans-6e"/>
     <path d="M 45.40625 27.984375 
Q 45.40625 37.75 41.375 43.109375 
Q 37.359375 48.484375 30.078125 48.484375 
Q 22.859375 48.484375 18.828125 43.109375 
Q 14.796875 37.75 14.796875 27.984375 
Q 14.796875 18.265625 18.828125 12.890625 
Q 22.859375 7.515625 30.078125 7.515625 
Q 37.359375 7.515625 41.375 12.890625 
Q 45.40625 18.265625 45.40625 27.984375 
z
M 54.390625 6.78125 
Q 54.390625 -7.171875 48.1875 -13.984375 
Q 42 -20.796875 29.203125 -20.796875 
Q 24.46875 -20.796875 20.265625 -20.09375 
Q 16.0625 -19.390625 12.109375 -17.921875 
L 12.109375 -9.1875 
Q 16.0625 -11.328125 19.921875 -12.34375 
Q 23.78125 -13.375 27.78125 -13.375 
Q 36.625 -13.375 41.015625 -8.765625 
Q 45.40625 -4.15625 45.40625 5.171875 
L 45.40625 9.625 
Q 42.625 4.78125 38.28125 2.390625 
Q 33.9375 0 27.875 0 
Q 17.828125 0 11.671875 7.65625 
Q 5.515625 15.328125 5.515625 27.984375 
Q 5.515625 40.671875 11.671875 48.328125 
Q 17.828125 56 27.875 56 
Q 33.9375 56 38.28125 53.609375 
Q 42.625 51.21875 45.40625 46.390625 
L 45.40625 54.6875 
L 54.390625 54.6875 
z
" id="DejaVuSans-67"/>
     <path id="DejaVuSans-20"/>
     <path d="M 45.40625 46.390625 
L 45.40625 75.984375 
L 54.390625 75.984375 
L 54.390625 0 
L 45.40625 0 
L 45.40625 8.203125 
Q 42.578125 3.328125 38.25 0.953125 
Q 33.9375 -1.421875 27.875 -1.421875 
Q 17.96875 -1.421875 11.734375 6.484375 
Q 5.515625 14.40625 5.515625 27.296875 
Q 5.515625 40.1875 11.734375 48.09375 
Q 17.96875 56 27.875 56 
Q 33.9375 56 38.25 53.625 
Q 42.578125 51.265625 45.40625 46.390625 
z
M 14.796875 27.296875 
Q 14.796875 17.390625 18.875 11.75 
Q 22.953125 6.109375 30.078125 6.109375 
Q 37.203125 6.109375 41.296875 11.75 
Q 45.40625 17.390625 45.40625 27.296875 
Q 45.40625 37.203125 41.296875 42.84375 
Q 37.203125 48.484375 30.078125 48.484375 
Q 22.953125 48.484375 18.875 42.84375 
Q 14.796875 37.203125 14.796875 27.296875 
z
" id="DejaVuSans-64"/>
     <path d="M 2.984375 54.6875 
L 12.5 54.6875 
L 29.59375 8.796875 
L 46.6875 54.6875 
L 56.203125 54.6875 
L 35.6875 0 
L 23.484375 0 
z
" id="DejaVuSans-76"/>
     <path d="M 9.421875 75.984375 
L 18.40625 75.984375 
L 18.40625 0 
L 9.421875 0 
z
" id="DejaVuSans-6c"/>
     <path d="M 18.3125 70.21875 
L 18.3125 54.6875 
L 36.8125 54.6875 
L 36.8125 47.703125 
L 18.3125 47.703125 
L 18.3125 18.015625 
Q 18.3125 11.328125 20.140625 9.421875 
Q 21.96875 7.515625 27.59375 7.515625 
L 36.8125 7.515625 
L 36.8125 0 
L 27.59375 0 
Q 17.1875 0 13.234375 3.875 
Q 9.28125 7.765625 9.28125 18.015625 
L 9.28125 47.703125 
L 2.6875 47.703125 
L 2.6875 54.6875 
L 9.28125 54.6875 
L 9.28125 70.21875 
z
" id="DejaVuSans-74"/>
    </defs>
    <g transform="translate(123.23625 28.56)scale(0.12 -0.12)">
     <use xlink:href="#DejaVuSans-54"/>
     <use x="60.865234" xlink:href="#DejaVuSans-72"/>
     <use x="101.978516" xlink:href="#DejaVuSans-61"/>
     <use x="163.257812" xlink:href="#DejaVuSans-69"/>
     <use x="191.041016" xlink:href="#DejaVuSans-6e"/>
     <use x="254.419922" xlink:href="#DejaVuSans-69"/>
     <use x="282.203125" xlink:href="#DejaVuSans-6e"/>
     <use x="345.582031" xlink:href="#DejaVuSans-67"/>
     <use x="409.058594" xlink:href="#DejaVuSans-20"/>
     <use x="440.845703" xlink:href="#DejaVuSans-61"/>
     <use x="502.125" xlink:href="#DejaVuSans-6e"/>
     <use x="565.503906" xlink:href="#DejaVuSans-64"/>
     <use x="628.980469" xlink:href="#DejaVuSans-20"/>
     <use x="660.767578" xlink:href="#DejaVuSans-76"/>
     <use x="719.947266" xlink:href="#DejaVuSans-61"/>
     <use x="781.226562" xlink:href="#DejaVuSans-6c"/>
     <use x="809.009766" xlink:href="#DejaVuSans-69"/>
     <use x="836.792969" xlink:href="#DejaVuSans-64"/>
     <use x="900.269531" xlink:href="#DejaVuSans-61"/>
     <use x="961.548828" xlink:href="#DejaVuSans-74"/>
     <use x="1000.757812" xlink:href="#DejaVuSans-69"/>
     <use x="1028.541016" xlink:href="#DejaVuSans-6f"/>
     <use x="1089.722656" xlink:href="#DejaVuSans-6e"/>
     <use x="1153.101562" xlink:href="#DejaVuSans-20"/>
     <use x="1184.888672" xlink:href="#DejaVuSans-61"/>
     <use x="1246.167969" xlink:href="#DejaVuSans-63"/>
     <use x="1301.148438" xlink:href="#DejaVuSans-63"/>
     <use x="1356.128906" xlink:href="#DejaVuSans-75"/>
     <use x="1419.507812" xlink:href="#DejaVuSans-72"/>
     <use x="1460.621094" xlink:href="#DejaVuSans-61"/>
     <use x="1521.900391" xlink:href="#DejaVuSans-63"/>
     <use x="1576.880859" xlink:href="#DejaVuSans-79"/>
    </g>
   </g>
   <g id="legend_1">
    <g id="patch_7">
     <path d="M 279.351562 247 
L 381.8 247 
Q 383.8 247 383.8 245 
L 383.8 216.64375 
Q 383.8 214.64375 381.8 214.64375 
L 279.351562 214.64375 
Q 277.351562 214.64375 277.351562 216.64375 
L 277.351562 245 
Q 277.351562 247 279.351562 247 
z
" style="fill:#ffffff;opacity:0.8;stroke:#cccccc;stroke-linejoin:miter;"/>
    </g>
    <g id="line2d_19">
     <path d="M 281.351562 222.742188 
L 301.351562 222.742188 
" style="fill:none;stroke:#0000ff;stroke-linecap:square;stroke-width:1.5;"/>
    </g>
    <g id="line2d_20">
     <g>
      <use style="fill:#ffffff;stroke:#0000ff;" x="291.351562" xlink:href="#m9152904524" y="222.742188"/>
     </g>
    </g>
    <g id="text_20">
     <!-- Training acc -->
     <g transform="translate(309.351562 226.242188)scale(0.1 -0.1)">
      <use xlink:href="#DejaVuSans-54"/>
      <use x="60.865234" xlink:href="#DejaVuSans-72"/>
      <use x="101.978516" xlink:href="#DejaVuSans-61"/>
      <use x="163.257812" xlink:href="#DejaVuSans-69"/>
      <use x="191.041016" xlink:href="#DejaVuSans-6e"/>
      <use x="254.419922" xlink:href="#DejaVuSans-69"/>
      <use x="282.203125" xlink:href="#DejaVuSans-6e"/>
      <use x="345.582031" xlink:href="#DejaVuSans-67"/>
      <use x="409.058594" xlink:href="#DejaVuSans-20"/>
      <use x="440.845703" xlink:href="#DejaVuSans-61"/>
      <use x="502.125" xlink:href="#DejaVuSans-63"/>
      <use x="557.105469" xlink:href="#DejaVuSans-63"/>
     </g>
    </g>
    <g id="line2d_21">
     <path d="M 281.351562 237.420312 
L 301.351562 237.420312 
" style="fill:none;stroke:#ff0000;stroke-linecap:square;stroke-width:1.5;"/>
    </g>
    <g id="line2d_22">
     <g>
      <use style="fill:#ffffff;stroke:#ff0000;" x="291.351562" xlink:href="#m56ee287edc" y="237.420312"/>
     </g>
    </g>
    <g id="text_21">
     <!-- Validation acc -->
     <defs>
      <path d="M 28.609375 0 
L 0.78125 72.90625 
L 11.078125 72.90625 
L 34.1875 11.53125 
L 57.328125 72.90625 
L 67.578125 72.90625 
L 39.796875 0 
z
" id="DejaVuSans-56"/>
     </defs>
     <g transform="translate(309.351562 240.920312)scale(0.1 -0.1)">
      <use xlink:href="#DejaVuSans-56"/>
      <use x="68.298828" xlink:href="#DejaVuSans-61"/>
      <use x="129.578125" xlink:href="#DejaVuSans-6c"/>
      <use x="157.361328" xlink:href="#DejaVuSans-69"/>
      <use x="185.144531" xlink:href="#DejaVuSans-64"/>
      <use x="248.621094" xlink:href="#DejaVuSans-61"/>
      <use x="309.900391" xlink:href="#DejaVuSans-74"/>
      <use x="349.109375" xlink:href="#DejaVuSans-69"/>
      <use x="376.892578" xlink:href="#DejaVuSans-6f"/>
      <use x="438.074219" xlink:href="#DejaVuSans-6e"/>
      <use x="501.453125" xlink:href="#DejaVuSans-20"/>
      <use x="533.240234" xlink:href="#DejaVuSans-61"/>
      <use x="594.519531" xlink:href="#DejaVuSans-63"/>
      <use x="649.5" xlink:href="#DejaVuSans-63"/>
     </g>
    </g>
   </g>
  </g>
 </g>
 <defs>
  <clipPath id="pa7868ee785">
   <rect height="217.44" width="334.8" x="54" y="34.56"/>
  </clipPath>
 </defs>
</svg>
