<?xml version="1.0" encoding="utf-8" standalone="no"?>
<!DOCTYPE svg PUBLIC "-//W3C//DTD SVG 1.1//EN"
  "http://www.w3.org/Graphics/SVG/1.1/DTD/svg11.dtd">
<!-- Created with matplotlib (http://matplotlib.org/) -->
<svg height="288pt" version="1.1" viewBox="0 0 432 288" width="432pt" xmlns="http://www.w3.org/2000/svg" xmlns:xlink="http://www.w3.org/1999/xlink">
 <defs>
  <style type="text/css">
*{stroke-linecap:butt;stroke-linejoin:round;}
  </style>
 </defs>
 <g id="figure_1">
  <g id="patch_1">
   <path d="M 0 288 
L 432 288 
L 432 0 
L 0 0 
z
" style="fill:#ffffff;"/>
  </g>
  <g id="axes_1">
   <g id="patch_2">
    <path d="M 54 252 
L 388.8 252 
L 388.8 34.56 
L 54 34.56 
z
" style="fill:#ffffff;"/>
   </g>
   <g id="matplotlib.axis_1">
    <g id="xtick_1">
     <g id="line2d_1">
      <defs>
       <path d="M 0 0 
L 0 3.5 
" id="m3019c6e5af" style="stroke:#000000;stroke-width:0.8;"/>
      </defs>
      <g>
       <use style="stroke:#000000;stroke-width:0.8;" x="67.688716" xlink:href="#m3019c6e5af" y="252"/>
      </g>
     </g>
     <g id="text_1">
      <!-- 0 -->
      <defs>
       <path d="M 31.78125 66.40625 
Q 24.171875 66.40625 20.328125 58.90625 
Q 16.5 51.421875 16.5 36.375 
Q 16.5 21.390625 20.328125 13.890625 
Q 24.171875 6.390625 31.78125 6.390625 
Q 39.453125 6.390625 43.28125 13.890625 
Q 47.125 21.390625 47.125 36.375 
Q 47.125 51.421875 43.28125 58.90625 
Q 39.453125 66.40625 31.78125 66.40625 
z
M 31.78125 74.21875 
Q 44.046875 74.21875 50.515625 64.515625 
Q 56.984375 54.828125 56.984375 36.375 
Q 56.984375 17.96875 50.515625 8.265625 
Q 44.046875 -1.421875 31.78125 -1.421875 
Q 19.53125 -1.421875 13.0625 8.265625 
Q 6.59375 17.96875 6.59375 36.375 
Q 6.59375 54.828125 13.0625 64.515625 
Q 19.53125 74.21875 31.78125 74.21875 
z
" id="DejaVuSans-30"/>
      </defs>
      <g transform="translate(64.507466 266.598437)scale(0.1 -0.1)">
       <use xlink:href="#DejaVuSans-30"/>
      </g>
     </g>
    </g>
    <g id="xtick_2">
     <g id="line2d_2">
      <g>
       <use style="stroke:#000000;stroke-width:0.8;" x="105.925354" xlink:href="#m3019c6e5af" y="252"/>
      </g>
     </g>
     <g id="text_2">
      <!-- 25 -->
      <defs>
       <path d="M 19.1875 8.296875 
L 53.609375 8.296875 
L 53.609375 0 
L 7.328125 0 
L 7.328125 8.296875 
Q 12.9375 14.109375 22.625 23.890625 
Q 32.328125 33.6875 34.8125 36.53125 
Q 39.546875 41.84375 41.421875 45.53125 
Q 43.3125 49.21875 43.3125 52.78125 
Q 43.3125 58.59375 39.234375 62.25 
Q 35.15625 65.921875 28.609375 65.921875 
Q 23.96875 65.921875 18.8125 64.3125 
Q 13.671875 62.703125 7.8125 59.421875 
L 7.8125 69.390625 
Q 13.765625 71.78125 18.9375 73 
Q 24.125 74.21875 28.421875 74.21875 
Q 39.75 74.21875 46.484375 68.546875 
Q 53.21875 62.890625 53.21875 53.421875 
Q 53.21875 48.921875 51.53125 44.890625 
Q 49.859375 40.875 45.40625 35.40625 
Q 44.1875 33.984375 37.640625 27.21875 
Q 31.109375 20.453125 19.1875 8.296875 
z
" id="DejaVuSans-32"/>
       <path d="M 10.796875 72.90625 
L 49.515625 72.90625 
L 49.515625 64.59375 
L 19.828125 64.59375 
L 19.828125 46.734375 
Q 21.96875 47.46875 24.109375 47.828125 
Q 26.265625 48.1875 28.421875 48.1875 
Q 40.625 48.1875 47.75 41.5 
Q 54.890625 34.8125 54.890625 23.390625 
Q 54.890625 11.625 47.5625 5.09375 
Q 40.234375 -1.421875 26.90625 -1.421875 
Q 22.3125 -1.421875 17.546875 -0.640625 
Q 12.796875 0.140625 7.71875 1.703125 
L 7.71875 11.625 
Q 12.109375 9.234375 16.796875 8.0625 
Q 21.484375 6.890625 26.703125 6.890625 
Q 35.15625 6.890625 40.078125 11.328125 
Q 45.015625 15.765625 45.015625 23.390625 
Q 45.015625 31 40.078125 35.4375 
Q 35.15625 39.890625 26.703125 39.890625 
Q 22.75 39.890625 18.8125 39.015625 
Q 14.890625 38.140625 10.796875 36.28125 
z
" id="DejaVuSans-35"/>
      </defs>
      <g transform="translate(99.562854 266.598437)scale(0.1 -0.1)">
       <use xlink:href="#DejaVuSans-32"/>
       <use x="63.623047" xlink:href="#DejaVuSans-35"/>
      </g>
     </g>
    </g>
    <g id="xtick_3">
     <g id="line2d_3">
      <g>
       <use style="stroke:#000000;stroke-width:0.8;" x="144.161992" xlink:href="#m3019c6e5af" y="252"/>
      </g>
     </g>
     <g id="text_3">
      <!-- 50 -->
      <g transform="translate(137.799492 266.598437)scale(0.1 -0.1)">
       <use xlink:href="#DejaVuSans-35"/>
       <use x="63.623047" xlink:href="#DejaVuSans-30"/>
      </g>
     </g>
    </g>
    <g id="xtick_4">
     <g id="line2d_4">
      <g>
       <use style="stroke:#000000;stroke-width:0.8;" x="182.39863" xlink:href="#m3019c6e5af" y="252"/>
      </g>
     </g>
     <g id="text_4">
      <!-- 75 -->
      <defs>
       <path d="M 8.203125 72.90625 
L 55.078125 72.90625 
L 55.078125 68.703125 
L 28.609375 0 
L 18.3125 0 
L 43.21875 64.59375 
L 8.203125 64.59375 
z
" id="DejaVuSans-37"/>
      </defs>
      <g transform="translate(176.03613 266.598437)scale(0.1 -0.1)">
       <use xlink:href="#DejaVuSans-37"/>
       <use x="63.623047" xlink:href="#DejaVuSans-35"/>
      </g>
     </g>
    </g>
    <g id="xtick_5">
     <g id="line2d_5">
      <g>
       <use style="stroke:#000000;stroke-width:0.8;" x="220.635267" xlink:href="#m3019c6e5af" y="252"/>
      </g>
     </g>
     <g id="text_5">
      <!-- 100 -->
      <defs>
       <path d="M 12.40625 8.296875 
L 28.515625 8.296875 
L 28.515625 63.921875 
L 10.984375 60.40625 
L 10.984375 69.390625 
L 28.421875 72.90625 
L 38.28125 72.90625 
L 38.28125 8.296875 
L 54.390625 8.296875 
L 54.390625 0 
L 12.40625 0 
z
" id="DejaVuSans-31"/>
      </defs>
      <g transform="translate(211.091517 266.598437)scale(0.1 -0.1)">
       <use xlink:href="#DejaVuSans-31"/>
       <use x="63.623047" xlink:href="#DejaVuSans-30"/>
       <use x="127.246094" xlink:href="#DejaVuSans-30"/>
      </g>
     </g>
    </g>
    <g id="xtick_6">
     <g id="line2d_6">
      <g>
       <use style="stroke:#000000;stroke-width:0.8;" x="258.871905" xlink:href="#m3019c6e5af" y="252"/>
      </g>
     </g>
     <g id="text_6">
      <!-- 125 -->
      <g transform="translate(249.328155 266.598437)scale(0.1 -0.1)">
       <use xlink:href="#DejaVuSans-31"/>
       <use x="63.623047" xlink:href="#DejaVuSans-32"/>
       <use x="127.246094" xlink:href="#DejaVuSans-35"/>
      </g>
     </g>
    </g>
    <g id="xtick_7">
     <g id="line2d_7">
      <g>
       <use style="stroke:#000000;stroke-width:0.8;" x="297.108543" xlink:href="#m3019c6e5af" y="252"/>
      </g>
     </g>
     <g id="text_7">
      <!-- 150 -->
      <g transform="translate(287.564793 266.598437)scale(0.1 -0.1)">
       <use xlink:href="#DejaVuSans-31"/>
       <use x="63.623047" xlink:href="#DejaVuSans-35"/>
       <use x="127.246094" xlink:href="#DejaVuSans-30"/>
      </g>
     </g>
    </g>
    <g id="xtick_8">
     <g id="line2d_8">
      <g>
       <use style="stroke:#000000;stroke-width:0.8;" x="335.34518" xlink:href="#m3019c6e5af" y="252"/>
      </g>
     </g>
     <g id="text_8">
      <!-- 175 -->
      <g transform="translate(325.80143 266.598437)scale(0.1 -0.1)">
       <use xlink:href="#DejaVuSans-31"/>
       <use x="63.623047" xlink:href="#DejaVuSans-37"/>
       <use x="127.246094" xlink:href="#DejaVuSans-35"/>
      </g>
     </g>
    </g>
    <g id="xtick_9">
     <g id="line2d_9">
      <g>
       <use style="stroke:#000000;stroke-width:0.8;" x="373.581818" xlink:href="#m3019c6e5af" y="252"/>
      </g>
     </g>
     <g id="text_9">
      <!-- 200 -->
      <g transform="translate(364.038068 266.598437)scale(0.1 -0.1)">
       <use xlink:href="#DejaVuSans-32"/>
       <use x="63.623047" xlink:href="#DejaVuSans-30"/>
       <use x="127.246094" xlink:href="#DejaVuSans-30"/>
      </g>
     </g>
    </g>
    <g id="text_10">
     <!-- Epochs -->
     <defs>
      <path d="M 9.8125 72.90625 
L 55.90625 72.90625 
L 55.90625 64.59375 
L 19.671875 64.59375 
L 19.671875 43.015625 
L 54.390625 43.015625 
L 54.390625 34.71875 
L 19.671875 34.71875 
L 19.671875 8.296875 
L 56.78125 8.296875 
L 56.78125 0 
L 9.8125 0 
z
" id="DejaVuSans-45"/>
      <path d="M 18.109375 8.203125 
L 18.109375 -20.796875 
L 9.078125 -20.796875 
L 9.078125 54.6875 
L 18.109375 54.6875 
L 18.109375 46.390625 
Q 20.953125 51.265625 25.265625 53.625 
Q 29.59375 56 35.59375 56 
Q 45.5625 56 51.78125 48.09375 
Q 58.015625 40.1875 58.015625 27.296875 
Q 58.015625 14.40625 51.78125 6.484375 
Q 45.5625 -1.421875 35.59375 -1.421875 
Q 29.59375 -1.421875 25.265625 0.953125 
Q 20.953125 3.328125 18.109375 8.203125 
z
M 48.6875 27.296875 
Q 48.6875 37.203125 44.609375 42.84375 
Q 40.53125 48.484375 33.40625 48.484375 
Q 26.265625 48.484375 22.1875 42.84375 
Q 18.109375 37.203125 18.109375 27.296875 
Q 18.109375 17.390625 22.1875 11.75 
Q 26.265625 6.109375 33.40625 6.109375 
Q 40.53125 6.109375 44.609375 11.75 
Q 48.6875 17.390625 48.6875 27.296875 
z
" id="DejaVuSans-70"/>
      <path d="M 30.609375 48.390625 
Q 23.390625 48.390625 19.1875 42.75 
Q 14.984375 37.109375 14.984375 27.296875 
Q 14.984375 17.484375 19.15625 11.84375 
Q 23.34375 6.203125 30.609375 6.203125 
Q 37.796875 6.203125 41.984375 11.859375 
Q 46.1875 17.53125 46.1875 27.296875 
Q 46.1875 37.015625 41.984375 42.703125 
Q 37.796875 48.390625 30.609375 48.390625 
z
M 30.609375 56 
Q 42.328125 56 49.015625 48.375 
Q 55.71875 40.765625 55.71875 27.296875 
Q 55.71875 13.875 49.015625 6.21875 
Q 42.328125 -1.421875 30.609375 -1.421875 
Q 18.84375 -1.421875 12.171875 6.21875 
Q 5.515625 13.875 5.515625 27.296875 
Q 5.515625 40.765625 12.171875 48.375 
Q 18.84375 56 30.609375 56 
z
" id="DejaVuSans-6f"/>
      <path d="M 48.78125 52.59375 
L 48.78125 44.1875 
Q 44.96875 46.296875 41.140625 47.34375 
Q 37.3125 48.390625 33.40625 48.390625 
Q 24.65625 48.390625 19.8125 42.84375 
Q 14.984375 37.3125 14.984375 27.296875 
Q 14.984375 17.28125 19.8125 11.734375 
Q 24.65625 6.203125 33.40625 6.203125 
Q 37.3125 6.203125 41.140625 7.25 
Q 44.96875 8.296875 48.78125 10.40625 
L 48.78125 2.09375 
Q 45.015625 0.34375 40.984375 -0.53125 
Q 36.96875 -1.421875 32.421875 -1.421875 
Q 20.0625 -1.421875 12.78125 6.34375 
Q 5.515625 14.109375 5.515625 27.296875 
Q 5.515625 40.671875 12.859375 48.328125 
Q 20.21875 56 33.015625 56 
Q 37.15625 56 41.109375 55.140625 
Q 45.0625 54.296875 48.78125 52.59375 
z
" id="DejaVuSans-63"/>
      <path d="M 54.890625 33.015625 
L 54.890625 0 
L 45.90625 0 
L 45.90625 32.71875 
Q 45.90625 40.484375 42.875 44.328125 
Q 39.84375 48.1875 33.796875 48.1875 
Q 26.515625 48.1875 22.3125 43.546875 
Q 18.109375 38.921875 18.109375 30.90625 
L 18.109375 0 
L 9.078125 0 
L 9.078125 75.984375 
L 18.109375 75.984375 
L 18.109375 46.1875 
Q 21.34375 51.125 25.703125 53.5625 
Q 30.078125 56 35.796875 56 
Q 45.21875 56 50.046875 50.171875 
Q 54.890625 44.34375 54.890625 33.015625 
z
" id="DejaVuSans-68"/>
      <path d="M 44.28125 53.078125 
L 44.28125 44.578125 
Q 40.484375 46.53125 36.375 47.5 
Q 32.28125 48.484375 27.875 48.484375 
Q 21.1875 48.484375 17.84375 46.4375 
Q 14.5 44.390625 14.5 40.28125 
Q 14.5 37.15625 16.890625 35.375 
Q 19.28125 33.59375 26.515625 31.984375 
L 29.59375 31.296875 
Q 39.15625 29.25 43.1875 25.515625 
Q 47.21875 21.78125 47.21875 15.09375 
Q 47.21875 7.46875 41.1875 3.015625 
Q 35.15625 -1.421875 24.609375 -1.421875 
Q 20.21875 -1.421875 15.453125 -0.5625 
Q 10.6875 0.296875 5.421875 2 
L 5.421875 11.28125 
Q 10.40625 8.6875 15.234375 7.390625 
Q 20.0625 6.109375 24.8125 6.109375 
Q 31.15625 6.109375 34.5625 8.28125 
Q 37.984375 10.453125 37.984375 14.40625 
Q 37.984375 18.0625 35.515625 20.015625 
Q 33.0625 21.96875 24.703125 23.78125 
L 21.578125 24.515625 
Q 13.234375 26.265625 9.515625 29.90625 
Q 5.8125 33.546875 5.8125 39.890625 
Q 5.8125 47.609375 11.28125 51.796875 
Q 16.75 56 26.8125 56 
Q 31.78125 56 36.171875 55.265625 
Q 40.578125 54.546875 44.28125 53.078125 
z
" id="DejaVuSans-73"/>
     </defs>
     <g transform="translate(203.484375 280.276563)scale(0.1 -0.1)">
      <use xlink:href="#DejaVuSans-45"/>
      <use x="63.183594" xlink:href="#DejaVuSans-70"/>
      <use x="126.660156" xlink:href="#DejaVuSans-6f"/>
      <use x="187.841797" xlink:href="#DejaVuSans-63"/>
      <use x="242.822266" xlink:href="#DejaVuSans-68"/>
      <use x="306.201172" xlink:href="#DejaVuSans-73"/>
     </g>
    </g>
   </g>
   <g id="matplotlib.axis_2">
    <g id="ytick_1">
     <g id="line2d_10">
      <defs>
       <path d="M 0 0 
L -3.5 0 
" id="mbada3a4923" style="stroke:#000000;stroke-width:0.8;"/>
      </defs>
      <g>
       <use style="stroke:#000000;stroke-width:0.8;" x="54" xlink:href="#mbada3a4923" y="236.538933"/>
      </g>
     </g>
     <g id="text_11">
      <!-- 0.1 -->
      <defs>
       <path d="M 10.6875 12.40625 
L 21 12.40625 
L 21 0 
L 10.6875 0 
z
" id="DejaVuSans-2e"/>
      </defs>
      <g transform="translate(31.096875 240.338151)scale(0.1 -0.1)">
       <use xlink:href="#DejaVuSans-30"/>
       <use x="63.623047" xlink:href="#DejaVuSans-2e"/>
       <use x="95.410156" xlink:href="#DejaVuSans-31"/>
      </g>
     </g>
    </g>
    <g id="ytick_2">
     <g id="line2d_11">
      <g>
       <use style="stroke:#000000;stroke-width:0.8;" x="54" xlink:href="#mbada3a4923" y="200.602"/>
      </g>
     </g>
     <g id="text_12">
      <!-- 0.2 -->
      <g transform="translate(31.096875 204.401219)scale(0.1 -0.1)">
       <use xlink:href="#DejaVuSans-30"/>
       <use x="63.623047" xlink:href="#DejaVuSans-2e"/>
       <use x="95.410156" xlink:href="#DejaVuSans-32"/>
      </g>
     </g>
    </g>
    <g id="ytick_3">
     <g id="line2d_12">
      <g>
       <use style="stroke:#000000;stroke-width:0.8;" x="54" xlink:href="#mbada3a4923" y="164.665067"/>
      </g>
     </g>
     <g id="text_13">
      <!-- 0.3 -->
      <defs>
       <path d="M 40.578125 39.3125 
Q 47.65625 37.796875 51.625 33 
Q 55.609375 28.21875 55.609375 21.1875 
Q 55.609375 10.40625 48.1875 4.484375 
Q 40.765625 -1.421875 27.09375 -1.421875 
Q 22.515625 -1.421875 17.65625 -0.515625 
Q 12.796875 0.390625 7.625 2.203125 
L 7.625 11.71875 
Q 11.71875 9.328125 16.59375 8.109375 
Q 21.484375 6.890625 26.8125 6.890625 
Q 36.078125 6.890625 40.9375 10.546875 
Q 45.796875 14.203125 45.796875 21.1875 
Q 45.796875 27.640625 41.28125 31.265625 
Q 36.765625 34.90625 28.71875 34.90625 
L 20.21875 34.90625 
L 20.21875 43.015625 
L 29.109375 43.015625 
Q 36.375 43.015625 40.234375 45.921875 
Q 44.09375 48.828125 44.09375 54.296875 
Q 44.09375 59.90625 40.109375 62.90625 
Q 36.140625 65.921875 28.71875 65.921875 
Q 24.65625 65.921875 20.015625 65.03125 
Q 15.375 64.15625 9.8125 62.3125 
L 9.8125 71.09375 
Q 15.4375 72.65625 20.34375 73.4375 
Q 25.25 74.21875 29.59375 74.21875 
Q 40.828125 74.21875 47.359375 69.109375 
Q 53.90625 64.015625 53.90625 55.328125 
Q 53.90625 49.265625 50.4375 45.09375 
Q 46.96875 40.921875 40.578125 39.3125 
z
" id="DejaVuSans-33"/>
      </defs>
      <g transform="translate(31.096875 168.464286)scale(0.1 -0.1)">
       <use xlink:href="#DejaVuSans-30"/>
       <use x="63.623047" xlink:href="#DejaVuSans-2e"/>
       <use x="95.410156" xlink:href="#DejaVuSans-33"/>
      </g>
     </g>
    </g>
    <g id="ytick_4">
     <g id="line2d_13">
      <g>
       <use style="stroke:#000000;stroke-width:0.8;" x="54" xlink:href="#mbada3a4923" y="128.728135"/>
      </g>
     </g>
     <g id="text_14">
      <!-- 0.4 -->
      <defs>
       <path d="M 37.796875 64.3125 
L 12.890625 25.390625 
L 37.796875 25.390625 
z
M 35.203125 72.90625 
L 47.609375 72.90625 
L 47.609375 25.390625 
L 58.015625 25.390625 
L 58.015625 17.1875 
L 47.609375 17.1875 
L 47.609375 0 
L 37.796875 0 
L 37.796875 17.1875 
L 4.890625 17.1875 
L 4.890625 26.703125 
z
" id="DejaVuSans-34"/>
      </defs>
      <g transform="translate(31.096875 132.527353)scale(0.1 -0.1)">
       <use xlink:href="#DejaVuSans-30"/>
       <use x="63.623047" xlink:href="#DejaVuSans-2e"/>
       <use x="95.410156" xlink:href="#DejaVuSans-34"/>
      </g>
     </g>
    </g>
    <g id="ytick_5">
     <g id="line2d_14">
      <g>
       <use style="stroke:#000000;stroke-width:0.8;" x="54" xlink:href="#mbada3a4923" y="92.791202"/>
      </g>
     </g>
     <g id="text_15">
      <!-- 0.5 -->
      <g transform="translate(31.096875 96.590421)scale(0.1 -0.1)">
       <use xlink:href="#DejaVuSans-30"/>
       <use x="63.623047" xlink:href="#DejaVuSans-2e"/>
       <use x="95.410156" xlink:href="#DejaVuSans-35"/>
      </g>
     </g>
    </g>
    <g id="ytick_6">
     <g id="line2d_15">
      <g>
       <use style="stroke:#000000;stroke-width:0.8;" x="54" xlink:href="#mbada3a4923" y="56.854269"/>
      </g>
     </g>
     <g id="text_16">
      <!-- 0.6 -->
      <defs>
       <path d="M 33.015625 40.375 
Q 26.375 40.375 22.484375 35.828125 
Q 18.609375 31.296875 18.609375 23.390625 
Q 18.609375 15.53125 22.484375 10.953125 
Q 26.375 6.390625 33.015625 6.390625 
Q 39.65625 6.390625 43.53125 10.953125 
Q 47.40625 15.53125 47.40625 23.390625 
Q 47.40625 31.296875 43.53125 35.828125 
Q 39.65625 40.375 33.015625 40.375 
z
M 52.59375 71.296875 
L 52.59375 62.3125 
Q 48.875 64.0625 45.09375 64.984375 
Q 41.3125 65.921875 37.59375 65.921875 
Q 27.828125 65.921875 22.671875 59.328125 
Q 17.53125 52.734375 16.796875 39.40625 
Q 19.671875 43.65625 24.015625 45.921875 
Q 28.375 48.1875 33.59375 48.1875 
Q 44.578125 48.1875 50.953125 41.515625 
Q 57.328125 34.859375 57.328125 23.390625 
Q 57.328125 12.15625 50.6875 5.359375 
Q 44.046875 -1.421875 33.015625 -1.421875 
Q 20.359375 -1.421875 13.671875 8.265625 
Q 6.984375 17.96875 6.984375 36.375 
Q 6.984375 53.65625 15.1875 63.9375 
Q 23.390625 74.21875 37.203125 74.21875 
Q 40.921875 74.21875 44.703125 73.484375 
Q 48.484375 72.75 52.59375 71.296875 
z
" id="DejaVuSans-36"/>
      </defs>
      <g transform="translate(31.096875 60.653488)scale(0.1 -0.1)">
       <use xlink:href="#DejaVuSans-30"/>
       <use x="63.623047" xlink:href="#DejaVuSans-2e"/>
       <use x="95.410156" xlink:href="#DejaVuSans-36"/>
      </g>
     </g>
    </g>
    <g id="text_17">
     <!-- Loss -->
     <defs>
      <path d="M 9.8125 72.90625 
L 19.671875 72.90625 
L 19.671875 8.296875 
L 55.171875 8.296875 
L 55.171875 0 
L 9.8125 0 
z
" id="DejaVuSans-4c"/>
     </defs>
     <g transform="translate(25.017187 154.333906)rotate(-90)scale(0.1 -0.1)">
      <use xlink:href="#DejaVuSans-4c"/>
      <use x="55.697266" xlink:href="#DejaVuSans-6f"/>
      <use x="116.878906" xlink:href="#DejaVuSans-73"/>
      <use x="168.978516" xlink:href="#DejaVuSans-73"/>
     </g>
    </g>
   </g>
   <g id="line2d_16">
    <path clip-path="url(#p8518c9ca72)" d="M 69.218182 44.443636 
L 70.747647 51.329971 
L 72.277113 62.983532 
L 75.336044 101.499879 
L 76.865509 117.559627 
L 78.394975 130.505074 
L 79.92444 140.585446 
L 81.453906 148.62584 
L 82.983371 155.574349 
L 84.512837 161.203644 
L 86.042302 166.115285 
L 89.101233 173.53871 
L 92.160164 179.431814 
L 95.219095 183.686383 
L 98.278026 187.53182 
L 99.807492 189.112909 
L 102.866423 191.844954 
L 104.395889 192.891719 
L 105.925354 194.448599 
L 107.45482 195.572718 
L 108.984285 196.261585 
L 110.513751 197.67683 
L 112.043216 198.297989 
L 113.572682 199.207919 
L 115.102147 200.363546 
L 116.631613 200.889369 
L 119.690544 202.555214 
L 121.220009 203.086818 
L 122.749475 204.052965 
L 124.27894 204.781324 
L 125.808406 205.279972 
L 127.337871 206.082858 
L 128.867337 206.548826 
L 130.396802 207.227381 
L 139.573595 210.491735 
L 141.103061 210.885689 
L 142.632526 211.414853 
L 144.161992 211.732628 
L 145.691457 212.403493 
L 147.220923 212.609242 
L 148.750388 213.364129 
L 150.279854 213.561716 
L 151.809319 213.938905 
L 153.338785 214.548775 
L 154.86825 214.8084 
L 157.927181 215.618378 
L 159.456647 216.132371 
L 160.986112 216.359106 
L 165.574509 217.504406 
L 167.103974 217.703828 
L 170.162905 218.605688 
L 171.692371 218.817194 
L 174.751302 219.648492 
L 176.280767 219.703018 
L 177.810233 220.098515 
L 179.339698 220.285945 
L 180.869164 220.712345 
L 183.928095 221.279569 
L 185.457561 221.171653 
L 186.987026 221.802352 
L 190.045957 222.532282 
L 193.104888 222.739243 
L 194.634354 223.241732 
L 196.163819 223.265572 
L 197.693285 223.824693 
L 199.22275 224.024261 
L 200.752216 224.066783 
L 202.281681 224.627377 
L 203.811147 224.735589 
L 205.340612 225.116347 
L 214.517405 226.204854 
L 216.046871 226.588403 
L 220.635267 227.315294 
L 222.164733 227.261782 
L 223.694198 227.622543 
L 228.282595 228.405213 
L 229.81206 228.395388 
L 231.341526 228.880828 
L 232.870991 228.684957 
L 234.400457 228.882884 
L 235.929922 229.327271 
L 237.459388 229.362661 
L 238.988853 229.862878 
L 242.047784 230.117378 
L 243.57725 230.067542 
L 245.106715 230.573778 
L 246.636181 230.480478 
L 248.165646 230.942182 
L 249.695112 230.799917 
L 251.224577 231.135994 
L 252.754043 231.260624 
L 254.283508 231.560915 
L 255.812974 231.708241 
L 257.342439 231.557268 
L 260.40137 232.278364 
L 261.930836 232.16232 
L 263.460302 232.730488 
L 264.989767 232.996093 
L 266.519233 232.823634 
L 268.048698 233.118592 
L 271.107629 233.233592 
L 274.16656 233.576663 
L 275.696026 233.923933 
L 277.225491 233.689787 
L 280.284422 234.251233 
L 283.343353 234.46276 
L 284.872819 234.706766 
L 289.461215 235.103169 
L 290.990681 235.099342 
L 292.520146 235.616404 
L 294.049612 235.537313 
L 295.579077 235.677832 
L 298.638008 236.349215 
L 300.167474 236.227294 
L 301.696939 236.297565 
L 303.226405 236.189863 
L 309.344267 237.156557 
L 310.873732 236.988251 
L 312.403198 237.406983 
L 313.932663 237.642334 
L 315.462129 237.380495 
L 316.991594 237.881753 
L 318.52106 237.693594 
L 321.579991 238.142573 
L 323.109456 238.373326 
L 324.638922 238.346481 
L 326.168387 238.620024 
L 327.697853 238.461664 
L 329.227318 238.685249 
L 330.756784 238.606718 
L 332.286249 239.001946 
L 339.933577 239.517768 
L 341.463042 239.802389 
L 342.992508 239.648311 
L 350.639836 240.226599 
L 352.169301 240.618813 
L 356.757698 240.697077 
L 358.287163 241.014716 
L 359.816629 241.180496 
L 361.346094 241.078 
L 362.87556 241.584154 
L 364.405025 241.276448 
L 365.934491 241.56658 
L 367.463956 241.473722 
L 373.581818 242.116364 
L 373.581818 242.116364 
" style="fill:none;stroke:#0000ff;stroke-linecap:square;stroke-width:1.5;"/>
    <defs>
     <path d="M 0 3 
C 0.795609 3 1.55874 2.683901 2.12132 2.12132 
C 2.683901 1.55874 3 0.795609 3 0 
C 3 -0.795609 2.683901 -1.55874 2.12132 -2.12132 
C 1.55874 -2.683901 0.795609 -3 0 -3 
C -0.795609 -3 -1.55874 -2.683901 -2.12132 -2.12132 
C -2.683901 -1.55874 -3 -0.795609 -3 0 
C -3 0.795609 -2.683901 1.55874 -2.12132 2.12132 
C -1.55874 2.683901 -0.795609 3 0 3 
z
" id="mb8deeb3a6e" style="stroke:#0000ff;"/>
    </defs>
    <g clip-path="url(#p8518c9ca72)">
     <use style="fill:#ffffff;stroke:#0000ff;" x="69.218182" xlink:href="#mb8deeb3a6e" y="44.443636"/>
     <use style="fill:#ffffff;stroke:#0000ff;" x="70.747647" xlink:href="#mb8deeb3a6e" y="51.329971"/>
     <use style="fill:#ffffff;stroke:#0000ff;" x="72.277113" xlink:href="#mb8deeb3a6e" y="62.983532"/>
     <use style="fill:#ffffff;stroke:#0000ff;" x="73.806578" xlink:href="#mb8deeb3a6e" y="81.734485"/>
     <use style="fill:#ffffff;stroke:#0000ff;" x="75.336044" xlink:href="#mb8deeb3a6e" y="101.499879"/>
     <use style="fill:#ffffff;stroke:#0000ff;" x="76.865509" xlink:href="#mb8deeb3a6e" y="117.559627"/>
     <use style="fill:#ffffff;stroke:#0000ff;" x="78.394975" xlink:href="#mb8deeb3a6e" y="130.505074"/>
     <use style="fill:#ffffff;stroke:#0000ff;" x="79.92444" xlink:href="#mb8deeb3a6e" y="140.585446"/>
     <use style="fill:#ffffff;stroke:#0000ff;" x="81.453906" xlink:href="#mb8deeb3a6e" y="148.62584"/>
     <use style="fill:#ffffff;stroke:#0000ff;" x="82.983371" xlink:href="#mb8deeb3a6e" y="155.574349"/>
     <use style="fill:#ffffff;stroke:#0000ff;" x="84.512837" xlink:href="#mb8deeb3a6e" y="161.203644"/>
     <use style="fill:#ffffff;stroke:#0000ff;" x="86.042302" xlink:href="#mb8deeb3a6e" y="166.115285"/>
     <use style="fill:#ffffff;stroke:#0000ff;" x="87.571768" xlink:href="#mb8deeb3a6e" y="169.844151"/>
     <use style="fill:#ffffff;stroke:#0000ff;" x="89.101233" xlink:href="#mb8deeb3a6e" y="173.53871"/>
     <use style="fill:#ffffff;stroke:#0000ff;" x="90.630699" xlink:href="#mb8deeb3a6e" y="176.575054"/>
     <use style="fill:#ffffff;stroke:#0000ff;" x="92.160164" xlink:href="#mb8deeb3a6e" y="179.431814"/>
     <use style="fill:#ffffff;stroke:#0000ff;" x="93.68963" xlink:href="#mb8deeb3a6e" y="181.627422"/>
     <use style="fill:#ffffff;stroke:#0000ff;" x="95.219095" xlink:href="#mb8deeb3a6e" y="183.686383"/>
     <use style="fill:#ffffff;stroke:#0000ff;" x="96.748561" xlink:href="#mb8deeb3a6e" y="185.694167"/>
     <use style="fill:#ffffff;stroke:#0000ff;" x="98.278026" xlink:href="#mb8deeb3a6e" y="187.53182"/>
     <use style="fill:#ffffff;stroke:#0000ff;" x="99.807492" xlink:href="#mb8deeb3a6e" y="189.112909"/>
     <use style="fill:#ffffff;stroke:#0000ff;" x="101.336958" xlink:href="#mb8deeb3a6e" y="190.489831"/>
     <use style="fill:#ffffff;stroke:#0000ff;" x="102.866423" xlink:href="#mb8deeb3a6e" y="191.844954"/>
     <use style="fill:#ffffff;stroke:#0000ff;" x="104.395889" xlink:href="#mb8deeb3a6e" y="192.891719"/>
     <use style="fill:#ffffff;stroke:#0000ff;" x="105.925354" xlink:href="#mb8deeb3a6e" y="194.448599"/>
     <use style="fill:#ffffff;stroke:#0000ff;" x="107.45482" xlink:href="#mb8deeb3a6e" y="195.572718"/>
     <use style="fill:#ffffff;stroke:#0000ff;" x="108.984285" xlink:href="#mb8deeb3a6e" y="196.261585"/>
     <use style="fill:#ffffff;stroke:#0000ff;" x="110.513751" xlink:href="#mb8deeb3a6e" y="197.67683"/>
     <use style="fill:#ffffff;stroke:#0000ff;" x="112.043216" xlink:href="#mb8deeb3a6e" y="198.297989"/>
     <use style="fill:#ffffff;stroke:#0000ff;" x="113.572682" xlink:href="#mb8deeb3a6e" y="199.207919"/>
     <use style="fill:#ffffff;stroke:#0000ff;" x="115.102147" xlink:href="#mb8deeb3a6e" y="200.363546"/>
     <use style="fill:#ffffff;stroke:#0000ff;" x="116.631613" xlink:href="#mb8deeb3a6e" y="200.889369"/>
     <use style="fill:#ffffff;stroke:#0000ff;" x="118.161078" xlink:href="#mb8deeb3a6e" y="201.750389"/>
     <use style="fill:#ffffff;stroke:#0000ff;" x="119.690544" xlink:href="#mb8deeb3a6e" y="202.555214"/>
     <use style="fill:#ffffff;stroke:#0000ff;" x="121.220009" xlink:href="#mb8deeb3a6e" y="203.086818"/>
     <use style="fill:#ffffff;stroke:#0000ff;" x="122.749475" xlink:href="#mb8deeb3a6e" y="204.052965"/>
     <use style="fill:#ffffff;stroke:#0000ff;" x="124.27894" xlink:href="#mb8deeb3a6e" y="204.781324"/>
     <use style="fill:#ffffff;stroke:#0000ff;" x="125.808406" xlink:href="#mb8deeb3a6e" y="205.279972"/>
     <use style="fill:#ffffff;stroke:#0000ff;" x="127.337871" xlink:href="#mb8deeb3a6e" y="206.082858"/>
     <use style="fill:#ffffff;stroke:#0000ff;" x="128.867337" xlink:href="#mb8deeb3a6e" y="206.548826"/>
     <use style="fill:#ffffff;stroke:#0000ff;" x="130.396802" xlink:href="#mb8deeb3a6e" y="207.227381"/>
     <use style="fill:#ffffff;stroke:#0000ff;" x="131.926268" xlink:href="#mb8deeb3a6e" y="207.767583"/>
     <use style="fill:#ffffff;stroke:#0000ff;" x="133.455733" xlink:href="#mb8deeb3a6e" y="208.247011"/>
     <use style="fill:#ffffff;stroke:#0000ff;" x="134.985199" xlink:href="#mb8deeb3a6e" y="208.802967"/>
     <use style="fill:#ffffff;stroke:#0000ff;" x="136.514664" xlink:href="#mb8deeb3a6e" y="209.409818"/>
     <use style="fill:#ffffff;stroke:#0000ff;" x="138.04413" xlink:href="#mb8deeb3a6e" y="209.845047"/>
     <use style="fill:#ffffff;stroke:#0000ff;" x="139.573595" xlink:href="#mb8deeb3a6e" y="210.491735"/>
     <use style="fill:#ffffff;stroke:#0000ff;" x="141.103061" xlink:href="#mb8deeb3a6e" y="210.885689"/>
     <use style="fill:#ffffff;stroke:#0000ff;" x="142.632526" xlink:href="#mb8deeb3a6e" y="211.414853"/>
     <use style="fill:#ffffff;stroke:#0000ff;" x="144.161992" xlink:href="#mb8deeb3a6e" y="211.732628"/>
     <use style="fill:#ffffff;stroke:#0000ff;" x="145.691457" xlink:href="#mb8deeb3a6e" y="212.403493"/>
     <use style="fill:#ffffff;stroke:#0000ff;" x="147.220923" xlink:href="#mb8deeb3a6e" y="212.609242"/>
     <use style="fill:#ffffff;stroke:#0000ff;" x="148.750388" xlink:href="#mb8deeb3a6e" y="213.364129"/>
     <use style="fill:#ffffff;stroke:#0000ff;" x="150.279854" xlink:href="#mb8deeb3a6e" y="213.561716"/>
     <use style="fill:#ffffff;stroke:#0000ff;" x="151.809319" xlink:href="#mb8deeb3a6e" y="213.938905"/>
     <use style="fill:#ffffff;stroke:#0000ff;" x="153.338785" xlink:href="#mb8deeb3a6e" y="214.548775"/>
     <use style="fill:#ffffff;stroke:#0000ff;" x="154.86825" xlink:href="#mb8deeb3a6e" y="214.8084"/>
     <use style="fill:#ffffff;stroke:#0000ff;" x="156.397716" xlink:href="#mb8deeb3a6e" y="215.184897"/>
     <use style="fill:#ffffff;stroke:#0000ff;" x="157.927181" xlink:href="#mb8deeb3a6e" y="215.618378"/>
     <use style="fill:#ffffff;stroke:#0000ff;" x="159.456647" xlink:href="#mb8deeb3a6e" y="216.132371"/>
     <use style="fill:#ffffff;stroke:#0000ff;" x="160.986112" xlink:href="#mb8deeb3a6e" y="216.359106"/>
     <use style="fill:#ffffff;stroke:#0000ff;" x="162.515578" xlink:href="#mb8deeb3a6e" y="216.763795"/>
     <use style="fill:#ffffff;stroke:#0000ff;" x="164.045043" xlink:href="#mb8deeb3a6e" y="217.113534"/>
     <use style="fill:#ffffff;stroke:#0000ff;" x="165.574509" xlink:href="#mb8deeb3a6e" y="217.504406"/>
     <use style="fill:#ffffff;stroke:#0000ff;" x="167.103974" xlink:href="#mb8deeb3a6e" y="217.703828"/>
     <use style="fill:#ffffff;stroke:#0000ff;" x="168.63344" xlink:href="#mb8deeb3a6e" y="218.208713"/>
     <use style="fill:#ffffff;stroke:#0000ff;" x="170.162905" xlink:href="#mb8deeb3a6e" y="218.605688"/>
     <use style="fill:#ffffff;stroke:#0000ff;" x="171.692371" xlink:href="#mb8deeb3a6e" y="218.817194"/>
     <use style="fill:#ffffff;stroke:#0000ff;" x="173.221836" xlink:href="#mb8deeb3a6e" y="219.206289"/>
     <use style="fill:#ffffff;stroke:#0000ff;" x="174.751302" xlink:href="#mb8deeb3a6e" y="219.648492"/>
     <use style="fill:#ffffff;stroke:#0000ff;" x="176.280767" xlink:href="#mb8deeb3a6e" y="219.703018"/>
     <use style="fill:#ffffff;stroke:#0000ff;" x="177.810233" xlink:href="#mb8deeb3a6e" y="220.098515"/>
     <use style="fill:#ffffff;stroke:#0000ff;" x="179.339698" xlink:href="#mb8deeb3a6e" y="220.285945"/>
     <use style="fill:#ffffff;stroke:#0000ff;" x="180.869164" xlink:href="#mb8deeb3a6e" y="220.712345"/>
     <use style="fill:#ffffff;stroke:#0000ff;" x="182.39863" xlink:href="#mb8deeb3a6e" y="221.020799"/>
     <use style="fill:#ffffff;stroke:#0000ff;" x="183.928095" xlink:href="#mb8deeb3a6e" y="221.279569"/>
     <use style="fill:#ffffff;stroke:#0000ff;" x="185.457561" xlink:href="#mb8deeb3a6e" y="221.171653"/>
     <use style="fill:#ffffff;stroke:#0000ff;" x="186.987026" xlink:href="#mb8deeb3a6e" y="221.802352"/>
     <use style="fill:#ffffff;stroke:#0000ff;" x="188.516492" xlink:href="#mb8deeb3a6e" y="222.161865"/>
     <use style="fill:#ffffff;stroke:#0000ff;" x="190.045957" xlink:href="#mb8deeb3a6e" y="222.532282"/>
     <use style="fill:#ffffff;stroke:#0000ff;" x="191.575423" xlink:href="#mb8deeb3a6e" y="222.593723"/>
     <use style="fill:#ffffff;stroke:#0000ff;" x="193.104888" xlink:href="#mb8deeb3a6e" y="222.739243"/>
     <use style="fill:#ffffff;stroke:#0000ff;" x="194.634354" xlink:href="#mb8deeb3a6e" y="223.241732"/>
     <use style="fill:#ffffff;stroke:#0000ff;" x="196.163819" xlink:href="#mb8deeb3a6e" y="223.265572"/>
     <use style="fill:#ffffff;stroke:#0000ff;" x="197.693285" xlink:href="#mb8deeb3a6e" y="223.824693"/>
     <use style="fill:#ffffff;stroke:#0000ff;" x="199.22275" xlink:href="#mb8deeb3a6e" y="224.024261"/>
     <use style="fill:#ffffff;stroke:#0000ff;" x="200.752216" xlink:href="#mb8deeb3a6e" y="224.066783"/>
     <use style="fill:#ffffff;stroke:#0000ff;" x="202.281681" xlink:href="#mb8deeb3a6e" y="224.627377"/>
     <use style="fill:#ffffff;stroke:#0000ff;" x="203.811147" xlink:href="#mb8deeb3a6e" y="224.735589"/>
     <use style="fill:#ffffff;stroke:#0000ff;" x="205.340612" xlink:href="#mb8deeb3a6e" y="225.116347"/>
     <use style="fill:#ffffff;stroke:#0000ff;" x="206.870078" xlink:href="#mb8deeb3a6e" y="225.296208"/>
     <use style="fill:#ffffff;stroke:#0000ff;" x="208.399543" xlink:href="#mb8deeb3a6e" y="225.418333"/>
     <use style="fill:#ffffff;stroke:#0000ff;" x="209.929009" xlink:href="#mb8deeb3a6e" y="225.581099"/>
     <use style="fill:#ffffff;stroke:#0000ff;" x="211.458474" xlink:href="#mb8deeb3a6e" y="225.834388"/>
     <use style="fill:#ffffff;stroke:#0000ff;" x="212.98794" xlink:href="#mb8deeb3a6e" y="225.955545"/>
     <use style="fill:#ffffff;stroke:#0000ff;" x="214.517405" xlink:href="#mb8deeb3a6e" y="226.204854"/>
     <use style="fill:#ffffff;stroke:#0000ff;" x="216.046871" xlink:href="#mb8deeb3a6e" y="226.588403"/>
     <use style="fill:#ffffff;stroke:#0000ff;" x="217.576336" xlink:href="#mb8deeb3a6e" y="226.822548"/>
     <use style="fill:#ffffff;stroke:#0000ff;" x="219.105802" xlink:href="#mb8deeb3a6e" y="227.144107"/>
     <use style="fill:#ffffff;stroke:#0000ff;" x="220.635267" xlink:href="#mb8deeb3a6e" y="227.315294"/>
     <use style="fill:#ffffff;stroke:#0000ff;" x="222.164733" xlink:href="#mb8deeb3a6e" y="227.261782"/>
     <use style="fill:#ffffff;stroke:#0000ff;" x="223.694198" xlink:href="#mb8deeb3a6e" y="227.622543"/>
     <use style="fill:#ffffff;stroke:#0000ff;" x="225.223664" xlink:href="#mb8deeb3a6e" y="227.849183"/>
     <use style="fill:#ffffff;stroke:#0000ff;" x="226.753129" xlink:href="#mb8deeb3a6e" y="228.018217"/>
     <use style="fill:#ffffff;stroke:#0000ff;" x="228.282595" xlink:href="#mb8deeb3a6e" y="228.405213"/>
     <use style="fill:#ffffff;stroke:#0000ff;" x="229.81206" xlink:href="#mb8deeb3a6e" y="228.395388"/>
     <use style="fill:#ffffff;stroke:#0000ff;" x="231.341526" xlink:href="#mb8deeb3a6e" y="228.880828"/>
     <use style="fill:#ffffff;stroke:#0000ff;" x="232.870991" xlink:href="#mb8deeb3a6e" y="228.684957"/>
     <use style="fill:#ffffff;stroke:#0000ff;" x="234.400457" xlink:href="#mb8deeb3a6e" y="228.882884"/>
     <use style="fill:#ffffff;stroke:#0000ff;" x="235.929922" xlink:href="#mb8deeb3a6e" y="229.327271"/>
     <use style="fill:#ffffff;stroke:#0000ff;" x="237.459388" xlink:href="#mb8deeb3a6e" y="229.362661"/>
     <use style="fill:#ffffff;stroke:#0000ff;" x="238.988853" xlink:href="#mb8deeb3a6e" y="229.862878"/>
     <use style="fill:#ffffff;stroke:#0000ff;" x="240.518319" xlink:href="#mb8deeb3a6e" y="229.977331"/>
     <use style="fill:#ffffff;stroke:#0000ff;" x="242.047784" xlink:href="#mb8deeb3a6e" y="230.117378"/>
     <use style="fill:#ffffff;stroke:#0000ff;" x="243.57725" xlink:href="#mb8deeb3a6e" y="230.067542"/>
     <use style="fill:#ffffff;stroke:#0000ff;" x="245.106715" xlink:href="#mb8deeb3a6e" y="230.573778"/>
     <use style="fill:#ffffff;stroke:#0000ff;" x="246.636181" xlink:href="#mb8deeb3a6e" y="230.480478"/>
     <use style="fill:#ffffff;stroke:#0000ff;" x="248.165646" xlink:href="#mb8deeb3a6e" y="230.942182"/>
     <use style="fill:#ffffff;stroke:#0000ff;" x="249.695112" xlink:href="#mb8deeb3a6e" y="230.799917"/>
     <use style="fill:#ffffff;stroke:#0000ff;" x="251.224577" xlink:href="#mb8deeb3a6e" y="231.135994"/>
     <use style="fill:#ffffff;stroke:#0000ff;" x="252.754043" xlink:href="#mb8deeb3a6e" y="231.260624"/>
     <use style="fill:#ffffff;stroke:#0000ff;" x="254.283508" xlink:href="#mb8deeb3a6e" y="231.560915"/>
     <use style="fill:#ffffff;stroke:#0000ff;" x="255.812974" xlink:href="#mb8deeb3a6e" y="231.708241"/>
     <use style="fill:#ffffff;stroke:#0000ff;" x="257.342439" xlink:href="#mb8deeb3a6e" y="231.557268"/>
     <use style="fill:#ffffff;stroke:#0000ff;" x="258.871905" xlink:href="#mb8deeb3a6e" y="231.900885"/>
     <use style="fill:#ffffff;stroke:#0000ff;" x="260.40137" xlink:href="#mb8deeb3a6e" y="232.278364"/>
     <use style="fill:#ffffff;stroke:#0000ff;" x="261.930836" xlink:href="#mb8deeb3a6e" y="232.16232"/>
     <use style="fill:#ffffff;stroke:#0000ff;" x="263.460302" xlink:href="#mb8deeb3a6e" y="232.730488"/>
     <use style="fill:#ffffff;stroke:#0000ff;" x="264.989767" xlink:href="#mb8deeb3a6e" y="232.996093"/>
     <use style="fill:#ffffff;stroke:#0000ff;" x="266.519233" xlink:href="#mb8deeb3a6e" y="232.823634"/>
     <use style="fill:#ffffff;stroke:#0000ff;" x="268.048698" xlink:href="#mb8deeb3a6e" y="233.118592"/>
     <use style="fill:#ffffff;stroke:#0000ff;" x="269.578164" xlink:href="#mb8deeb3a6e" y="233.150141"/>
     <use style="fill:#ffffff;stroke:#0000ff;" x="271.107629" xlink:href="#mb8deeb3a6e" y="233.233592"/>
     <use style="fill:#ffffff;stroke:#0000ff;" x="272.637095" xlink:href="#mb8deeb3a6e" y="233.370593"/>
     <use style="fill:#ffffff;stroke:#0000ff;" x="274.16656" xlink:href="#mb8deeb3a6e" y="233.576663"/>
     <use style="fill:#ffffff;stroke:#0000ff;" x="275.696026" xlink:href="#mb8deeb3a6e" y="233.923933"/>
     <use style="fill:#ffffff;stroke:#0000ff;" x="277.225491" xlink:href="#mb8deeb3a6e" y="233.689787"/>
     <use style="fill:#ffffff;stroke:#0000ff;" x="278.754957" xlink:href="#mb8deeb3a6e" y="233.9597"/>
     <use style="fill:#ffffff;stroke:#0000ff;" x="280.284422" xlink:href="#mb8deeb3a6e" y="234.251233"/>
     <use style="fill:#ffffff;stroke:#0000ff;" x="281.813888" xlink:href="#mb8deeb3a6e" y="234.324975"/>
     <use style="fill:#ffffff;stroke:#0000ff;" x="283.343353" xlink:href="#mb8deeb3a6e" y="234.46276"/>
     <use style="fill:#ffffff;stroke:#0000ff;" x="284.872819" xlink:href="#mb8deeb3a6e" y="234.706766"/>
     <use style="fill:#ffffff;stroke:#0000ff;" x="286.402284" xlink:href="#mb8deeb3a6e" y="234.838163"/>
     <use style="fill:#ffffff;stroke:#0000ff;" x="287.93175" xlink:href="#mb8deeb3a6e" y="234.976598"/>
     <use style="fill:#ffffff;stroke:#0000ff;" x="289.461215" xlink:href="#mb8deeb3a6e" y="235.103169"/>
     <use style="fill:#ffffff;stroke:#0000ff;" x="290.990681" xlink:href="#mb8deeb3a6e" y="235.099342"/>
     <use style="fill:#ffffff;stroke:#0000ff;" x="292.520146" xlink:href="#mb8deeb3a6e" y="235.616404"/>
     <use style="fill:#ffffff;stroke:#0000ff;" x="294.049612" xlink:href="#mb8deeb3a6e" y="235.537313"/>
     <use style="fill:#ffffff;stroke:#0000ff;" x="295.579077" xlink:href="#mb8deeb3a6e" y="235.677832"/>
     <use style="fill:#ffffff;stroke:#0000ff;" x="297.108543" xlink:href="#mb8deeb3a6e" y="235.957208"/>
     <use style="fill:#ffffff;stroke:#0000ff;" x="298.638008" xlink:href="#mb8deeb3a6e" y="236.349215"/>
     <use style="fill:#ffffff;stroke:#0000ff;" x="300.167474" xlink:href="#mb8deeb3a6e" y="236.227294"/>
     <use style="fill:#ffffff;stroke:#0000ff;" x="301.696939" xlink:href="#mb8deeb3a6e" y="236.297565"/>
     <use style="fill:#ffffff;stroke:#0000ff;" x="303.226405" xlink:href="#mb8deeb3a6e" y="236.189863"/>
     <use style="fill:#ffffff;stroke:#0000ff;" x="304.75587" xlink:href="#mb8deeb3a6e" y="236.451297"/>
     <use style="fill:#ffffff;stroke:#0000ff;" x="306.285336" xlink:href="#mb8deeb3a6e" y="236.764716"/>
     <use style="fill:#ffffff;stroke:#0000ff;" x="307.814801" xlink:href="#mb8deeb3a6e" y="236.95562"/>
     <use style="fill:#ffffff;stroke:#0000ff;" x="309.344267" xlink:href="#mb8deeb3a6e" y="237.156557"/>
     <use style="fill:#ffffff;stroke:#0000ff;" x="310.873732" xlink:href="#mb8deeb3a6e" y="236.988251"/>
     <use style="fill:#ffffff;stroke:#0000ff;" x="312.403198" xlink:href="#mb8deeb3a6e" y="237.406983"/>
     <use style="fill:#ffffff;stroke:#0000ff;" x="313.932663" xlink:href="#mb8deeb3a6e" y="237.642334"/>
     <use style="fill:#ffffff;stroke:#0000ff;" x="315.462129" xlink:href="#mb8deeb3a6e" y="237.380495"/>
     <use style="fill:#ffffff;stroke:#0000ff;" x="316.991594" xlink:href="#mb8deeb3a6e" y="237.881753"/>
     <use style="fill:#ffffff;stroke:#0000ff;" x="318.52106" xlink:href="#mb8deeb3a6e" y="237.693594"/>
     <use style="fill:#ffffff;stroke:#0000ff;" x="320.050525" xlink:href="#mb8deeb3a6e" y="237.872655"/>
     <use style="fill:#ffffff;stroke:#0000ff;" x="321.579991" xlink:href="#mb8deeb3a6e" y="238.142573"/>
     <use style="fill:#ffffff;stroke:#0000ff;" x="323.109456" xlink:href="#mb8deeb3a6e" y="238.373326"/>
     <use style="fill:#ffffff;stroke:#0000ff;" x="324.638922" xlink:href="#mb8deeb3a6e" y="238.346481"/>
     <use style="fill:#ffffff;stroke:#0000ff;" x="326.168387" xlink:href="#mb8deeb3a6e" y="238.620024"/>
     <use style="fill:#ffffff;stroke:#0000ff;" x="327.697853" xlink:href="#mb8deeb3a6e" y="238.461664"/>
     <use style="fill:#ffffff;stroke:#0000ff;" x="329.227318" xlink:href="#mb8deeb3a6e" y="238.685249"/>
     <use style="fill:#ffffff;stroke:#0000ff;" x="330.756784" xlink:href="#mb8deeb3a6e" y="238.606718"/>
     <use style="fill:#ffffff;stroke:#0000ff;" x="332.286249" xlink:href="#mb8deeb3a6e" y="239.001946"/>
     <use style="fill:#ffffff;stroke:#0000ff;" x="333.815715" xlink:href="#mb8deeb3a6e" y="239.097892"/>
     <use style="fill:#ffffff;stroke:#0000ff;" x="335.34518" xlink:href="#mb8deeb3a6e" y="239.156836"/>
     <use style="fill:#ffffff;stroke:#0000ff;" x="336.874646" xlink:href="#mb8deeb3a6e" y="239.347313"/>
     <use style="fill:#ffffff;stroke:#0000ff;" x="338.404111" xlink:href="#mb8deeb3a6e" y="239.387064"/>
     <use style="fill:#ffffff;stroke:#0000ff;" x="339.933577" xlink:href="#mb8deeb3a6e" y="239.517768"/>
     <use style="fill:#ffffff;stroke:#0000ff;" x="341.463042" xlink:href="#mb8deeb3a6e" y="239.802389"/>
     <use style="fill:#ffffff;stroke:#0000ff;" x="342.992508" xlink:href="#mb8deeb3a6e" y="239.648311"/>
     <use style="fill:#ffffff;stroke:#0000ff;" x="344.521974" xlink:href="#mb8deeb3a6e" y="239.7551"/>
     <use style="fill:#ffffff;stroke:#0000ff;" x="346.051439" xlink:href="#mb8deeb3a6e" y="239.798604"/>
     <use style="fill:#ffffff;stroke:#0000ff;" x="347.580905" xlink:href="#mb8deeb3a6e" y="240.002725"/>
     <use style="fill:#ffffff;stroke:#0000ff;" x="349.11037" xlink:href="#mb8deeb3a6e" y="240.060456"/>
     <use style="fill:#ffffff;stroke:#0000ff;" x="350.639836" xlink:href="#mb8deeb3a6e" y="240.226599"/>
     <use style="fill:#ffffff;stroke:#0000ff;" x="352.169301" xlink:href="#mb8deeb3a6e" y="240.618813"/>
     <use style="fill:#ffffff;stroke:#0000ff;" x="353.698767" xlink:href="#mb8deeb3a6e" y="240.63941"/>
     <use style="fill:#ffffff;stroke:#0000ff;" x="355.228232" xlink:href="#mb8deeb3a6e" y="240.655424"/>
     <use style="fill:#ffffff;stroke:#0000ff;" x="356.757698" xlink:href="#mb8deeb3a6e" y="240.697077"/>
     <use style="fill:#ffffff;stroke:#0000ff;" x="358.287163" xlink:href="#mb8deeb3a6e" y="241.014716"/>
     <use style="fill:#ffffff;stroke:#0000ff;" x="359.816629" xlink:href="#mb8deeb3a6e" y="241.180496"/>
     <use style="fill:#ffffff;stroke:#0000ff;" x="361.346094" xlink:href="#mb8deeb3a6e" y="241.078"/>
     <use style="fill:#ffffff;stroke:#0000ff;" x="362.87556" xlink:href="#mb8deeb3a6e" y="241.584154"/>
     <use style="fill:#ffffff;stroke:#0000ff;" x="364.405025" xlink:href="#mb8deeb3a6e" y="241.276448"/>
     <use style="fill:#ffffff;stroke:#0000ff;" x="365.934491" xlink:href="#mb8deeb3a6e" y="241.56658"/>
     <use style="fill:#ffffff;stroke:#0000ff;" x="367.463956" xlink:href="#mb8deeb3a6e" y="241.473722"/>
     <use style="fill:#ffffff;stroke:#0000ff;" x="368.993422" xlink:href="#mb8deeb3a6e" y="241.616344"/>
     <use style="fill:#ffffff;stroke:#0000ff;" x="370.522887" xlink:href="#mb8deeb3a6e" y="241.859476"/>
     <use style="fill:#ffffff;stroke:#0000ff;" x="372.052353" xlink:href="#mb8deeb3a6e" y="241.954001"/>
     <use style="fill:#ffffff;stroke:#0000ff;" x="373.581818" xlink:href="#mb8deeb3a6e" y="242.116364"/>
    </g>
   </g>
   <g id="line2d_17">
    <path clip-path="url(#p8518c9ca72)" d="M 69.218182 46.131778 
L 70.747647 52.98642 
L 72.277113 67.082859 
L 73.806578 85.11192 
L 75.336044 101.178807 
L 76.865509 112.702451 
L 78.394975 122.240044 
L 79.92444 129.189539 
L 81.453906 134.968159 
L 84.512837 144.531834 
L 86.042302 145.717089 
L 87.571768 149.670181 
L 89.101233 151.197335 
L 90.630699 152.330064 
L 92.160164 152.816414 
L 93.68963 154.951477 
L 95.219095 155.365762 
L 96.748561 156.302183 
L 98.278026 156.3706 
L 99.807492 158.016788 
L 101.336958 157.905033 
L 102.866423 157.316011 
L 104.395889 157.963917 
L 105.925354 158.286257 
L 107.45482 157.822833 
L 108.984285 158.160757 
L 110.513751 156.555657 
L 112.043216 157.775225 
L 113.572682 157.620097 
L 115.102147 158.2697 
L 116.631613 156.131663 
L 118.161078 157.16728 
L 119.690544 157.196812 
L 121.220009 157.073769 
L 122.749475 156.321363 
L 124.27894 156.129012 
L 125.808406 156.224249 
L 127.337871 154.917992 
L 128.867337 154.848901 
L 130.396802 155.226511 
L 131.926268 154.452814 
L 133.455733 154.542965 
L 134.985199 153.917092 
L 136.514664 154.532487 
L 138.04413 152.143873 
L 139.573595 151.905674 
L 141.103061 151.892663 
L 142.632526 151.6273 
L 144.161992 150.541013 
L 145.691457 149.683151 
L 147.220923 150.640321 
L 148.750388 150.359435 
L 150.279854 149.823138 
L 151.809319 149.724505 
L 153.338785 148.153556 
L 154.86825 147.932641 
L 156.397716 147.935249 
L 157.927181 147.792655 
L 159.456647 147.372816 
L 160.986112 146.728188 
L 162.515578 146.637612 
L 164.045043 146.022872 
L 165.574509 146.11085 
L 167.103974 144.802889 
L 168.63344 145.492894 
L 170.162905 143.758869 
L 171.692371 144.163523 
L 173.221836 144.175432 
L 174.751302 143.854427 
L 176.280767 142.6673 
L 177.810233 143.328505 
L 180.869164 140.063091 
L 182.39863 141.488068 
L 183.928095 140.593246 
L 185.457561 140.218283 
L 186.987026 140.102695 
L 188.516492 139.265364 
L 190.045957 138.807257 
L 191.575423 138.802757 
L 193.104888 138.382863 
L 194.634354 138.805012 
L 196.163819 137.189799 
L 197.693285 136.602435 
L 199.22275 136.93932 
L 202.281681 135.667561 
L 203.811147 135.238394 
L 205.340612 134.213194 
L 206.870078 133.903734 
L 209.929009 134.020317 
L 211.458474 133.198487 
L 212.98794 133.767878 
L 214.517405 132.780932 
L 216.046871 133.264311 
L 217.576336 131.491555 
L 219.105802 130.701485 
L 220.635267 128.652667 
L 222.164733 130.711046 
L 223.694198 130.176155 
L 225.223664 129.970403 
L 226.753129 128.388556 
L 228.282595 129.333992 
L 229.81206 127.653251 
L 231.341526 126.554652 
L 232.870991 126.123747 
L 234.400457 127.146703 
L 235.929922 126.913217 
L 237.459388 127.003874 
L 238.988853 125.988049 
L 240.518319 126.16699 
L 242.047784 125.385052 
L 243.57725 124.447126 
L 245.106715 124.349311 
L 246.636181 124.135727 
L 248.165646 123.463826 
L 249.695112 122.418302 
L 251.224577 122.354992 
L 252.754043 122.625261 
L 254.283508 122.34029 
L 255.812974 122.282839 
L 257.342439 120.566632 
L 258.871905 122.036185 
L 260.40137 121.288196 
L 263.460302 119.56329 
L 264.989767 118.736438 
L 266.519233 119.140299 
L 269.578164 118.007788 
L 271.107629 115.724717 
L 272.637095 116.960031 
L 274.16656 115.627128 
L 275.696026 115.113138 
L 277.225491 114.811863 
L 280.284422 115.900701 
L 281.813888 113.050834 
L 283.343353 113.388729 
L 284.872819 114.387189 
L 286.402284 112.204427 
L 287.93175 112.310816 
L 289.461215 112.654169 
L 290.990681 111.74342 
L 292.520146 110.551619 
L 295.579077 110.133603 
L 297.108543 110.35748 
L 298.638008 109.821267 
L 300.167474 107.925878 
L 301.696939 107.71741 
L 303.226405 108.509473 
L 304.75587 107.649393 
L 306.285336 106.523708 
L 307.814801 107.00253 
L 309.344267 106.59252 
L 310.873732 104.532845 
L 312.403198 106.618434 
L 313.932663 104.283567 
L 315.462129 103.9144 
L 316.991594 103.298217 
L 318.52106 103.338941 
L 320.050525 102.046124 
L 321.579991 103.381449 
L 323.109456 102.280626 
L 324.638922 101.959633 
L 327.697853 102.05097 
L 329.227318 100.527966 
L 330.756784 99.802075 
L 332.286249 97.782452 
L 333.815715 99.688659 
L 335.34518 99.202958 
L 336.874646 96.984589 
L 338.404111 96.734795 
L 339.933577 97.04609 
L 341.463042 96.304883 
L 342.992508 95.692687 
L 344.521974 95.722644 
L 346.051439 95.367268 
L 347.580905 95.531014 
L 349.11037 93.881656 
L 350.639836 94.991692 
L 352.169301 90.660121 
L 353.698767 93.064033 
L 355.228232 92.085324 
L 356.757698 92.474892 
L 359.816629 92.158126 
L 362.87556 89.451849 
L 364.405025 88.916139 
L 365.934491 89.893262 
L 367.463956 87.85895 
L 368.993422 88.811736 
L 370.522887 86.929329 
L 372.052353 87.708245 
L 373.581818 84.789542 
L 373.581818 84.789542 
" style="fill:none;stroke:#ff0000;stroke-linecap:square;stroke-width:1.5;"/>
    <defs>
     <path d="M 0 3 
C 0.795609 3 1.55874 2.683901 2.12132 2.12132 
C 2.683901 1.55874 3 0.795609 3 0 
C 3 -0.795609 2.683901 -1.55874 2.12132 -2.12132 
C 1.55874 -2.683901 0.795609 -3 0 -3 
C -0.795609 -3 -1.55874 -2.683901 -2.12132 -2.12132 
C -2.683901 -1.55874 -3 -0.795609 -3 0 
C -3 0.795609 -2.683901 1.55874 -2.12132 2.12132 
C -1.55874 2.683901 -0.795609 3 0 3 
z
" id="m6315b3f267" style="stroke:#ff0000;"/>
    </defs>
    <g clip-path="url(#p8518c9ca72)">
     <use style="fill:#ffffff;stroke:#ff0000;" x="69.218182" xlink:href="#m6315b3f267" y="46.131778"/>
     <use style="fill:#ffffff;stroke:#ff0000;" x="70.747647" xlink:href="#m6315b3f267" y="52.98642"/>
     <use style="fill:#ffffff;stroke:#ff0000;" x="72.277113" xlink:href="#m6315b3f267" y="67.082859"/>
     <use style="fill:#ffffff;stroke:#ff0000;" x="73.806578" xlink:href="#m6315b3f267" y="85.11192"/>
     <use style="fill:#ffffff;stroke:#ff0000;" x="75.336044" xlink:href="#m6315b3f267" y="101.178807"/>
     <use style="fill:#ffffff;stroke:#ff0000;" x="76.865509" xlink:href="#m6315b3f267" y="112.702451"/>
     <use style="fill:#ffffff;stroke:#ff0000;" x="78.394975" xlink:href="#m6315b3f267" y="122.240044"/>
     <use style="fill:#ffffff;stroke:#ff0000;" x="79.92444" xlink:href="#m6315b3f267" y="129.189539"/>
     <use style="fill:#ffffff;stroke:#ff0000;" x="81.453906" xlink:href="#m6315b3f267" y="134.968159"/>
     <use style="fill:#ffffff;stroke:#ff0000;" x="82.983371" xlink:href="#m6315b3f267" y="139.808015"/>
     <use style="fill:#ffffff;stroke:#ff0000;" x="84.512837" xlink:href="#m6315b3f267" y="144.531834"/>
     <use style="fill:#ffffff;stroke:#ff0000;" x="86.042302" xlink:href="#m6315b3f267" y="145.717089"/>
     <use style="fill:#ffffff;stroke:#ff0000;" x="87.571768" xlink:href="#m6315b3f267" y="149.670181"/>
     <use style="fill:#ffffff;stroke:#ff0000;" x="89.101233" xlink:href="#m6315b3f267" y="151.197335"/>
     <use style="fill:#ffffff;stroke:#ff0000;" x="90.630699" xlink:href="#m6315b3f267" y="152.330064"/>
     <use style="fill:#ffffff;stroke:#ff0000;" x="92.160164" xlink:href="#m6315b3f267" y="152.816414"/>
     <use style="fill:#ffffff;stroke:#ff0000;" x="93.68963" xlink:href="#m6315b3f267" y="154.951477"/>
     <use style="fill:#ffffff;stroke:#ff0000;" x="95.219095" xlink:href="#m6315b3f267" y="155.365762"/>
     <use style="fill:#ffffff;stroke:#ff0000;" x="96.748561" xlink:href="#m6315b3f267" y="156.302183"/>
     <use style="fill:#ffffff;stroke:#ff0000;" x="98.278026" xlink:href="#m6315b3f267" y="156.3706"/>
     <use style="fill:#ffffff;stroke:#ff0000;" x="99.807492" xlink:href="#m6315b3f267" y="158.016788"/>
     <use style="fill:#ffffff;stroke:#ff0000;" x="101.336958" xlink:href="#m6315b3f267" y="157.905033"/>
     <use style="fill:#ffffff;stroke:#ff0000;" x="102.866423" xlink:href="#m6315b3f267" y="157.316011"/>
     <use style="fill:#ffffff;stroke:#ff0000;" x="104.395889" xlink:href="#m6315b3f267" y="157.963917"/>
     <use style="fill:#ffffff;stroke:#ff0000;" x="105.925354" xlink:href="#m6315b3f267" y="158.286257"/>
     <use style="fill:#ffffff;stroke:#ff0000;" x="107.45482" xlink:href="#m6315b3f267" y="157.822833"/>
     <use style="fill:#ffffff;stroke:#ff0000;" x="108.984285" xlink:href="#m6315b3f267" y="158.160757"/>
     <use style="fill:#ffffff;stroke:#ff0000;" x="110.513751" xlink:href="#m6315b3f267" y="156.555657"/>
     <use style="fill:#ffffff;stroke:#ff0000;" x="112.043216" xlink:href="#m6315b3f267" y="157.775225"/>
     <use style="fill:#ffffff;stroke:#ff0000;" x="113.572682" xlink:href="#m6315b3f267" y="157.620097"/>
     <use style="fill:#ffffff;stroke:#ff0000;" x="115.102147" xlink:href="#m6315b3f267" y="158.2697"/>
     <use style="fill:#ffffff;stroke:#ff0000;" x="116.631613" xlink:href="#m6315b3f267" y="156.131663"/>
     <use style="fill:#ffffff;stroke:#ff0000;" x="118.161078" xlink:href="#m6315b3f267" y="157.16728"/>
     <use style="fill:#ffffff;stroke:#ff0000;" x="119.690544" xlink:href="#m6315b3f267" y="157.196812"/>
     <use style="fill:#ffffff;stroke:#ff0000;" x="121.220009" xlink:href="#m6315b3f267" y="157.073769"/>
     <use style="fill:#ffffff;stroke:#ff0000;" x="122.749475" xlink:href="#m6315b3f267" y="156.321363"/>
     <use style="fill:#ffffff;stroke:#ff0000;" x="124.27894" xlink:href="#m6315b3f267" y="156.129012"/>
     <use style="fill:#ffffff;stroke:#ff0000;" x="125.808406" xlink:href="#m6315b3f267" y="156.224249"/>
     <use style="fill:#ffffff;stroke:#ff0000;" x="127.337871" xlink:href="#m6315b3f267" y="154.917992"/>
     <use style="fill:#ffffff;stroke:#ff0000;" x="128.867337" xlink:href="#m6315b3f267" y="154.848901"/>
     <use style="fill:#ffffff;stroke:#ff0000;" x="130.396802" xlink:href="#m6315b3f267" y="155.226511"/>
     <use style="fill:#ffffff;stroke:#ff0000;" x="131.926268" xlink:href="#m6315b3f267" y="154.452814"/>
     <use style="fill:#ffffff;stroke:#ff0000;" x="133.455733" xlink:href="#m6315b3f267" y="154.542965"/>
     <use style="fill:#ffffff;stroke:#ff0000;" x="134.985199" xlink:href="#m6315b3f267" y="153.917092"/>
     <use style="fill:#ffffff;stroke:#ff0000;" x="136.514664" xlink:href="#m6315b3f267" y="154.532487"/>
     <use style="fill:#ffffff;stroke:#ff0000;" x="138.04413" xlink:href="#m6315b3f267" y="152.143873"/>
     <use style="fill:#ffffff;stroke:#ff0000;" x="139.573595" xlink:href="#m6315b3f267" y="151.905674"/>
     <use style="fill:#ffffff;stroke:#ff0000;" x="141.103061" xlink:href="#m6315b3f267" y="151.892663"/>
     <use style="fill:#ffffff;stroke:#ff0000;" x="142.632526" xlink:href="#m6315b3f267" y="151.6273"/>
     <use style="fill:#ffffff;stroke:#ff0000;" x="144.161992" xlink:href="#m6315b3f267" y="150.541013"/>
     <use style="fill:#ffffff;stroke:#ff0000;" x="145.691457" xlink:href="#m6315b3f267" y="149.683151"/>
     <use style="fill:#ffffff;stroke:#ff0000;" x="147.220923" xlink:href="#m6315b3f267" y="150.640321"/>
     <use style="fill:#ffffff;stroke:#ff0000;" x="148.750388" xlink:href="#m6315b3f267" y="150.359435"/>
     <use style="fill:#ffffff;stroke:#ff0000;" x="150.279854" xlink:href="#m6315b3f267" y="149.823138"/>
     <use style="fill:#ffffff;stroke:#ff0000;" x="151.809319" xlink:href="#m6315b3f267" y="149.724505"/>
     <use style="fill:#ffffff;stroke:#ff0000;" x="153.338785" xlink:href="#m6315b3f267" y="148.153556"/>
     <use style="fill:#ffffff;stroke:#ff0000;" x="154.86825" xlink:href="#m6315b3f267" y="147.932641"/>
     <use style="fill:#ffffff;stroke:#ff0000;" x="156.397716" xlink:href="#m6315b3f267" y="147.935249"/>
     <use style="fill:#ffffff;stroke:#ff0000;" x="157.927181" xlink:href="#m6315b3f267" y="147.792655"/>
     <use style="fill:#ffffff;stroke:#ff0000;" x="159.456647" xlink:href="#m6315b3f267" y="147.372816"/>
     <use style="fill:#ffffff;stroke:#ff0000;" x="160.986112" xlink:href="#m6315b3f267" y="146.728188"/>
     <use style="fill:#ffffff;stroke:#ff0000;" x="162.515578" xlink:href="#m6315b3f267" y="146.637612"/>
     <use style="fill:#ffffff;stroke:#ff0000;" x="164.045043" xlink:href="#m6315b3f267" y="146.022872"/>
     <use style="fill:#ffffff;stroke:#ff0000;" x="165.574509" xlink:href="#m6315b3f267" y="146.11085"/>
     <use style="fill:#ffffff;stroke:#ff0000;" x="167.103974" xlink:href="#m6315b3f267" y="144.802889"/>
     <use style="fill:#ffffff;stroke:#ff0000;" x="168.63344" xlink:href="#m6315b3f267" y="145.492894"/>
     <use style="fill:#ffffff;stroke:#ff0000;" x="170.162905" xlink:href="#m6315b3f267" y="143.758869"/>
     <use style="fill:#ffffff;stroke:#ff0000;" x="171.692371" xlink:href="#m6315b3f267" y="144.163523"/>
     <use style="fill:#ffffff;stroke:#ff0000;" x="173.221836" xlink:href="#m6315b3f267" y="144.175432"/>
     <use style="fill:#ffffff;stroke:#ff0000;" x="174.751302" xlink:href="#m6315b3f267" y="143.854427"/>
     <use style="fill:#ffffff;stroke:#ff0000;" x="176.280767" xlink:href="#m6315b3f267" y="142.6673"/>
     <use style="fill:#ffffff;stroke:#ff0000;" x="177.810233" xlink:href="#m6315b3f267" y="143.328505"/>
     <use style="fill:#ffffff;stroke:#ff0000;" x="179.339698" xlink:href="#m6315b3f267" y="141.772414"/>
     <use style="fill:#ffffff;stroke:#ff0000;" x="180.869164" xlink:href="#m6315b3f267" y="140.063091"/>
     <use style="fill:#ffffff;stroke:#ff0000;" x="182.39863" xlink:href="#m6315b3f267" y="141.488068"/>
     <use style="fill:#ffffff;stroke:#ff0000;" x="183.928095" xlink:href="#m6315b3f267" y="140.593246"/>
     <use style="fill:#ffffff;stroke:#ff0000;" x="185.457561" xlink:href="#m6315b3f267" y="140.218283"/>
     <use style="fill:#ffffff;stroke:#ff0000;" x="186.987026" xlink:href="#m6315b3f267" y="140.102695"/>
     <use style="fill:#ffffff;stroke:#ff0000;" x="188.516492" xlink:href="#m6315b3f267" y="139.265364"/>
     <use style="fill:#ffffff;stroke:#ff0000;" x="190.045957" xlink:href="#m6315b3f267" y="138.807257"/>
     <use style="fill:#ffffff;stroke:#ff0000;" x="191.575423" xlink:href="#m6315b3f267" y="138.802757"/>
     <use style="fill:#ffffff;stroke:#ff0000;" x="193.104888" xlink:href="#m6315b3f267" y="138.382863"/>
     <use style="fill:#ffffff;stroke:#ff0000;" x="194.634354" xlink:href="#m6315b3f267" y="138.805012"/>
     <use style="fill:#ffffff;stroke:#ff0000;" x="196.163819" xlink:href="#m6315b3f267" y="137.189799"/>
     <use style="fill:#ffffff;stroke:#ff0000;" x="197.693285" xlink:href="#m6315b3f267" y="136.602435"/>
     <use style="fill:#ffffff;stroke:#ff0000;" x="199.22275" xlink:href="#m6315b3f267" y="136.93932"/>
     <use style="fill:#ffffff;stroke:#ff0000;" x="200.752216" xlink:href="#m6315b3f267" y="136.246875"/>
     <use style="fill:#ffffff;stroke:#ff0000;" x="202.281681" xlink:href="#m6315b3f267" y="135.667561"/>
     <use style="fill:#ffffff;stroke:#ff0000;" x="203.811147" xlink:href="#m6315b3f267" y="135.238394"/>
     <use style="fill:#ffffff;stroke:#ff0000;" x="205.340612" xlink:href="#m6315b3f267" y="134.213194"/>
     <use style="fill:#ffffff;stroke:#ff0000;" x="206.870078" xlink:href="#m6315b3f267" y="133.903734"/>
     <use style="fill:#ffffff;stroke:#ff0000;" x="208.399543" xlink:href="#m6315b3f267" y="133.973343"/>
     <use style="fill:#ffffff;stroke:#ff0000;" x="209.929009" xlink:href="#m6315b3f267" y="134.020317"/>
     <use style="fill:#ffffff;stroke:#ff0000;" x="211.458474" xlink:href="#m6315b3f267" y="133.198487"/>
     <use style="fill:#ffffff;stroke:#ff0000;" x="212.98794" xlink:href="#m6315b3f267" y="133.767878"/>
     <use style="fill:#ffffff;stroke:#ff0000;" x="214.517405" xlink:href="#m6315b3f267" y="132.780932"/>
     <use style="fill:#ffffff;stroke:#ff0000;" x="216.046871" xlink:href="#m6315b3f267" y="133.264311"/>
     <use style="fill:#ffffff;stroke:#ff0000;" x="217.576336" xlink:href="#m6315b3f267" y="131.491555"/>
     <use style="fill:#ffffff;stroke:#ff0000;" x="219.105802" xlink:href="#m6315b3f267" y="130.701485"/>
     <use style="fill:#ffffff;stroke:#ff0000;" x="220.635267" xlink:href="#m6315b3f267" y="128.652667"/>
     <use style="fill:#ffffff;stroke:#ff0000;" x="222.164733" xlink:href="#m6315b3f267" y="130.711046"/>
     <use style="fill:#ffffff;stroke:#ff0000;" x="223.694198" xlink:href="#m6315b3f267" y="130.176155"/>
     <use style="fill:#ffffff;stroke:#ff0000;" x="225.223664" xlink:href="#m6315b3f267" y="129.970403"/>
     <use style="fill:#ffffff;stroke:#ff0000;" x="226.753129" xlink:href="#m6315b3f267" y="128.388556"/>
     <use style="fill:#ffffff;stroke:#ff0000;" x="228.282595" xlink:href="#m6315b3f267" y="129.333992"/>
     <use style="fill:#ffffff;stroke:#ff0000;" x="229.81206" xlink:href="#m6315b3f267" y="127.653251"/>
     <use style="fill:#ffffff;stroke:#ff0000;" x="231.341526" xlink:href="#m6315b3f267" y="126.554652"/>
     <use style="fill:#ffffff;stroke:#ff0000;" x="232.870991" xlink:href="#m6315b3f267" y="126.123747"/>
     <use style="fill:#ffffff;stroke:#ff0000;" x="234.400457" xlink:href="#m6315b3f267" y="127.146703"/>
     <use style="fill:#ffffff;stroke:#ff0000;" x="235.929922" xlink:href="#m6315b3f267" y="126.913217"/>
     <use style="fill:#ffffff;stroke:#ff0000;" x="237.459388" xlink:href="#m6315b3f267" y="127.003874"/>
     <use style="fill:#ffffff;stroke:#ff0000;" x="238.988853" xlink:href="#m6315b3f267" y="125.988049"/>
     <use style="fill:#ffffff;stroke:#ff0000;" x="240.518319" xlink:href="#m6315b3f267" y="126.16699"/>
     <use style="fill:#ffffff;stroke:#ff0000;" x="242.047784" xlink:href="#m6315b3f267" y="125.385052"/>
     <use style="fill:#ffffff;stroke:#ff0000;" x="243.57725" xlink:href="#m6315b3f267" y="124.447126"/>
     <use style="fill:#ffffff;stroke:#ff0000;" x="245.106715" xlink:href="#m6315b3f267" y="124.349311"/>
     <use style="fill:#ffffff;stroke:#ff0000;" x="246.636181" xlink:href="#m6315b3f267" y="124.135727"/>
     <use style="fill:#ffffff;stroke:#ff0000;" x="248.165646" xlink:href="#m6315b3f267" y="123.463826"/>
     <use style="fill:#ffffff;stroke:#ff0000;" x="249.695112" xlink:href="#m6315b3f267" y="122.418302"/>
     <use style="fill:#ffffff;stroke:#ff0000;" x="251.224577" xlink:href="#m6315b3f267" y="122.354992"/>
     <use style="fill:#ffffff;stroke:#ff0000;" x="252.754043" xlink:href="#m6315b3f267" y="122.625261"/>
     <use style="fill:#ffffff;stroke:#ff0000;" x="254.283508" xlink:href="#m6315b3f267" y="122.34029"/>
     <use style="fill:#ffffff;stroke:#ff0000;" x="255.812974" xlink:href="#m6315b3f267" y="122.282839"/>
     <use style="fill:#ffffff;stroke:#ff0000;" x="257.342439" xlink:href="#m6315b3f267" y="120.566632"/>
     <use style="fill:#ffffff;stroke:#ff0000;" x="258.871905" xlink:href="#m6315b3f267" y="122.036185"/>
     <use style="fill:#ffffff;stroke:#ff0000;" x="260.40137" xlink:href="#m6315b3f267" y="121.288196"/>
     <use style="fill:#ffffff;stroke:#ff0000;" x="261.930836" xlink:href="#m6315b3f267" y="120.391751"/>
     <use style="fill:#ffffff;stroke:#ff0000;" x="263.460302" xlink:href="#m6315b3f267" y="119.56329"/>
     <use style="fill:#ffffff;stroke:#ff0000;" x="264.989767" xlink:href="#m6315b3f267" y="118.736438"/>
     <use style="fill:#ffffff;stroke:#ff0000;" x="266.519233" xlink:href="#m6315b3f267" y="119.140299"/>
     <use style="fill:#ffffff;stroke:#ff0000;" x="268.048698" xlink:href="#m6315b3f267" y="118.588321"/>
     <use style="fill:#ffffff;stroke:#ff0000;" x="269.578164" xlink:href="#m6315b3f267" y="118.007788"/>
     <use style="fill:#ffffff;stroke:#ff0000;" x="271.107629" xlink:href="#m6315b3f267" y="115.724717"/>
     <use style="fill:#ffffff;stroke:#ff0000;" x="272.637095" xlink:href="#m6315b3f267" y="116.960031"/>
     <use style="fill:#ffffff;stroke:#ff0000;" x="274.16656" xlink:href="#m6315b3f267" y="115.627128"/>
     <use style="fill:#ffffff;stroke:#ff0000;" x="275.696026" xlink:href="#m6315b3f267" y="115.113138"/>
     <use style="fill:#ffffff;stroke:#ff0000;" x="277.225491" xlink:href="#m6315b3f267" y="114.811863"/>
     <use style="fill:#ffffff;stroke:#ff0000;" x="278.754957" xlink:href="#m6315b3f267" y="115.358977"/>
     <use style="fill:#ffffff;stroke:#ff0000;" x="280.284422" xlink:href="#m6315b3f267" y="115.900701"/>
     <use style="fill:#ffffff;stroke:#ff0000;" x="281.813888" xlink:href="#m6315b3f267" y="113.050834"/>
     <use style="fill:#ffffff;stroke:#ff0000;" x="283.343353" xlink:href="#m6315b3f267" y="113.388729"/>
     <use style="fill:#ffffff;stroke:#ff0000;" x="284.872819" xlink:href="#m6315b3f267" y="114.387189"/>
     <use style="fill:#ffffff;stroke:#ff0000;" x="286.402284" xlink:href="#m6315b3f267" y="112.204427"/>
     <use style="fill:#ffffff;stroke:#ff0000;" x="287.93175" xlink:href="#m6315b3f267" y="112.310816"/>
     <use style="fill:#ffffff;stroke:#ff0000;" x="289.461215" xlink:href="#m6315b3f267" y="112.654169"/>
     <use style="fill:#ffffff;stroke:#ff0000;" x="290.990681" xlink:href="#m6315b3f267" y="111.74342"/>
     <use style="fill:#ffffff;stroke:#ff0000;" x="292.520146" xlink:href="#m6315b3f267" y="110.551619"/>
     <use style="fill:#ffffff;stroke:#ff0000;" x="294.049612" xlink:href="#m6315b3f267" y="110.376629"/>
     <use style="fill:#ffffff;stroke:#ff0000;" x="295.579077" xlink:href="#m6315b3f267" y="110.133603"/>
     <use style="fill:#ffffff;stroke:#ff0000;" x="297.108543" xlink:href="#m6315b3f267" y="110.35748"/>
     <use style="fill:#ffffff;stroke:#ff0000;" x="298.638008" xlink:href="#m6315b3f267" y="109.821267"/>
     <use style="fill:#ffffff;stroke:#ff0000;" x="300.167474" xlink:href="#m6315b3f267" y="107.925878"/>
     <use style="fill:#ffffff;stroke:#ff0000;" x="301.696939" xlink:href="#m6315b3f267" y="107.71741"/>
     <use style="fill:#ffffff;stroke:#ff0000;" x="303.226405" xlink:href="#m6315b3f267" y="108.509473"/>
     <use style="fill:#ffffff;stroke:#ff0000;" x="304.75587" xlink:href="#m6315b3f267" y="107.649393"/>
     <use style="fill:#ffffff;stroke:#ff0000;" x="306.285336" xlink:href="#m6315b3f267" y="106.523708"/>
     <use style="fill:#ffffff;stroke:#ff0000;" x="307.814801" xlink:href="#m6315b3f267" y="107.00253"/>
     <use style="fill:#ffffff;stroke:#ff0000;" x="309.344267" xlink:href="#m6315b3f267" y="106.59252"/>
     <use style="fill:#ffffff;stroke:#ff0000;" x="310.873732" xlink:href="#m6315b3f267" y="104.532845"/>
     <use style="fill:#ffffff;stroke:#ff0000;" x="312.403198" xlink:href="#m6315b3f267" y="106.618434"/>
     <use style="fill:#ffffff;stroke:#ff0000;" x="313.932663" xlink:href="#m6315b3f267" y="104.283567"/>
     <use style="fill:#ffffff;stroke:#ff0000;" x="315.462129" xlink:href="#m6315b3f267" y="103.9144"/>
     <use style="fill:#ffffff;stroke:#ff0000;" x="316.991594" xlink:href="#m6315b3f267" y="103.298217"/>
     <use style="fill:#ffffff;stroke:#ff0000;" x="318.52106" xlink:href="#m6315b3f267" y="103.338941"/>
     <use style="fill:#ffffff;stroke:#ff0000;" x="320.050525" xlink:href="#m6315b3f267" y="102.046124"/>
     <use style="fill:#ffffff;stroke:#ff0000;" x="321.579991" xlink:href="#m6315b3f267" y="103.381449"/>
     <use style="fill:#ffffff;stroke:#ff0000;" x="323.109456" xlink:href="#m6315b3f267" y="102.280626"/>
     <use style="fill:#ffffff;stroke:#ff0000;" x="324.638922" xlink:href="#m6315b3f267" y="101.959633"/>
     <use style="fill:#ffffff;stroke:#ff0000;" x="326.168387" xlink:href="#m6315b3f267" y="102.051662"/>
     <use style="fill:#ffffff;stroke:#ff0000;" x="327.697853" xlink:href="#m6315b3f267" y="102.05097"/>
     <use style="fill:#ffffff;stroke:#ff0000;" x="329.227318" xlink:href="#m6315b3f267" y="100.527966"/>
     <use style="fill:#ffffff;stroke:#ff0000;" x="330.756784" xlink:href="#m6315b3f267" y="99.802075"/>
     <use style="fill:#ffffff;stroke:#ff0000;" x="332.286249" xlink:href="#m6315b3f267" y="97.782452"/>
     <use style="fill:#ffffff;stroke:#ff0000;" x="333.815715" xlink:href="#m6315b3f267" y="99.688659"/>
     <use style="fill:#ffffff;stroke:#ff0000;" x="335.34518" xlink:href="#m6315b3f267" y="99.202958"/>
     <use style="fill:#ffffff;stroke:#ff0000;" x="336.874646" xlink:href="#m6315b3f267" y="96.984589"/>
     <use style="fill:#ffffff;stroke:#ff0000;" x="338.404111" xlink:href="#m6315b3f267" y="96.734795"/>
     <use style="fill:#ffffff;stroke:#ff0000;" x="339.933577" xlink:href="#m6315b3f267" y="97.04609"/>
     <use style="fill:#ffffff;stroke:#ff0000;" x="341.463042" xlink:href="#m6315b3f267" y="96.304883"/>
     <use style="fill:#ffffff;stroke:#ff0000;" x="342.992508" xlink:href="#m6315b3f267" y="95.692687"/>
     <use style="fill:#ffffff;stroke:#ff0000;" x="344.521974" xlink:href="#m6315b3f267" y="95.722644"/>
     <use style="fill:#ffffff;stroke:#ff0000;" x="346.051439" xlink:href="#m6315b3f267" y="95.367268"/>
     <use style="fill:#ffffff;stroke:#ff0000;" x="347.580905" xlink:href="#m6315b3f267" y="95.531014"/>
     <use style="fill:#ffffff;stroke:#ff0000;" x="349.11037" xlink:href="#m6315b3f267" y="93.881656"/>
     <use style="fill:#ffffff;stroke:#ff0000;" x="350.639836" xlink:href="#m6315b3f267" y="94.991692"/>
     <use style="fill:#ffffff;stroke:#ff0000;" x="352.169301" xlink:href="#m6315b3f267" y="90.660121"/>
     <use style="fill:#ffffff;stroke:#ff0000;" x="353.698767" xlink:href="#m6315b3f267" y="93.064033"/>
     <use style="fill:#ffffff;stroke:#ff0000;" x="355.228232" xlink:href="#m6315b3f267" y="92.085324"/>
     <use style="fill:#ffffff;stroke:#ff0000;" x="356.757698" xlink:href="#m6315b3f267" y="92.474892"/>
     <use style="fill:#ffffff;stroke:#ff0000;" x="358.287163" xlink:href="#m6315b3f267" y="92.327559"/>
     <use style="fill:#ffffff;stroke:#ff0000;" x="359.816629" xlink:href="#m6315b3f267" y="92.158126"/>
     <use style="fill:#ffffff;stroke:#ff0000;" x="361.346094" xlink:href="#m6315b3f267" y="90.829491"/>
     <use style="fill:#ffffff;stroke:#ff0000;" x="362.87556" xlink:href="#m6315b3f267" y="89.451849"/>
     <use style="fill:#ffffff;stroke:#ff0000;" x="364.405025" xlink:href="#m6315b3f267" y="88.916139"/>
     <use style="fill:#ffffff;stroke:#ff0000;" x="365.934491" xlink:href="#m6315b3f267" y="89.893262"/>
     <use style="fill:#ffffff;stroke:#ff0000;" x="367.463956" xlink:href="#m6315b3f267" y="87.85895"/>
     <use style="fill:#ffffff;stroke:#ff0000;" x="368.993422" xlink:href="#m6315b3f267" y="88.811736"/>
     <use style="fill:#ffffff;stroke:#ff0000;" x="370.522887" xlink:href="#m6315b3f267" y="86.929329"/>
     <use style="fill:#ffffff;stroke:#ff0000;" x="372.052353" xlink:href="#m6315b3f267" y="87.708245"/>
     <use style="fill:#ffffff;stroke:#ff0000;" x="373.581818" xlink:href="#m6315b3f267" y="84.789542"/>
    </g>
   </g>
   <g id="patch_3">
    <path d="M 54 252 
L 54 34.56 
" style="fill:none;stroke:#000000;stroke-linecap:square;stroke-linejoin:miter;stroke-width:0.8;"/>
   </g>
   <g id="patch_4">
    <path d="M 388.8 252 
L 388.8 34.56 
" style="fill:none;stroke:#000000;stroke-linecap:square;stroke-linejoin:miter;stroke-width:0.8;"/>
   </g>
   <g id="patch_5">
    <path d="M 54 252 
L 388.8 252 
" style="fill:none;stroke:#000000;stroke-linecap:square;stroke-linejoin:miter;stroke-width:0.8;"/>
   </g>
   <g id="patch_6">
    <path d="M 54 34.56 
L 388.8 34.56 
" style="fill:none;stroke:#000000;stroke-linecap:square;stroke-linejoin:miter;stroke-width:0.8;"/>
   </g>
   <g id="text_18">
    <!-- Training and validation loss -->
    <defs>
     <path d="M -0.296875 72.90625 
L 61.375 72.90625 
L 61.375 64.59375 
L 35.5 64.59375 
L 35.5 0 
L 25.59375 0 
L 25.59375 64.59375 
L -0.296875 64.59375 
z
" id="DejaVuSans-54"/>
     <path d="M 41.109375 46.296875 
Q 39.59375 47.171875 37.8125 47.578125 
Q 36.03125 48 33.890625 48 
Q 26.265625 48 22.1875 43.046875 
Q 18.109375 38.09375 18.109375 28.8125 
L 18.109375 0 
L 9.078125 0 
L 9.078125 54.6875 
L 18.109375 54.6875 
L 18.109375 46.1875 
Q 20.953125 51.171875 25.484375 53.578125 
Q 30.03125 56 36.53125 56 
Q 37.453125 56 38.578125 55.875 
Q 39.703125 55.765625 41.0625 55.515625 
z
" id="DejaVuSans-72"/>
     <path d="M 34.28125 27.484375 
Q 23.390625 27.484375 19.1875 25 
Q 14.984375 22.515625 14.984375 16.5 
Q 14.984375 11.71875 18.140625 8.90625 
Q 21.296875 6.109375 26.703125 6.109375 
Q 34.1875 6.109375 38.703125 11.40625 
Q 43.21875 16.703125 43.21875 25.484375 
L 43.21875 27.484375 
z
M 52.203125 31.203125 
L 52.203125 0 
L 43.21875 0 
L 43.21875 8.296875 
Q 40.140625 3.328125 35.546875 0.953125 
Q 30.953125 -1.421875 24.3125 -1.421875 
Q 15.921875 -1.421875 10.953125 3.296875 
Q 6 8.015625 6 15.921875 
Q 6 25.140625 12.171875 29.828125 
Q 18.359375 34.515625 30.609375 34.515625 
L 43.21875 34.515625 
L 43.21875 35.40625 
Q 43.21875 41.609375 39.140625 45 
Q 35.0625 48.390625 27.6875 48.390625 
Q 23 48.390625 18.546875 47.265625 
Q 14.109375 46.140625 10.015625 43.890625 
L 10.015625 52.203125 
Q 14.9375 54.109375 19.578125 55.046875 
Q 24.21875 56 28.609375 56 
Q 40.484375 56 46.34375 49.84375 
Q 52.203125 43.703125 52.203125 31.203125 
z
" id="DejaVuSans-61"/>
     <path d="M 9.421875 54.6875 
L 18.40625 54.6875 
L 18.40625 0 
L 9.421875 0 
z
M 9.421875 75.984375 
L 18.40625 75.984375 
L 18.40625 64.59375 
L 9.421875 64.59375 
z
" id="DejaVuSans-69"/>
     <path d="M 54.890625 33.015625 
L 54.890625 0 
L 45.90625 0 
L 45.90625 32.71875 
Q 45.90625 40.484375 42.875 44.328125 
Q 39.84375 48.1875 33.796875 48.1875 
Q 26.515625 48.1875 22.3125 43.546875 
Q 18.109375 38.921875 18.109375 30.90625 
L 18.109375 0 
L 9.078125 0 
L 9.078125 54.6875 
L 18.109375 54.6875 
L 18.109375 46.1875 
Q 21.34375 51.125 25.703125 53.5625 
Q 30.078125 56 35.796875 56 
Q 45.21875 56 50.046875 50.171875 
Q 54.890625 44.34375 54.890625 33.015625 
z
" id="DejaVuSans-6e"/>
     <path d="M 45.40625 27.984375 
Q 45.40625 37.75 41.375 43.109375 
Q 37.359375 48.484375 30.078125 48.484375 
Q 22.859375 48.484375 18.828125 43.109375 
Q 14.796875 37.75 14.796875 27.984375 
Q 14.796875 18.265625 18.828125 12.890625 
Q 22.859375 7.515625 30.078125 7.515625 
Q 37.359375 7.515625 41.375 12.890625 
Q 45.40625 18.265625 45.40625 27.984375 
z
M 54.390625 6.78125 
Q 54.390625 -7.171875 48.1875 -13.984375 
Q 42 -20.796875 29.203125 -20.796875 
Q 24.46875 -20.796875 20.265625 -20.09375 
Q 16.0625 -19.390625 12.109375 -17.921875 
L 12.109375 -9.1875 
Q 16.0625 -11.328125 19.921875 -12.34375 
Q 23.78125 -13.375 27.78125 -13.375 
Q 36.625 -13.375 41.015625 -8.765625 
Q 45.40625 -4.15625 45.40625 5.171875 
L 45.40625 9.625 
Q 42.625 4.78125 38.28125 2.390625 
Q 33.9375 0 27.875 0 
Q 17.828125 0 11.671875 7.65625 
Q 5.515625 15.328125 5.515625 27.984375 
Q 5.515625 40.671875 11.671875 48.328125 
Q 17.828125 56 27.875 56 
Q 33.9375 56 38.28125 53.609375 
Q 42.625 51.21875 45.40625 46.390625 
L 45.40625 54.6875 
L 54.390625 54.6875 
z
" id="DejaVuSans-67"/>
     <path id="DejaVuSans-20"/>
     <path d="M 45.40625 46.390625 
L 45.40625 75.984375 
L 54.390625 75.984375 
L 54.390625 0 
L 45.40625 0 
L 45.40625 8.203125 
Q 42.578125 3.328125 38.25 0.953125 
Q 33.9375 -1.421875 27.875 -1.421875 
Q 17.96875 -1.421875 11.734375 6.484375 
Q 5.515625 14.40625 5.515625 27.296875 
Q 5.515625 40.1875 11.734375 48.09375 
Q 17.96875 56 27.875 56 
Q 33.9375 56 38.25 53.625 
Q 42.578125 51.265625 45.40625 46.390625 
z
M 14.796875 27.296875 
Q 14.796875 17.390625 18.875 11.75 
Q 22.953125 6.109375 30.078125 6.109375 
Q 37.203125 6.109375 41.296875 11.75 
Q 45.40625 17.390625 45.40625 27.296875 
Q 45.40625 37.203125 41.296875 42.84375 
Q 37.203125 48.484375 30.078125 48.484375 
Q 22.953125 48.484375 18.875 42.84375 
Q 14.796875 37.203125 14.796875 27.296875 
z
" id="DejaVuSans-64"/>
     <path d="M 2.984375 54.6875 
L 12.5 54.6875 
L 29.59375 8.796875 
L 46.6875 54.6875 
L 56.203125 54.6875 
L 35.6875 0 
L 23.484375 0 
z
" id="DejaVuSans-76"/>
     <path d="M 9.421875 75.984375 
L 18.40625 75.984375 
L 18.40625 0 
L 9.421875 0 
z
" id="DejaVuSans-6c"/>
     <path d="M 18.3125 70.21875 
L 18.3125 54.6875 
L 36.8125 54.6875 
L 36.8125 47.703125 
L 18.3125 47.703125 
L 18.3125 18.015625 
Q 18.3125 11.328125 20.140625 9.421875 
Q 21.96875 7.515625 27.59375 7.515625 
L 36.8125 7.515625 
L 36.8125 0 
L 27.59375 0 
Q 17.1875 0 13.234375 3.875 
Q 9.28125 7.765625 9.28125 18.015625 
L 9.28125 47.703125 
L 2.6875 47.703125 
L 2.6875 54.6875 
L 9.28125 54.6875 
L 9.28125 70.21875 
z
" id="DejaVuSans-74"/>
    </defs>
    <g transform="translate(138.718125 28.56)scale(0.12 -0.12)">
     <use xlink:href="#DejaVuSans-54"/>
     <use x="60.865234" xlink:href="#DejaVuSans-72"/>
     <use x="101.978516" xlink:href="#DejaVuSans-61"/>
     <use x="163.257812" xlink:href="#DejaVuSans-69"/>
     <use x="191.041016" xlink:href="#DejaVuSans-6e"/>
     <use x="254.419922" xlink:href="#DejaVuSans-69"/>
     <use x="282.203125" xlink:href="#DejaVuSans-6e"/>
     <use x="345.582031" xlink:href="#DejaVuSans-67"/>
     <use x="409.058594" xlink:href="#DejaVuSans-20"/>
     <use x="440.845703" xlink:href="#DejaVuSans-61"/>
     <use x="502.125" xlink:href="#DejaVuSans-6e"/>
     <use x="565.503906" xlink:href="#DejaVuSans-64"/>
     <use x="628.980469" xlink:href="#DejaVuSans-20"/>
     <use x="660.767578" xlink:href="#DejaVuSans-76"/>
     <use x="719.947266" xlink:href="#DejaVuSans-61"/>
     <use x="781.226562" xlink:href="#DejaVuSans-6c"/>
     <use x="809.009766" xlink:href="#DejaVuSans-69"/>
     <use x="836.792969" xlink:href="#DejaVuSans-64"/>
     <use x="900.269531" xlink:href="#DejaVuSans-61"/>
     <use x="961.548828" xlink:href="#DejaVuSans-74"/>
     <use x="1000.757812" xlink:href="#DejaVuSans-69"/>
     <use x="1028.541016" xlink:href="#DejaVuSans-6f"/>
     <use x="1089.722656" xlink:href="#DejaVuSans-6e"/>
     <use x="1153.101562" xlink:href="#DejaVuSans-20"/>
     <use x="1184.888672" xlink:href="#DejaVuSans-6c"/>
     <use x="1212.671875" xlink:href="#DejaVuSans-6f"/>
     <use x="1273.853516" xlink:href="#DejaVuSans-73"/>
     <use x="1325.953125" xlink:href="#DejaVuSans-73"/>
    </g>
   </g>
   <g id="legend_1">
    <g id="patch_7">
     <path d="M 277.160937 71.91625 
L 381.8 71.91625 
Q 383.8 71.91625 383.8 69.91625 
L 383.8 41.56 
Q 383.8 39.56 381.8 39.56 
L 277.160937 39.56 
Q 275.160937 39.56 275.160937 41.56 
L 275.160937 69.91625 
Q 275.160937 71.91625 277.160937 71.91625 
z
" style="fill:#ffffff;opacity:0.8;stroke:#cccccc;stroke-linejoin:miter;"/>
    </g>
    <g id="line2d_18">
     <path d="M 279.160937 47.658437 
L 299.160937 47.658437 
" style="fill:none;stroke:#0000ff;stroke-linecap:square;stroke-width:1.5;"/>
    </g>
    <g id="line2d_19">
     <g>
      <use style="fill:#ffffff;stroke:#0000ff;" x="289.160937" xlink:href="#mb8deeb3a6e" y="47.658437"/>
     </g>
    </g>
    <g id="text_19">
     <!-- Training loss -->
     <g transform="translate(307.160937 51.158437)scale(0.1 -0.1)">
      <use xlink:href="#DejaVuSans-54"/>
      <use x="60.865234" xlink:href="#DejaVuSans-72"/>
      <use x="101.978516" xlink:href="#DejaVuSans-61"/>
      <use x="163.257812" xlink:href="#DejaVuSans-69"/>
      <use x="191.041016" xlink:href="#DejaVuSans-6e"/>
      <use x="254.419922" xlink:href="#DejaVuSans-69"/>
      <use x="282.203125" xlink:href="#DejaVuSans-6e"/>
      <use x="345.582031" xlink:href="#DejaVuSans-67"/>
      <use x="409.058594" xlink:href="#DejaVuSans-20"/>
      <use x="440.845703" xlink:href="#DejaVuSans-6c"/>
      <use x="468.628906" xlink:href="#DejaVuSans-6f"/>
      <use x="529.810547" xlink:href="#DejaVuSans-73"/>
      <use x="581.910156" xlink:href="#DejaVuSans-73"/>
     </g>
    </g>
    <g id="line2d_20">
     <path d="M 279.160937 62.336562 
L 299.160937 62.336562 
" style="fill:none;stroke:#ff0000;stroke-linecap:square;stroke-width:1.5;"/>
    </g>
    <g id="line2d_21">
     <g>
      <use style="fill:#ffffff;stroke:#ff0000;" x="289.160937" xlink:href="#m6315b3f267" y="62.336562"/>
     </g>
    </g>
    <g id="text_20">
     <!-- Validation loss -->
     <defs>
      <path d="M 28.609375 0 
L 0.78125 72.90625 
L 11.078125 72.90625 
L 34.1875 11.53125 
L 57.328125 72.90625 
L 67.578125 72.90625 
L 39.796875 0 
z
" id="DejaVuSans-56"/>
     </defs>
     <g transform="translate(307.160937 65.836562)scale(0.1 -0.1)">
      <use xlink:href="#DejaVuSans-56"/>
      <use x="68.298828" xlink:href="#DejaVuSans-61"/>
      <use x="129.578125" xlink:href="#DejaVuSans-6c"/>
      <use x="157.361328" xlink:href="#DejaVuSans-69"/>
      <use x="185.144531" xlink:href="#DejaVuSans-64"/>
      <use x="248.621094" xlink:href="#DejaVuSans-61"/>
      <use x="309.900391" xlink:href="#DejaVuSans-74"/>
      <use x="349.109375" xlink:href="#DejaVuSans-69"/>
      <use x="376.892578" xlink:href="#DejaVuSans-6f"/>
      <use x="438.074219" xlink:href="#DejaVuSans-6e"/>
      <use x="501.453125" xlink:href="#DejaVuSans-20"/>
      <use x="533.240234" xlink:href="#DejaVuSans-6c"/>
      <use x="561.023438" xlink:href="#DejaVuSans-6f"/>
      <use x="622.205078" xlink:href="#DejaVuSans-73"/>
      <use x="674.304688" xlink:href="#DejaVuSans-73"/>
     </g>
    </g>
   </g>
  </g>
 </g>
 <defs>
  <clipPath id="p8518c9ca72">
   <rect height="217.44" width="334.8" x="54" y="34.56"/>
  </clipPath>
 </defs>
</svg>
