<?xml version="1.0" encoding="utf-8" standalone="no"?>
<!DOCTYPE svg PUBLIC "-//W3C//DTD SVG 1.1//EN"
  "http://www.w3.org/Graphics/SVG/1.1/DTD/svg11.dtd">
<!-- Created with matplotlib (http://matplotlib.org/) -->
<svg height="288pt" version="1.1" viewBox="0 0 432 288" width="432pt" xmlns="http://www.w3.org/2000/svg" xmlns:xlink="http://www.w3.org/1999/xlink">
 <defs>
  <style type="text/css">
*{stroke-linecap:butt;stroke-linejoin:round;}
  </style>
 </defs>
 <g id="figure_1">
  <g id="patch_1">
   <path d="M 0 288 
L 432 288 
L 432 0 
L 0 0 
z
" style="fill:#ffffff;"/>
  </g>
  <g id="axes_1">
   <g id="patch_2">
    <path d="M 54 252 
L 388.8 252 
L 388.8 34.56 
L 54 34.56 
z
" style="fill:#ffffff;"/>
   </g>
   <g id="matplotlib.axis_1">
    <g id="xtick_1">
     <g id="line2d_1">
      <defs>
       <path d="M 0 0 
L 0 3.5 
" id="m40fa685524" style="stroke:#000000;stroke-width:0.8;"/>
      </defs>
      <g>
       <use style="stroke:#000000;stroke-width:0.8;" x="67.688716" xlink:href="#m40fa685524" y="252"/>
      </g>
     </g>
     <g id="text_1">
      <!-- 0 -->
      <defs>
       <path d="M 31.78125 66.40625 
Q 24.171875 66.40625 20.328125 58.90625 
Q 16.5 51.421875 16.5 36.375 
Q 16.5 21.390625 20.328125 13.890625 
Q 24.171875 6.390625 31.78125 6.390625 
Q 39.453125 6.390625 43.28125 13.890625 
Q 47.125 21.390625 47.125 36.375 
Q 47.125 51.421875 43.28125 58.90625 
Q 39.453125 66.40625 31.78125 66.40625 
z
M 31.78125 74.21875 
Q 44.046875 74.21875 50.515625 64.515625 
Q 56.984375 54.828125 56.984375 36.375 
Q 56.984375 17.96875 50.515625 8.265625 
Q 44.046875 -1.421875 31.78125 -1.421875 
Q 19.53125 -1.421875 13.0625 8.265625 
Q 6.59375 17.96875 6.59375 36.375 
Q 6.59375 54.828125 13.0625 64.515625 
Q 19.53125 74.21875 31.78125 74.21875 
z
" id="DejaVuSans-30"/>
      </defs>
      <g transform="translate(64.507466 266.598437)scale(0.1 -0.1)">
       <use xlink:href="#DejaVuSans-30"/>
      </g>
     </g>
    </g>
    <g id="xtick_2">
     <g id="line2d_2">
      <g>
       <use style="stroke:#000000;stroke-width:0.8;" x="105.925354" xlink:href="#m40fa685524" y="252"/>
      </g>
     </g>
     <g id="text_2">
      <!-- 25 -->
      <defs>
       <path d="M 19.1875 8.296875 
L 53.609375 8.296875 
L 53.609375 0 
L 7.328125 0 
L 7.328125 8.296875 
Q 12.9375 14.109375 22.625 23.890625 
Q 32.328125 33.6875 34.8125 36.53125 
Q 39.546875 41.84375 41.421875 45.53125 
Q 43.3125 49.21875 43.3125 52.78125 
Q 43.3125 58.59375 39.234375 62.25 
Q 35.15625 65.921875 28.609375 65.921875 
Q 23.96875 65.921875 18.8125 64.3125 
Q 13.671875 62.703125 7.8125 59.421875 
L 7.8125 69.390625 
Q 13.765625 71.78125 18.9375 73 
Q 24.125 74.21875 28.421875 74.21875 
Q 39.75 74.21875 46.484375 68.546875 
Q 53.21875 62.890625 53.21875 53.421875 
Q 53.21875 48.921875 51.53125 44.890625 
Q 49.859375 40.875 45.40625 35.40625 
Q 44.1875 33.984375 37.640625 27.21875 
Q 31.109375 20.453125 19.1875 8.296875 
z
" id="DejaVuSans-32"/>
       <path d="M 10.796875 72.90625 
L 49.515625 72.90625 
L 49.515625 64.59375 
L 19.828125 64.59375 
L 19.828125 46.734375 
Q 21.96875 47.46875 24.109375 47.828125 
Q 26.265625 48.1875 28.421875 48.1875 
Q 40.625 48.1875 47.75 41.5 
Q 54.890625 34.8125 54.890625 23.390625 
Q 54.890625 11.625 47.5625 5.09375 
Q 40.234375 -1.421875 26.90625 -1.421875 
Q 22.3125 -1.421875 17.546875 -0.640625 
Q 12.796875 0.140625 7.71875 1.703125 
L 7.71875 11.625 
Q 12.109375 9.234375 16.796875 8.0625 
Q 21.484375 6.890625 26.703125 6.890625 
Q 35.15625 6.890625 40.078125 11.328125 
Q 45.015625 15.765625 45.015625 23.390625 
Q 45.015625 31 40.078125 35.4375 
Q 35.15625 39.890625 26.703125 39.890625 
Q 22.75 39.890625 18.8125 39.015625 
Q 14.890625 38.140625 10.796875 36.28125 
z
" id="DejaVuSans-35"/>
      </defs>
      <g transform="translate(99.562854 266.598437)scale(0.1 -0.1)">
       <use xlink:href="#DejaVuSans-32"/>
       <use x="63.623047" xlink:href="#DejaVuSans-35"/>
      </g>
     </g>
    </g>
    <g id="xtick_3">
     <g id="line2d_3">
      <g>
       <use style="stroke:#000000;stroke-width:0.8;" x="144.161992" xlink:href="#m40fa685524" y="252"/>
      </g>
     </g>
     <g id="text_3">
      <!-- 50 -->
      <g transform="translate(137.799492 266.598437)scale(0.1 -0.1)">
       <use xlink:href="#DejaVuSans-35"/>
       <use x="63.623047" xlink:href="#DejaVuSans-30"/>
      </g>
     </g>
    </g>
    <g id="xtick_4">
     <g id="line2d_4">
      <g>
       <use style="stroke:#000000;stroke-width:0.8;" x="182.39863" xlink:href="#m40fa685524" y="252"/>
      </g>
     </g>
     <g id="text_4">
      <!-- 75 -->
      <defs>
       <path d="M 8.203125 72.90625 
L 55.078125 72.90625 
L 55.078125 68.703125 
L 28.609375 0 
L 18.3125 0 
L 43.21875 64.59375 
L 8.203125 64.59375 
z
" id="DejaVuSans-37"/>
      </defs>
      <g transform="translate(176.03613 266.598437)scale(0.1 -0.1)">
       <use xlink:href="#DejaVuSans-37"/>
       <use x="63.623047" xlink:href="#DejaVuSans-35"/>
      </g>
     </g>
    </g>
    <g id="xtick_5">
     <g id="line2d_5">
      <g>
       <use style="stroke:#000000;stroke-width:0.8;" x="220.635267" xlink:href="#m40fa685524" y="252"/>
      </g>
     </g>
     <g id="text_5">
      <!-- 100 -->
      <defs>
       <path d="M 12.40625 8.296875 
L 28.515625 8.296875 
L 28.515625 63.921875 
L 10.984375 60.40625 
L 10.984375 69.390625 
L 28.421875 72.90625 
L 38.28125 72.90625 
L 38.28125 8.296875 
L 54.390625 8.296875 
L 54.390625 0 
L 12.40625 0 
z
" id="DejaVuSans-31"/>
      </defs>
      <g transform="translate(211.091517 266.598437)scale(0.1 -0.1)">
       <use xlink:href="#DejaVuSans-31"/>
       <use x="63.623047" xlink:href="#DejaVuSans-30"/>
       <use x="127.246094" xlink:href="#DejaVuSans-30"/>
      </g>
     </g>
    </g>
    <g id="xtick_6">
     <g id="line2d_6">
      <g>
       <use style="stroke:#000000;stroke-width:0.8;" x="258.871905" xlink:href="#m40fa685524" y="252"/>
      </g>
     </g>
     <g id="text_6">
      <!-- 125 -->
      <g transform="translate(249.328155 266.598437)scale(0.1 -0.1)">
       <use xlink:href="#DejaVuSans-31"/>
       <use x="63.623047" xlink:href="#DejaVuSans-32"/>
       <use x="127.246094" xlink:href="#DejaVuSans-35"/>
      </g>
     </g>
    </g>
    <g id="xtick_7">
     <g id="line2d_7">
      <g>
       <use style="stroke:#000000;stroke-width:0.8;" x="297.108543" xlink:href="#m40fa685524" y="252"/>
      </g>
     </g>
     <g id="text_7">
      <!-- 150 -->
      <g transform="translate(287.564793 266.598437)scale(0.1 -0.1)">
       <use xlink:href="#DejaVuSans-31"/>
       <use x="63.623047" xlink:href="#DejaVuSans-35"/>
       <use x="127.246094" xlink:href="#DejaVuSans-30"/>
      </g>
     </g>
    </g>
    <g id="xtick_8">
     <g id="line2d_8">
      <g>
       <use style="stroke:#000000;stroke-width:0.8;" x="335.34518" xlink:href="#m40fa685524" y="252"/>
      </g>
     </g>
     <g id="text_8">
      <!-- 175 -->
      <g transform="translate(325.80143 266.598437)scale(0.1 -0.1)">
       <use xlink:href="#DejaVuSans-31"/>
       <use x="63.623047" xlink:href="#DejaVuSans-37"/>
       <use x="127.246094" xlink:href="#DejaVuSans-35"/>
      </g>
     </g>
    </g>
    <g id="xtick_9">
     <g id="line2d_9">
      <g>
       <use style="stroke:#000000;stroke-width:0.8;" x="373.581818" xlink:href="#m40fa685524" y="252"/>
      </g>
     </g>
     <g id="text_9">
      <!-- 200 -->
      <g transform="translate(364.038068 266.598437)scale(0.1 -0.1)">
       <use xlink:href="#DejaVuSans-32"/>
       <use x="63.623047" xlink:href="#DejaVuSans-30"/>
       <use x="127.246094" xlink:href="#DejaVuSans-30"/>
      </g>
     </g>
    </g>
    <g id="text_10">
     <!-- Epochs -->
     <defs>
      <path d="M 9.8125 72.90625 
L 55.90625 72.90625 
L 55.90625 64.59375 
L 19.671875 64.59375 
L 19.671875 43.015625 
L 54.390625 43.015625 
L 54.390625 34.71875 
L 19.671875 34.71875 
L 19.671875 8.296875 
L 56.78125 8.296875 
L 56.78125 0 
L 9.8125 0 
z
" id="DejaVuSans-45"/>
      <path d="M 18.109375 8.203125 
L 18.109375 -20.796875 
L 9.078125 -20.796875 
L 9.078125 54.6875 
L 18.109375 54.6875 
L 18.109375 46.390625 
Q 20.953125 51.265625 25.265625 53.625 
Q 29.59375 56 35.59375 56 
Q 45.5625 56 51.78125 48.09375 
Q 58.015625 40.1875 58.015625 27.296875 
Q 58.015625 14.40625 51.78125 6.484375 
Q 45.5625 -1.421875 35.59375 -1.421875 
Q 29.59375 -1.421875 25.265625 0.953125 
Q 20.953125 3.328125 18.109375 8.203125 
z
M 48.6875 27.296875 
Q 48.6875 37.203125 44.609375 42.84375 
Q 40.53125 48.484375 33.40625 48.484375 
Q 26.265625 48.484375 22.1875 42.84375 
Q 18.109375 37.203125 18.109375 27.296875 
Q 18.109375 17.390625 22.1875 11.75 
Q 26.265625 6.109375 33.40625 6.109375 
Q 40.53125 6.109375 44.609375 11.75 
Q 48.6875 17.390625 48.6875 27.296875 
z
" id="DejaVuSans-70"/>
      <path d="M 30.609375 48.390625 
Q 23.390625 48.390625 19.1875 42.75 
Q 14.984375 37.109375 14.984375 27.296875 
Q 14.984375 17.484375 19.15625 11.84375 
Q 23.34375 6.203125 30.609375 6.203125 
Q 37.796875 6.203125 41.984375 11.859375 
Q 46.1875 17.53125 46.1875 27.296875 
Q 46.1875 37.015625 41.984375 42.703125 
Q 37.796875 48.390625 30.609375 48.390625 
z
M 30.609375 56 
Q 42.328125 56 49.015625 48.375 
Q 55.71875 40.765625 55.71875 27.296875 
Q 55.71875 13.875 49.015625 6.21875 
Q 42.328125 -1.421875 30.609375 -1.421875 
Q 18.84375 -1.421875 12.171875 6.21875 
Q 5.515625 13.875 5.515625 27.296875 
Q 5.515625 40.765625 12.171875 48.375 
Q 18.84375 56 30.609375 56 
z
" id="DejaVuSans-6f"/>
      <path d="M 48.78125 52.59375 
L 48.78125 44.1875 
Q 44.96875 46.296875 41.140625 47.34375 
Q 37.3125 48.390625 33.40625 48.390625 
Q 24.65625 48.390625 19.8125 42.84375 
Q 14.984375 37.3125 14.984375 27.296875 
Q 14.984375 17.28125 19.8125 11.734375 
Q 24.65625 6.203125 33.40625 6.203125 
Q 37.3125 6.203125 41.140625 7.25 
Q 44.96875 8.296875 48.78125 10.40625 
L 48.78125 2.09375 
Q 45.015625 0.34375 40.984375 -0.53125 
Q 36.96875 -1.421875 32.421875 -1.421875 
Q 20.0625 -1.421875 12.78125 6.34375 
Q 5.515625 14.109375 5.515625 27.296875 
Q 5.515625 40.671875 12.859375 48.328125 
Q 20.21875 56 33.015625 56 
Q 37.15625 56 41.109375 55.140625 
Q 45.0625 54.296875 48.78125 52.59375 
z
" id="DejaVuSans-63"/>
      <path d="M 54.890625 33.015625 
L 54.890625 0 
L 45.90625 0 
L 45.90625 32.71875 
Q 45.90625 40.484375 42.875 44.328125 
Q 39.84375 48.1875 33.796875 48.1875 
Q 26.515625 48.1875 22.3125 43.546875 
Q 18.109375 38.921875 18.109375 30.90625 
L 18.109375 0 
L 9.078125 0 
L 9.078125 75.984375 
L 18.109375 75.984375 
L 18.109375 46.1875 
Q 21.34375 51.125 25.703125 53.5625 
Q 30.078125 56 35.796875 56 
Q 45.21875 56 50.046875 50.171875 
Q 54.890625 44.34375 54.890625 33.015625 
z
" id="DejaVuSans-68"/>
      <path d="M 44.28125 53.078125 
L 44.28125 44.578125 
Q 40.484375 46.53125 36.375 47.5 
Q 32.28125 48.484375 27.875 48.484375 
Q 21.1875 48.484375 17.84375 46.4375 
Q 14.5 44.390625 14.5 40.28125 
Q 14.5 37.15625 16.890625 35.375 
Q 19.28125 33.59375 26.515625 31.984375 
L 29.59375 31.296875 
Q 39.15625 29.25 43.1875 25.515625 
Q 47.21875 21.78125 47.21875 15.09375 
Q 47.21875 7.46875 41.1875 3.015625 
Q 35.15625 -1.421875 24.609375 -1.421875 
Q 20.21875 -1.421875 15.453125 -0.5625 
Q 10.6875 0.296875 5.421875 2 
L 5.421875 11.28125 
Q 10.40625 8.6875 15.234375 7.390625 
Q 20.0625 6.109375 24.8125 6.109375 
Q 31.15625 6.109375 34.5625 8.28125 
Q 37.984375 10.453125 37.984375 14.40625 
Q 37.984375 18.0625 35.515625 20.015625 
Q 33.0625 21.96875 24.703125 23.78125 
L 21.578125 24.515625 
Q 13.234375 26.265625 9.515625 29.90625 
Q 5.8125 33.546875 5.8125 39.890625 
Q 5.8125 47.609375 11.28125 51.796875 
Q 16.75 56 26.8125 56 
Q 31.78125 56 36.171875 55.265625 
Q 40.578125 54.546875 44.28125 53.078125 
z
" id="DejaVuSans-73"/>
     </defs>
     <g transform="translate(203.484375 280.276563)scale(0.1 -0.1)">
      <use xlink:href="#DejaVuSans-45"/>
      <use x="63.183594" xlink:href="#DejaVuSans-70"/>
      <use x="126.660156" xlink:href="#DejaVuSans-6f"/>
      <use x="187.841797" xlink:href="#DejaVuSans-63"/>
      <use x="242.822266" xlink:href="#DejaVuSans-68"/>
      <use x="306.201172" xlink:href="#DejaVuSans-73"/>
     </g>
    </g>
   </g>
   <g id="matplotlib.axis_2">
    <g id="ytick_1">
     <g id="line2d_10">
      <defs>
       <path d="M 0 0 
L -3.5 0 
" id="m43a4b7f660" style="stroke:#000000;stroke-width:0.8;"/>
      </defs>
      <g>
       <use style="stroke:#000000;stroke-width:0.8;" x="54" xlink:href="#m43a4b7f660" y="235.687279"/>
      </g>
     </g>
     <g id="text_11">
      <!-- 0.1 -->
      <defs>
       <path d="M 10.6875 12.40625 
L 21 12.40625 
L 21 0 
L 10.6875 0 
z
" id="DejaVuSans-2e"/>
      </defs>
      <g transform="translate(31.096875 239.486497)scale(0.1 -0.1)">
       <use xlink:href="#DejaVuSans-30"/>
       <use x="63.623047" xlink:href="#DejaVuSans-2e"/>
       <use x="95.410156" xlink:href="#DejaVuSans-31"/>
      </g>
     </g>
    </g>
    <g id="ytick_2">
     <g id="line2d_11">
      <g>
       <use style="stroke:#000000;stroke-width:0.8;" x="54" xlink:href="#m43a4b7f660" y="200.434256"/>
      </g>
     </g>
     <g id="text_12">
      <!-- 0.2 -->
      <g transform="translate(31.096875 204.233475)scale(0.1 -0.1)">
       <use xlink:href="#DejaVuSans-30"/>
       <use x="63.623047" xlink:href="#DejaVuSans-2e"/>
       <use x="95.410156" xlink:href="#DejaVuSans-32"/>
      </g>
     </g>
    </g>
    <g id="ytick_3">
     <g id="line2d_12">
      <g>
       <use style="stroke:#000000;stroke-width:0.8;" x="54" xlink:href="#m43a4b7f660" y="165.181233"/>
      </g>
     </g>
     <g id="text_13">
      <!-- 0.3 -->
      <defs>
       <path d="M 40.578125 39.3125 
Q 47.65625 37.796875 51.625 33 
Q 55.609375 28.21875 55.609375 21.1875 
Q 55.609375 10.40625 48.1875 4.484375 
Q 40.765625 -1.421875 27.09375 -1.421875 
Q 22.515625 -1.421875 17.65625 -0.515625 
Q 12.796875 0.390625 7.625 2.203125 
L 7.625 11.71875 
Q 11.71875 9.328125 16.59375 8.109375 
Q 21.484375 6.890625 26.8125 6.890625 
Q 36.078125 6.890625 40.9375 10.546875 
Q 45.796875 14.203125 45.796875 21.1875 
Q 45.796875 27.640625 41.28125 31.265625 
Q 36.765625 34.90625 28.71875 34.90625 
L 20.21875 34.90625 
L 20.21875 43.015625 
L 29.109375 43.015625 
Q 36.375 43.015625 40.234375 45.921875 
Q 44.09375 48.828125 44.09375 54.296875 
Q 44.09375 59.90625 40.109375 62.90625 
Q 36.140625 65.921875 28.71875 65.921875 
Q 24.65625 65.921875 20.015625 65.03125 
Q 15.375 64.15625 9.8125 62.3125 
L 9.8125 71.09375 
Q 15.4375 72.65625 20.34375 73.4375 
Q 25.25 74.21875 29.59375 74.21875 
Q 40.828125 74.21875 47.359375 69.109375 
Q 53.90625 64.015625 53.90625 55.328125 
Q 53.90625 49.265625 50.4375 45.09375 
Q 46.96875 40.921875 40.578125 39.3125 
z
" id="DejaVuSans-33"/>
      </defs>
      <g transform="translate(31.096875 168.980452)scale(0.1 -0.1)">
       <use xlink:href="#DejaVuSans-30"/>
       <use x="63.623047" xlink:href="#DejaVuSans-2e"/>
       <use x="95.410156" xlink:href="#DejaVuSans-33"/>
      </g>
     </g>
    </g>
    <g id="ytick_4">
     <g id="line2d_13">
      <g>
       <use style="stroke:#000000;stroke-width:0.8;" x="54" xlink:href="#m43a4b7f660" y="129.928211"/>
      </g>
     </g>
     <g id="text_14">
      <!-- 0.4 -->
      <defs>
       <path d="M 37.796875 64.3125 
L 12.890625 25.390625 
L 37.796875 25.390625 
z
M 35.203125 72.90625 
L 47.609375 72.90625 
L 47.609375 25.390625 
L 58.015625 25.390625 
L 58.015625 17.1875 
L 47.609375 17.1875 
L 47.609375 0 
L 37.796875 0 
L 37.796875 17.1875 
L 4.890625 17.1875 
L 4.890625 26.703125 
z
" id="DejaVuSans-34"/>
      </defs>
      <g transform="translate(31.096875 133.727429)scale(0.1 -0.1)">
       <use xlink:href="#DejaVuSans-30"/>
       <use x="63.623047" xlink:href="#DejaVuSans-2e"/>
       <use x="95.410156" xlink:href="#DejaVuSans-34"/>
      </g>
     </g>
    </g>
    <g id="ytick_5">
     <g id="line2d_14">
      <g>
       <use style="stroke:#000000;stroke-width:0.8;" x="54" xlink:href="#m43a4b7f660" y="94.675188"/>
      </g>
     </g>
     <g id="text_15">
      <!-- 0.5 -->
      <g transform="translate(31.096875 98.474407)scale(0.1 -0.1)">
       <use xlink:href="#DejaVuSans-30"/>
       <use x="63.623047" xlink:href="#DejaVuSans-2e"/>
       <use x="95.410156" xlink:href="#DejaVuSans-35"/>
      </g>
     </g>
    </g>
    <g id="ytick_6">
     <g id="line2d_15">
      <g>
       <use style="stroke:#000000;stroke-width:0.8;" x="54" xlink:href="#m43a4b7f660" y="59.422165"/>
      </g>
     </g>
     <g id="text_16">
      <!-- 0.6 -->
      <defs>
       <path d="M 33.015625 40.375 
Q 26.375 40.375 22.484375 35.828125 
Q 18.609375 31.296875 18.609375 23.390625 
Q 18.609375 15.53125 22.484375 10.953125 
Q 26.375 6.390625 33.015625 6.390625 
Q 39.65625 6.390625 43.53125 10.953125 
Q 47.40625 15.53125 47.40625 23.390625 
Q 47.40625 31.296875 43.53125 35.828125 
Q 39.65625 40.375 33.015625 40.375 
z
M 52.59375 71.296875 
L 52.59375 62.3125 
Q 48.875 64.0625 45.09375 64.984375 
Q 41.3125 65.921875 37.59375 65.921875 
Q 27.828125 65.921875 22.671875 59.328125 
Q 17.53125 52.734375 16.796875 39.40625 
Q 19.671875 43.65625 24.015625 45.921875 
Q 28.375 48.1875 33.59375 48.1875 
Q 44.578125 48.1875 50.953125 41.515625 
Q 57.328125 34.859375 57.328125 23.390625 
Q 57.328125 12.15625 50.6875 5.359375 
Q 44.046875 -1.421875 33.015625 -1.421875 
Q 20.359375 -1.421875 13.671875 8.265625 
Q 6.984375 17.96875 6.984375 36.375 
Q 6.984375 53.65625 15.1875 63.9375 
Q 23.390625 74.21875 37.203125 74.21875 
Q 40.921875 74.21875 44.703125 73.484375 
Q 48.484375 72.75 52.59375 71.296875 
z
" id="DejaVuSans-36"/>
      </defs>
      <g transform="translate(31.096875 63.221384)scale(0.1 -0.1)">
       <use xlink:href="#DejaVuSans-30"/>
       <use x="63.623047" xlink:href="#DejaVuSans-2e"/>
       <use x="95.410156" xlink:href="#DejaVuSans-36"/>
      </g>
     </g>
    </g>
    <g id="text_17">
     <!-- Loss -->
     <defs>
      <path d="M 9.8125 72.90625 
L 19.671875 72.90625 
L 19.671875 8.296875 
L 55.171875 8.296875 
L 55.171875 0 
L 9.8125 0 
z
" id="DejaVuSans-4c"/>
     </defs>
     <g transform="translate(25.017187 154.333906)rotate(-90)scale(0.1 -0.1)">
      <use xlink:href="#DejaVuSans-4c"/>
      <use x="55.697266" xlink:href="#DejaVuSans-6f"/>
      <use x="116.878906" xlink:href="#DejaVuSans-73"/>
      <use x="168.978516" xlink:href="#DejaVuSans-73"/>
     </g>
    </g>
   </g>
   <g id="line2d_16">
    <path clip-path="url(#pe4d437c80c)" d="M 69.218182 44.443636 
L 70.747647 51.036135 
L 72.277113 60.285949 
L 73.806578 78.203444 
L 75.336044 99.387935 
L 76.865509 117.660359 
L 78.394975 131.435904 
L 79.92444 142.314592 
L 81.453906 150.561873 
L 82.983371 157.532209 
L 84.512837 163.341715 
L 86.042302 168.253712 
L 87.571768 172.127924 
L 89.101233 175.571147 
L 90.630699 178.681528 
L 92.160164 181.276275 
L 95.219095 185.696814 
L 96.748561 187.670474 
L 98.278026 189.145028 
L 99.807492 190.801706 
L 104.395889 194.815774 
L 105.925354 196.175863 
L 110.513751 199.262948 
L 113.572682 201.086485 
L 115.102147 201.739088 
L 116.631613 202.677282 
L 118.161078 203.232219 
L 119.690544 204.231143 
L 121.220009 204.817586 
L 124.27894 206.222686 
L 125.808406 206.900349 
L 127.337871 207.280663 
L 134.985199 210.324397 
L 136.514664 210.470784 
L 138.04413 211.193893 
L 144.161992 212.985012 
L 147.220923 213.632125 
L 148.750388 214.456116 
L 150.279854 214.909234 
L 151.809319 215.00583 
L 154.86825 215.625534 
L 156.397716 216.307957 
L 159.456647 216.899519 
L 165.574509 218.389657 
L 167.103974 218.58041 
L 168.63344 218.639507 
L 170.162905 219.122832 
L 171.692371 219.357524 
L 173.221836 219.705112 
L 174.751302 220.210989 
L 179.339698 220.970868 
L 180.869164 221.438246 
L 182.39863 221.586442 
L 183.928095 221.549588 
L 185.457561 222.24181 
L 186.987026 222.257094 
L 190.045957 222.727548 
L 193.104888 223.640577 
L 194.634354 223.487558 
L 196.163819 224.251559 
L 197.693285 224.568517 
L 199.22275 224.260856 
L 200.752216 224.524756 
L 202.281681 225.038689 
L 205.340612 225.422936 
L 206.870078 225.699501 
L 208.399543 225.730654 
L 211.458474 226.310808 
L 212.98794 226.59053 
L 214.517405 226.646185 
L 216.046871 227.201476 
L 217.576336 227.086829 
L 219.105802 227.109024 
L 220.635267 227.50869 
L 222.164733 227.770522 
L 223.694198 227.522382 
L 225.223664 228.180816 
L 228.282595 228.698992 
L 229.81206 228.839943 
L 231.341526 228.787757 
L 234.400457 229.261964 
L 237.459388 229.780988 
L 238.988853 229.777912 
L 240.518319 230.178238 
L 243.57725 230.481273 
L 245.106715 230.408622 
L 246.636181 230.64869 
L 248.165646 231.029197 
L 249.695112 230.65441 
L 251.224577 231.314295 
L 254.283508 231.592962 
L 255.812974 231.861796 
L 258.871905 232.038974 
L 260.40137 232.43683 
L 275.696026 233.758827 
L 277.225491 233.902015 
L 278.754957 234.266723 
L 280.284422 234.487837 
L 281.813888 234.322632 
L 283.343353 234.642388 
L 284.872819 234.673697 
L 287.93175 235.098987 
L 292.520146 235.480675 
L 294.049612 235.844961 
L 295.579077 235.644905 
L 297.108543 236.051967 
L 298.638008 236.229873 
L 300.167474 236.06668 
L 301.696939 236.403075 
L 303.226405 236.505992 
L 304.75587 236.478154 
L 306.285336 236.965609 
L 307.814801 236.70622 
L 309.344267 237.135503 
L 310.873732 236.941522 
L 312.403198 237.340104 
L 313.932663 237.387261 
L 315.462129 237.25825 
L 316.991594 237.918336 
L 318.52106 237.780739 
L 320.050525 237.991204 
L 321.579991 238.008712 
L 323.109456 238.387666 
L 326.168387 238.455353 
L 327.697853 238.78221 
L 329.227318 238.633546 
L 332.286249 239.100656 
L 333.815715 239.062251 
L 336.874646 239.482528 
L 338.404111 239.421234 
L 341.463042 239.769308 
L 342.992508 239.623741 
L 346.051439 240.056083 
L 347.580905 240.014312 
L 349.11037 240.247986 
L 350.639836 240.263275 
L 352.169301 240.55092 
L 353.698767 240.413374 
L 355.228232 240.798031 
L 359.816629 240.915546 
L 361.346094 240.804961 
L 362.87556 241.215946 
L 365.934491 241.552948 
L 367.463956 241.531124 
L 373.581818 242.116364 
L 373.581818 242.116364 
" style="fill:none;stroke:#0000ff;stroke-linecap:square;stroke-width:1.5;"/>
    <defs>
     <path d="M 0 3 
C 0.795609 3 1.55874 2.683901 2.12132 2.12132 
C 2.683901 1.55874 3 0.795609 3 0 
C 3 -0.795609 2.683901 -1.55874 2.12132 -2.12132 
C 1.55874 -2.683901 0.795609 -3 0 -3 
C -0.795609 -3 -1.55874 -2.683901 -2.12132 -2.12132 
C -2.683901 -1.55874 -3 -0.795609 -3 0 
C -3 0.795609 -2.683901 1.55874 -2.12132 2.12132 
C -1.55874 2.683901 -0.795609 3 0 3 
z
" id="mbeefc4af63" style="stroke:#0000ff;"/>
    </defs>
    <g clip-path="url(#pe4d437c80c)">
     <use style="fill:#ffffff;stroke:#0000ff;" x="69.218182" xlink:href="#mbeefc4af63" y="44.443636"/>
     <use style="fill:#ffffff;stroke:#0000ff;" x="70.747647" xlink:href="#mbeefc4af63" y="51.036135"/>
     <use style="fill:#ffffff;stroke:#0000ff;" x="72.277113" xlink:href="#mbeefc4af63" y="60.285949"/>
     <use style="fill:#ffffff;stroke:#0000ff;" x="73.806578" xlink:href="#mbeefc4af63" y="78.203444"/>
     <use style="fill:#ffffff;stroke:#0000ff;" x="75.336044" xlink:href="#mbeefc4af63" y="99.387935"/>
     <use style="fill:#ffffff;stroke:#0000ff;" x="76.865509" xlink:href="#mbeefc4af63" y="117.660359"/>
     <use style="fill:#ffffff;stroke:#0000ff;" x="78.394975" xlink:href="#mbeefc4af63" y="131.435904"/>
     <use style="fill:#ffffff;stroke:#0000ff;" x="79.92444" xlink:href="#mbeefc4af63" y="142.314592"/>
     <use style="fill:#ffffff;stroke:#0000ff;" x="81.453906" xlink:href="#mbeefc4af63" y="150.561873"/>
     <use style="fill:#ffffff;stroke:#0000ff;" x="82.983371" xlink:href="#mbeefc4af63" y="157.532209"/>
     <use style="fill:#ffffff;stroke:#0000ff;" x="84.512837" xlink:href="#mbeefc4af63" y="163.341715"/>
     <use style="fill:#ffffff;stroke:#0000ff;" x="86.042302" xlink:href="#mbeefc4af63" y="168.253712"/>
     <use style="fill:#ffffff;stroke:#0000ff;" x="87.571768" xlink:href="#mbeefc4af63" y="172.127924"/>
     <use style="fill:#ffffff;stroke:#0000ff;" x="89.101233" xlink:href="#mbeefc4af63" y="175.571147"/>
     <use style="fill:#ffffff;stroke:#0000ff;" x="90.630699" xlink:href="#mbeefc4af63" y="178.681528"/>
     <use style="fill:#ffffff;stroke:#0000ff;" x="92.160164" xlink:href="#mbeefc4af63" y="181.276275"/>
     <use style="fill:#ffffff;stroke:#0000ff;" x="93.68963" xlink:href="#mbeefc4af63" y="183.579763"/>
     <use style="fill:#ffffff;stroke:#0000ff;" x="95.219095" xlink:href="#mbeefc4af63" y="185.696814"/>
     <use style="fill:#ffffff;stroke:#0000ff;" x="96.748561" xlink:href="#mbeefc4af63" y="187.670474"/>
     <use style="fill:#ffffff;stroke:#0000ff;" x="98.278026" xlink:href="#mbeefc4af63" y="189.145028"/>
     <use style="fill:#ffffff;stroke:#0000ff;" x="99.807492" xlink:href="#mbeefc4af63" y="190.801706"/>
     <use style="fill:#ffffff;stroke:#0000ff;" x="101.336958" xlink:href="#mbeefc4af63" y="192.097433"/>
     <use style="fill:#ffffff;stroke:#0000ff;" x="102.866423" xlink:href="#mbeefc4af63" y="193.534444"/>
     <use style="fill:#ffffff;stroke:#0000ff;" x="104.395889" xlink:href="#mbeefc4af63" y="194.815774"/>
     <use style="fill:#ffffff;stroke:#0000ff;" x="105.925354" xlink:href="#mbeefc4af63" y="196.175863"/>
     <use style="fill:#ffffff;stroke:#0000ff;" x="107.45482" xlink:href="#mbeefc4af63" y="197.22262"/>
     <use style="fill:#ffffff;stroke:#0000ff;" x="108.984285" xlink:href="#mbeefc4af63" y="198.32265"/>
     <use style="fill:#ffffff;stroke:#0000ff;" x="110.513751" xlink:href="#mbeefc4af63" y="199.262948"/>
     <use style="fill:#ffffff;stroke:#0000ff;" x="112.043216" xlink:href="#mbeefc4af63" y="200.165255"/>
     <use style="fill:#ffffff;stroke:#0000ff;" x="113.572682" xlink:href="#mbeefc4af63" y="201.086485"/>
     <use style="fill:#ffffff;stroke:#0000ff;" x="115.102147" xlink:href="#mbeefc4af63" y="201.739088"/>
     <use style="fill:#ffffff;stroke:#0000ff;" x="116.631613" xlink:href="#mbeefc4af63" y="202.677282"/>
     <use style="fill:#ffffff;stroke:#0000ff;" x="118.161078" xlink:href="#mbeefc4af63" y="203.232219"/>
     <use style="fill:#ffffff;stroke:#0000ff;" x="119.690544" xlink:href="#mbeefc4af63" y="204.231143"/>
     <use style="fill:#ffffff;stroke:#0000ff;" x="121.220009" xlink:href="#mbeefc4af63" y="204.817586"/>
     <use style="fill:#ffffff;stroke:#0000ff;" x="122.749475" xlink:href="#mbeefc4af63" y="205.553402"/>
     <use style="fill:#ffffff;stroke:#0000ff;" x="124.27894" xlink:href="#mbeefc4af63" y="206.222686"/>
     <use style="fill:#ffffff;stroke:#0000ff;" x="125.808406" xlink:href="#mbeefc4af63" y="206.900349"/>
     <use style="fill:#ffffff;stroke:#0000ff;" x="127.337871" xlink:href="#mbeefc4af63" y="207.280663"/>
     <use style="fill:#ffffff;stroke:#0000ff;" x="128.867337" xlink:href="#mbeefc4af63" y="207.877919"/>
     <use style="fill:#ffffff;stroke:#0000ff;" x="130.396802" xlink:href="#mbeefc4af63" y="208.464094"/>
     <use style="fill:#ffffff;stroke:#0000ff;" x="131.926268" xlink:href="#mbeefc4af63" y="208.986159"/>
     <use style="fill:#ffffff;stroke:#0000ff;" x="133.455733" xlink:href="#mbeefc4af63" y="209.557575"/>
     <use style="fill:#ffffff;stroke:#0000ff;" x="134.985199" xlink:href="#mbeefc4af63" y="210.324397"/>
     <use style="fill:#ffffff;stroke:#0000ff;" x="136.514664" xlink:href="#mbeefc4af63" y="210.470784"/>
     <use style="fill:#ffffff;stroke:#0000ff;" x="138.04413" xlink:href="#mbeefc4af63" y="211.193893"/>
     <use style="fill:#ffffff;stroke:#0000ff;" x="139.573595" xlink:href="#mbeefc4af63" y="211.650878"/>
     <use style="fill:#ffffff;stroke:#0000ff;" x="141.103061" xlink:href="#mbeefc4af63" y="211.994564"/>
     <use style="fill:#ffffff;stroke:#0000ff;" x="142.632526" xlink:href="#mbeefc4af63" y="212.494899"/>
     <use style="fill:#ffffff;stroke:#0000ff;" x="144.161992" xlink:href="#mbeefc4af63" y="212.985012"/>
     <use style="fill:#ffffff;stroke:#0000ff;" x="145.691457" xlink:href="#mbeefc4af63" y="213.320515"/>
     <use style="fill:#ffffff;stroke:#0000ff;" x="147.220923" xlink:href="#mbeefc4af63" y="213.632125"/>
     <use style="fill:#ffffff;stroke:#0000ff;" x="148.750388" xlink:href="#mbeefc4af63" y="214.456116"/>
     <use style="fill:#ffffff;stroke:#0000ff;" x="150.279854" xlink:href="#mbeefc4af63" y="214.909234"/>
     <use style="fill:#ffffff;stroke:#0000ff;" x="151.809319" xlink:href="#mbeefc4af63" y="215.00583"/>
     <use style="fill:#ffffff;stroke:#0000ff;" x="153.338785" xlink:href="#mbeefc4af63" y="215.315684"/>
     <use style="fill:#ffffff;stroke:#0000ff;" x="154.86825" xlink:href="#mbeefc4af63" y="215.625534"/>
     <use style="fill:#ffffff;stroke:#0000ff;" x="156.397716" xlink:href="#mbeefc4af63" y="216.307957"/>
     <use style="fill:#ffffff;stroke:#0000ff;" x="157.927181" xlink:href="#mbeefc4af63" y="216.588021"/>
     <use style="fill:#ffffff;stroke:#0000ff;" x="159.456647" xlink:href="#mbeefc4af63" y="216.899519"/>
     <use style="fill:#ffffff;stroke:#0000ff;" x="160.986112" xlink:href="#mbeefc4af63" y="217.300128"/>
     <use style="fill:#ffffff;stroke:#0000ff;" x="162.515578" xlink:href="#mbeefc4af63" y="217.697632"/>
     <use style="fill:#ffffff;stroke:#0000ff;" x="164.045043" xlink:href="#mbeefc4af63" y="218.174255"/>
     <use style="fill:#ffffff;stroke:#0000ff;" x="165.574509" xlink:href="#mbeefc4af63" y="218.389657"/>
     <use style="fill:#ffffff;stroke:#0000ff;" x="167.103974" xlink:href="#mbeefc4af63" y="218.58041"/>
     <use style="fill:#ffffff;stroke:#0000ff;" x="168.63344" xlink:href="#mbeefc4af63" y="218.639507"/>
     <use style="fill:#ffffff;stroke:#0000ff;" x="170.162905" xlink:href="#mbeefc4af63" y="219.122832"/>
     <use style="fill:#ffffff;stroke:#0000ff;" x="171.692371" xlink:href="#mbeefc4af63" y="219.357524"/>
     <use style="fill:#ffffff;stroke:#0000ff;" x="173.221836" xlink:href="#mbeefc4af63" y="219.705112"/>
     <use style="fill:#ffffff;stroke:#0000ff;" x="174.751302" xlink:href="#mbeefc4af63" y="220.210989"/>
     <use style="fill:#ffffff;stroke:#0000ff;" x="176.280767" xlink:href="#mbeefc4af63" y="220.431023"/>
     <use style="fill:#ffffff;stroke:#0000ff;" x="177.810233" xlink:href="#mbeefc4af63" y="220.752192"/>
     <use style="fill:#ffffff;stroke:#0000ff;" x="179.339698" xlink:href="#mbeefc4af63" y="220.970868"/>
     <use style="fill:#ffffff;stroke:#0000ff;" x="180.869164" xlink:href="#mbeefc4af63" y="221.438246"/>
     <use style="fill:#ffffff;stroke:#0000ff;" x="182.39863" xlink:href="#mbeefc4af63" y="221.586442"/>
     <use style="fill:#ffffff;stroke:#0000ff;" x="183.928095" xlink:href="#mbeefc4af63" y="221.549588"/>
     <use style="fill:#ffffff;stroke:#0000ff;" x="185.457561" xlink:href="#mbeefc4af63" y="222.24181"/>
     <use style="fill:#ffffff;stroke:#0000ff;" x="186.987026" xlink:href="#mbeefc4af63" y="222.257094"/>
     <use style="fill:#ffffff;stroke:#0000ff;" x="188.516492" xlink:href="#mbeefc4af63" y="222.501731"/>
     <use style="fill:#ffffff;stroke:#0000ff;" x="190.045957" xlink:href="#mbeefc4af63" y="222.727548"/>
     <use style="fill:#ffffff;stroke:#0000ff;" x="191.575423" xlink:href="#mbeefc4af63" y="223.207124"/>
     <use style="fill:#ffffff;stroke:#0000ff;" x="193.104888" xlink:href="#mbeefc4af63" y="223.640577"/>
     <use style="fill:#ffffff;stroke:#0000ff;" x="194.634354" xlink:href="#mbeefc4af63" y="223.487558"/>
     <use style="fill:#ffffff;stroke:#0000ff;" x="196.163819" xlink:href="#mbeefc4af63" y="224.251559"/>
     <use style="fill:#ffffff;stroke:#0000ff;" x="197.693285" xlink:href="#mbeefc4af63" y="224.568517"/>
     <use style="fill:#ffffff;stroke:#0000ff;" x="199.22275" xlink:href="#mbeefc4af63" y="224.260856"/>
     <use style="fill:#ffffff;stroke:#0000ff;" x="200.752216" xlink:href="#mbeefc4af63" y="224.524756"/>
     <use style="fill:#ffffff;stroke:#0000ff;" x="202.281681" xlink:href="#mbeefc4af63" y="225.038689"/>
     <use style="fill:#ffffff;stroke:#0000ff;" x="203.811147" xlink:href="#mbeefc4af63" y="225.221499"/>
     <use style="fill:#ffffff;stroke:#0000ff;" x="205.340612" xlink:href="#mbeefc4af63" y="225.422936"/>
     <use style="fill:#ffffff;stroke:#0000ff;" x="206.870078" xlink:href="#mbeefc4af63" y="225.699501"/>
     <use style="fill:#ffffff;stroke:#0000ff;" x="208.399543" xlink:href="#mbeefc4af63" y="225.730654"/>
     <use style="fill:#ffffff;stroke:#0000ff;" x="209.929009" xlink:href="#mbeefc4af63" y="226.066765"/>
     <use style="fill:#ffffff;stroke:#0000ff;" x="211.458474" xlink:href="#mbeefc4af63" y="226.310808"/>
     <use style="fill:#ffffff;stroke:#0000ff;" x="212.98794" xlink:href="#mbeefc4af63" y="226.59053"/>
     <use style="fill:#ffffff;stroke:#0000ff;" x="214.517405" xlink:href="#mbeefc4af63" y="226.646185"/>
     <use style="fill:#ffffff;stroke:#0000ff;" x="216.046871" xlink:href="#mbeefc4af63" y="227.201476"/>
     <use style="fill:#ffffff;stroke:#0000ff;" x="217.576336" xlink:href="#mbeefc4af63" y="227.086829"/>
     <use style="fill:#ffffff;stroke:#0000ff;" x="219.105802" xlink:href="#mbeefc4af63" y="227.109024"/>
     <use style="fill:#ffffff;stroke:#0000ff;" x="220.635267" xlink:href="#mbeefc4af63" y="227.50869"/>
     <use style="fill:#ffffff;stroke:#0000ff;" x="222.164733" xlink:href="#mbeefc4af63" y="227.770522"/>
     <use style="fill:#ffffff;stroke:#0000ff;" x="223.694198" xlink:href="#mbeefc4af63" y="227.522382"/>
     <use style="fill:#ffffff;stroke:#0000ff;" x="225.223664" xlink:href="#mbeefc4af63" y="228.180816"/>
     <use style="fill:#ffffff;stroke:#0000ff;" x="226.753129" xlink:href="#mbeefc4af63" y="228.467197"/>
     <use style="fill:#ffffff;stroke:#0000ff;" x="228.282595" xlink:href="#mbeefc4af63" y="228.698992"/>
     <use style="fill:#ffffff;stroke:#0000ff;" x="229.81206" xlink:href="#mbeefc4af63" y="228.839943"/>
     <use style="fill:#ffffff;stroke:#0000ff;" x="231.341526" xlink:href="#mbeefc4af63" y="228.787757"/>
     <use style="fill:#ffffff;stroke:#0000ff;" x="232.870991" xlink:href="#mbeefc4af63" y="228.994468"/>
     <use style="fill:#ffffff;stroke:#0000ff;" x="234.400457" xlink:href="#mbeefc4af63" y="229.261964"/>
     <use style="fill:#ffffff;stroke:#0000ff;" x="235.929922" xlink:href="#mbeefc4af63" y="229.572649"/>
     <use style="fill:#ffffff;stroke:#0000ff;" x="237.459388" xlink:href="#mbeefc4af63" y="229.780988"/>
     <use style="fill:#ffffff;stroke:#0000ff;" x="238.988853" xlink:href="#mbeefc4af63" y="229.777912"/>
     <use style="fill:#ffffff;stroke:#0000ff;" x="240.518319" xlink:href="#mbeefc4af63" y="230.178238"/>
     <use style="fill:#ffffff;stroke:#0000ff;" x="242.047784" xlink:href="#mbeefc4af63" y="230.382377"/>
     <use style="fill:#ffffff;stroke:#0000ff;" x="243.57725" xlink:href="#mbeefc4af63" y="230.481273"/>
     <use style="fill:#ffffff;stroke:#0000ff;" x="245.106715" xlink:href="#mbeefc4af63" y="230.408622"/>
     <use style="fill:#ffffff;stroke:#0000ff;" x="246.636181" xlink:href="#mbeefc4af63" y="230.64869"/>
     <use style="fill:#ffffff;stroke:#0000ff;" x="248.165646" xlink:href="#mbeefc4af63" y="231.029197"/>
     <use style="fill:#ffffff;stroke:#0000ff;" x="249.695112" xlink:href="#mbeefc4af63" y="230.65441"/>
     <use style="fill:#ffffff;stroke:#0000ff;" x="251.224577" xlink:href="#mbeefc4af63" y="231.314295"/>
     <use style="fill:#ffffff;stroke:#0000ff;" x="252.754043" xlink:href="#mbeefc4af63" y="231.426055"/>
     <use style="fill:#ffffff;stroke:#0000ff;" x="254.283508" xlink:href="#mbeefc4af63" y="231.592962"/>
     <use style="fill:#ffffff;stroke:#0000ff;" x="255.812974" xlink:href="#mbeefc4af63" y="231.861796"/>
     <use style="fill:#ffffff;stroke:#0000ff;" x="257.342439" xlink:href="#mbeefc4af63" y="231.98315"/>
     <use style="fill:#ffffff;stroke:#0000ff;" x="258.871905" xlink:href="#mbeefc4af63" y="232.038974"/>
     <use style="fill:#ffffff;stroke:#0000ff;" x="260.40137" xlink:href="#mbeefc4af63" y="232.43683"/>
     <use style="fill:#ffffff;stroke:#0000ff;" x="261.930836" xlink:href="#mbeefc4af63" y="232.558439"/>
     <use style="fill:#ffffff;stroke:#0000ff;" x="263.460302" xlink:href="#mbeefc4af63" y="232.614616"/>
     <use style="fill:#ffffff;stroke:#0000ff;" x="264.989767" xlink:href="#mbeefc4af63" y="232.791661"/>
     <use style="fill:#ffffff;stroke:#0000ff;" x="266.519233" xlink:href="#mbeefc4af63" y="232.917554"/>
     <use style="fill:#ffffff;stroke:#0000ff;" x="268.048698" xlink:href="#mbeefc4af63" y="233.147107"/>
     <use style="fill:#ffffff;stroke:#0000ff;" x="269.578164" xlink:href="#mbeefc4af63" y="233.16949"/>
     <use style="fill:#ffffff;stroke:#0000ff;" x="271.107629" xlink:href="#mbeefc4af63" y="233.386859"/>
     <use style="fill:#ffffff;stroke:#0000ff;" x="272.637095" xlink:href="#mbeefc4af63" y="233.466747"/>
     <use style="fill:#ffffff;stroke:#0000ff;" x="274.16656" xlink:href="#mbeefc4af63" y="233.63116"/>
     <use style="fill:#ffffff;stroke:#0000ff;" x="275.696026" xlink:href="#mbeefc4af63" y="233.758827"/>
     <use style="fill:#ffffff;stroke:#0000ff;" x="277.225491" xlink:href="#mbeefc4af63" y="233.902015"/>
     <use style="fill:#ffffff;stroke:#0000ff;" x="278.754957" xlink:href="#mbeefc4af63" y="234.266723"/>
     <use style="fill:#ffffff;stroke:#0000ff;" x="280.284422" xlink:href="#mbeefc4af63" y="234.487837"/>
     <use style="fill:#ffffff;stroke:#0000ff;" x="281.813888" xlink:href="#mbeefc4af63" y="234.322632"/>
     <use style="fill:#ffffff;stroke:#0000ff;" x="283.343353" xlink:href="#mbeefc4af63" y="234.642388"/>
     <use style="fill:#ffffff;stroke:#0000ff;" x="284.872819" xlink:href="#mbeefc4af63" y="234.673697"/>
     <use style="fill:#ffffff;stroke:#0000ff;" x="286.402284" xlink:href="#mbeefc4af63" y="234.912115"/>
     <use style="fill:#ffffff;stroke:#0000ff;" x="287.93175" xlink:href="#mbeefc4af63" y="235.098987"/>
     <use style="fill:#ffffff;stroke:#0000ff;" x="289.461215" xlink:href="#mbeefc4af63" y="235.214111"/>
     <use style="fill:#ffffff;stroke:#0000ff;" x="290.990681" xlink:href="#mbeefc4af63" y="235.364705"/>
     <use style="fill:#ffffff;stroke:#0000ff;" x="292.520146" xlink:href="#mbeefc4af63" y="235.480675"/>
     <use style="fill:#ffffff;stroke:#0000ff;" x="294.049612" xlink:href="#mbeefc4af63" y="235.844961"/>
     <use style="fill:#ffffff;stroke:#0000ff;" x="295.579077" xlink:href="#mbeefc4af63" y="235.644905"/>
     <use style="fill:#ffffff;stroke:#0000ff;" x="297.108543" xlink:href="#mbeefc4af63" y="236.051967"/>
     <use style="fill:#ffffff;stroke:#0000ff;" x="298.638008" xlink:href="#mbeefc4af63" y="236.229873"/>
     <use style="fill:#ffffff;stroke:#0000ff;" x="300.167474" xlink:href="#mbeefc4af63" y="236.06668"/>
     <use style="fill:#ffffff;stroke:#0000ff;" x="301.696939" xlink:href="#mbeefc4af63" y="236.403075"/>
     <use style="fill:#ffffff;stroke:#0000ff;" x="303.226405" xlink:href="#mbeefc4af63" y="236.505992"/>
     <use style="fill:#ffffff;stroke:#0000ff;" x="304.75587" xlink:href="#mbeefc4af63" y="236.478154"/>
     <use style="fill:#ffffff;stroke:#0000ff;" x="306.285336" xlink:href="#mbeefc4af63" y="236.965609"/>
     <use style="fill:#ffffff;stroke:#0000ff;" x="307.814801" xlink:href="#mbeefc4af63" y="236.70622"/>
     <use style="fill:#ffffff;stroke:#0000ff;" x="309.344267" xlink:href="#mbeefc4af63" y="237.135503"/>
     <use style="fill:#ffffff;stroke:#0000ff;" x="310.873732" xlink:href="#mbeefc4af63" y="236.941522"/>
     <use style="fill:#ffffff;stroke:#0000ff;" x="312.403198" xlink:href="#mbeefc4af63" y="237.340104"/>
     <use style="fill:#ffffff;stroke:#0000ff;" x="313.932663" xlink:href="#mbeefc4af63" y="237.387261"/>
     <use style="fill:#ffffff;stroke:#0000ff;" x="315.462129" xlink:href="#mbeefc4af63" y="237.25825"/>
     <use style="fill:#ffffff;stroke:#0000ff;" x="316.991594" xlink:href="#mbeefc4af63" y="237.918336"/>
     <use style="fill:#ffffff;stroke:#0000ff;" x="318.52106" xlink:href="#mbeefc4af63" y="237.780739"/>
     <use style="fill:#ffffff;stroke:#0000ff;" x="320.050525" xlink:href="#mbeefc4af63" y="237.991204"/>
     <use style="fill:#ffffff;stroke:#0000ff;" x="321.579991" xlink:href="#mbeefc4af63" y="238.008712"/>
     <use style="fill:#ffffff;stroke:#0000ff;" x="323.109456" xlink:href="#mbeefc4af63" y="238.387666"/>
     <use style="fill:#ffffff;stroke:#0000ff;" x="324.638922" xlink:href="#mbeefc4af63" y="238.442392"/>
     <use style="fill:#ffffff;stroke:#0000ff;" x="326.168387" xlink:href="#mbeefc4af63" y="238.455353"/>
     <use style="fill:#ffffff;stroke:#0000ff;" x="327.697853" xlink:href="#mbeefc4af63" y="238.78221"/>
     <use style="fill:#ffffff;stroke:#0000ff;" x="329.227318" xlink:href="#mbeefc4af63" y="238.633546"/>
     <use style="fill:#ffffff;stroke:#0000ff;" x="330.756784" xlink:href="#mbeefc4af63" y="238.821366"/>
     <use style="fill:#ffffff;stroke:#0000ff;" x="332.286249" xlink:href="#mbeefc4af63" y="239.100656"/>
     <use style="fill:#ffffff;stroke:#0000ff;" x="333.815715" xlink:href="#mbeefc4af63" y="239.062251"/>
     <use style="fill:#ffffff;stroke:#0000ff;" x="335.34518" xlink:href="#mbeefc4af63" y="239.23248"/>
     <use style="fill:#ffffff;stroke:#0000ff;" x="336.874646" xlink:href="#mbeefc4af63" y="239.482528"/>
     <use style="fill:#ffffff;stroke:#0000ff;" x="338.404111" xlink:href="#mbeefc4af63" y="239.421234"/>
     <use style="fill:#ffffff;stroke:#0000ff;" x="339.933577" xlink:href="#mbeefc4af63" y="239.544357"/>
     <use style="fill:#ffffff;stroke:#0000ff;" x="341.463042" xlink:href="#mbeefc4af63" y="239.769308"/>
     <use style="fill:#ffffff;stroke:#0000ff;" x="342.992508" xlink:href="#mbeefc4af63" y="239.623741"/>
     <use style="fill:#ffffff;stroke:#0000ff;" x="344.521974" xlink:href="#mbeefc4af63" y="239.82613"/>
     <use style="fill:#ffffff;stroke:#0000ff;" x="346.051439" xlink:href="#mbeefc4af63" y="240.056083"/>
     <use style="fill:#ffffff;stroke:#0000ff;" x="347.580905" xlink:href="#mbeefc4af63" y="240.014312"/>
     <use style="fill:#ffffff;stroke:#0000ff;" x="349.11037" xlink:href="#mbeefc4af63" y="240.247986"/>
     <use style="fill:#ffffff;stroke:#0000ff;" x="350.639836" xlink:href="#mbeefc4af63" y="240.263275"/>
     <use style="fill:#ffffff;stroke:#0000ff;" x="352.169301" xlink:href="#mbeefc4af63" y="240.55092"/>
     <use style="fill:#ffffff;stroke:#0000ff;" x="353.698767" xlink:href="#mbeefc4af63" y="240.413374"/>
     <use style="fill:#ffffff;stroke:#0000ff;" x="355.228232" xlink:href="#mbeefc4af63" y="240.798031"/>
     <use style="fill:#ffffff;stroke:#0000ff;" x="356.757698" xlink:href="#mbeefc4af63" y="240.837687"/>
     <use style="fill:#ffffff;stroke:#0000ff;" x="358.287163" xlink:href="#mbeefc4af63" y="240.870516"/>
     <use style="fill:#ffffff;stroke:#0000ff;" x="359.816629" xlink:href="#mbeefc4af63" y="240.915546"/>
     <use style="fill:#ffffff;stroke:#0000ff;" x="361.346094" xlink:href="#mbeefc4af63" y="240.804961"/>
     <use style="fill:#ffffff;stroke:#0000ff;" x="362.87556" xlink:href="#mbeefc4af63" y="241.215946"/>
     <use style="fill:#ffffff;stroke:#0000ff;" x="364.405025" xlink:href="#mbeefc4af63" y="241.39426"/>
     <use style="fill:#ffffff;stroke:#0000ff;" x="365.934491" xlink:href="#mbeefc4af63" y="241.552948"/>
     <use style="fill:#ffffff;stroke:#0000ff;" x="367.463956" xlink:href="#mbeefc4af63" y="241.531124"/>
     <use style="fill:#ffffff;stroke:#0000ff;" x="368.993422" xlink:href="#mbeefc4af63" y="241.669455"/>
     <use style="fill:#ffffff;stroke:#0000ff;" x="370.522887" xlink:href="#mbeefc4af63" y="241.752523"/>
     <use style="fill:#ffffff;stroke:#0000ff;" x="372.052353" xlink:href="#mbeefc4af63" y="241.956292"/>
     <use style="fill:#ffffff;stroke:#0000ff;" x="373.581818" xlink:href="#mbeefc4af63" y="242.116364"/>
    </g>
   </g>
   <g id="line2d_17">
    <path clip-path="url(#pe4d437c80c)" d="M 69.218182 47.801175 
L 70.747647 52.937661 
L 72.277113 65.133249 
L 75.336044 101.885707 
L 76.865509 115.249156 
L 78.394975 124.906456 
L 79.92444 132.658057 
L 81.453906 138.339258 
L 82.983371 143.569846 
L 86.042302 150.130598 
L 87.571768 152.519834 
L 89.101233 154.381803 
L 90.630699 155.358147 
L 92.160164 157.776644 
L 93.68963 158.026054 
L 95.219095 159.075479 
L 96.748561 158.841759 
L 98.278026 159.943868 
L 99.807492 159.898123 
L 101.336958 160.949516 
L 102.866423 158.78308 
L 104.395889 160.070014 
L 105.925354 160.582964 
L 107.45482 158.842307 
L 108.984285 160.531505 
L 110.513751 160.660823 
L 112.043216 160.049065 
L 113.572682 160.240806 
L 115.102147 160.237436 
L 118.161078 159.582895 
L 119.690544 158.87933 
L 121.220009 158.836765 
L 122.749475 158.10707 
L 124.27894 159.030268 
L 125.808406 158.606677 
L 128.867337 157.332374 
L 130.396802 157.226686 
L 131.926268 157.365852 
L 133.455733 156.609062 
L 134.985199 157.026579 
L 136.514664 156.525264 
L 138.04413 155.021968 
L 139.573595 155.929953 
L 141.103061 154.74332 
L 144.161992 153.598249 
L 145.691457 154.122646 
L 148.750388 153.467763 
L 150.279854 153.669814 
L 151.809319 152.240422 
L 153.338785 153.026857 
L 154.86825 151.935548 
L 156.397716 153.029442 
L 157.927181 152.38441 
L 159.456647 150.298692 
L 160.986112 149.619633 
L 162.515578 149.795807 
L 164.045043 149.588686 
L 165.574509 148.611334 
L 167.103974 148.874759 
L 168.63344 148.834433 
L 170.162905 148.981049 
L 171.692371 148.723296 
L 173.221836 148.133988 
L 174.751302 146.756019 
L 176.280767 146.687024 
L 177.810233 147.069737 
L 179.339698 146.169449 
L 180.869164 145.421896 
L 182.39863 144.498208 
L 183.928095 144.648636 
L 185.457561 142.936581 
L 186.987026 143.129061 
L 188.516492 143.580661 
L 190.045957 142.301533 
L 191.575423 141.602289 
L 193.104888 141.885015 
L 194.634354 142.408291 
L 196.163819 140.68685 
L 197.693285 140.506918 
L 199.22275 140.700992 
L 200.752216 139.122509 
L 202.281681 138.566919 
L 203.811147 138.525175 
L 205.340612 138.29736 
L 206.870078 137.853426 
L 208.399543 136.404845 
L 209.929009 137.615658 
L 212.98794 135.817651 
L 214.517405 136.330216 
L 216.046871 134.607004 
L 217.576336 134.202562 
L 219.105802 135.155576 
L 220.635267 134.586556 
L 222.164733 134.430728 
L 223.694198 133.004014 
L 225.223664 133.940765 
L 226.753129 131.664034 
L 228.282595 131.363186 
L 229.81206 131.702121 
L 231.341526 130.845395 
L 232.870991 131.813792 
L 234.400457 129.939603 
L 235.929922 129.215622 
L 237.459388 128.317736 
L 238.988853 128.968137 
L 240.518319 128.652862 
L 242.047784 127.677174 
L 243.57725 126.487313 
L 245.106715 127.639932 
L 246.636181 125.501203 
L 248.165646 125.859869 
L 249.695112 126.581049 
L 251.224577 125.089935 
L 254.283508 124.647307 
L 255.812974 123.647338 
L 257.342439 124.326226 
L 258.871905 122.910501 
L 260.40137 123.72096 
L 261.930836 122.581083 
L 263.460302 121.13496 
L 264.989767 121.90692 
L 266.519233 120.679194 
L 268.048698 118.884224 
L 269.578164 120.078068 
L 271.107629 119.494002 
L 272.637095 119.032071 
L 274.16656 117.74637 
L 275.696026 119.157833 
L 277.225491 118.990939 
L 278.754957 117.453772 
L 280.284422 117.684879 
L 281.813888 115.286375 
L 284.872819 115.690395 
L 286.402284 116.400351 
L 289.461215 113.64505 
L 290.990681 114.555955 
L 292.520146 113.001363 
L 294.049612 111.844683 
L 295.579077 112.68358 
L 297.108543 111.167787 
L 298.638008 112.024774 
L 300.167474 111.676435 
L 301.696939 112.200458 
L 303.226405 110.036569 
L 304.75587 111.150232 
L 306.285336 110.566564 
L 307.814801 110.981032 
L 309.344267 109.45131 
L 310.873732 108.123374 
L 312.403198 107.823296 
L 313.932663 107.799127 
L 315.462129 108.254909 
L 316.991594 106.87591 
L 318.52106 106.0582 
L 320.050525 106.396074 
L 321.579991 105.293724 
L 323.109456 104.954906 
L 324.638922 104.005758 
L 326.168387 104.560859 
L 327.697853 103.722848 
L 329.227318 103.739744 
L 330.756784 102.604015 
L 332.286249 101.607772 
L 333.815715 101.849366 
L 335.34518 101.826647 
L 336.874646 101.155003 
L 339.933577 98.27825 
L 341.463042 98.15891 
L 342.992508 99.647645 
L 344.521974 99.236993 
L 346.051439 99.742944 
L 347.580905 97.963122 
L 349.11037 97.181156 
L 350.639836 97.481405 
L 352.169301 95.786837 
L 353.698767 96.147486 
L 355.228232 93.76388 
L 356.757698 94.836032 
L 358.287163 92.990349 
L 359.816629 93.98353 
L 361.346094 94.123868 
L 362.87556 93.047624 
L 364.405025 93.825003 
L 365.934491 93.958896 
L 367.463956 92.230585 
L 368.993422 92.254737 
L 372.052353 90.589303 
L 373.581818 91.060231 
L 373.581818 91.060231 
" style="fill:none;stroke:#ff0000;stroke-linecap:square;stroke-width:1.5;"/>
    <defs>
     <path d="M 0 3 
C 0.795609 3 1.55874 2.683901 2.12132 2.12132 
C 2.683901 1.55874 3 0.795609 3 0 
C 3 -0.795609 2.683901 -1.55874 2.12132 -2.12132 
C 1.55874 -2.683901 0.795609 -3 0 -3 
C -0.795609 -3 -1.55874 -2.683901 -2.12132 -2.12132 
C -2.683901 -1.55874 -3 -0.795609 -3 0 
C -3 0.795609 -2.683901 1.55874 -2.12132 2.12132 
C -1.55874 2.683901 -0.795609 3 0 3 
z
" id="m73a0c56077" style="stroke:#ff0000;"/>
    </defs>
    <g clip-path="url(#pe4d437c80c)">
     <use style="fill:#ffffff;stroke:#ff0000;" x="69.218182" xlink:href="#m73a0c56077" y="47.801175"/>
     <use style="fill:#ffffff;stroke:#ff0000;" x="70.747647" xlink:href="#m73a0c56077" y="52.937661"/>
     <use style="fill:#ffffff;stroke:#ff0000;" x="72.277113" xlink:href="#m73a0c56077" y="65.133249"/>
     <use style="fill:#ffffff;stroke:#ff0000;" x="73.806578" xlink:href="#m73a0c56077" y="84.105549"/>
     <use style="fill:#ffffff;stroke:#ff0000;" x="75.336044" xlink:href="#m73a0c56077" y="101.885707"/>
     <use style="fill:#ffffff;stroke:#ff0000;" x="76.865509" xlink:href="#m73a0c56077" y="115.249156"/>
     <use style="fill:#ffffff;stroke:#ff0000;" x="78.394975" xlink:href="#m73a0c56077" y="124.906456"/>
     <use style="fill:#ffffff;stroke:#ff0000;" x="79.92444" xlink:href="#m73a0c56077" y="132.658057"/>
     <use style="fill:#ffffff;stroke:#ff0000;" x="81.453906" xlink:href="#m73a0c56077" y="138.339258"/>
     <use style="fill:#ffffff;stroke:#ff0000;" x="82.983371" xlink:href="#m73a0c56077" y="143.569846"/>
     <use style="fill:#ffffff;stroke:#ff0000;" x="84.512837" xlink:href="#m73a0c56077" y="146.758467"/>
     <use style="fill:#ffffff;stroke:#ff0000;" x="86.042302" xlink:href="#m73a0c56077" y="150.130598"/>
     <use style="fill:#ffffff;stroke:#ff0000;" x="87.571768" xlink:href="#m73a0c56077" y="152.519834"/>
     <use style="fill:#ffffff;stroke:#ff0000;" x="89.101233" xlink:href="#m73a0c56077" y="154.381803"/>
     <use style="fill:#ffffff;stroke:#ff0000;" x="90.630699" xlink:href="#m73a0c56077" y="155.358147"/>
     <use style="fill:#ffffff;stroke:#ff0000;" x="92.160164" xlink:href="#m73a0c56077" y="157.776644"/>
     <use style="fill:#ffffff;stroke:#ff0000;" x="93.68963" xlink:href="#m73a0c56077" y="158.026054"/>
     <use style="fill:#ffffff;stroke:#ff0000;" x="95.219095" xlink:href="#m73a0c56077" y="159.075479"/>
     <use style="fill:#ffffff;stroke:#ff0000;" x="96.748561" xlink:href="#m73a0c56077" y="158.841759"/>
     <use style="fill:#ffffff;stroke:#ff0000;" x="98.278026" xlink:href="#m73a0c56077" y="159.943868"/>
     <use style="fill:#ffffff;stroke:#ff0000;" x="99.807492" xlink:href="#m73a0c56077" y="159.898123"/>
     <use style="fill:#ffffff;stroke:#ff0000;" x="101.336958" xlink:href="#m73a0c56077" y="160.949516"/>
     <use style="fill:#ffffff;stroke:#ff0000;" x="102.866423" xlink:href="#m73a0c56077" y="158.78308"/>
     <use style="fill:#ffffff;stroke:#ff0000;" x="104.395889" xlink:href="#m73a0c56077" y="160.070014"/>
     <use style="fill:#ffffff;stroke:#ff0000;" x="105.925354" xlink:href="#m73a0c56077" y="160.582964"/>
     <use style="fill:#ffffff;stroke:#ff0000;" x="107.45482" xlink:href="#m73a0c56077" y="158.842307"/>
     <use style="fill:#ffffff;stroke:#ff0000;" x="108.984285" xlink:href="#m73a0c56077" y="160.531505"/>
     <use style="fill:#ffffff;stroke:#ff0000;" x="110.513751" xlink:href="#m73a0c56077" y="160.660823"/>
     <use style="fill:#ffffff;stroke:#ff0000;" x="112.043216" xlink:href="#m73a0c56077" y="160.049065"/>
     <use style="fill:#ffffff;stroke:#ff0000;" x="113.572682" xlink:href="#m73a0c56077" y="160.240806"/>
     <use style="fill:#ffffff;stroke:#ff0000;" x="115.102147" xlink:href="#m73a0c56077" y="160.237436"/>
     <use style="fill:#ffffff;stroke:#ff0000;" x="116.631613" xlink:href="#m73a0c56077" y="159.962705"/>
     <use style="fill:#ffffff;stroke:#ff0000;" x="118.161078" xlink:href="#m73a0c56077" y="159.582895"/>
     <use style="fill:#ffffff;stroke:#ff0000;" x="119.690544" xlink:href="#m73a0c56077" y="158.87933"/>
     <use style="fill:#ffffff;stroke:#ff0000;" x="121.220009" xlink:href="#m73a0c56077" y="158.836765"/>
     <use style="fill:#ffffff;stroke:#ff0000;" x="122.749475" xlink:href="#m73a0c56077" y="158.10707"/>
     <use style="fill:#ffffff;stroke:#ff0000;" x="124.27894" xlink:href="#m73a0c56077" y="159.030268"/>
     <use style="fill:#ffffff;stroke:#ff0000;" x="125.808406" xlink:href="#m73a0c56077" y="158.606677"/>
     <use style="fill:#ffffff;stroke:#ff0000;" x="127.337871" xlink:href="#m73a0c56077" y="157.943907"/>
     <use style="fill:#ffffff;stroke:#ff0000;" x="128.867337" xlink:href="#m73a0c56077" y="157.332374"/>
     <use style="fill:#ffffff;stroke:#ff0000;" x="130.396802" xlink:href="#m73a0c56077" y="157.226686"/>
     <use style="fill:#ffffff;stroke:#ff0000;" x="131.926268" xlink:href="#m73a0c56077" y="157.365852"/>
     <use style="fill:#ffffff;stroke:#ff0000;" x="133.455733" xlink:href="#m73a0c56077" y="156.609062"/>
     <use style="fill:#ffffff;stroke:#ff0000;" x="134.985199" xlink:href="#m73a0c56077" y="157.026579"/>
     <use style="fill:#ffffff;stroke:#ff0000;" x="136.514664" xlink:href="#m73a0c56077" y="156.525264"/>
     <use style="fill:#ffffff;stroke:#ff0000;" x="138.04413" xlink:href="#m73a0c56077" y="155.021968"/>
     <use style="fill:#ffffff;stroke:#ff0000;" x="139.573595" xlink:href="#m73a0c56077" y="155.929953"/>
     <use style="fill:#ffffff;stroke:#ff0000;" x="141.103061" xlink:href="#m73a0c56077" y="154.74332"/>
     <use style="fill:#ffffff;stroke:#ff0000;" x="142.632526" xlink:href="#m73a0c56077" y="154.194388"/>
     <use style="fill:#ffffff;stroke:#ff0000;" x="144.161992" xlink:href="#m73a0c56077" y="153.598249"/>
     <use style="fill:#ffffff;stroke:#ff0000;" x="145.691457" xlink:href="#m73a0c56077" y="154.122646"/>
     <use style="fill:#ffffff;stroke:#ff0000;" x="147.220923" xlink:href="#m73a0c56077" y="153.829401"/>
     <use style="fill:#ffffff;stroke:#ff0000;" x="148.750388" xlink:href="#m73a0c56077" y="153.467763"/>
     <use style="fill:#ffffff;stroke:#ff0000;" x="150.279854" xlink:href="#m73a0c56077" y="153.669814"/>
     <use style="fill:#ffffff;stroke:#ff0000;" x="151.809319" xlink:href="#m73a0c56077" y="152.240422"/>
     <use style="fill:#ffffff;stroke:#ff0000;" x="153.338785" xlink:href="#m73a0c56077" y="153.026857"/>
     <use style="fill:#ffffff;stroke:#ff0000;" x="154.86825" xlink:href="#m73a0c56077" y="151.935548"/>
     <use style="fill:#ffffff;stroke:#ff0000;" x="156.397716" xlink:href="#m73a0c56077" y="153.029442"/>
     <use style="fill:#ffffff;stroke:#ff0000;" x="157.927181" xlink:href="#m73a0c56077" y="152.38441"/>
     <use style="fill:#ffffff;stroke:#ff0000;" x="159.456647" xlink:href="#m73a0c56077" y="150.298692"/>
     <use style="fill:#ffffff;stroke:#ff0000;" x="160.986112" xlink:href="#m73a0c56077" y="149.619633"/>
     <use style="fill:#ffffff;stroke:#ff0000;" x="162.515578" xlink:href="#m73a0c56077" y="149.795807"/>
     <use style="fill:#ffffff;stroke:#ff0000;" x="164.045043" xlink:href="#m73a0c56077" y="149.588686"/>
     <use style="fill:#ffffff;stroke:#ff0000;" x="165.574509" xlink:href="#m73a0c56077" y="148.611334"/>
     <use style="fill:#ffffff;stroke:#ff0000;" x="167.103974" xlink:href="#m73a0c56077" y="148.874759"/>
     <use style="fill:#ffffff;stroke:#ff0000;" x="168.63344" xlink:href="#m73a0c56077" y="148.834433"/>
     <use style="fill:#ffffff;stroke:#ff0000;" x="170.162905" xlink:href="#m73a0c56077" y="148.981049"/>
     <use style="fill:#ffffff;stroke:#ff0000;" x="171.692371" xlink:href="#m73a0c56077" y="148.723296"/>
     <use style="fill:#ffffff;stroke:#ff0000;" x="173.221836" xlink:href="#m73a0c56077" y="148.133988"/>
     <use style="fill:#ffffff;stroke:#ff0000;" x="174.751302" xlink:href="#m73a0c56077" y="146.756019"/>
     <use style="fill:#ffffff;stroke:#ff0000;" x="176.280767" xlink:href="#m73a0c56077" y="146.687024"/>
     <use style="fill:#ffffff;stroke:#ff0000;" x="177.810233" xlink:href="#m73a0c56077" y="147.069737"/>
     <use style="fill:#ffffff;stroke:#ff0000;" x="179.339698" xlink:href="#m73a0c56077" y="146.169449"/>
     <use style="fill:#ffffff;stroke:#ff0000;" x="180.869164" xlink:href="#m73a0c56077" y="145.421896"/>
     <use style="fill:#ffffff;stroke:#ff0000;" x="182.39863" xlink:href="#m73a0c56077" y="144.498208"/>
     <use style="fill:#ffffff;stroke:#ff0000;" x="183.928095" xlink:href="#m73a0c56077" y="144.648636"/>
     <use style="fill:#ffffff;stroke:#ff0000;" x="185.457561" xlink:href="#m73a0c56077" y="142.936581"/>
     <use style="fill:#ffffff;stroke:#ff0000;" x="186.987026" xlink:href="#m73a0c56077" y="143.129061"/>
     <use style="fill:#ffffff;stroke:#ff0000;" x="188.516492" xlink:href="#m73a0c56077" y="143.580661"/>
     <use style="fill:#ffffff;stroke:#ff0000;" x="190.045957" xlink:href="#m73a0c56077" y="142.301533"/>
     <use style="fill:#ffffff;stroke:#ff0000;" x="191.575423" xlink:href="#m73a0c56077" y="141.602289"/>
     <use style="fill:#ffffff;stroke:#ff0000;" x="193.104888" xlink:href="#m73a0c56077" y="141.885015"/>
     <use style="fill:#ffffff;stroke:#ff0000;" x="194.634354" xlink:href="#m73a0c56077" y="142.408291"/>
     <use style="fill:#ffffff;stroke:#ff0000;" x="196.163819" xlink:href="#m73a0c56077" y="140.68685"/>
     <use style="fill:#ffffff;stroke:#ff0000;" x="197.693285" xlink:href="#m73a0c56077" y="140.506918"/>
     <use style="fill:#ffffff;stroke:#ff0000;" x="199.22275" xlink:href="#m73a0c56077" y="140.700992"/>
     <use style="fill:#ffffff;stroke:#ff0000;" x="200.752216" xlink:href="#m73a0c56077" y="139.122509"/>
     <use style="fill:#ffffff;stroke:#ff0000;" x="202.281681" xlink:href="#m73a0c56077" y="138.566919"/>
     <use style="fill:#ffffff;stroke:#ff0000;" x="203.811147" xlink:href="#m73a0c56077" y="138.525175"/>
     <use style="fill:#ffffff;stroke:#ff0000;" x="205.340612" xlink:href="#m73a0c56077" y="138.29736"/>
     <use style="fill:#ffffff;stroke:#ff0000;" x="206.870078" xlink:href="#m73a0c56077" y="137.853426"/>
     <use style="fill:#ffffff;stroke:#ff0000;" x="208.399543" xlink:href="#m73a0c56077" y="136.404845"/>
     <use style="fill:#ffffff;stroke:#ff0000;" x="209.929009" xlink:href="#m73a0c56077" y="137.615658"/>
     <use style="fill:#ffffff;stroke:#ff0000;" x="211.458474" xlink:href="#m73a0c56077" y="136.688137"/>
     <use style="fill:#ffffff;stroke:#ff0000;" x="212.98794" xlink:href="#m73a0c56077" y="135.817651"/>
     <use style="fill:#ffffff;stroke:#ff0000;" x="214.517405" xlink:href="#m73a0c56077" y="136.330216"/>
     <use style="fill:#ffffff;stroke:#ff0000;" x="216.046871" xlink:href="#m73a0c56077" y="134.607004"/>
     <use style="fill:#ffffff;stroke:#ff0000;" x="217.576336" xlink:href="#m73a0c56077" y="134.202562"/>
     <use style="fill:#ffffff;stroke:#ff0000;" x="219.105802" xlink:href="#m73a0c56077" y="135.155576"/>
     <use style="fill:#ffffff;stroke:#ff0000;" x="220.635267" xlink:href="#m73a0c56077" y="134.586556"/>
     <use style="fill:#ffffff;stroke:#ff0000;" x="222.164733" xlink:href="#m73a0c56077" y="134.430728"/>
     <use style="fill:#ffffff;stroke:#ff0000;" x="223.694198" xlink:href="#m73a0c56077" y="133.004014"/>
     <use style="fill:#ffffff;stroke:#ff0000;" x="225.223664" xlink:href="#m73a0c56077" y="133.940765"/>
     <use style="fill:#ffffff;stroke:#ff0000;" x="226.753129" xlink:href="#m73a0c56077" y="131.664034"/>
     <use style="fill:#ffffff;stroke:#ff0000;" x="228.282595" xlink:href="#m73a0c56077" y="131.363186"/>
     <use style="fill:#ffffff;stroke:#ff0000;" x="229.81206" xlink:href="#m73a0c56077" y="131.702121"/>
     <use style="fill:#ffffff;stroke:#ff0000;" x="231.341526" xlink:href="#m73a0c56077" y="130.845395"/>
     <use style="fill:#ffffff;stroke:#ff0000;" x="232.870991" xlink:href="#m73a0c56077" y="131.813792"/>
     <use style="fill:#ffffff;stroke:#ff0000;" x="234.400457" xlink:href="#m73a0c56077" y="129.939603"/>
     <use style="fill:#ffffff;stroke:#ff0000;" x="235.929922" xlink:href="#m73a0c56077" y="129.215622"/>
     <use style="fill:#ffffff;stroke:#ff0000;" x="237.459388" xlink:href="#m73a0c56077" y="128.317736"/>
     <use style="fill:#ffffff;stroke:#ff0000;" x="238.988853" xlink:href="#m73a0c56077" y="128.968137"/>
     <use style="fill:#ffffff;stroke:#ff0000;" x="240.518319" xlink:href="#m73a0c56077" y="128.652862"/>
     <use style="fill:#ffffff;stroke:#ff0000;" x="242.047784" xlink:href="#m73a0c56077" y="127.677174"/>
     <use style="fill:#ffffff;stroke:#ff0000;" x="243.57725" xlink:href="#m73a0c56077" y="126.487313"/>
     <use style="fill:#ffffff;stroke:#ff0000;" x="245.106715" xlink:href="#m73a0c56077" y="127.639932"/>
     <use style="fill:#ffffff;stroke:#ff0000;" x="246.636181" xlink:href="#m73a0c56077" y="125.501203"/>
     <use style="fill:#ffffff;stroke:#ff0000;" x="248.165646" xlink:href="#m73a0c56077" y="125.859869"/>
     <use style="fill:#ffffff;stroke:#ff0000;" x="249.695112" xlink:href="#m73a0c56077" y="126.581049"/>
     <use style="fill:#ffffff;stroke:#ff0000;" x="251.224577" xlink:href="#m73a0c56077" y="125.089935"/>
     <use style="fill:#ffffff;stroke:#ff0000;" x="252.754043" xlink:href="#m73a0c56077" y="124.825397"/>
     <use style="fill:#ffffff;stroke:#ff0000;" x="254.283508" xlink:href="#m73a0c56077" y="124.647307"/>
     <use style="fill:#ffffff;stroke:#ff0000;" x="255.812974" xlink:href="#m73a0c56077" y="123.647338"/>
     <use style="fill:#ffffff;stroke:#ff0000;" x="257.342439" xlink:href="#m73a0c56077" y="124.326226"/>
     <use style="fill:#ffffff;stroke:#ff0000;" x="258.871905" xlink:href="#m73a0c56077" y="122.910501"/>
     <use style="fill:#ffffff;stroke:#ff0000;" x="260.40137" xlink:href="#m73a0c56077" y="123.72096"/>
     <use style="fill:#ffffff;stroke:#ff0000;" x="261.930836" xlink:href="#m73a0c56077" y="122.581083"/>
     <use style="fill:#ffffff;stroke:#ff0000;" x="263.460302" xlink:href="#m73a0c56077" y="121.13496"/>
     <use style="fill:#ffffff;stroke:#ff0000;" x="264.989767" xlink:href="#m73a0c56077" y="121.90692"/>
     <use style="fill:#ffffff;stroke:#ff0000;" x="266.519233" xlink:href="#m73a0c56077" y="120.679194"/>
     <use style="fill:#ffffff;stroke:#ff0000;" x="268.048698" xlink:href="#m73a0c56077" y="118.884224"/>
     <use style="fill:#ffffff;stroke:#ff0000;" x="269.578164" xlink:href="#m73a0c56077" y="120.078068"/>
     <use style="fill:#ffffff;stroke:#ff0000;" x="271.107629" xlink:href="#m73a0c56077" y="119.494002"/>
     <use style="fill:#ffffff;stroke:#ff0000;" x="272.637095" xlink:href="#m73a0c56077" y="119.032071"/>
     <use style="fill:#ffffff;stroke:#ff0000;" x="274.16656" xlink:href="#m73a0c56077" y="117.74637"/>
     <use style="fill:#ffffff;stroke:#ff0000;" x="275.696026" xlink:href="#m73a0c56077" y="119.157833"/>
     <use style="fill:#ffffff;stroke:#ff0000;" x="277.225491" xlink:href="#m73a0c56077" y="118.990939"/>
     <use style="fill:#ffffff;stroke:#ff0000;" x="278.754957" xlink:href="#m73a0c56077" y="117.453772"/>
     <use style="fill:#ffffff;stroke:#ff0000;" x="280.284422" xlink:href="#m73a0c56077" y="117.684879"/>
     <use style="fill:#ffffff;stroke:#ff0000;" x="281.813888" xlink:href="#m73a0c56077" y="115.286375"/>
     <use style="fill:#ffffff;stroke:#ff0000;" x="283.343353" xlink:href="#m73a0c56077" y="115.481803"/>
     <use style="fill:#ffffff;stroke:#ff0000;" x="284.872819" xlink:href="#m73a0c56077" y="115.690395"/>
     <use style="fill:#ffffff;stroke:#ff0000;" x="286.402284" xlink:href="#m73a0c56077" y="116.400351"/>
     <use style="fill:#ffffff;stroke:#ff0000;" x="287.93175" xlink:href="#m73a0c56077" y="115.016618"/>
     <use style="fill:#ffffff;stroke:#ff0000;" x="289.461215" xlink:href="#m73a0c56077" y="113.64505"/>
     <use style="fill:#ffffff;stroke:#ff0000;" x="290.990681" xlink:href="#m73a0c56077" y="114.555955"/>
     <use style="fill:#ffffff;stroke:#ff0000;" x="292.520146" xlink:href="#m73a0c56077" y="113.001363"/>
     <use style="fill:#ffffff;stroke:#ff0000;" x="294.049612" xlink:href="#m73a0c56077" y="111.844683"/>
     <use style="fill:#ffffff;stroke:#ff0000;" x="295.579077" xlink:href="#m73a0c56077" y="112.68358"/>
     <use style="fill:#ffffff;stroke:#ff0000;" x="297.108543" xlink:href="#m73a0c56077" y="111.167787"/>
     <use style="fill:#ffffff;stroke:#ff0000;" x="298.638008" xlink:href="#m73a0c56077" y="112.024774"/>
     <use style="fill:#ffffff;stroke:#ff0000;" x="300.167474" xlink:href="#m73a0c56077" y="111.676435"/>
     <use style="fill:#ffffff;stroke:#ff0000;" x="301.696939" xlink:href="#m73a0c56077" y="112.200458"/>
     <use style="fill:#ffffff;stroke:#ff0000;" x="303.226405" xlink:href="#m73a0c56077" y="110.036569"/>
     <use style="fill:#ffffff;stroke:#ff0000;" x="304.75587" xlink:href="#m73a0c56077" y="111.150232"/>
     <use style="fill:#ffffff;stroke:#ff0000;" x="306.285336" xlink:href="#m73a0c56077" y="110.566564"/>
     <use style="fill:#ffffff;stroke:#ff0000;" x="307.814801" xlink:href="#m73a0c56077" y="110.981032"/>
     <use style="fill:#ffffff;stroke:#ff0000;" x="309.344267" xlink:href="#m73a0c56077" y="109.45131"/>
     <use style="fill:#ffffff;stroke:#ff0000;" x="310.873732" xlink:href="#m73a0c56077" y="108.123374"/>
     <use style="fill:#ffffff;stroke:#ff0000;" x="312.403198" xlink:href="#m73a0c56077" y="107.823296"/>
     <use style="fill:#ffffff;stroke:#ff0000;" x="313.932663" xlink:href="#m73a0c56077" y="107.799127"/>
     <use style="fill:#ffffff;stroke:#ff0000;" x="315.462129" xlink:href="#m73a0c56077" y="108.254909"/>
     <use style="fill:#ffffff;stroke:#ff0000;" x="316.991594" xlink:href="#m73a0c56077" y="106.87591"/>
     <use style="fill:#ffffff;stroke:#ff0000;" x="318.52106" xlink:href="#m73a0c56077" y="106.0582"/>
     <use style="fill:#ffffff;stroke:#ff0000;" x="320.050525" xlink:href="#m73a0c56077" y="106.396074"/>
     <use style="fill:#ffffff;stroke:#ff0000;" x="321.579991" xlink:href="#m73a0c56077" y="105.293724"/>
     <use style="fill:#ffffff;stroke:#ff0000;" x="323.109456" xlink:href="#m73a0c56077" y="104.954906"/>
     <use style="fill:#ffffff;stroke:#ff0000;" x="324.638922" xlink:href="#m73a0c56077" y="104.005758"/>
     <use style="fill:#ffffff;stroke:#ff0000;" x="326.168387" xlink:href="#m73a0c56077" y="104.560859"/>
     <use style="fill:#ffffff;stroke:#ff0000;" x="327.697853" xlink:href="#m73a0c56077" y="103.722848"/>
     <use style="fill:#ffffff;stroke:#ff0000;" x="329.227318" xlink:href="#m73a0c56077" y="103.739744"/>
     <use style="fill:#ffffff;stroke:#ff0000;" x="330.756784" xlink:href="#m73a0c56077" y="102.604015"/>
     <use style="fill:#ffffff;stroke:#ff0000;" x="332.286249" xlink:href="#m73a0c56077" y="101.607772"/>
     <use style="fill:#ffffff;stroke:#ff0000;" x="333.815715" xlink:href="#m73a0c56077" y="101.849366"/>
     <use style="fill:#ffffff;stroke:#ff0000;" x="335.34518" xlink:href="#m73a0c56077" y="101.826647"/>
     <use style="fill:#ffffff;stroke:#ff0000;" x="336.874646" xlink:href="#m73a0c56077" y="101.155003"/>
     <use style="fill:#ffffff;stroke:#ff0000;" x="338.404111" xlink:href="#m73a0c56077" y="99.705594"/>
     <use style="fill:#ffffff;stroke:#ff0000;" x="339.933577" xlink:href="#m73a0c56077" y="98.27825"/>
     <use style="fill:#ffffff;stroke:#ff0000;" x="341.463042" xlink:href="#m73a0c56077" y="98.15891"/>
     <use style="fill:#ffffff;stroke:#ff0000;" x="342.992508" xlink:href="#m73a0c56077" y="99.647645"/>
     <use style="fill:#ffffff;stroke:#ff0000;" x="344.521974" xlink:href="#m73a0c56077" y="99.236993"/>
     <use style="fill:#ffffff;stroke:#ff0000;" x="346.051439" xlink:href="#m73a0c56077" y="99.742944"/>
     <use style="fill:#ffffff;stroke:#ff0000;" x="347.580905" xlink:href="#m73a0c56077" y="97.963122"/>
     <use style="fill:#ffffff;stroke:#ff0000;" x="349.11037" xlink:href="#m73a0c56077" y="97.181156"/>
     <use style="fill:#ffffff;stroke:#ff0000;" x="350.639836" xlink:href="#m73a0c56077" y="97.481405"/>
     <use style="fill:#ffffff;stroke:#ff0000;" x="352.169301" xlink:href="#m73a0c56077" y="95.786837"/>
     <use style="fill:#ffffff;stroke:#ff0000;" x="353.698767" xlink:href="#m73a0c56077" y="96.147486"/>
     <use style="fill:#ffffff;stroke:#ff0000;" x="355.228232" xlink:href="#m73a0c56077" y="93.76388"/>
     <use style="fill:#ffffff;stroke:#ff0000;" x="356.757698" xlink:href="#m73a0c56077" y="94.836032"/>
     <use style="fill:#ffffff;stroke:#ff0000;" x="358.287163" xlink:href="#m73a0c56077" y="92.990349"/>
     <use style="fill:#ffffff;stroke:#ff0000;" x="359.816629" xlink:href="#m73a0c56077" y="93.98353"/>
     <use style="fill:#ffffff;stroke:#ff0000;" x="361.346094" xlink:href="#m73a0c56077" y="94.123868"/>
     <use style="fill:#ffffff;stroke:#ff0000;" x="362.87556" xlink:href="#m73a0c56077" y="93.047624"/>
     <use style="fill:#ffffff;stroke:#ff0000;" x="364.405025" xlink:href="#m73a0c56077" y="93.825003"/>
     <use style="fill:#ffffff;stroke:#ff0000;" x="365.934491" xlink:href="#m73a0c56077" y="93.958896"/>
     <use style="fill:#ffffff;stroke:#ff0000;" x="367.463956" xlink:href="#m73a0c56077" y="92.230585"/>
     <use style="fill:#ffffff;stroke:#ff0000;" x="368.993422" xlink:href="#m73a0c56077" y="92.254737"/>
     <use style="fill:#ffffff;stroke:#ff0000;" x="370.522887" xlink:href="#m73a0c56077" y="91.364954"/>
     <use style="fill:#ffffff;stroke:#ff0000;" x="372.052353" xlink:href="#m73a0c56077" y="90.589303"/>
     <use style="fill:#ffffff;stroke:#ff0000;" x="373.581818" xlink:href="#m73a0c56077" y="91.060231"/>
    </g>
   </g>
   <g id="patch_3">
    <path d="M 54 252 
L 54 34.56 
" style="fill:none;stroke:#000000;stroke-linecap:square;stroke-linejoin:miter;stroke-width:0.8;"/>
   </g>
   <g id="patch_4">
    <path d="M 388.8 252 
L 388.8 34.56 
" style="fill:none;stroke:#000000;stroke-linecap:square;stroke-linejoin:miter;stroke-width:0.8;"/>
   </g>
   <g id="patch_5">
    <path d="M 54 252 
L 388.8 252 
" style="fill:none;stroke:#000000;stroke-linecap:square;stroke-linejoin:miter;stroke-width:0.8;"/>
   </g>
   <g id="patch_6">
    <path d="M 54 34.56 
L 388.8 34.56 
" style="fill:none;stroke:#000000;stroke-linecap:square;stroke-linejoin:miter;stroke-width:0.8;"/>
   </g>
   <g id="text_18">
    <!-- Training and validation loss -->
    <defs>
     <path d="M -0.296875 72.90625 
L 61.375 72.90625 
L 61.375 64.59375 
L 35.5 64.59375 
L 35.5 0 
L 25.59375 0 
L 25.59375 64.59375 
L -0.296875 64.59375 
z
" id="DejaVuSans-54"/>
     <path d="M 41.109375 46.296875 
Q 39.59375 47.171875 37.8125 47.578125 
Q 36.03125 48 33.890625 48 
Q 26.265625 48 22.1875 43.046875 
Q 18.109375 38.09375 18.109375 28.8125 
L 18.109375 0 
L 9.078125 0 
L 9.078125 54.6875 
L 18.109375 54.6875 
L 18.109375 46.1875 
Q 20.953125 51.171875 25.484375 53.578125 
Q 30.03125 56 36.53125 56 
Q 37.453125 56 38.578125 55.875 
Q 39.703125 55.765625 41.0625 55.515625 
z
" id="DejaVuSans-72"/>
     <path d="M 34.28125 27.484375 
Q 23.390625 27.484375 19.1875 25 
Q 14.984375 22.515625 14.984375 16.5 
Q 14.984375 11.71875 18.140625 8.90625 
Q 21.296875 6.109375 26.703125 6.109375 
Q 34.1875 6.109375 38.703125 11.40625 
Q 43.21875 16.703125 43.21875 25.484375 
L 43.21875 27.484375 
z
M 52.203125 31.203125 
L 52.203125 0 
L 43.21875 0 
L 43.21875 8.296875 
Q 40.140625 3.328125 35.546875 0.953125 
Q 30.953125 -1.421875 24.3125 -1.421875 
Q 15.921875 -1.421875 10.953125 3.296875 
Q 6 8.015625 6 15.921875 
Q 6 25.140625 12.171875 29.828125 
Q 18.359375 34.515625 30.609375 34.515625 
L 43.21875 34.515625 
L 43.21875 35.40625 
Q 43.21875 41.609375 39.140625 45 
Q 35.0625 48.390625 27.6875 48.390625 
Q 23 48.390625 18.546875 47.265625 
Q 14.109375 46.140625 10.015625 43.890625 
L 10.015625 52.203125 
Q 14.9375 54.109375 19.578125 55.046875 
Q 24.21875 56 28.609375 56 
Q 40.484375 56 46.34375 49.84375 
Q 52.203125 43.703125 52.203125 31.203125 
z
" id="DejaVuSans-61"/>
     <path d="M 9.421875 54.6875 
L 18.40625 54.6875 
L 18.40625 0 
L 9.421875 0 
z
M 9.421875 75.984375 
L 18.40625 75.984375 
L 18.40625 64.59375 
L 9.421875 64.59375 
z
" id="DejaVuSans-69"/>
     <path d="M 54.890625 33.015625 
L 54.890625 0 
L 45.90625 0 
L 45.90625 32.71875 
Q 45.90625 40.484375 42.875 44.328125 
Q 39.84375 48.1875 33.796875 48.1875 
Q 26.515625 48.1875 22.3125 43.546875 
Q 18.109375 38.921875 18.109375 30.90625 
L 18.109375 0 
L 9.078125 0 
L 9.078125 54.6875 
L 18.109375 54.6875 
L 18.109375 46.1875 
Q 21.34375 51.125 25.703125 53.5625 
Q 30.078125 56 35.796875 56 
Q 45.21875 56 50.046875 50.171875 
Q 54.890625 44.34375 54.890625 33.015625 
z
" id="DejaVuSans-6e"/>
     <path d="M 45.40625 27.984375 
Q 45.40625 37.75 41.375 43.109375 
Q 37.359375 48.484375 30.078125 48.484375 
Q 22.859375 48.484375 18.828125 43.109375 
Q 14.796875 37.75 14.796875 27.984375 
Q 14.796875 18.265625 18.828125 12.890625 
Q 22.859375 7.515625 30.078125 7.515625 
Q 37.359375 7.515625 41.375 12.890625 
Q 45.40625 18.265625 45.40625 27.984375 
z
M 54.390625 6.78125 
Q 54.390625 -7.171875 48.1875 -13.984375 
Q 42 -20.796875 29.203125 -20.796875 
Q 24.46875 -20.796875 20.265625 -20.09375 
Q 16.0625 -19.390625 12.109375 -17.921875 
L 12.109375 -9.1875 
Q 16.0625 -11.328125 19.921875 -12.34375 
Q 23.78125 -13.375 27.78125 -13.375 
Q 36.625 -13.375 41.015625 -8.765625 
Q 45.40625 -4.15625 45.40625 5.171875 
L 45.40625 9.625 
Q 42.625 4.78125 38.28125 2.390625 
Q 33.9375 0 27.875 0 
Q 17.828125 0 11.671875 7.65625 
Q 5.515625 15.328125 5.515625 27.984375 
Q 5.515625 40.671875 11.671875 48.328125 
Q 17.828125 56 27.875 56 
Q 33.9375 56 38.28125 53.609375 
Q 42.625 51.21875 45.40625 46.390625 
L 45.40625 54.6875 
L 54.390625 54.6875 
z
" id="DejaVuSans-67"/>
     <path id="DejaVuSans-20"/>
     <path d="M 45.40625 46.390625 
L 45.40625 75.984375 
L 54.390625 75.984375 
L 54.390625 0 
L 45.40625 0 
L 45.40625 8.203125 
Q 42.578125 3.328125 38.25 0.953125 
Q 33.9375 -1.421875 27.875 -1.421875 
Q 17.96875 -1.421875 11.734375 6.484375 
Q 5.515625 14.40625 5.515625 27.296875 
Q 5.515625 40.1875 11.734375 48.09375 
Q 17.96875 56 27.875 56 
Q 33.9375 56 38.25 53.625 
Q 42.578125 51.265625 45.40625 46.390625 
z
M 14.796875 27.296875 
Q 14.796875 17.390625 18.875 11.75 
Q 22.953125 6.109375 30.078125 6.109375 
Q 37.203125 6.109375 41.296875 11.75 
Q 45.40625 17.390625 45.40625 27.296875 
Q 45.40625 37.203125 41.296875 42.84375 
Q 37.203125 48.484375 30.078125 48.484375 
Q 22.953125 48.484375 18.875 42.84375 
Q 14.796875 37.203125 14.796875 27.296875 
z
" id="DejaVuSans-64"/>
     <path d="M 2.984375 54.6875 
L 12.5 54.6875 
L 29.59375 8.796875 
L 46.6875 54.6875 
L 56.203125 54.6875 
L 35.6875 0 
L 23.484375 0 
z
" id="DejaVuSans-76"/>
     <path d="M 9.421875 75.984375 
L 18.40625 75.984375 
L 18.40625 0 
L 9.421875 0 
z
" id="DejaVuSans-6c"/>
     <path d="M 18.3125 70.21875 
L 18.3125 54.6875 
L 36.8125 54.6875 
L 36.8125 47.703125 
L 18.3125 47.703125 
L 18.3125 18.015625 
Q 18.3125 11.328125 20.140625 9.421875 
Q 21.96875 7.515625 27.59375 7.515625 
L 36.8125 7.515625 
L 36.8125 0 
L 27.59375 0 
Q 17.1875 0 13.234375 3.875 
Q 9.28125 7.765625 9.28125 18.015625 
L 9.28125 47.703125 
L 2.6875 47.703125 
L 2.6875 54.6875 
L 9.28125 54.6875 
L 9.28125 70.21875 
z
" id="DejaVuSans-74"/>
    </defs>
    <g transform="translate(138.718125 28.56)scale(0.12 -0.12)">
     <use xlink:href="#DejaVuSans-54"/>
     <use x="60.865234" xlink:href="#DejaVuSans-72"/>
     <use x="101.978516" xlink:href="#DejaVuSans-61"/>
     <use x="163.257812" xlink:href="#DejaVuSans-69"/>
     <use x="191.041016" xlink:href="#DejaVuSans-6e"/>
     <use x="254.419922" xlink:href="#DejaVuSans-69"/>
     <use x="282.203125" xlink:href="#DejaVuSans-6e"/>
     <use x="345.582031" xlink:href="#DejaVuSans-67"/>
     <use x="409.058594" xlink:href="#DejaVuSans-20"/>
     <use x="440.845703" xlink:href="#DejaVuSans-61"/>
     <use x="502.125" xlink:href="#DejaVuSans-6e"/>
     <use x="565.503906" xlink:href="#DejaVuSans-64"/>
     <use x="628.980469" xlink:href="#DejaVuSans-20"/>
     <use x="660.767578" xlink:href="#DejaVuSans-76"/>
     <use x="719.947266" xlink:href="#DejaVuSans-61"/>
     <use x="781.226562" xlink:href="#DejaVuSans-6c"/>
     <use x="809.009766" xlink:href="#DejaVuSans-69"/>
     <use x="836.792969" xlink:href="#DejaVuSans-64"/>
     <use x="900.269531" xlink:href="#DejaVuSans-61"/>
     <use x="961.548828" xlink:href="#DejaVuSans-74"/>
     <use x="1000.757812" xlink:href="#DejaVuSans-69"/>
     <use x="1028.541016" xlink:href="#DejaVuSans-6f"/>
     <use x="1089.722656" xlink:href="#DejaVuSans-6e"/>
     <use x="1153.101562" xlink:href="#DejaVuSans-20"/>
     <use x="1184.888672" xlink:href="#DejaVuSans-6c"/>
     <use x="1212.671875" xlink:href="#DejaVuSans-6f"/>
     <use x="1273.853516" xlink:href="#DejaVuSans-73"/>
     <use x="1325.953125" xlink:href="#DejaVuSans-73"/>
    </g>
   </g>
   <g id="legend_1">
    <g id="patch_7">
     <path d="M 277.160937 71.91625 
L 381.8 71.91625 
Q 383.8 71.91625 383.8 69.91625 
L 383.8 41.56 
Q 383.8 39.56 381.8 39.56 
L 277.160937 39.56 
Q 275.160937 39.56 275.160937 41.56 
L 275.160937 69.91625 
Q 275.160937 71.91625 277.160937 71.91625 
z
" style="fill:#ffffff;opacity:0.8;stroke:#cccccc;stroke-linejoin:miter;"/>
    </g>
    <g id="line2d_18">
     <path d="M 279.160937 47.658437 
L 299.160937 47.658437 
" style="fill:none;stroke:#0000ff;stroke-linecap:square;stroke-width:1.5;"/>
    </g>
    <g id="line2d_19">
     <g>
      <use style="fill:#ffffff;stroke:#0000ff;" x="289.160937" xlink:href="#mbeefc4af63" y="47.658437"/>
     </g>
    </g>
    <g id="text_19">
     <!-- Training loss -->
     <g transform="translate(307.160937 51.158437)scale(0.1 -0.1)">
      <use xlink:href="#DejaVuSans-54"/>
      <use x="60.865234" xlink:href="#DejaVuSans-72"/>
      <use x="101.978516" xlink:href="#DejaVuSans-61"/>
      <use x="163.257812" xlink:href="#DejaVuSans-69"/>
      <use x="191.041016" xlink:href="#DejaVuSans-6e"/>
      <use x="254.419922" xlink:href="#DejaVuSans-69"/>
      <use x="282.203125" xlink:href="#DejaVuSans-6e"/>
      <use x="345.582031" xlink:href="#DejaVuSans-67"/>
      <use x="409.058594" xlink:href="#DejaVuSans-20"/>
      <use x="440.845703" xlink:href="#DejaVuSans-6c"/>
      <use x="468.628906" xlink:href="#DejaVuSans-6f"/>
      <use x="529.810547" xlink:href="#DejaVuSans-73"/>
      <use x="581.910156" xlink:href="#DejaVuSans-73"/>
     </g>
    </g>
    <g id="line2d_20">
     <path d="M 279.160937 62.336562 
L 299.160937 62.336562 
" style="fill:none;stroke:#ff0000;stroke-linecap:square;stroke-width:1.5;"/>
    </g>
    <g id="line2d_21">
     <g>
      <use style="fill:#ffffff;stroke:#ff0000;" x="289.160937" xlink:href="#m73a0c56077" y="62.336562"/>
     </g>
    </g>
    <g id="text_20">
     <!-- Validation loss -->
     <defs>
      <path d="M 28.609375 0 
L 0.78125 72.90625 
L 11.078125 72.90625 
L 34.1875 11.53125 
L 57.328125 72.90625 
L 67.578125 72.90625 
L 39.796875 0 
z
" id="DejaVuSans-56"/>
     </defs>
     <g transform="translate(307.160937 65.836562)scale(0.1 -0.1)">
      <use xlink:href="#DejaVuSans-56"/>
      <use x="68.298828" xlink:href="#DejaVuSans-61"/>
      <use x="129.578125" xlink:href="#DejaVuSans-6c"/>
      <use x="157.361328" xlink:href="#DejaVuSans-69"/>
      <use x="185.144531" xlink:href="#DejaVuSans-64"/>
      <use x="248.621094" xlink:href="#DejaVuSans-61"/>
      <use x="309.900391" xlink:href="#DejaVuSans-74"/>
      <use x="349.109375" xlink:href="#DejaVuSans-69"/>
      <use x="376.892578" xlink:href="#DejaVuSans-6f"/>
      <use x="438.074219" xlink:href="#DejaVuSans-6e"/>
      <use x="501.453125" xlink:href="#DejaVuSans-20"/>
      <use x="533.240234" xlink:href="#DejaVuSans-6c"/>
      <use x="561.023438" xlink:href="#DejaVuSans-6f"/>
      <use x="622.205078" xlink:href="#DejaVuSans-73"/>
      <use x="674.304688" xlink:href="#DejaVuSans-73"/>
     </g>
    </g>
   </g>
  </g>
 </g>
 <defs>
  <clipPath id="pe4d437c80c">
   <rect height="217.44" width="334.8" x="54" y="34.56"/>
  </clipPath>
 </defs>
</svg>
