<?xml version="1.0" encoding="utf-8" standalone="no"?>
<!DOCTYPE svg PUBLIC "-//W3C//DTD SVG 1.1//EN"
  "http://www.w3.org/Graphics/SVG/1.1/DTD/svg11.dtd">
<!-- Created with matplotlib (http://matplotlib.org/) -->
<svg height="288pt" version="1.1" viewBox="0 0 432 288" width="432pt" xmlns="http://www.w3.org/2000/svg" xmlns:xlink="http://www.w3.org/1999/xlink">
 <defs>
  <style type="text/css">
*{stroke-linecap:butt;stroke-linejoin:round;}
  </style>
 </defs>
 <g id="figure_1">
  <g id="patch_1">
   <path d="M 0 288 
L 432 288 
L 432 0 
L 0 0 
z
" style="fill:#ffffff;"/>
  </g>
  <g id="axes_1">
   <g id="patch_2">
    <path d="M 54 252 
L 388.8 252 
L 388.8 34.56 
L 54 34.56 
z
" style="fill:#ffffff;"/>
   </g>
   <g id="matplotlib.axis_1">
    <g id="xtick_1">
     <g id="line2d_1">
      <defs>
       <path d="M 0 0 
L 0 3.5 
" id="m8a2634d97b" style="stroke:#000000;stroke-width:0.8;"/>
      </defs>
      <g>
       <use style="stroke:#000000;stroke-width:0.8;" x="69.218182" xlink:href="#m8a2634d97b" y="252"/>
      </g>
     </g>
     <g id="text_1">
      <!-- 0.0 -->
      <defs>
       <path d="M 31.78125 66.40625 
Q 24.171875 66.40625 20.328125 58.90625 
Q 16.5 51.421875 16.5 36.375 
Q 16.5 21.390625 20.328125 13.890625 
Q 24.171875 6.390625 31.78125 6.390625 
Q 39.453125 6.390625 43.28125 13.890625 
Q 47.125 21.390625 47.125 36.375 
Q 47.125 51.421875 43.28125 58.90625 
Q 39.453125 66.40625 31.78125 66.40625 
z
M 31.78125 74.21875 
Q 44.046875 74.21875 50.515625 64.515625 
Q 56.984375 54.828125 56.984375 36.375 
Q 56.984375 17.96875 50.515625 8.265625 
Q 44.046875 -1.421875 31.78125 -1.421875 
Q 19.53125 -1.421875 13.0625 8.265625 
Q 6.59375 17.96875 6.59375 36.375 
Q 6.59375 54.828125 13.0625 64.515625 
Q 19.53125 74.21875 31.78125 74.21875 
z
" id="DejaVuSans-30"/>
       <path d="M 10.6875 12.40625 
L 21 12.40625 
L 21 0 
L 10.6875 0 
z
" id="DejaVuSans-2e"/>
      </defs>
      <g transform="translate(61.266619 266.598437)scale(0.1 -0.1)">
       <use xlink:href="#DejaVuSans-30"/>
       <use x="63.623047" xlink:href="#DejaVuSans-2e"/>
       <use x="95.410156" xlink:href="#DejaVuSans-30"/>
      </g>
     </g>
    </g>
    <g id="xtick_2">
     <g id="line2d_2">
      <g>
       <use style="stroke:#000000;stroke-width:0.8;" x="130.090909" xlink:href="#m8a2634d97b" y="252"/>
      </g>
     </g>
     <g id="text_2">
      <!-- 0.2 -->
      <defs>
       <path d="M 19.1875 8.296875 
L 53.609375 8.296875 
L 53.609375 0 
L 7.328125 0 
L 7.328125 8.296875 
Q 12.9375 14.109375 22.625 23.890625 
Q 32.328125 33.6875 34.8125 36.53125 
Q 39.546875 41.84375 41.421875 45.53125 
Q 43.3125 49.21875 43.3125 52.78125 
Q 43.3125 58.59375 39.234375 62.25 
Q 35.15625 65.921875 28.609375 65.921875 
Q 23.96875 65.921875 18.8125 64.3125 
Q 13.671875 62.703125 7.8125 59.421875 
L 7.8125 69.390625 
Q 13.765625 71.78125 18.9375 73 
Q 24.125 74.21875 28.421875 74.21875 
Q 39.75 74.21875 46.484375 68.546875 
Q 53.21875 62.890625 53.21875 53.421875 
Q 53.21875 48.921875 51.53125 44.890625 
Q 49.859375 40.875 45.40625 35.40625 
Q 44.1875 33.984375 37.640625 27.21875 
Q 31.109375 20.453125 19.1875 8.296875 
z
" id="DejaVuSans-32"/>
      </defs>
      <g transform="translate(122.139347 266.598437)scale(0.1 -0.1)">
       <use xlink:href="#DejaVuSans-30"/>
       <use x="63.623047" xlink:href="#DejaVuSans-2e"/>
       <use x="95.410156" xlink:href="#DejaVuSans-32"/>
      </g>
     </g>
    </g>
    <g id="xtick_3">
     <g id="line2d_3">
      <g>
       <use style="stroke:#000000;stroke-width:0.8;" x="190.963636" xlink:href="#m8a2634d97b" y="252"/>
      </g>
     </g>
     <g id="text_3">
      <!-- 0.4 -->
      <defs>
       <path d="M 37.796875 64.3125 
L 12.890625 25.390625 
L 37.796875 25.390625 
z
M 35.203125 72.90625 
L 47.609375 72.90625 
L 47.609375 25.390625 
L 58.015625 25.390625 
L 58.015625 17.1875 
L 47.609375 17.1875 
L 47.609375 0 
L 37.796875 0 
L 37.796875 17.1875 
L 4.890625 17.1875 
L 4.890625 26.703125 
z
" id="DejaVuSans-34"/>
      </defs>
      <g transform="translate(183.012074 266.598437)scale(0.1 -0.1)">
       <use xlink:href="#DejaVuSans-30"/>
       <use x="63.623047" xlink:href="#DejaVuSans-2e"/>
       <use x="95.410156" xlink:href="#DejaVuSans-34"/>
      </g>
     </g>
    </g>
    <g id="xtick_4">
     <g id="line2d_4">
      <g>
       <use style="stroke:#000000;stroke-width:0.8;" x="251.836364" xlink:href="#m8a2634d97b" y="252"/>
      </g>
     </g>
     <g id="text_4">
      <!-- 0.6 -->
      <defs>
       <path d="M 33.015625 40.375 
Q 26.375 40.375 22.484375 35.828125 
Q 18.609375 31.296875 18.609375 23.390625 
Q 18.609375 15.53125 22.484375 10.953125 
Q 26.375 6.390625 33.015625 6.390625 
Q 39.65625 6.390625 43.53125 10.953125 
Q 47.40625 15.53125 47.40625 23.390625 
Q 47.40625 31.296875 43.53125 35.828125 
Q 39.65625 40.375 33.015625 40.375 
z
M 52.59375 71.296875 
L 52.59375 62.3125 
Q 48.875 64.0625 45.09375 64.984375 
Q 41.3125 65.921875 37.59375 65.921875 
Q 27.828125 65.921875 22.671875 59.328125 
Q 17.53125 52.734375 16.796875 39.40625 
Q 19.671875 43.65625 24.015625 45.921875 
Q 28.375 48.1875 33.59375 48.1875 
Q 44.578125 48.1875 50.953125 41.515625 
Q 57.328125 34.859375 57.328125 23.390625 
Q 57.328125 12.15625 50.6875 5.359375 
Q 44.046875 -1.421875 33.015625 -1.421875 
Q 20.359375 -1.421875 13.671875 8.265625 
Q 6.984375 17.96875 6.984375 36.375 
Q 6.984375 53.65625 15.1875 63.9375 
Q 23.390625 74.21875 37.203125 74.21875 
Q 40.921875 74.21875 44.703125 73.484375 
Q 48.484375 72.75 52.59375 71.296875 
z
" id="DejaVuSans-36"/>
      </defs>
      <g transform="translate(243.884801 266.598437)scale(0.1 -0.1)">
       <use xlink:href="#DejaVuSans-30"/>
       <use x="63.623047" xlink:href="#DejaVuSans-2e"/>
       <use x="95.410156" xlink:href="#DejaVuSans-36"/>
      </g>
     </g>
    </g>
    <g id="xtick_5">
     <g id="line2d_5">
      <g>
       <use style="stroke:#000000;stroke-width:0.8;" x="312.709091" xlink:href="#m8a2634d97b" y="252"/>
      </g>
     </g>
     <g id="text_5">
      <!-- 0.8 -->
      <defs>
       <path d="M 31.78125 34.625 
Q 24.75 34.625 20.71875 30.859375 
Q 16.703125 27.09375 16.703125 20.515625 
Q 16.703125 13.921875 20.71875 10.15625 
Q 24.75 6.390625 31.78125 6.390625 
Q 38.8125 6.390625 42.859375 10.171875 
Q 46.921875 13.96875 46.921875 20.515625 
Q 46.921875 27.09375 42.890625 30.859375 
Q 38.875 34.625 31.78125 34.625 
z
M 21.921875 38.8125 
Q 15.578125 40.375 12.03125 44.71875 
Q 8.5 49.078125 8.5 55.328125 
Q 8.5 64.0625 14.71875 69.140625 
Q 20.953125 74.21875 31.78125 74.21875 
Q 42.671875 74.21875 48.875 69.140625 
Q 55.078125 64.0625 55.078125 55.328125 
Q 55.078125 49.078125 51.53125 44.71875 
Q 48 40.375 41.703125 38.8125 
Q 48.828125 37.15625 52.796875 32.3125 
Q 56.78125 27.484375 56.78125 20.515625 
Q 56.78125 9.90625 50.3125 4.234375 
Q 43.84375 -1.421875 31.78125 -1.421875 
Q 19.734375 -1.421875 13.25 4.234375 
Q 6.78125 9.90625 6.78125 20.515625 
Q 6.78125 27.484375 10.78125 32.3125 
Q 14.796875 37.15625 21.921875 38.8125 
z
M 18.3125 54.390625 
Q 18.3125 48.734375 21.84375 45.5625 
Q 25.390625 42.390625 31.78125 42.390625 
Q 38.140625 42.390625 41.71875 45.5625 
Q 45.3125 48.734375 45.3125 54.390625 
Q 45.3125 60.0625 41.71875 63.234375 
Q 38.140625 66.40625 31.78125 66.40625 
Q 25.390625 66.40625 21.84375 63.234375 
Q 18.3125 60.0625 18.3125 54.390625 
z
" id="DejaVuSans-38"/>
      </defs>
      <g transform="translate(304.757528 266.598437)scale(0.1 -0.1)">
       <use xlink:href="#DejaVuSans-30"/>
       <use x="63.623047" xlink:href="#DejaVuSans-2e"/>
       <use x="95.410156" xlink:href="#DejaVuSans-38"/>
      </g>
     </g>
    </g>
    <g id="xtick_6">
     <g id="line2d_6">
      <g>
       <use style="stroke:#000000;stroke-width:0.8;" x="373.581818" xlink:href="#m8a2634d97b" y="252"/>
      </g>
     </g>
     <g id="text_6">
      <!-- 1.0 -->
      <defs>
       <path d="M 12.40625 8.296875 
L 28.515625 8.296875 
L 28.515625 63.921875 
L 10.984375 60.40625 
L 10.984375 69.390625 
L 28.421875 72.90625 
L 38.28125 72.90625 
L 38.28125 8.296875 
L 54.390625 8.296875 
L 54.390625 0 
L 12.40625 0 
z
" id="DejaVuSans-31"/>
      </defs>
      <g transform="translate(365.630256 266.598437)scale(0.1 -0.1)">
       <use xlink:href="#DejaVuSans-31"/>
       <use x="63.623047" xlink:href="#DejaVuSans-2e"/>
       <use x="95.410156" xlink:href="#DejaVuSans-30"/>
      </g>
     </g>
    </g>
    <g id="text_7">
     <!-- False positive rate -->
     <defs>
      <path d="M 9.8125 72.90625 
L 51.703125 72.90625 
L 51.703125 64.59375 
L 19.671875 64.59375 
L 19.671875 43.109375 
L 48.578125 43.109375 
L 48.578125 34.8125 
L 19.671875 34.8125 
L 19.671875 0 
L 9.8125 0 
z
" id="DejaVuSans-46"/>
      <path d="M 34.28125 27.484375 
Q 23.390625 27.484375 19.1875 25 
Q 14.984375 22.515625 14.984375 16.5 
Q 14.984375 11.71875 18.140625 8.90625 
Q 21.296875 6.109375 26.703125 6.109375 
Q 34.1875 6.109375 38.703125 11.40625 
Q 43.21875 16.703125 43.21875 25.484375 
L 43.21875 27.484375 
z
M 52.203125 31.203125 
L 52.203125 0 
L 43.21875 0 
L 43.21875 8.296875 
Q 40.140625 3.328125 35.546875 0.953125 
Q 30.953125 -1.421875 24.3125 -1.421875 
Q 15.921875 -1.421875 10.953125 3.296875 
Q 6 8.015625 6 15.921875 
Q 6 25.140625 12.171875 29.828125 
Q 18.359375 34.515625 30.609375 34.515625 
L 43.21875 34.515625 
L 43.21875 35.40625 
Q 43.21875 41.609375 39.140625 45 
Q 35.0625 48.390625 27.6875 48.390625 
Q 23 48.390625 18.546875 47.265625 
Q 14.109375 46.140625 10.015625 43.890625 
L 10.015625 52.203125 
Q 14.9375 54.109375 19.578125 55.046875 
Q 24.21875 56 28.609375 56 
Q 40.484375 56 46.34375 49.84375 
Q 52.203125 43.703125 52.203125 31.203125 
z
" id="DejaVuSans-61"/>
      <path d="M 9.421875 75.984375 
L 18.40625 75.984375 
L 18.40625 0 
L 9.421875 0 
z
" id="DejaVuSans-6c"/>
      <path d="M 44.28125 53.078125 
L 44.28125 44.578125 
Q 40.484375 46.53125 36.375 47.5 
Q 32.28125 48.484375 27.875 48.484375 
Q 21.1875 48.484375 17.84375 46.4375 
Q 14.5 44.390625 14.5 40.28125 
Q 14.5 37.15625 16.890625 35.375 
Q 19.28125 33.59375 26.515625 31.984375 
L 29.59375 31.296875 
Q 39.15625 29.25 43.1875 25.515625 
Q 47.21875 21.78125 47.21875 15.09375 
Q 47.21875 7.46875 41.1875 3.015625 
Q 35.15625 -1.421875 24.609375 -1.421875 
Q 20.21875 -1.421875 15.453125 -0.5625 
Q 10.6875 0.296875 5.421875 2 
L 5.421875 11.28125 
Q 10.40625 8.6875 15.234375 7.390625 
Q 20.0625 6.109375 24.8125 6.109375 
Q 31.15625 6.109375 34.5625 8.28125 
Q 37.984375 10.453125 37.984375 14.40625 
Q 37.984375 18.0625 35.515625 20.015625 
Q 33.0625 21.96875 24.703125 23.78125 
L 21.578125 24.515625 
Q 13.234375 26.265625 9.515625 29.90625 
Q 5.8125 33.546875 5.8125 39.890625 
Q 5.8125 47.609375 11.28125 51.796875 
Q 16.75 56 26.8125 56 
Q 31.78125 56 36.171875 55.265625 
Q 40.578125 54.546875 44.28125 53.078125 
z
" id="DejaVuSans-73"/>
      <path d="M 56.203125 29.59375 
L 56.203125 25.203125 
L 14.890625 25.203125 
Q 15.484375 15.921875 20.484375 11.0625 
Q 25.484375 6.203125 34.421875 6.203125 
Q 39.59375 6.203125 44.453125 7.46875 
Q 49.3125 8.734375 54.109375 11.28125 
L 54.109375 2.78125 
Q 49.265625 0.734375 44.1875 -0.34375 
Q 39.109375 -1.421875 33.890625 -1.421875 
Q 20.796875 -1.421875 13.15625 6.1875 
Q 5.515625 13.8125 5.515625 26.8125 
Q 5.515625 40.234375 12.765625 48.109375 
Q 20.015625 56 32.328125 56 
Q 43.359375 56 49.78125 48.890625 
Q 56.203125 41.796875 56.203125 29.59375 
z
M 47.21875 32.234375 
Q 47.125 39.59375 43.09375 43.984375 
Q 39.0625 48.390625 32.421875 48.390625 
Q 24.90625 48.390625 20.390625 44.140625 
Q 15.875 39.890625 15.1875 32.171875 
z
" id="DejaVuSans-65"/>
      <path id="DejaVuSans-20"/>
      <path d="M 18.109375 8.203125 
L 18.109375 -20.796875 
L 9.078125 -20.796875 
L 9.078125 54.6875 
L 18.109375 54.6875 
L 18.109375 46.390625 
Q 20.953125 51.265625 25.265625 53.625 
Q 29.59375 56 35.59375 56 
Q 45.5625 56 51.78125 48.09375 
Q 58.015625 40.1875 58.015625 27.296875 
Q 58.015625 14.40625 51.78125 6.484375 
Q 45.5625 -1.421875 35.59375 -1.421875 
Q 29.59375 -1.421875 25.265625 0.953125 
Q 20.953125 3.328125 18.109375 8.203125 
z
M 48.6875 27.296875 
Q 48.6875 37.203125 44.609375 42.84375 
Q 40.53125 48.484375 33.40625 48.484375 
Q 26.265625 48.484375 22.1875 42.84375 
Q 18.109375 37.203125 18.109375 27.296875 
Q 18.109375 17.390625 22.1875 11.75 
Q 26.265625 6.109375 33.40625 6.109375 
Q 40.53125 6.109375 44.609375 11.75 
Q 48.6875 17.390625 48.6875 27.296875 
z
" id="DejaVuSans-70"/>
      <path d="M 30.609375 48.390625 
Q 23.390625 48.390625 19.1875 42.75 
Q 14.984375 37.109375 14.984375 27.296875 
Q 14.984375 17.484375 19.15625 11.84375 
Q 23.34375 6.203125 30.609375 6.203125 
Q 37.796875 6.203125 41.984375 11.859375 
Q 46.1875 17.53125 46.1875 27.296875 
Q 46.1875 37.015625 41.984375 42.703125 
Q 37.796875 48.390625 30.609375 48.390625 
z
M 30.609375 56 
Q 42.328125 56 49.015625 48.375 
Q 55.71875 40.765625 55.71875 27.296875 
Q 55.71875 13.875 49.015625 6.21875 
Q 42.328125 -1.421875 30.609375 -1.421875 
Q 18.84375 -1.421875 12.171875 6.21875 
Q 5.515625 13.875 5.515625 27.296875 
Q 5.515625 40.765625 12.171875 48.375 
Q 18.84375 56 30.609375 56 
z
" id="DejaVuSans-6f"/>
      <path d="M 9.421875 54.6875 
L 18.40625 54.6875 
L 18.40625 0 
L 9.421875 0 
z
M 9.421875 75.984375 
L 18.40625 75.984375 
L 18.40625 64.59375 
L 9.421875 64.59375 
z
" id="DejaVuSans-69"/>
      <path d="M 18.3125 70.21875 
L 18.3125 54.6875 
L 36.8125 54.6875 
L 36.8125 47.703125 
L 18.3125 47.703125 
L 18.3125 18.015625 
Q 18.3125 11.328125 20.140625 9.421875 
Q 21.96875 7.515625 27.59375 7.515625 
L 36.8125 7.515625 
L 36.8125 0 
L 27.59375 0 
Q 17.1875 0 13.234375 3.875 
Q 9.28125 7.765625 9.28125 18.015625 
L 9.28125 47.703125 
L 2.6875 47.703125 
L 2.6875 54.6875 
L 9.28125 54.6875 
L 9.28125 70.21875 
z
" id="DejaVuSans-74"/>
      <path d="M 2.984375 54.6875 
L 12.5 54.6875 
L 29.59375 8.796875 
L 46.6875 54.6875 
L 56.203125 54.6875 
L 35.6875 0 
L 23.484375 0 
z
" id="DejaVuSans-76"/>
      <path d="M 41.109375 46.296875 
Q 39.59375 47.171875 37.8125 47.578125 
Q 36.03125 48 33.890625 48 
Q 26.265625 48 22.1875 43.046875 
Q 18.109375 38.09375 18.109375 28.8125 
L 18.109375 0 
L 9.078125 0 
L 9.078125 54.6875 
L 18.109375 54.6875 
L 18.109375 46.1875 
Q 20.953125 51.171875 25.484375 53.578125 
Q 30.03125 56 36.53125 56 
Q 37.453125 56 38.578125 55.875 
Q 39.703125 55.765625 41.0625 55.515625 
z
" id="DejaVuSans-72"/>
     </defs>
     <g transform="translate(175.45 280.276563)scale(0.1 -0.1)">
      <use xlink:href="#DejaVuSans-46"/>
      <use x="57.378906" xlink:href="#DejaVuSans-61"/>
      <use x="118.658203" xlink:href="#DejaVuSans-6c"/>
      <use x="146.441406" xlink:href="#DejaVuSans-73"/>
      <use x="198.541016" xlink:href="#DejaVuSans-65"/>
      <use x="260.064453" xlink:href="#DejaVuSans-20"/>
      <use x="291.851562" xlink:href="#DejaVuSans-70"/>
      <use x="355.328125" xlink:href="#DejaVuSans-6f"/>
      <use x="416.509766" xlink:href="#DejaVuSans-73"/>
      <use x="468.609375" xlink:href="#DejaVuSans-69"/>
      <use x="496.392578" xlink:href="#DejaVuSans-74"/>
      <use x="535.601562" xlink:href="#DejaVuSans-69"/>
      <use x="563.384766" xlink:href="#DejaVuSans-76"/>
      <use x="622.564453" xlink:href="#DejaVuSans-65"/>
      <use x="684.087891" xlink:href="#DejaVuSans-20"/>
      <use x="715.875" xlink:href="#DejaVuSans-72"/>
      <use x="756.988281" xlink:href="#DejaVuSans-61"/>
      <use x="818.267578" xlink:href="#DejaVuSans-74"/>
      <use x="857.476562" xlink:href="#DejaVuSans-65"/>
     </g>
    </g>
   </g>
   <g id="matplotlib.axis_2">
    <g id="ytick_1">
     <g id="line2d_7">
      <defs>
       <path d="M 0 0 
L -3.5 0 
" id="m2627b21cd3" style="stroke:#000000;stroke-width:0.8;"/>
      </defs>
      <g>
       <use style="stroke:#000000;stroke-width:0.8;" x="54" xlink:href="#m2627b21cd3" y="242.175441"/>
      </g>
     </g>
     <g id="text_8">
      <!-- 0.0 -->
      <g transform="translate(31.096875 245.97466)scale(0.1 -0.1)">
       <use xlink:href="#DejaVuSans-30"/>
       <use x="63.623047" xlink:href="#DejaVuSans-2e"/>
       <use x="95.410156" xlink:href="#DejaVuSans-30"/>
      </g>
     </g>
    </g>
    <g id="ytick_2">
     <g id="line2d_8">
      <g>
       <use style="stroke:#000000;stroke-width:0.8;" x="54" xlink:href="#m2627b21cd3" y="202.62908"/>
      </g>
     </g>
     <g id="text_9">
      <!-- 0.2 -->
      <g transform="translate(31.096875 206.428299)scale(0.1 -0.1)">
       <use xlink:href="#DejaVuSans-30"/>
       <use x="63.623047" xlink:href="#DejaVuSans-2e"/>
       <use x="95.410156" xlink:href="#DejaVuSans-32"/>
      </g>
     </g>
    </g>
    <g id="ytick_3">
     <g id="line2d_9">
      <g>
       <use style="stroke:#000000;stroke-width:0.8;" x="54" xlink:href="#m2627b21cd3" y="163.082719"/>
      </g>
     </g>
     <g id="text_10">
      <!-- 0.4 -->
      <g transform="translate(31.096875 166.881938)scale(0.1 -0.1)">
       <use xlink:href="#DejaVuSans-30"/>
       <use x="63.623047" xlink:href="#DejaVuSans-2e"/>
       <use x="95.410156" xlink:href="#DejaVuSans-34"/>
      </g>
     </g>
    </g>
    <g id="ytick_4">
     <g id="line2d_10">
      <g>
       <use style="stroke:#000000;stroke-width:0.8;" x="54" xlink:href="#m2627b21cd3" y="123.536358"/>
      </g>
     </g>
     <g id="text_11">
      <!-- 0.6 -->
      <g transform="translate(31.096875 127.335577)scale(0.1 -0.1)">
       <use xlink:href="#DejaVuSans-30"/>
       <use x="63.623047" xlink:href="#DejaVuSans-2e"/>
       <use x="95.410156" xlink:href="#DejaVuSans-36"/>
      </g>
     </g>
    </g>
    <g id="ytick_5">
     <g id="line2d_11">
      <g>
       <use style="stroke:#000000;stroke-width:0.8;" x="54" xlink:href="#m2627b21cd3" y="83.989997"/>
      </g>
     </g>
     <g id="text_12">
      <!-- 0.8 -->
      <g transform="translate(31.096875 87.789216)scale(0.1 -0.1)">
       <use xlink:href="#DejaVuSans-30"/>
       <use x="63.623047" xlink:href="#DejaVuSans-2e"/>
       <use x="95.410156" xlink:href="#DejaVuSans-38"/>
      </g>
     </g>
    </g>
    <g id="ytick_6">
     <g id="line2d_12">
      <g>
       <use style="stroke:#000000;stroke-width:0.8;" x="54" xlink:href="#m2627b21cd3" y="44.443636"/>
      </g>
     </g>
     <g id="text_13">
      <!-- 1.0 -->
      <g transform="translate(31.096875 48.242855)scale(0.1 -0.1)">
       <use xlink:href="#DejaVuSans-31"/>
       <use x="63.623047" xlink:href="#DejaVuSans-2e"/>
       <use x="95.410156" xlink:href="#DejaVuSans-30"/>
      </g>
     </g>
    </g>
    <g id="text_14">
     <!-- True positive rate -->
     <defs>
      <path d="M -0.296875 72.90625 
L 61.375 72.90625 
L 61.375 64.59375 
L 35.5 64.59375 
L 35.5 0 
L 25.59375 0 
L 25.59375 64.59375 
L -0.296875 64.59375 
z
" id="DejaVuSans-54"/>
      <path d="M 8.5 21.578125 
L 8.5 54.6875 
L 17.484375 54.6875 
L 17.484375 21.921875 
Q 17.484375 14.15625 20.5 10.265625 
Q 23.53125 6.390625 29.59375 6.390625 
Q 36.859375 6.390625 41.078125 11.03125 
Q 45.3125 15.671875 45.3125 23.6875 
L 45.3125 54.6875 
L 54.296875 54.6875 
L 54.296875 0 
L 45.3125 0 
L 45.3125 8.40625 
Q 42.046875 3.421875 37.71875 1 
Q 33.40625 -1.421875 27.6875 -1.421875 
Q 18.265625 -1.421875 13.375 4.4375 
Q 8.5 10.296875 8.5 21.578125 
z
M 31.109375 56 
z
" id="DejaVuSans-75"/>
     </defs>
     <g transform="translate(25.017187 187.570625)rotate(-90)scale(0.1 -0.1)">
      <use xlink:href="#DejaVuSans-54"/>
      <use x="60.865234" xlink:href="#DejaVuSans-72"/>
      <use x="101.978516" xlink:href="#DejaVuSans-75"/>
      <use x="165.357422" xlink:href="#DejaVuSans-65"/>
      <use x="226.880859" xlink:href="#DejaVuSans-20"/>
      <use x="258.667969" xlink:href="#DejaVuSans-70"/>
      <use x="322.144531" xlink:href="#DejaVuSans-6f"/>
      <use x="383.326172" xlink:href="#DejaVuSans-73"/>
      <use x="435.425781" xlink:href="#DejaVuSans-69"/>
      <use x="463.208984" xlink:href="#DejaVuSans-74"/>
      <use x="502.417969" xlink:href="#DejaVuSans-69"/>
      <use x="530.201172" xlink:href="#DejaVuSans-76"/>
      <use x="589.380859" xlink:href="#DejaVuSans-65"/>
      <use x="650.904297" xlink:href="#DejaVuSans-20"/>
      <use x="682.691406" xlink:href="#DejaVuSans-72"/>
      <use x="723.804688" xlink:href="#DejaVuSans-61"/>
      <use x="785.083984" xlink:href="#DejaVuSans-74"/>
      <use x="824.292969" xlink:href="#DejaVuSans-65"/>
     </g>
    </g>
   </g>
   <g id="line2d_13">
    <path clip-path="url(#p4af86b11b2)" d="M 69.218182 242.116364 
L 69.309678 197.572061 
L 69.355427 197.572061 
L 69.446923 190.128318 
L 69.492672 190.128318 
L 69.584168 184.57505 
L 69.629917 184.57505 
L 69.721413 180.498714 
L 69.767162 180.498714 
L 69.858658 176.008838 
L 69.904407 176.008838 
L 69.995903 171.99158 
L 70.041652 171.99158 
L 70.133148 170.042028 
L 70.178897 170.042028 
L 70.270393 168.742327 
L 70.316142 168.742327 
L 70.407638 166.083847 
L 70.499135 166.02477 
L 70.590632 164.488759 
L 70.63638 164.488759 
L 70.727877 161.83028 
L 70.773625 161.83028 
L 70.865122 161.062275 
L 70.91087 161.062275 
L 71.002367 160.766888 
L 71.048115 160.766888 
L 71.139612 159.112723 
L 71.18536 159.112723 
L 71.231108 158.108408 
L 71.368353 158.049331 
L 71.45985 157.517635 
L 71.642843 157.458558 
L 71.73434 156.395166 
L 71.780088 156.395166 
L 71.871585 154.97731 
L 71.917333 154.97731 
L 72.00883 153.382222 
L 72.054578 153.382222 
L 72.146075 151.491748 
L 72.237572 151.432671 
L 72.329068 149.542196 
L 72.374817 149.542196 
L 72.466313 148.656037 
L 72.512062 148.656037 
L 72.603558 147.888031 
L 72.649307 147.888031 
L 72.740803 147.120026 
L 72.786552 147.120026 
L 72.878048 146.470176 
L 73.10679 146.411098 
L 73.10679 146.352021 
L 73.289783 146.352021 
L 73.38128 145.643093 
L 73.427028 145.643093 
L 73.427028 145.465861 
L 73.564273 145.465861 
L 73.65577 144.107083 
L 73.701518 144.107083 
L 73.793015 143.043691 
L 74.113253 142.984613 
L 74.20475 141.74399 
L 74.250498 141.74399 
L 74.341995 141.094139 
L 74.387743 141.094139 
L 74.47924 140.503366 
L 74.524988 140.503366 
L 74.616485 140.267056 
L 74.662233 140.267056 
L 74.75373 139.735361 
L 74.936723 139.676283 
L 75.02822 139.321819 
L 75.073968 139.321819 
L 75.165465 139.026433 
L 75.256961 138.967355 
L 75.348458 138.258427 
L 75.394206 138.258427 
L 75.485703 137.903963 
L 75.5772 137.903963 
L 75.622948 137.372268 
L 75.760193 137.372268 
L 75.805941 137.135958 
L 75.897438 137.135958 
L 75.988935 136.604262 
L 76.080431 136.545185 
L 76.12618 136.013489 
L 76.217676 136.013489 
L 76.263425 135.127329 
L 76.354921 135.127329 
L 76.446418 134.89102 
L 76.583663 134.831943 
L 76.629411 134.595633 
L 76.720908 134.595633 
L 76.766656 134.241169 
L 76.903901 134.182092 
L 76.995398 134.063937 
L 77.041146 134.063937 
L 77.132643 133.709473 
L 77.269888 133.709473 
L 77.315636 133.35501 
L 77.407133 133.35501 
L 77.498629 132.350695 
L 77.544378 132.350695 
L 77.635874 131.878076 
L 77.727371 131.878076 
L 77.773119 131.110071 
L 77.864616 131.110071 
L 77.956113 130.519298 
L 78.001861 130.519298 
L 78.001861 130.164834 
L 78.184854 130.105757 
L 78.230603 129.692215 
L 78.367848 129.633138 
L 78.459344 128.92421 
L 78.596589 128.92421 
L 78.688086 128.392514 
L 78.779583 128.392514 
L 78.871079 128.03805 
L 78.962576 127.978973 
L 79.054073 127.801741 
L 79.145569 127.742664 
L 79.191318 127.329122 
L 79.282814 127.329122 
L 79.374311 126.974658 
L 79.465808 126.915581 
L 79.511556 126.679272 
L 79.648801 126.620195 
L 79.740298 126.206653 
L 79.786046 126.206653 
L 79.831794 125.911267 
L 79.969039 125.852189 
L 79.969039 125.497725 
L 80.335026 125.438648 
L 80.380774 124.788797 
L 80.472271 124.788797 
L 80.563768 124.611566 
L 80.609516 124.611566 
L 80.701013 124.020792 
L 80.838258 124.020792 
L 80.929754 123.725406 
L 80.975503 123.725406 
L 81.066999 123.134632 
L 81.249992 123.134632 
L 81.341489 122.780168 
L 81.387237 122.780168 
L 81.432986 122.484782 
L 81.570231 122.425705 
L 81.661727 122.248473 
L 81.844721 122.189395 
L 81.890469 122.071241 
L 81.981966 122.071241 
L 82.073462 121.303235 
L 82.119211 121.303235 
L 82.164959 121.007849 
L 82.256456 121.007849 
L 82.256456 120.889694 
L 82.439449 120.830617 
L 82.485197 120.712462 
L 82.668191 120.712462 
L 82.713939 120.357998 
L 82.805436 120.357998 
L 82.805436 120.121689 
L 82.942681 120.121689 
L 82.942681 120.003534 
L 83.125674 119.944457 
L 83.125674 119.88538 
L 83.354416 119.88538 
L 83.445912 119.530916 
L 83.491661 119.530916 
L 83.491661 119.412761 
L 83.628906 119.412761 
L 83.720402 118.821988 
L 83.766151 118.821988 
L 83.766151 118.703833 
L 83.903396 118.703833 
L 83.949144 118.408446 
L 84.132137 118.349369 
L 84.132137 117.994905 
L 84.269382 117.994905 
L 84.315131 117.404132 
L 84.452376 117.404132 
L 84.543872 116.34074 
L 84.681117 116.281663 
L 84.772614 115.927199 
L 84.909859 115.927199 
L 84.909859 115.45458 
L 85.047104 115.45458 
L 85.1386 115.100116 
L 85.184349 115.100116 
L 85.275845 114.863807 
L 85.367342 114.80473 
L 85.458839 114.686575 
L 85.596084 114.686575 
L 85.641832 114.509343 
L 85.779077 114.509343 
L 85.824825 114.095802 
L 86.053567 114.036724 
L 86.099315 113.623183 
L 86.190812 113.623183 
L 86.23656 113.386874 
L 86.328057 113.386874 
L 86.419554 113.209642 
L 86.556799 113.209642 
L 86.602547 112.973333 
L 86.78554 112.914255 
L 86.877037 112.796101 
L 86.968534 112.737023 
L 86.968534 112.677946 
L 87.197275 112.618869 
L 87.288772 112.323482 
L 87.426017 112.323482 
L 87.426017 111.909941 
L 87.563262 111.909941 
L 87.563262 111.791786 
L 87.8835 111.732709 
L 87.8835 111.26009 
L 88.15799 111.201013 
L 88.203739 110.964704 
L 88.295235 110.964704 
L 88.386732 110.787472 
L 88.478229 110.728394 
L 88.569725 110.551162 
L 88.615474 110.551162 
L 88.70697 109.960389 
L 88.935712 109.901312 
L 88.98146 109.665002 
L 89.347447 109.605925 
L 89.438943 109.310538 
L 89.53044 109.310538 
L 89.576188 109.015152 
L 89.80493 108.956075 
L 89.850678 108.719765 
L 89.987923 108.660688 
L 90.07942 108.365301 
L 90.170917 108.306224 
L 90.262413 108.069915 
L 90.35391 108.069915 
L 90.399658 107.833605 
L 90.6284 107.774528 
L 90.674148 107.360987 
L 90.857142 107.360987 
L 90.948638 106.770214 
L 91.085883 106.711136 
L 91.17738 106.297595 
L 91.314625 106.238518 
L 91.406122 106.002208 
L 91.45187 106.002208 
L 91.45187 105.765899 
L 91.72636 105.706822 
L 91.72636 105.647744 
L 91.863605 105.647744 
L 91.909353 105.352358 
L 92.138095 105.29328 
L 92.138095 105.234203 
L 92.366837 105.234203 
L 92.366837 105.116048 
L 92.504082 105.116048 
L 92.595578 104.879739 
L 92.732823 104.879739 
L 92.82432 104.584353 
L 92.961565 104.584353 
L 92.961565 104.407121 
L 93.144558 104.407121 
L 93.236055 103.580038 
L 93.3733 103.580038 
L 93.419048 103.225574 
L 93.602041 103.225574 
L 93.693538 102.930187 
L 93.92228 102.87111 
L 94.013776 102.516646 
L 94.19677 102.516646 
L 94.288266 102.103105 
L 94.334015 102.103105 
L 94.425511 101.689564 
L 94.517008 101.630486 
L 94.562756 101.512332 
L 94.791498 101.453254 
L 94.837246 101.3351 
L 95.02024 101.276022 
L 95.02024 100.921558 
L 95.157485 100.921558 
L 95.203233 100.685249 
L 95.386226 100.685249 
L 95.431975 100.389863 
L 95.523471 100.389863 
L 95.614968 99.917244 
L 95.797961 99.858167 
L 95.889458 99.385548 
L 95.935206 99.385548 
L 96.026703 99.031084 
L 96.072451 99.031084 
L 96.163948 98.853852 
L 96.255445 98.794775 
L 96.346941 98.617543 
L 96.39269 98.617543 
L 96.484186 98.381233 
L 96.529935 98.381233 
L 96.575683 98.144924 
L 96.66718 98.144924 
L 96.758676 97.79046 
L 97.033166 97.731383 
L 97.033166 97.613228 
L 97.216159 97.554151 
L 97.307656 97.317842 
L 97.582146 97.258764 
L 97.673643 97.022455 
L 97.810888 97.022455 
L 97.810888 96.9043 
L 97.993881 96.845223 
L 98.085378 96.372604 
L 98.222623 96.313527 
L 98.268371 96.136295 
L 98.542861 96.136295 
L 98.588609 95.899986 
L 98.817351 95.840909 
L 98.863099 95.722754 
L 98.954596 95.722754 
L 99.046093 95.427367 
L 99.091841 95.427367 
L 99.091841 95.309213 
L 99.274834 95.250135 
L 99.274834 95.072903 
L 99.412079 95.072903 
L 99.457828 94.718439 
L 99.595073 94.718439 
L 99.640821 94.48213 
L 99.869563 94.423053 
L 99.915311 94.304898 
L 100.006808 94.304898 
L 100.098304 94.127666 
L 100.189801 94.068589 
L 100.281298 93.891357 
L 100.555788 93.83228 
L 100.647284 93.418738 
L 100.738781 93.359661 
L 100.830278 93.064274 
L 100.876026 93.064274 
L 100.967523 92.827965 
L 101.059019 92.768888 
L 101.150516 92.650733 
L 101.196264 92.650733 
L 101.196264 92.414424 
L 101.333509 92.414424 
L 101.379257 92.178114 
L 101.562251 92.119037 
L 101.607999 92.000882 
L 101.882489 91.941805 
L 101.882489 91.882728 
L 102.019734 91.882728 
L 102.065482 91.705496 
L 102.477217 91.646419 
L 102.477217 91.587341 
L 102.797456 91.528264 
L 102.888952 91.410109 
L 103.026197 91.351032 
L 103.117694 90.583027 
L 103.483681 90.523949 
L 103.575177 90.28764 
L 103.895416 90.228563 
L 103.895416 90.169485 
L 104.215654 90.110408 
L 104.307151 89.874099 
L 104.581641 89.815021 
L 104.673137 89.637789 
L 105.222117 89.578712 
L 105.313614 89.460558 
L 105.496607 89.40148 
L 105.542355 89.165171 
L 105.771097 89.106094 
L 105.862594 88.75163 
L 106.091335 88.692552 
L 106.182832 88.456243 
L 106.22858 88.456243 
L 106.320077 87.924547 
L 106.457322 87.924547 
L 106.457322 87.747315 
L 106.640315 87.747315 
L 106.686064 87.451928 
L 106.77756 87.451928 
L 106.823309 87.215619 
L 106.914805 87.215619 
L 107.006302 86.97931 
L 107.372289 86.920233 
L 107.372289 86.861155 
L 107.692527 86.802078 
L 107.784024 86.683923 
L 107.921269 86.683923 
L 107.921269 86.565769 
L 108.241507 86.565769 
L 108.333004 86.152227 
L 108.378752 86.152227 
L 108.4245 85.856841 
L 108.607494 85.856841 
L 108.69899 85.679609 
L 108.790487 85.679609 
L 108.790487 85.561454 
L 109.019229 85.561454 
L 109.110725 85.20699 
L 109.430963 85.147913 
L 109.476712 84.793449 
L 110.117188 84.734372 
L 110.208685 84.498062 
L 110.34593 84.498062 
L 110.391678 84.32083 
L 110.528923 84.32083 
L 110.62042 84.084521 
L 110.986407 84.025444 
L 110.986407 83.966366 
L 111.1694 83.966366 
L 111.1694 83.730057 
L 111.672632 83.67098 
L 111.71838 83.375593 
L 111.901373 83.316516 
L 111.901373 83.139284 
L 112.130115 83.080206 
L 112.175863 82.902975 
L 112.450353 82.902975 
L 112.450353 82.78482 
L 112.907837 82.725743 
L 112.999333 82.312201 
L 113.09083 82.253124 
L 113.182326 81.839583 
L 113.548313 81.780505 
L 113.594061 81.662351 
L 113.777055 81.603273 
L 113.777055 81.544196 
L 113.960048 81.485119 
L 113.960048 81.189732 
L 114.234538 81.130655 
L 114.280286 81.0125 
L 114.371783 81.0125 
L 114.46328 80.598959 
L 114.600525 80.598959 
L 114.692021 80.12634 
L 114.783518 80.12634 
L 114.875015 79.890031 
L 115.058008 79.890031 
L 115.058008 79.771876 
L 115.28675 79.712799 
L 115.28675 79.653722 
L 115.83573 79.594644 
L 115.83573 79.535567 
L 116.247465 79.47649 
L 116.293213 79.24018 
L 116.613451 79.181103 
L 116.613451 79.062948 
L 117.025186 79.003871 
L 117.116683 78.826639 
L 117.345424 78.767562 
L 117.345424 78.59033 
L 117.665663 78.531253 
L 117.665663 78.354021 
L 117.985901 78.294943 
L 118.077398 78.117711 
L 118.168894 78.117711 
L 118.168894 77.999557 
L 118.626378 77.940479 
L 118.672126 77.822325 
L 118.763623 77.822325 
L 118.809371 77.645093 
L 118.946616 77.586015 
L 118.946616 77.467861 
L 119.175358 77.408783 
L 119.266854 77.290629 
L 119.770086 77.231551 
L 119.770086 77.113397 
L 119.907331 77.113397 
L 119.907331 76.995242 
L 120.136073 76.936165 
L 120.181821 76.758933 
L 120.364814 76.699855 
L 120.364814 76.581701 
L 120.502059 76.581701 
L 120.502059 76.463546 
L 120.868046 76.404469 
L 120.959543 76.227237 
L 121.142536 76.16816 
L 121.234032 75.872773 
L 121.279781 75.872773 
L 121.371277 75.459232 
L 121.600019 75.400154 
L 121.600019 75.341077 
L 121.920257 75.282 
L 121.920257 75.222922 
L 122.103251 75.222922 
L 122.194747 75.04569 
L 122.377741 74.986613 
L 122.377741 74.927536 
L 122.743727 74.868458 
L 122.835224 74.691226 
L 123.155462 74.632149 
L 123.246959 74.454917 
L 123.429952 74.39584 
L 123.429952 74.277685 
L 123.612946 74.218608 
L 123.612946 74.159531 
L 123.750191 74.159531 
L 123.750191 74.041376 
L 123.933184 73.982299 
L 123.933184 73.923221 
L 124.161926 73.923221 
L 124.161926 73.686912 
L 124.482164 73.627835 
L 124.482164 73.391525 
L 124.710906 73.332448 
L 124.756654 73.214293 
L 124.985396 73.155216 
L 124.985396 73.096139 
L 125.351382 73.037061 
L 125.351382 72.977984 
L 125.854614 72.918907 
L 125.854614 72.800752 
L 126.037607 72.741675 
L 126.129104 72.505365 
L 126.2206 72.505365 
L 126.312097 72.328133 
L 126.632335 72.269056 
L 126.632335 72.091824 
L 126.76958 72.091824 
L 126.815329 71.855515 
L 126.952574 71.855515 
L 126.952574 71.73736 
L 127.501554 71.678283 
L 127.501554 71.441974 
L 127.913289 71.382896 
L 127.959037 71.264742 
L 128.14203 71.264742 
L 128.14203 71.146587 
L 128.279275 71.146587 
L 128.370772 70.910278 
L 128.553765 70.8512 
L 128.553765 70.792123 
L 128.828255 70.733046 
L 128.919752 70.614891 
L 129.102745 70.555814 
L 129.102745 70.437659 
L 129.285738 70.378582 
L 129.331487 70.20135 
L 129.468732 70.20135 
L 129.560228 69.96504 
L 129.651725 69.905963 
L 129.651725 69.787809 
L 130.33795 69.728731 
L 130.33795 69.669654 
L 130.658188 69.610577 
L 130.658188 69.551499 
L 131.115672 69.492422 
L 131.115672 69.374267 
L 131.252917 69.374267 
L 131.298665 69.197035 
L 131.618903 69.137958 
L 131.618903 69.078881 
L 132.167883 69.019803 
L 132.167883 68.960726 
L 132.53387 68.901649 
L 132.579618 68.783494 
L 133.037102 68.724417 
L 133.128598 68.42903 
L 133.174347 68.42903 
L 133.265843 68.251798 
L 133.540333 68.192721 
L 133.540333 68.133643 
L 133.723326 68.074566 
L 133.723326 68.015489 
L 133.997816 67.956411 
L 134.089313 67.838257 
L 134.272306 67.779179 
L 134.272306 67.720102 
L 134.592545 67.661025 
L 134.684041 67.54287 
L 135.050028 67.483793 
L 135.050028 67.424716 
L 135.324518 67.365638 
L 135.416015 67.247484 
L 135.782001 67.188406 
L 135.782001 67.129329 
L 135.919246 67.129329 
L 135.919246 67.011174 
L 136.056491 67.011174 
L 136.056491 66.833942 
L 136.513975 66.833942 
L 136.605471 66.65671 
L 136.65122 66.65671 
L 136.65122 66.479478 
L 136.834213 66.420401 
L 136.834213 66.361324 
L 137.245948 66.302246 
L 137.291696 66.00686 
L 137.383193 66.00686 
L 137.383193 65.888705 
L 137.566186 65.829628 
L 137.657683 65.475164 
L 138.160914 65.475164 
L 138.206663 65.297932 
L 138.755643 65.238855 
L 138.755643 65.179777 
L 139.304623 65.1207 
L 139.304623 65.061623 
L 140.082344 65.002545 
L 140.173841 64.884391 
L 140.494079 64.825313 
L 140.494079 64.766236 
L 140.677073 64.766236 
L 140.677073 64.648081 
L 141.226052 64.589004 
L 141.317549 64.470849 
L 141.637787 64.411772 
L 141.729284 64.23454 
L 141.958026 64.175463 
L 141.958026 64.116385 
L 142.141019 64.116385 
L 142.186767 63.939153 
L 143.650714 63.880076 
L 143.650714 63.820999 
L 144.062449 63.761921 
L 144.062449 63.643767 
L 144.840171 63.584689 
L 144.840171 63.466535 
L 145.068912 63.466535 
L 145.160409 63.230226 
L 145.526395 63.171148 
L 145.526395 63.112071 
L 145.709389 63.052994 
L 145.800885 62.816684 
L 145.93813 62.757607 
L 146.029627 62.521298 
L 146.258369 62.46222 
L 146.349865 62.284988 
L 146.441362 62.225911 
L 146.441362 62.107756 
L 146.807349 62.048679 
L 146.898845 61.930524 
L 147.127587 61.871447 
L 147.127587 61.694215 
L 147.768064 61.694215 
L 147.813812 61.339751 
L 148.225547 61.280674 
L 148.225547 61.103442 
L 148.454289 61.044365 
L 148.545785 60.808055 
L 148.728779 60.748978 
L 148.820275 60.571746 
L 149.460752 60.512669 
L 149.460752 60.453591 
L 149.826738 60.394514 
L 149.826738 60.335437 
L 150.32997 60.276359 
L 150.421467 60.158205 
L 150.695957 60.158205 
L 150.695957 60.04005 
L 150.970447 59.980973 
L 150.970447 59.921895 
L 151.382182 59.862818 
L 151.382182 59.803741 
L 152.205652 59.744663 
L 152.297148 59.567431 
L 152.434393 59.508354 
L 152.434393 59.449277 
L 152.663135 59.390199 
L 152.708883 59.212967 
L 152.891877 59.15389 
L 152.937625 58.976658 
L 153.34936 58.917581 
L 153.34936 58.858504 
L 153.89834 58.799426 
L 153.89834 58.740349 
L 154.127081 58.681272 
L 154.127081 58.563117 
L 154.630313 58.50404 
L 154.676061 58.26773 
L 155.087796 58.208653 
L 155.179293 58.090498 
L 155.682525 58.031421 
L 155.682525 57.972344 
L 156.048511 57.913266 
L 156.048511 57.854189 
L 157.283716 57.795112 
L 157.375213 57.61788 
L 157.832696 57.558802 
L 157.832696 57.499725 
L 158.473173 57.440648 
L 158.473173 57.38157 
L 159.250894 57.322493 
L 159.250894 57.263416 
L 159.662629 57.204338 
L 159.662629 57.145261 
L 160.074364 57.086184 
L 160.165861 56.908952 
L 160.577596 56.849874 
L 160.577596 56.790797 
L 161.492562 56.73172 
L 161.538311 56.613565 
L 161.904297 56.554488 
L 161.904297 56.495411 
L 162.544774 56.436333 
L 162.636271 56.259101 
L 163.002257 56.200024 
L 163.002257 56.140947 
L 163.368244 56.140947 
L 163.459741 55.963715 
L 163.551237 55.904637 
L 163.642734 55.786483 
L 164.145966 55.727405 
L 164.145966 55.668328 
L 164.511952 55.609251 
L 164.511952 55.550173 
L 165.243926 55.491096 
L 165.243926 55.432019 
L 165.38117 55.432019 
L 165.472667 55.254787 
L 165.518415 55.254787 
L 165.518415 55.136632 
L 165.838654 55.077555 
L 165.838654 55.018477 
L 166.296137 54.9594 
L 166.296137 54.900323 
L 166.799369 54.841245 
L 166.890865 54.723091 
L 167.57709 54.664013 
L 167.57709 54.604936 
L 168.766547 54.545859 
L 168.812295 54.427704 
L 169.407023 54.368627 
L 169.407023 54.30955 
L 169.864507 54.250472 
L 169.864507 54.191395 
L 170.184745 54.132318 
L 170.276242 54.014163 
L 170.459235 53.955086 
L 170.459235 53.896008 
L 172.106175 53.836931 
L 172.106175 53.777854 
L 172.426413 53.718776 
L 172.426413 53.659699 
L 174.256346 53.600622 
L 174.256346 53.482467 
L 174.576585 53.42339 
L 174.668081 53.305235 
L 174.805326 53.305235 
L 174.805326 53.18708 
L 175.766041 53.128003 
L 175.766041 53.068926 
L 177.641723 53.009848 
L 177.687471 52.891694 
L 177.870464 52.832616 
L 177.870464 52.714462 
L 178.327948 52.655384 
L 178.327948 52.596307 
L 179.837643 52.53723 
L 179.837643 52.478152 
L 181.072848 52.419075 
L 181.072848 52.359998 
L 182.399549 52.300921 
L 182.399549 52.241843 
L 183.085774 52.182766 
L 183.131522 52.064611 
L 184.229482 52.064611 
L 184.229482 51.946457 
L 184.458224 51.946457 
L 184.458224 51.828302 
L 184.686966 51.769225 
L 184.686966 51.710147 
L 185.052952 51.65107 
L 185.052952 51.591993 
L 185.830674 51.532915 
L 185.830674 51.473838 
L 186.699892 51.414761 
L 186.791389 51.296606 
L 187.340369 51.237529 
L 187.340369 51.178451 
L 187.8436 51.119374 
L 187.889349 51.001219 
L 190.542752 50.942142 
L 190.542752 50.883065 
L 191.13748 50.823987 
L 191.13748 50.76491 
L 191.640712 50.705833 
L 191.640712 50.646755 
L 191.869453 50.646755 
L 191.869453 50.528601 
L 192.692923 50.469523 
L 192.78442 50.351369 
L 193.379148 50.292291 
L 193.470645 50.174137 
L 193.60789 50.174137 
L 193.60789 49.996905 
L 194.019625 49.937828 
L 194.019625 49.87875 
L 194.751598 49.819673 
L 194.751598 49.760596 
L 195.437823 49.760596 
L 195.437823 49.642441 
L 196.35279 49.583364 
L 196.35279 49.524286 
L 196.62728 49.524286 
L 196.62728 49.406132 
L 196.810273 49.406132 
L 196.810273 49.287977 
L 197.770988 49.2289 
L 197.816736 49.110745 
L 199.097689 49.051668 
L 199.097689 48.99259 
L 199.692418 48.933513 
L 199.692418 48.874436 
L 201.110616 48.815358 
L 201.156364 48.697204 
L 201.705344 48.638126 
L 201.705344 48.579049 
L 202.803304 48.519972 
L 202.803304 48.460894 
L 203.992761 48.401817 
L 203.992761 48.34274 
L 204.541741 48.283662 
L 204.541741 48.165508 
L 205.044972 48.10643 
L 205.044972 48.047353 
L 205.410959 47.988276 
L 205.410959 47.929199 
L 205.959939 47.870121 
L 205.959939 47.811044 
L 207.240892 47.751967 
L 207.240892 47.692889 
L 208.65909 47.633812 
L 208.704839 47.515657 
L 209.025077 47.45658 
L 209.025077 47.397503 
L 209.985792 47.338425 
L 209.985792 47.279348 
L 210.85501 47.220271 
L 210.85501 47.161193 
L 211.358242 47.102116 
L 211.449738 46.983961 
L 212.135963 46.983961 
L 212.181712 46.806729 
L 214.14889 46.747652 
L 214.240386 46.629497 
L 215.567088 46.57042 
L 215.612836 46.452265 
L 217.442769 46.393188 
L 217.442769 46.334111 
L 217.717259 46.334111 
L 217.717259 46.215956 
L 221.194133 46.215956 
L 221.194133 46.097801 
L 223.024066 46.038724 
L 223.024066 45.920569 
L 225.951959 45.861492 
L 225.951959 45.802415 
L 227.598899 45.743337 
L 227.598899 45.68426 
L 228.513865 45.625183 
L 228.513865 45.566106 
L 230.160805 45.507028 
L 230.160805 45.447951 
L 230.755533 45.388874 
L 230.755533 45.329796 
L 237.572034 45.270719 
L 237.572034 45.211642 
L 237.846524 45.152564 
L 237.846524 45.093487 
L 245.89823 45.03441 
L 245.89823 44.975332 
L 252.623235 44.916255 
L 252.623235 44.857178 
L 258.067286 44.7981 
L 258.067286 44.739023 
L 263.099602 44.679946 
L 263.099602 44.620868 
L 283.549106 44.561791 
L 283.549106 44.502714 
L 373.581818 44.443636 
L 373.581818 44.443636 
" style="fill:none;stroke:#1f77b4;stroke-linecap:square;stroke-width:1.5;"/>
   </g>
   <g id="patch_3">
    <path d="M 54 252 
L 54 34.56 
" style="fill:none;stroke:#000000;stroke-linecap:square;stroke-linejoin:miter;stroke-width:0.8;"/>
   </g>
   <g id="patch_4">
    <path d="M 388.8 252 
L 388.8 34.56 
" style="fill:none;stroke:#000000;stroke-linecap:square;stroke-linejoin:miter;stroke-width:0.8;"/>
   </g>
   <g id="patch_5">
    <path d="M 54 252 
L 388.8 252 
" style="fill:none;stroke:#000000;stroke-linecap:square;stroke-linejoin:miter;stroke-width:0.8;"/>
   </g>
   <g id="patch_6">
    <path d="M 54 34.56 
L 388.8 34.56 
" style="fill:none;stroke:#000000;stroke-linecap:square;stroke-linejoin:miter;stroke-width:0.8;"/>
   </g>
  </g>
 </g>
 <defs>
  <clipPath id="p4af86b11b2">
   <rect height="217.44" width="334.8" x="54" y="34.56"/>
  </clipPath>
 </defs>
</svg>
