<?xml version="1.0" encoding="utf-8" standalone="no"?>
<!DOCTYPE svg PUBLIC "-//W3C//DTD SVG 1.1//EN"
  "http://www.w3.org/Graphics/SVG/1.1/DTD/svg11.dtd">
<!-- Created with matplotlib (http://matplotlib.org/) -->
<svg height="288pt" version="1.1" viewBox="0 0 432 288" width="432pt" xmlns="http://www.w3.org/2000/svg" xmlns:xlink="http://www.w3.org/1999/xlink">
 <defs>
  <style type="text/css">
*{stroke-linecap:butt;stroke-linejoin:round;}
  </style>
 </defs>
 <g id="figure_1">
  <g id="patch_1">
   <path d="M 0 288 
L 432 288 
L 432 0 
L 0 0 
z
" style="fill:#ffffff;"/>
  </g>
  <g id="axes_1">
   <g id="patch_2">
    <path d="M 54 252 
L 388.8 252 
L 388.8 34.56 
L 54 34.56 
z
" style="fill:#ffffff;"/>
   </g>
   <g id="matplotlib.axis_1">
    <g id="xtick_1">
     <g id="line2d_1">
      <defs>
       <path d="M 0 0 
L 0 3.5 
" id="mc053ad1087" style="stroke:#000000;stroke-width:0.8;"/>
      </defs>
      <g>
       <use style="stroke:#000000;stroke-width:0.8;" x="69.218182" xlink:href="#mc053ad1087" y="252"/>
      </g>
     </g>
     <g id="text_1">
      <!-- 0.0 -->
      <defs>
       <path d="M 31.78125 66.40625 
Q 24.171875 66.40625 20.328125 58.90625 
Q 16.5 51.421875 16.5 36.375 
Q 16.5 21.390625 20.328125 13.890625 
Q 24.171875 6.390625 31.78125 6.390625 
Q 39.453125 6.390625 43.28125 13.890625 
Q 47.125 21.390625 47.125 36.375 
Q 47.125 51.421875 43.28125 58.90625 
Q 39.453125 66.40625 31.78125 66.40625 
z
M 31.78125 74.21875 
Q 44.046875 74.21875 50.515625 64.515625 
Q 56.984375 54.828125 56.984375 36.375 
Q 56.984375 17.96875 50.515625 8.265625 
Q 44.046875 -1.421875 31.78125 -1.421875 
Q 19.53125 -1.421875 13.0625 8.265625 
Q 6.59375 17.96875 6.59375 36.375 
Q 6.59375 54.828125 13.0625 64.515625 
Q 19.53125 74.21875 31.78125 74.21875 
z
" id="DejaVuSans-30"/>
       <path d="M 10.6875 12.40625 
L 21 12.40625 
L 21 0 
L 10.6875 0 
z
" id="DejaVuSans-2e"/>
      </defs>
      <g transform="translate(61.266619 266.598437)scale(0.1 -0.1)">
       <use xlink:href="#DejaVuSans-30"/>
       <use x="63.623047" xlink:href="#DejaVuSans-2e"/>
       <use x="95.410156" xlink:href="#DejaVuSans-30"/>
      </g>
     </g>
    </g>
    <g id="xtick_2">
     <g id="line2d_2">
      <g>
       <use style="stroke:#000000;stroke-width:0.8;" x="130.090909" xlink:href="#mc053ad1087" y="252"/>
      </g>
     </g>
     <g id="text_2">
      <!-- 0.2 -->
      <defs>
       <path d="M 19.1875 8.296875 
L 53.609375 8.296875 
L 53.609375 0 
L 7.328125 0 
L 7.328125 8.296875 
Q 12.9375 14.109375 22.625 23.890625 
Q 32.328125 33.6875 34.8125 36.53125 
Q 39.546875 41.84375 41.421875 45.53125 
Q 43.3125 49.21875 43.3125 52.78125 
Q 43.3125 58.59375 39.234375 62.25 
Q 35.15625 65.921875 28.609375 65.921875 
Q 23.96875 65.921875 18.8125 64.3125 
Q 13.671875 62.703125 7.8125 59.421875 
L 7.8125 69.390625 
Q 13.765625 71.78125 18.9375 73 
Q 24.125 74.21875 28.421875 74.21875 
Q 39.75 74.21875 46.484375 68.546875 
Q 53.21875 62.890625 53.21875 53.421875 
Q 53.21875 48.921875 51.53125 44.890625 
Q 49.859375 40.875 45.40625 35.40625 
Q 44.1875 33.984375 37.640625 27.21875 
Q 31.109375 20.453125 19.1875 8.296875 
z
" id="DejaVuSans-32"/>
      </defs>
      <g transform="translate(122.139347 266.598437)scale(0.1 -0.1)">
       <use xlink:href="#DejaVuSans-30"/>
       <use x="63.623047" xlink:href="#DejaVuSans-2e"/>
       <use x="95.410156" xlink:href="#DejaVuSans-32"/>
      </g>
     </g>
    </g>
    <g id="xtick_3">
     <g id="line2d_3">
      <g>
       <use style="stroke:#000000;stroke-width:0.8;" x="190.963636" xlink:href="#mc053ad1087" y="252"/>
      </g>
     </g>
     <g id="text_3">
      <!-- 0.4 -->
      <defs>
       <path d="M 37.796875 64.3125 
L 12.890625 25.390625 
L 37.796875 25.390625 
z
M 35.203125 72.90625 
L 47.609375 72.90625 
L 47.609375 25.390625 
L 58.015625 25.390625 
L 58.015625 17.1875 
L 47.609375 17.1875 
L 47.609375 0 
L 37.796875 0 
L 37.796875 17.1875 
L 4.890625 17.1875 
L 4.890625 26.703125 
z
" id="DejaVuSans-34"/>
      </defs>
      <g transform="translate(183.012074 266.598437)scale(0.1 -0.1)">
       <use xlink:href="#DejaVuSans-30"/>
       <use x="63.623047" xlink:href="#DejaVuSans-2e"/>
       <use x="95.410156" xlink:href="#DejaVuSans-34"/>
      </g>
     </g>
    </g>
    <g id="xtick_4">
     <g id="line2d_4">
      <g>
       <use style="stroke:#000000;stroke-width:0.8;" x="251.836364" xlink:href="#mc053ad1087" y="252"/>
      </g>
     </g>
     <g id="text_4">
      <!-- 0.6 -->
      <defs>
       <path d="M 33.015625 40.375 
Q 26.375 40.375 22.484375 35.828125 
Q 18.609375 31.296875 18.609375 23.390625 
Q 18.609375 15.53125 22.484375 10.953125 
Q 26.375 6.390625 33.015625 6.390625 
Q 39.65625 6.390625 43.53125 10.953125 
Q 47.40625 15.53125 47.40625 23.390625 
Q 47.40625 31.296875 43.53125 35.828125 
Q 39.65625 40.375 33.015625 40.375 
z
M 52.59375 71.296875 
L 52.59375 62.3125 
Q 48.875 64.0625 45.09375 64.984375 
Q 41.3125 65.921875 37.59375 65.921875 
Q 27.828125 65.921875 22.671875 59.328125 
Q 17.53125 52.734375 16.796875 39.40625 
Q 19.671875 43.65625 24.015625 45.921875 
Q 28.375 48.1875 33.59375 48.1875 
Q 44.578125 48.1875 50.953125 41.515625 
Q 57.328125 34.859375 57.328125 23.390625 
Q 57.328125 12.15625 50.6875 5.359375 
Q 44.046875 -1.421875 33.015625 -1.421875 
Q 20.359375 -1.421875 13.671875 8.265625 
Q 6.984375 17.96875 6.984375 36.375 
Q 6.984375 53.65625 15.1875 63.9375 
Q 23.390625 74.21875 37.203125 74.21875 
Q 40.921875 74.21875 44.703125 73.484375 
Q 48.484375 72.75 52.59375 71.296875 
z
" id="DejaVuSans-36"/>
      </defs>
      <g transform="translate(243.884801 266.598437)scale(0.1 -0.1)">
       <use xlink:href="#DejaVuSans-30"/>
       <use x="63.623047" xlink:href="#DejaVuSans-2e"/>
       <use x="95.410156" xlink:href="#DejaVuSans-36"/>
      </g>
     </g>
    </g>
    <g id="xtick_5">
     <g id="line2d_5">
      <g>
       <use style="stroke:#000000;stroke-width:0.8;" x="312.709091" xlink:href="#mc053ad1087" y="252"/>
      </g>
     </g>
     <g id="text_5">
      <!-- 0.8 -->
      <defs>
       <path d="M 31.78125 34.625 
Q 24.75 34.625 20.71875 30.859375 
Q 16.703125 27.09375 16.703125 20.515625 
Q 16.703125 13.921875 20.71875 10.15625 
Q 24.75 6.390625 31.78125 6.390625 
Q 38.8125 6.390625 42.859375 10.171875 
Q 46.921875 13.96875 46.921875 20.515625 
Q 46.921875 27.09375 42.890625 30.859375 
Q 38.875 34.625 31.78125 34.625 
z
M 21.921875 38.8125 
Q 15.578125 40.375 12.03125 44.71875 
Q 8.5 49.078125 8.5 55.328125 
Q 8.5 64.0625 14.71875 69.140625 
Q 20.953125 74.21875 31.78125 74.21875 
Q 42.671875 74.21875 48.875 69.140625 
Q 55.078125 64.0625 55.078125 55.328125 
Q 55.078125 49.078125 51.53125 44.71875 
Q 48 40.375 41.703125 38.8125 
Q 48.828125 37.15625 52.796875 32.3125 
Q 56.78125 27.484375 56.78125 20.515625 
Q 56.78125 9.90625 50.3125 4.234375 
Q 43.84375 -1.421875 31.78125 -1.421875 
Q 19.734375 -1.421875 13.25 4.234375 
Q 6.78125 9.90625 6.78125 20.515625 
Q 6.78125 27.484375 10.78125 32.3125 
Q 14.796875 37.15625 21.921875 38.8125 
z
M 18.3125 54.390625 
Q 18.3125 48.734375 21.84375 45.5625 
Q 25.390625 42.390625 31.78125 42.390625 
Q 38.140625 42.390625 41.71875 45.5625 
Q 45.3125 48.734375 45.3125 54.390625 
Q 45.3125 60.0625 41.71875 63.234375 
Q 38.140625 66.40625 31.78125 66.40625 
Q 25.390625 66.40625 21.84375 63.234375 
Q 18.3125 60.0625 18.3125 54.390625 
z
" id="DejaVuSans-38"/>
      </defs>
      <g transform="translate(304.757528 266.598437)scale(0.1 -0.1)">
       <use xlink:href="#DejaVuSans-30"/>
       <use x="63.623047" xlink:href="#DejaVuSans-2e"/>
       <use x="95.410156" xlink:href="#DejaVuSans-38"/>
      </g>
     </g>
    </g>
    <g id="xtick_6">
     <g id="line2d_6">
      <g>
       <use style="stroke:#000000;stroke-width:0.8;" x="373.581818" xlink:href="#mc053ad1087" y="252"/>
      </g>
     </g>
     <g id="text_6">
      <!-- 1.0 -->
      <defs>
       <path d="M 12.40625 8.296875 
L 28.515625 8.296875 
L 28.515625 63.921875 
L 10.984375 60.40625 
L 10.984375 69.390625 
L 28.421875 72.90625 
L 38.28125 72.90625 
L 38.28125 8.296875 
L 54.390625 8.296875 
L 54.390625 0 
L 12.40625 0 
z
" id="DejaVuSans-31"/>
      </defs>
      <g transform="translate(365.630256 266.598437)scale(0.1 -0.1)">
       <use xlink:href="#DejaVuSans-31"/>
       <use x="63.623047" xlink:href="#DejaVuSans-2e"/>
       <use x="95.410156" xlink:href="#DejaVuSans-30"/>
      </g>
     </g>
    </g>
    <g id="text_7">
     <!-- False positive rate -->
     <defs>
      <path d="M 9.8125 72.90625 
L 51.703125 72.90625 
L 51.703125 64.59375 
L 19.671875 64.59375 
L 19.671875 43.109375 
L 48.578125 43.109375 
L 48.578125 34.8125 
L 19.671875 34.8125 
L 19.671875 0 
L 9.8125 0 
z
" id="DejaVuSans-46"/>
      <path d="M 34.28125 27.484375 
Q 23.390625 27.484375 19.1875 25 
Q 14.984375 22.515625 14.984375 16.5 
Q 14.984375 11.71875 18.140625 8.90625 
Q 21.296875 6.109375 26.703125 6.109375 
Q 34.1875 6.109375 38.703125 11.40625 
Q 43.21875 16.703125 43.21875 25.484375 
L 43.21875 27.484375 
z
M 52.203125 31.203125 
L 52.203125 0 
L 43.21875 0 
L 43.21875 8.296875 
Q 40.140625 3.328125 35.546875 0.953125 
Q 30.953125 -1.421875 24.3125 -1.421875 
Q 15.921875 -1.421875 10.953125 3.296875 
Q 6 8.015625 6 15.921875 
Q 6 25.140625 12.171875 29.828125 
Q 18.359375 34.515625 30.609375 34.515625 
L 43.21875 34.515625 
L 43.21875 35.40625 
Q 43.21875 41.609375 39.140625 45 
Q 35.0625 48.390625 27.6875 48.390625 
Q 23 48.390625 18.546875 47.265625 
Q 14.109375 46.140625 10.015625 43.890625 
L 10.015625 52.203125 
Q 14.9375 54.109375 19.578125 55.046875 
Q 24.21875 56 28.609375 56 
Q 40.484375 56 46.34375 49.84375 
Q 52.203125 43.703125 52.203125 31.203125 
z
" id="DejaVuSans-61"/>
      <path d="M 9.421875 75.984375 
L 18.40625 75.984375 
L 18.40625 0 
L 9.421875 0 
z
" id="DejaVuSans-6c"/>
      <path d="M 44.28125 53.078125 
L 44.28125 44.578125 
Q 40.484375 46.53125 36.375 47.5 
Q 32.28125 48.484375 27.875 48.484375 
Q 21.1875 48.484375 17.84375 46.4375 
Q 14.5 44.390625 14.5 40.28125 
Q 14.5 37.15625 16.890625 35.375 
Q 19.28125 33.59375 26.515625 31.984375 
L 29.59375 31.296875 
Q 39.15625 29.25 43.1875 25.515625 
Q 47.21875 21.78125 47.21875 15.09375 
Q 47.21875 7.46875 41.1875 3.015625 
Q 35.15625 -1.421875 24.609375 -1.421875 
Q 20.21875 -1.421875 15.453125 -0.5625 
Q 10.6875 0.296875 5.421875 2 
L 5.421875 11.28125 
Q 10.40625 8.6875 15.234375 7.390625 
Q 20.0625 6.109375 24.8125 6.109375 
Q 31.15625 6.109375 34.5625 8.28125 
Q 37.984375 10.453125 37.984375 14.40625 
Q 37.984375 18.0625 35.515625 20.015625 
Q 33.0625 21.96875 24.703125 23.78125 
L 21.578125 24.515625 
Q 13.234375 26.265625 9.515625 29.90625 
Q 5.8125 33.546875 5.8125 39.890625 
Q 5.8125 47.609375 11.28125 51.796875 
Q 16.75 56 26.8125 56 
Q 31.78125 56 36.171875 55.265625 
Q 40.578125 54.546875 44.28125 53.078125 
z
" id="DejaVuSans-73"/>
      <path d="M 56.203125 29.59375 
L 56.203125 25.203125 
L 14.890625 25.203125 
Q 15.484375 15.921875 20.484375 11.0625 
Q 25.484375 6.203125 34.421875 6.203125 
Q 39.59375 6.203125 44.453125 7.46875 
Q 49.3125 8.734375 54.109375 11.28125 
L 54.109375 2.78125 
Q 49.265625 0.734375 44.1875 -0.34375 
Q 39.109375 -1.421875 33.890625 -1.421875 
Q 20.796875 -1.421875 13.15625 6.1875 
Q 5.515625 13.8125 5.515625 26.8125 
Q 5.515625 40.234375 12.765625 48.109375 
Q 20.015625 56 32.328125 56 
Q 43.359375 56 49.78125 48.890625 
Q 56.203125 41.796875 56.203125 29.59375 
z
M 47.21875 32.234375 
Q 47.125 39.59375 43.09375 43.984375 
Q 39.0625 48.390625 32.421875 48.390625 
Q 24.90625 48.390625 20.390625 44.140625 
Q 15.875 39.890625 15.1875 32.171875 
z
" id="DejaVuSans-65"/>
      <path id="DejaVuSans-20"/>
      <path d="M 18.109375 8.203125 
L 18.109375 -20.796875 
L 9.078125 -20.796875 
L 9.078125 54.6875 
L 18.109375 54.6875 
L 18.109375 46.390625 
Q 20.953125 51.265625 25.265625 53.625 
Q 29.59375 56 35.59375 56 
Q 45.5625 56 51.78125 48.09375 
Q 58.015625 40.1875 58.015625 27.296875 
Q 58.015625 14.40625 51.78125 6.484375 
Q 45.5625 -1.421875 35.59375 -1.421875 
Q 29.59375 -1.421875 25.265625 0.953125 
Q 20.953125 3.328125 18.109375 8.203125 
z
M 48.6875 27.296875 
Q 48.6875 37.203125 44.609375 42.84375 
Q 40.53125 48.484375 33.40625 48.484375 
Q 26.265625 48.484375 22.1875 42.84375 
Q 18.109375 37.203125 18.109375 27.296875 
Q 18.109375 17.390625 22.1875 11.75 
Q 26.265625 6.109375 33.40625 6.109375 
Q 40.53125 6.109375 44.609375 11.75 
Q 48.6875 17.390625 48.6875 27.296875 
z
" id="DejaVuSans-70"/>
      <path d="M 30.609375 48.390625 
Q 23.390625 48.390625 19.1875 42.75 
Q 14.984375 37.109375 14.984375 27.296875 
Q 14.984375 17.484375 19.15625 11.84375 
Q 23.34375 6.203125 30.609375 6.203125 
Q 37.796875 6.203125 41.984375 11.859375 
Q 46.1875 17.53125 46.1875 27.296875 
Q 46.1875 37.015625 41.984375 42.703125 
Q 37.796875 48.390625 30.609375 48.390625 
z
M 30.609375 56 
Q 42.328125 56 49.015625 48.375 
Q 55.71875 40.765625 55.71875 27.296875 
Q 55.71875 13.875 49.015625 6.21875 
Q 42.328125 -1.421875 30.609375 -1.421875 
Q 18.84375 -1.421875 12.171875 6.21875 
Q 5.515625 13.875 5.515625 27.296875 
Q 5.515625 40.765625 12.171875 48.375 
Q 18.84375 56 30.609375 56 
z
" id="DejaVuSans-6f"/>
      <path d="M 9.421875 54.6875 
L 18.40625 54.6875 
L 18.40625 0 
L 9.421875 0 
z
M 9.421875 75.984375 
L 18.40625 75.984375 
L 18.40625 64.59375 
L 9.421875 64.59375 
z
" id="DejaVuSans-69"/>
      <path d="M 18.3125 70.21875 
L 18.3125 54.6875 
L 36.8125 54.6875 
L 36.8125 47.703125 
L 18.3125 47.703125 
L 18.3125 18.015625 
Q 18.3125 11.328125 20.140625 9.421875 
Q 21.96875 7.515625 27.59375 7.515625 
L 36.8125 7.515625 
L 36.8125 0 
L 27.59375 0 
Q 17.1875 0 13.234375 3.875 
Q 9.28125 7.765625 9.28125 18.015625 
L 9.28125 47.703125 
L 2.6875 47.703125 
L 2.6875 54.6875 
L 9.28125 54.6875 
L 9.28125 70.21875 
z
" id="DejaVuSans-74"/>
      <path d="M 2.984375 54.6875 
L 12.5 54.6875 
L 29.59375 8.796875 
L 46.6875 54.6875 
L 56.203125 54.6875 
L 35.6875 0 
L 23.484375 0 
z
" id="DejaVuSans-76"/>
      <path d="M 41.109375 46.296875 
Q 39.59375 47.171875 37.8125 47.578125 
Q 36.03125 48 33.890625 48 
Q 26.265625 48 22.1875 43.046875 
Q 18.109375 38.09375 18.109375 28.8125 
L 18.109375 0 
L 9.078125 0 
L 9.078125 54.6875 
L 18.109375 54.6875 
L 18.109375 46.1875 
Q 20.953125 51.171875 25.484375 53.578125 
Q 30.03125 56 36.53125 56 
Q 37.453125 56 38.578125 55.875 
Q 39.703125 55.765625 41.0625 55.515625 
z
" id="DejaVuSans-72"/>
     </defs>
     <g transform="translate(175.45 280.276563)scale(0.1 -0.1)">
      <use xlink:href="#DejaVuSans-46"/>
      <use x="57.378906" xlink:href="#DejaVuSans-61"/>
      <use x="118.658203" xlink:href="#DejaVuSans-6c"/>
      <use x="146.441406" xlink:href="#DejaVuSans-73"/>
      <use x="198.541016" xlink:href="#DejaVuSans-65"/>
      <use x="260.064453" xlink:href="#DejaVuSans-20"/>
      <use x="291.851562" xlink:href="#DejaVuSans-70"/>
      <use x="355.328125" xlink:href="#DejaVuSans-6f"/>
      <use x="416.509766" xlink:href="#DejaVuSans-73"/>
      <use x="468.609375" xlink:href="#DejaVuSans-69"/>
      <use x="496.392578" xlink:href="#DejaVuSans-74"/>
      <use x="535.601562" xlink:href="#DejaVuSans-69"/>
      <use x="563.384766" xlink:href="#DejaVuSans-76"/>
      <use x="622.564453" xlink:href="#DejaVuSans-65"/>
      <use x="684.087891" xlink:href="#DejaVuSans-20"/>
      <use x="715.875" xlink:href="#DejaVuSans-72"/>
      <use x="756.988281" xlink:href="#DejaVuSans-61"/>
      <use x="818.267578" xlink:href="#DejaVuSans-74"/>
      <use x="857.476562" xlink:href="#DejaVuSans-65"/>
     </g>
    </g>
   </g>
   <g id="matplotlib.axis_2">
    <g id="ytick_1">
     <g id="line2d_7">
      <defs>
       <path d="M 0 0 
L -3.5 0 
" id="mfa006a4dad" style="stroke:#000000;stroke-width:0.8;"/>
      </defs>
      <g>
       <use style="stroke:#000000;stroke-width:0.8;" x="54" xlink:href="#mfa006a4dad" y="242.14608"/>
      </g>
     </g>
     <g id="text_8">
      <!-- 0.0 -->
      <g transform="translate(31.096875 245.945299)scale(0.1 -0.1)">
       <use xlink:href="#DejaVuSans-30"/>
       <use x="63.623047" xlink:href="#DejaVuSans-2e"/>
       <use x="95.410156" xlink:href="#DejaVuSans-30"/>
      </g>
     </g>
    </g>
    <g id="ytick_2">
     <g id="line2d_8">
      <g>
       <use style="stroke:#000000;stroke-width:0.8;" x="54" xlink:href="#mfa006a4dad" y="202.605591"/>
      </g>
     </g>
     <g id="text_9">
      <!-- 0.2 -->
      <g transform="translate(31.096875 206.40481)scale(0.1 -0.1)">
       <use xlink:href="#DejaVuSans-30"/>
       <use x="63.623047" xlink:href="#DejaVuSans-2e"/>
       <use x="95.410156" xlink:href="#DejaVuSans-32"/>
      </g>
     </g>
    </g>
    <g id="ytick_3">
     <g id="line2d_9">
      <g>
       <use style="stroke:#000000;stroke-width:0.8;" x="54" xlink:href="#mfa006a4dad" y="163.065102"/>
      </g>
     </g>
     <g id="text_10">
      <!-- 0.4 -->
      <g transform="translate(31.096875 166.864321)scale(0.1 -0.1)">
       <use xlink:href="#DejaVuSans-30"/>
       <use x="63.623047" xlink:href="#DejaVuSans-2e"/>
       <use x="95.410156" xlink:href="#DejaVuSans-34"/>
      </g>
     </g>
    </g>
    <g id="ytick_4">
     <g id="line2d_10">
      <g>
       <use style="stroke:#000000;stroke-width:0.8;" x="54" xlink:href="#mfa006a4dad" y="123.524614"/>
      </g>
     </g>
     <g id="text_11">
      <!-- 0.6 -->
      <g transform="translate(31.096875 127.323833)scale(0.1 -0.1)">
       <use xlink:href="#DejaVuSans-30"/>
       <use x="63.623047" xlink:href="#DejaVuSans-2e"/>
       <use x="95.410156" xlink:href="#DejaVuSans-36"/>
      </g>
     </g>
    </g>
    <g id="ytick_5">
     <g id="line2d_11">
      <g>
       <use style="stroke:#000000;stroke-width:0.8;" x="54" xlink:href="#mfa006a4dad" y="83.984125"/>
      </g>
     </g>
     <g id="text_12">
      <!-- 0.8 -->
      <g transform="translate(31.096875 87.783344)scale(0.1 -0.1)">
       <use xlink:href="#DejaVuSans-30"/>
       <use x="63.623047" xlink:href="#DejaVuSans-2e"/>
       <use x="95.410156" xlink:href="#DejaVuSans-38"/>
      </g>
     </g>
    </g>
    <g id="ytick_6">
     <g id="line2d_12">
      <g>
       <use style="stroke:#000000;stroke-width:0.8;" x="54" xlink:href="#mfa006a4dad" y="44.443636"/>
      </g>
     </g>
     <g id="text_13">
      <!-- 1.0 -->
      <g transform="translate(31.096875 48.242855)scale(0.1 -0.1)">
       <use xlink:href="#DejaVuSans-31"/>
       <use x="63.623047" xlink:href="#DejaVuSans-2e"/>
       <use x="95.410156" xlink:href="#DejaVuSans-30"/>
      </g>
     </g>
    </g>
    <g id="text_14">
     <!-- True positive rate -->
     <defs>
      <path d="M -0.296875 72.90625 
L 61.375 72.90625 
L 61.375 64.59375 
L 35.5 64.59375 
L 35.5 0 
L 25.59375 0 
L 25.59375 64.59375 
L -0.296875 64.59375 
z
" id="DejaVuSans-54"/>
      <path d="M 8.5 21.578125 
L 8.5 54.6875 
L 17.484375 54.6875 
L 17.484375 21.921875 
Q 17.484375 14.15625 20.5 10.265625 
Q 23.53125 6.390625 29.59375 6.390625 
Q 36.859375 6.390625 41.078125 11.03125 
Q 45.3125 15.671875 45.3125 23.6875 
L 45.3125 54.6875 
L 54.296875 54.6875 
L 54.296875 0 
L 45.3125 0 
L 45.3125 8.40625 
Q 42.046875 3.421875 37.71875 1 
Q 33.40625 -1.421875 27.6875 -1.421875 
Q 18.265625 -1.421875 13.375 4.4375 
Q 8.5 10.296875 8.5 21.578125 
z
M 31.109375 56 
z
" id="DejaVuSans-75"/>
     </defs>
     <g transform="translate(25.017187 187.570625)rotate(-90)scale(0.1 -0.1)">
      <use xlink:href="#DejaVuSans-54"/>
      <use x="60.865234" xlink:href="#DejaVuSans-72"/>
      <use x="101.978516" xlink:href="#DejaVuSans-75"/>
      <use x="165.357422" xlink:href="#DejaVuSans-65"/>
      <use x="226.880859" xlink:href="#DejaVuSans-20"/>
      <use x="258.667969" xlink:href="#DejaVuSans-70"/>
      <use x="322.144531" xlink:href="#DejaVuSans-6f"/>
      <use x="383.326172" xlink:href="#DejaVuSans-73"/>
      <use x="435.425781" xlink:href="#DejaVuSans-69"/>
      <use x="463.208984" xlink:href="#DejaVuSans-74"/>
      <use x="502.417969" xlink:href="#DejaVuSans-69"/>
      <use x="530.201172" xlink:href="#DejaVuSans-76"/>
      <use x="589.380859" xlink:href="#DejaVuSans-65"/>
      <use x="650.904297" xlink:href="#DejaVuSans-20"/>
      <use x="682.691406" xlink:href="#DejaVuSans-72"/>
      <use x="723.804688" xlink:href="#DejaVuSans-61"/>
      <use x="785.083984" xlink:href="#DejaVuSans-74"/>
      <use x="824.292969" xlink:href="#DejaVuSans-65"/>
     </g>
    </g>
   </g>
   <g id="line2d_13">
    <path clip-path="url(#p273002b31e)" d="M 69.218182 242.116364 
L 69.309118 183.664431 
L 69.400054 183.664431 
L 69.490991 170.381252 
L 69.581927 170.381252 
L 69.672863 167.112461 
L 69.763799 167.112461 
L 69.854736 163.576223 
L 69.945672 163.576223 
L 70.036608 159.207929 
L 70.127544 159.207929 
L 70.218481 153.977863 
L 70.400353 153.948146 
L 70.491289 151.868006 
L 70.582226 151.868006 
L 70.673162 149.342122 
L 70.764098 149.342122 
L 70.855034 148.71808 
L 70.945971 148.71808 
L 71.036907 147.410564 
L 71.218779 147.321415 
L 71.309716 146.251628 
L 71.400652 146.251628 
L 71.491588 144.349786 
L 71.673461 144.349786 
L 71.764397 143.161135 
L 71.946269 143.161135 
L 71.946269 140.902697 
L 72.128142 140.902697 
L 72.219078 139.951776 
L 72.310014 139.951776 
L 72.400951 139.506032 
L 72.491887 139.506032 
L 72.582823 138.64426 
L 72.764696 138.584827 
L 72.855632 137.307027 
L 73.128441 137.27731 
L 73.219377 136.772134 
L 73.401249 136.712701 
L 73.492186 136.029226 
L 73.583122 136.029226 
L 73.674058 135.375468 
L 73.764994 135.375468 
L 73.855931 135.226887 
L 73.946867 135.226887 
L 74.037803 135.018873 
L 74.128739 135.018873 
L 74.219676 134.097668 
L 74.310612 134.097668 
L 74.401548 133.265612 
L 74.583421 133.206179 
L 74.674357 132.790151 
L 74.765293 132.790151 
L 74.856229 132.64157 
L 74.947166 132.64157 
L 74.947166 132.344407 
L 75.219974 132.284975 
L 75.310911 131.720365 
L 75.401847 131.720365 
L 75.492783 130.680295 
L 75.583719 130.680295 
L 75.674656 130.204835 
L 75.947464 130.115686 
L 76.038401 129.194481 
L 76.129337 129.194481 
L 76.220273 128.808169 
L 76.402146 128.71902 
L 76.493082 127.946397 
L 76.674955 127.857248 
L 76.674955 127.322355 
L 76.856827 127.322355 
L 76.856827 127.20349 
L 77.0387 127.20349 
L 77.129636 126.668597 
L 77.220572 126.668597 
L 77.220572 126.430866 
L 77.402445 126.430866 
L 77.493381 125.92569 
L 77.584317 125.92569 
L 77.675253 125.420513 
L 77.76619 125.420513 
L 77.76619 125.242215 
L 78.129935 125.153066 
L 78.220871 125.063917 
L 78.311807 125.063917 
L 78.402743 124.647889 
L 78.49368 124.647889 
L 78.584616 124.112996 
L 78.766488 124.112996 
L 78.857425 123.84555 
L 78.948361 123.84555 
L 79.039297 123.340373 
L 79.22117 123.251224 
L 79.312106 121.527679 
L 79.493978 121.497963 
L 79.584915 121.171084 
L 79.675851 121.171084 
L 79.766787 120.814489 
L 79.94866 120.755056 
L 80.039596 120.190447 
L 80.130532 120.190447 
L 80.221468 119.68527 
L 80.403341 119.625837 
L 80.494277 119.388107 
L 80.767086 119.298958 
L 80.767086 119.150377 
L 80.948958 119.150377 
L 81.039895 118.40747 
L 81.130831 118.40747 
L 81.221767 117.961725 
L 81.312703 117.961725 
L 81.40364 117.099953 
L 81.494576 117.099953 
L 81.585512 116.297613 
L 81.676448 116.297613 
L 81.767385 115.316976 
L 81.949257 115.257543 
L 81.949257 115.019813 
L 82.222066 114.990097 
L 82.313002 114.871232 
L 82.403938 114.871232 
L 82.403938 114.782083 
L 82.494875 113.652864 
L 82.676747 113.563715 
L 82.676747 113.028822 
L 82.949556 112.939673 
L 83.040492 112.820808 
L 83.131428 112.820808 
L 83.131428 112.672227 
L 83.313301 112.672227 
L 83.404237 111.483575 
L 83.58611 111.394426 
L 83.677046 111.097263 
L 83.767982 111.097263 
L 83.858918 110.176059 
L 84.040791 110.08691 
L 84.131727 109.938328 
L 84.222663 109.938328 
L 84.3136 109.760031 
L 84.404536 109.760031 
L 84.495472 109.254854 
L 84.586408 109.254854 
L 84.677345 109.106272 
L 84.768281 109.106272 
L 84.859217 108.333649 
L 84.950153 108.333649 
L 85.04109 107.887905 
L 85.222962 107.828472 
L 85.313898 107.501593 
L 85.404835 107.501593 
L 85.495771 107.20443 
L 85.586707 107.20443 
L 85.677643 106.996416 
L 86.132325 106.907267 
L 86.223261 106.788402 
L 86.314197 106.788402 
L 86.405133 106.194076 
L 86.587006 106.104928 
L 86.677942 105.778048 
L 86.950751 105.6889 
L 87.041687 105.599751 
L 87.22356 105.599751 
L 87.314496 105.213439 
L 87.496369 105.12429 
L 87.587305 105.064858 
L 87.769177 105.005425 
L 87.860114 104.500248 
L 88.041986 104.411099 
L 88.132922 104.203085 
L 88.223859 104.203085 
L 88.314795 103.579043 
L 88.587604 103.519611 
L 88.67854 103.430462 
L 88.769476 103.430462 
L 88.860412 103.073867 
L 88.951349 103.073867 
L 89.042285 102.628122 
L 89.133221 102.628122 
L 89.224157 102.182378 
L 89.315094 102.182378 
L 89.40603 101.76635 
L 89.587902 101.706917 
L 89.587902 101.647485 
L 89.769775 101.647485 
L 89.860711 100.845145 
L 89.951647 100.845145 
L 90.042584 100.607415 
L 90.224456 100.577699 
L 90.315392 100.221103 
L 90.497265 100.191387 
L 90.497265 99.953657 
L 90.86101 99.92394 
L 90.951946 99.597061 
L 91.224755 99.567345 
L 91.315691 99.329615 
L 91.406627 99.329615 
L 91.497564 98.973019 
L 91.5885 98.973019 
L 91.5885 98.824438 
L 91.952245 98.765005 
L 92.043181 98.64614 
L 92.31599 98.616424 
L 92.406926 98.438126 
L 92.770671 98.348977 
L 92.861607 97.814084 
L 93.04348 97.754652 
L 93.134416 97.457489 
L 93.407225 97.36834 
L 93.498161 97.13061 
L 93.589097 97.13061 
L 93.680034 96.80373 
L 93.861906 96.714582 
L 93.952842 96.239121 
L 94.134715 96.149972 
L 94.225651 96.09054 
L 94.407524 96.031107 
L 94.49846 95.941958 
L 94.862205 95.852809 
L 94.862205 95.76366 
L 95.135014 95.76366 
L 95.22595 95.496214 
L 95.771567 95.466498 
L 95.771567 95.05047 
L 96.044376 95.05047 
L 96.135312 94.901888 
L 96.317185 94.842456 
L 96.408121 94.604725 
L 96.862803 94.515576 
L 96.953739 94.366995 
L 97.40842 94.277846 
L 97.499356 94.188697 
L 97.954038 94.099548 
L 98.044974 93.921251 
L 98.13591 93.921251 
L 98.226846 93.742953 
L 98.499655 93.713237 
L 98.499655 93.564655 
L 98.772464 93.534939 
L 98.772464 93.059478 
L 98.954336 93.059478 
L 99.045273 92.792032 
L 99.136209 92.792032 
L 99.227145 91.841111 
L 99.499954 91.811395 
L 99.59089 91.573664 
L 99.954635 91.484515 
L 100.045571 91.276501 
L 100.227444 91.217069 
L 100.31838 90.860473 
L 100.500253 90.860473 
L 100.591189 90.711892 
L 100.682125 90.711892 
L 100.773061 90.474162 
L 100.954934 90.414729 
L 101.04587 89.760971 
L 101.136806 89.760971 
L 101.227743 89.374659 
L 101.318679 89.374659 
L 101.409615 89.226078 
L 101.591488 89.226078 
L 101.591488 88.899199 
L 102.228041 88.81005 
L 102.228041 88.720901 
L 102.864595 88.631752 
L 102.955531 88.364305 
L 103.137404 88.334589 
L 103.137404 88.24544 
L 103.683021 88.156291 
L 103.683021 87.859129 
L 104.137703 87.76998 
L 104.228639 87.561966 
L 104.319575 87.561966 
L 104.410511 87.383668 
L 104.592384 87.294519 
L 104.68332 87.116222 
L 104.774256 87.116222 
L 104.865193 86.908208 
L 105.047065 86.819059 
L 105.138001 86.640761 
L 105.319874 86.581328 
L 105.41081 86.49218 
L 105.501746 86.49218 
L 105.592683 86.313882 
L 105.774555 86.224733 
L 105.865491 86.046435 
L 106.229236 85.957286 
L 106.229236 85.92757 
L 106.683918 85.868138 
L 106.774854 85.570975 
L 106.956727 85.481826 
L 107.047663 85.065798 
L 107.229535 84.976649 
L 107.320472 84.768635 
L 107.59328 84.738919 
L 107.59328 84.64977 
L 107.866089 84.590337 
L 107.957025 84.322891 
L 108.047962 84.322891 
L 108.138898 83.966295 
L 108.229834 83.966295 
L 108.229834 83.698849 
L 108.684515 83.6097 
L 108.684515 83.579984 
L 108.957324 83.490835 
L 108.957324 83.461118 
L 109.230133 83.431402 
L 109.230133 83.342253 
L 109.502942 83.253104 
L 109.593878 83.163956 
L 109.77575 83.104523 
L 109.866687 82.926225 
L 110.048559 82.866793 
L 110.048559 82.80736 
L 110.50324 82.718211 
L 110.594177 82.56963 
L 110.776049 82.539914 
L 110.776049 82.302183 
L 111.139794 82.302183 
L 111.23073 81.945588 
L 111.503539 81.856439 
L 111.503539 81.826723 
L 112.049157 81.737574 
L 112.140093 81.52956 
L 112.412902 81.470127 
L 112.503838 81.380979 
L 112.867583 81.321546 
L 112.867583 81.232397 
L 113.049455 81.232397 
L 113.140392 80.905518 
L 113.231328 80.905518 
L 113.322264 80.667788 
L 113.504137 80.608355 
L 113.595073 80.48949 
L 113.776945 80.430057 
L 113.776945 80.340909 
L 114.231627 80.25176 
L 114.231627 80.132895 
L 114.595372 80.132895 
L 114.686308 79.954597 
L 114.959117 79.865448 
L 115.050053 79.746583 
L 115.322862 79.657434 
L 115.413798 79.538569 
L 115.686607 79.479136 
L 115.777543 79.271122 
L 116.050352 79.21169 
L 116.141288 78.973959 
L 116.32316 78.914527 
L 116.414097 78.795662 
L 116.595969 78.795662 
L 116.686906 78.64708 
L 116.777842 78.64708 
L 116.868778 78.379634 
L 117.141587 78.290485 
L 117.141587 78.260769 
L 118.050949 78.17162 
L 118.141886 78.052755 
L 118.414694 77.993322 
L 118.505631 77.755592 
L 118.869376 77.666443 
L 118.960312 77.547578 
L 119.324057 77.488145 
L 119.324057 77.36928 
L 119.687802 77.280131 
L 119.778738 76.953252 
L 120.051547 76.864103 
L 120.051547 76.745238 
L 120.415292 76.656089 
L 120.415292 76.626373 
L 120.779037 76.537224 
L 120.869973 76.240061 
L 121.233718 76.180629 
L 121.324654 76.09148 
L 121.415591 76.09148 
L 121.415591 75.913182 
L 121.779336 75.85375 
L 121.779336 75.705168 
L 122.143081 75.675452 
L 122.143081 75.556587 
L 122.506826 75.467438 
L 122.506826 75.229708 
L 122.779634 75.140559 
L 122.870571 74.991977 
L 123.143379 74.991977 
L 123.234316 74.724531 
L 123.416188 74.665098 
L 123.507124 74.338219 
L 123.598061 74.338219 
L 123.598061 74.219354 
L 123.779933 74.219354 
L 123.779933 74.100489 
L 124.143678 74.041056 
L 124.143678 73.981624 
L 124.871168 73.922191 
L 124.871168 73.833042 
L 125.507722 73.77361 
L 125.598658 73.684461 
L 125.780531 73.625028 
L 125.780531 73.506163 
L 126.326148 73.476447 
L 126.417084 73.327865 
L 126.689893 73.238716 
L 126.78083 73.000986 
L 127.50832 72.911837 
L 127.50832 72.882121 
L 128.23581 72.792972 
L 128.23581 72.525526 
L 128.417682 72.525526 
L 128.417682 72.347228 
L 128.781427 72.287795 
L 128.781427 72.16893 
L 129.145172 72.139214 
L 129.236108 72.020349 
L 129.69079 71.960916 
L 129.69079 71.69347 
L 130.054535 71.69347 
L 130.145471 71.426023 
L 130.327343 71.336874 
L 130.41828 71.277442 
L 130.691088 71.188293 
L 130.691088 71.158577 
L 131.14577 71.069428 
L 131.236706 70.950563 
L 131.327642 70.950563 
L 131.327642 70.593967 
L 131.87326 70.564251 
L 131.964196 70.356237 
L 132.509813 70.296804 
L 132.509813 70.148223 
L 132.782622 70.08879 
L 132.782622 70.029358 
L 132.964495 70.029358 
L 132.964495 69.910493 
L 133.510112 69.85106 
L 133.510112 69.791627 
L 134.05573 69.791627 
L 134.05573 69.583613 
L 134.328538 69.494465 
L 134.419475 69.316167 
L 134.601347 69.227018 
L 134.692283 68.989288 
L 135.056028 68.929855 
L 135.146965 68.840706 
L 135.874455 68.751557 
L 135.874455 68.632692 
L 136.511009 68.543543 
L 136.511009 68.513827 
L 137.238499 68.424678 
L 137.329435 68.276097 
L 137.965989 68.186948 
L 138.056925 68.038367 
L 138.511606 67.978934 
L 138.602542 67.830353 
L 138.693479 67.830353 
L 138.784415 67.473757 
L 139.057224 67.414325 
L 139.14816 67.236027 
L 139.602841 67.146878 
L 139.693777 66.938864 
L 139.784714 66.938864 
L 139.784714 66.760566 
L 140.148459 66.701134 
L 140.239395 66.463403 
L 141.421566 66.403971 
L 141.512502 66.314822 
L 141.694375 66.255389 
L 141.785311 66.047375 
L 141.876247 66.047375 
L 141.967184 65.779929 
L 142.239992 65.750213 
L 142.330929 65.571915 
L 142.512801 65.482766 
L 142.603737 65.393617 
L 143.058419 65.304468 
L 143.058419 65.21532 
L 143.604036 65.126171 
L 143.694972 65.066738 
L 144.422462 64.977589 
L 144.513399 64.88844 
L 145.240889 64.799292 
L 145.331825 64.620994 
L 145.69557 64.531845 
L 145.786506 64.442696 
L 146.150251 64.353547 
L 146.241187 64.204966 
L 146.604933 64.17525 
L 146.604933 64.086101 
L 147.15055 64.056384 
L 147.15055 63.967236 
L 147.514295 63.937519 
L 147.514295 63.84837 
L 148.150849 63.759222 
L 148.241785 63.670073 
L 148.423658 63.580924 
L 148.423658 63.521491 
L 148.787403 63.491775 
L 148.787403 63.313477 
L 149.151148 63.224328 
L 149.151148 63.194612 
L 149.969574 63.105463 
L 149.969574 63.016314 
L 150.333319 62.927166 
L 150.424255 62.867733 
L 150.606128 62.838017 
L 150.606128 62.689435 
L 151.060809 62.600286 
L 151.060809 62.511138 
L 151.242681 62.511138 
L 151.333618 62.33284 
L 151.879235 62.273407 
L 151.879235 62.213975 
L 152.424853 62.154542 
L 152.424853 62.09511 
L 152.879534 62.005961 
L 152.97047 61.946528 
L 153.425151 61.857379 
L 153.425151 61.797947 
L 154.516386 61.708798 
L 154.607323 61.589933 
L 155.334813 61.5305 
L 155.425749 61.441351 
L 155.789494 61.441351 
L 155.789494 61.322486 
L 156.153239 61.29277 
L 156.153239 61.203621 
L 156.789793 61.144188 
L 156.880729 61.05504 
L 157.062602 60.995607 
L 157.153538 60.876742 
L 157.790092 60.817309 
L 157.790092 60.757877 
L 158.608518 60.668728 
L 158.608518 60.549863 
L 159.154135 60.49043 
L 159.245072 60.341849 
L 159.699753 60.282416 
L 159.790689 60.133835 
L 160.609115 60.044686 
L 160.609115 60.01497 
L 161.518478 59.985253 
L 161.518478 59.866388 
L 161.973159 59.777239 
L 162.064095 59.717807 
L 162.336904 59.628658 
L 162.42784 59.569225 
L 162.791585 59.480077 
L 162.882522 59.301779 
L 162.973458 59.301779 
L 162.973458 59.182914 
L 163.428139 59.153197 
L 163.519075 59.004616 
L 163.610012 59.004616 
L 163.610012 58.885751 
L 164.337502 58.796602 
L 164.428438 58.707453 
L 165.064992 58.648021 
L 165.155928 58.558872 
L 166.06529 58.499439 
L 166.06529 58.380574 
L 166.792781 58.321141 
L 166.883717 58.17256 
L 167.247462 58.113127 
L 167.247462 58.053695 
L 167.974952 57.994262 
L 168.065888 57.905113 
L 168.520569 57.815965 
L 168.611506 57.667383 
L 169.157123 57.578234 
L 169.157123 57.518802 
L 169.520868 57.518802 
L 169.611804 57.281071 
L 170.066486 57.191923 
L 170.066486 57.102774 
L 171.066784 57.013625 
L 171.066784 56.954192 
L 171.430529 56.89476 
L 171.430529 56.835327 
L 171.976147 56.746178 
L 172.067083 56.567881 
L 172.794573 56.567881 
L 172.885509 56.359867 
L 173.703936 56.270718 
L 173.794872 56.151853 
L 174.249553 56.062704 
L 174.340489 55.943839 
L 174.613298 55.85469 
L 174.704234 55.735825 
L 175.067979 55.706108 
L 175.158916 55.557527 
L 175.704533 55.468378 
L 175.795469 55.379229 
L 176.432023 55.319797 
L 176.52296 55.200932 
L 177.159513 55.111783 
L 177.159513 55.082066 
L 177.432322 54.992918 
L 177.523258 54.903769 
L 177.97794 54.81462 
L 177.97794 54.784904 
L 178.523557 54.725471 
L 178.523557 54.636322 
L 179.341983 54.547173 
L 179.341983 54.487741 
L 180.069473 54.398592 
L 180.069473 54.368876 
L 181.524453 54.339159 
L 181.524453 54.25001 
L 182.433816 54.220294 
L 182.433816 54.131145 
L 183.07037 54.101429 
L 183.07037 54.01228 
L 183.525051 53.982564 
L 183.525051 53.893415 
L 184.616286 53.804266 
L 184.616286 53.715117 
L 185.343776 53.625968 
L 185.434712 53.447671 
L 185.707521 53.358522 
L 185.707521 53.269373 
L 186.616884 53.180224 
L 186.70782 53.031643 
L 186.889692 53.001926 
L 186.889692 52.912778 
L 187.526246 52.823629 
L 187.526246 52.793912 
L 188.708417 52.73448 
L 188.799354 52.645331 
L 188.981226 52.556182 
L 189.072162 52.467033 
L 189.435907 52.377884 
L 189.435907 52.348168 
L 190.34527 52.259019 
L 190.34527 52.140154 
L 191.436505 52.051005 
L 191.436505 51.991573 
L 192.073059 51.902424 
L 192.073059 51.872708 
L 192.709612 51.813275 
L 192.709612 51.753842 
L 193.891784 51.664694 
L 193.98272 51.426963 
L 194.801146 51.337814 
L 194.801146 51.308098 
L 195.710509 51.218949 
L 195.801445 51.1298 
L 196.347062 51.040652 
L 196.347062 50.981219 
L 197.438298 50.89207 
L 197.529234 50.832638 
L 197.892979 50.743489 
L 197.892979 50.713772 
L 198.438596 50.65434 
L 198.529533 50.565191 
L 199.257023 50.535475 
L 199.257023 50.446326 
L 200.439194 50.357177 
L 200.53013 50.268028 
L 201.166684 50.238312 
L 201.166684 50.149163 
L 202.621664 50.060014 
L 202.621664 50.000582 
L 204.076644 49.911433 
L 204.076644 49.881717 
L 205.531624 49.792568 
L 205.531624 49.762851 
L 206.622859 49.673703 
L 206.713795 49.554837 
L 207.259413 49.495405 
L 207.350349 49.406256 
L 207.986903 49.317107 
L 208.077839 49.227958 
L 208.53252 49.138809 
L 208.623457 49.079377 
L 210.169373 48.990228 
L 210.169373 48.930795 
L 211.351544 48.841647 
L 211.351544 48.81193 
L 211.988098 48.722781 
L 211.988098 48.693065 
L 212.533715 48.603916 
L 212.533715 48.5742 
L 213.443078 48.514767 
L 213.443078 48.455335 
L 214.716185 48.366186 
L 214.807122 48.306753 
L 215.443675 48.217605 
L 215.443675 48.187888 
L 215.898357 48.098739 
L 215.898357 48.039307 
L 216.898656 47.950158 
L 216.898656 47.890725 
L 217.989891 47.801577 
L 217.989891 47.77186 
L 219.081126 47.682711 
L 219.081126 47.652995 
L 220.899851 47.623279 
L 220.990787 47.415265 
L 223.718874 47.326116 
L 223.718874 47.2964 
L 224.719173 47.266683 
L 224.719173 47.177535 
L 226.083217 47.088386 
L 226.174153 46.910088 
L 227.083516 46.820939 
L 227.083516 46.761507 
L 228.44756 46.672358 
L 228.44756 46.642641 
L 229.720667 46.553493 
L 229.720667 46.523776 
L 233.267181 46.434627 
L 233.267181 46.404911 
L 236.268077 46.315762 
L 236.268077 46.286046 
L 239.35991 46.196897 
L 239.35991 46.167181 
L 242.087997 46.078032 
L 242.087997 46.048316 
L 243.270169 45.988883 
L 243.361105 45.870018 
L 244.179531 45.810585 
L 244.179531 45.751153 
L 247.271364 45.662004 
L 247.271364 45.632288 
L 248.726344 45.543139 
L 248.726344 45.513423 
L 250.908814 45.424274 
L 250.908814 45.394557 
L 255.910308 45.305409 
L 255.910308 45.275692 
L 258.27465 45.186543 
L 258.27465 45.156827 
L 262.548654 45.067678 
L 262.548654 45.037962 
L 266.549849 44.948813 
L 266.549849 44.919097 
L 273.915686 44.829948 
L 273.915686 44.800232 
L 284.918972 44.711083 
L 284.918972 44.681367 
L 302.378733 44.592218 
L 302.378733 44.562502 
L 338.571361 44.473353 
L 338.571361 44.443636 
L 373.581818 44.443636 
L 373.581818 44.443636 
" style="fill:none;stroke:#1f77b4;stroke-linecap:square;stroke-width:1.5;"/>
   </g>
   <g id="patch_3">
    <path d="M 54 252 
L 54 34.56 
" style="fill:none;stroke:#000000;stroke-linecap:square;stroke-linejoin:miter;stroke-width:0.8;"/>
   </g>
   <g id="patch_4">
    <path d="M 388.8 252 
L 388.8 34.56 
" style="fill:none;stroke:#000000;stroke-linecap:square;stroke-linejoin:miter;stroke-width:0.8;"/>
   </g>
   <g id="patch_5">
    <path d="M 54 252 
L 388.8 252 
" style="fill:none;stroke:#000000;stroke-linecap:square;stroke-linejoin:miter;stroke-width:0.8;"/>
   </g>
   <g id="patch_6">
    <path d="M 54 34.56 
L 388.8 34.56 
" style="fill:none;stroke:#000000;stroke-linecap:square;stroke-linejoin:miter;stroke-width:0.8;"/>
   </g>
  </g>
 </g>
 <defs>
  <clipPath id="p273002b31e">
   <rect height="217.44" width="334.8" x="54" y="34.56"/>
  </clipPath>
 </defs>
</svg>
