<?xml version="1.0" encoding="utf-8" standalone="no"?>
<!DOCTYPE svg PUBLIC "-//W3C//DTD SVG 1.1//EN"
  "http://www.w3.org/Graphics/SVG/1.1/DTD/svg11.dtd">
<!-- Created with matplotlib (http://matplotlib.org/) -->
<svg height="288pt" version="1.1" viewBox="0 0 432 288" width="432pt" xmlns="http://www.w3.org/2000/svg" xmlns:xlink="http://www.w3.org/1999/xlink">
 <defs>
  <style type="text/css">
*{stroke-linecap:butt;stroke-linejoin:round;}
  </style>
 </defs>
 <g id="figure_1">
  <g id="patch_1">
   <path d="M 0 288 
L 432 288 
L 432 0 
L 0 0 
z
" style="fill:#ffffff;"/>
  </g>
  <g id="axes_1">
   <g id="patch_2">
    <path d="M 54 252 
L 388.8 252 
L 388.8 34.56 
L 54 34.56 
z
" style="fill:#ffffff;"/>
   </g>
   <g id="matplotlib.axis_1">
    <g id="xtick_1">
     <g id="line2d_1">
      <defs>
       <path d="M 0 0 
L 0 3.5 
" id="ma78518df3c" style="stroke:#000000;stroke-width:0.8;"/>
      </defs>
      <g>
       <use style="stroke:#000000;stroke-width:0.8;" x="69.218182" xlink:href="#ma78518df3c" y="252"/>
      </g>
     </g>
     <g id="text_1">
      <!-- 0.0 -->
      <defs>
       <path d="M 31.78125 66.40625 
Q 24.171875 66.40625 20.328125 58.90625 
Q 16.5 51.421875 16.5 36.375 
Q 16.5 21.390625 20.328125 13.890625 
Q 24.171875 6.390625 31.78125 6.390625 
Q 39.453125 6.390625 43.28125 13.890625 
Q 47.125 21.390625 47.125 36.375 
Q 47.125 51.421875 43.28125 58.90625 
Q 39.453125 66.40625 31.78125 66.40625 
z
M 31.78125 74.21875 
Q 44.046875 74.21875 50.515625 64.515625 
Q 56.984375 54.828125 56.984375 36.375 
Q 56.984375 17.96875 50.515625 8.265625 
Q 44.046875 -1.421875 31.78125 -1.421875 
Q 19.53125 -1.421875 13.0625 8.265625 
Q 6.59375 17.96875 6.59375 36.375 
Q 6.59375 54.828125 13.0625 64.515625 
Q 19.53125 74.21875 31.78125 74.21875 
z
" id="DejaVuSans-30"/>
       <path d="M 10.6875 12.40625 
L 21 12.40625 
L 21 0 
L 10.6875 0 
z
" id="DejaVuSans-2e"/>
      </defs>
      <g transform="translate(61.266619 266.598437)scale(0.1 -0.1)">
       <use xlink:href="#DejaVuSans-30"/>
       <use x="63.623047" xlink:href="#DejaVuSans-2e"/>
       <use x="95.410156" xlink:href="#DejaVuSans-30"/>
      </g>
     </g>
    </g>
    <g id="xtick_2">
     <g id="line2d_2">
      <g>
       <use style="stroke:#000000;stroke-width:0.8;" x="130.090909" xlink:href="#ma78518df3c" y="252"/>
      </g>
     </g>
     <g id="text_2">
      <!-- 0.2 -->
      <defs>
       <path d="M 19.1875 8.296875 
L 53.609375 8.296875 
L 53.609375 0 
L 7.328125 0 
L 7.328125 8.296875 
Q 12.9375 14.109375 22.625 23.890625 
Q 32.328125 33.6875 34.8125 36.53125 
Q 39.546875 41.84375 41.421875 45.53125 
Q 43.3125 49.21875 43.3125 52.78125 
Q 43.3125 58.59375 39.234375 62.25 
Q 35.15625 65.921875 28.609375 65.921875 
Q 23.96875 65.921875 18.8125 64.3125 
Q 13.671875 62.703125 7.8125 59.421875 
L 7.8125 69.390625 
Q 13.765625 71.78125 18.9375 73 
Q 24.125 74.21875 28.421875 74.21875 
Q 39.75 74.21875 46.484375 68.546875 
Q 53.21875 62.890625 53.21875 53.421875 
Q 53.21875 48.921875 51.53125 44.890625 
Q 49.859375 40.875 45.40625 35.40625 
Q 44.1875 33.984375 37.640625 27.21875 
Q 31.109375 20.453125 19.1875 8.296875 
z
" id="DejaVuSans-32"/>
      </defs>
      <g transform="translate(122.139347 266.598437)scale(0.1 -0.1)">
       <use xlink:href="#DejaVuSans-30"/>
       <use x="63.623047" xlink:href="#DejaVuSans-2e"/>
       <use x="95.410156" xlink:href="#DejaVuSans-32"/>
      </g>
     </g>
    </g>
    <g id="xtick_3">
     <g id="line2d_3">
      <g>
       <use style="stroke:#000000;stroke-width:0.8;" x="190.963636" xlink:href="#ma78518df3c" y="252"/>
      </g>
     </g>
     <g id="text_3">
      <!-- 0.4 -->
      <defs>
       <path d="M 37.796875 64.3125 
L 12.890625 25.390625 
L 37.796875 25.390625 
z
M 35.203125 72.90625 
L 47.609375 72.90625 
L 47.609375 25.390625 
L 58.015625 25.390625 
L 58.015625 17.1875 
L 47.609375 17.1875 
L 47.609375 0 
L 37.796875 0 
L 37.796875 17.1875 
L 4.890625 17.1875 
L 4.890625 26.703125 
z
" id="DejaVuSans-34"/>
      </defs>
      <g transform="translate(183.012074 266.598437)scale(0.1 -0.1)">
       <use xlink:href="#DejaVuSans-30"/>
       <use x="63.623047" xlink:href="#DejaVuSans-2e"/>
       <use x="95.410156" xlink:href="#DejaVuSans-34"/>
      </g>
     </g>
    </g>
    <g id="xtick_4">
     <g id="line2d_4">
      <g>
       <use style="stroke:#000000;stroke-width:0.8;" x="251.836364" xlink:href="#ma78518df3c" y="252"/>
      </g>
     </g>
     <g id="text_4">
      <!-- 0.6 -->
      <defs>
       <path d="M 33.015625 40.375 
Q 26.375 40.375 22.484375 35.828125 
Q 18.609375 31.296875 18.609375 23.390625 
Q 18.609375 15.53125 22.484375 10.953125 
Q 26.375 6.390625 33.015625 6.390625 
Q 39.65625 6.390625 43.53125 10.953125 
Q 47.40625 15.53125 47.40625 23.390625 
Q 47.40625 31.296875 43.53125 35.828125 
Q 39.65625 40.375 33.015625 40.375 
z
M 52.59375 71.296875 
L 52.59375 62.3125 
Q 48.875 64.0625 45.09375 64.984375 
Q 41.3125 65.921875 37.59375 65.921875 
Q 27.828125 65.921875 22.671875 59.328125 
Q 17.53125 52.734375 16.796875 39.40625 
Q 19.671875 43.65625 24.015625 45.921875 
Q 28.375 48.1875 33.59375 48.1875 
Q 44.578125 48.1875 50.953125 41.515625 
Q 57.328125 34.859375 57.328125 23.390625 
Q 57.328125 12.15625 50.6875 5.359375 
Q 44.046875 -1.421875 33.015625 -1.421875 
Q 20.359375 -1.421875 13.671875 8.265625 
Q 6.984375 17.96875 6.984375 36.375 
Q 6.984375 53.65625 15.1875 63.9375 
Q 23.390625 74.21875 37.203125 74.21875 
Q 40.921875 74.21875 44.703125 73.484375 
Q 48.484375 72.75 52.59375 71.296875 
z
" id="DejaVuSans-36"/>
      </defs>
      <g transform="translate(243.884801 266.598437)scale(0.1 -0.1)">
       <use xlink:href="#DejaVuSans-30"/>
       <use x="63.623047" xlink:href="#DejaVuSans-2e"/>
       <use x="95.410156" xlink:href="#DejaVuSans-36"/>
      </g>
     </g>
    </g>
    <g id="xtick_5">
     <g id="line2d_5">
      <g>
       <use style="stroke:#000000;stroke-width:0.8;" x="312.709091" xlink:href="#ma78518df3c" y="252"/>
      </g>
     </g>
     <g id="text_5">
      <!-- 0.8 -->
      <defs>
       <path d="M 31.78125 34.625 
Q 24.75 34.625 20.71875 30.859375 
Q 16.703125 27.09375 16.703125 20.515625 
Q 16.703125 13.921875 20.71875 10.15625 
Q 24.75 6.390625 31.78125 6.390625 
Q 38.8125 6.390625 42.859375 10.171875 
Q 46.921875 13.96875 46.921875 20.515625 
Q 46.921875 27.09375 42.890625 30.859375 
Q 38.875 34.625 31.78125 34.625 
z
M 21.921875 38.8125 
Q 15.578125 40.375 12.03125 44.71875 
Q 8.5 49.078125 8.5 55.328125 
Q 8.5 64.0625 14.71875 69.140625 
Q 20.953125 74.21875 31.78125 74.21875 
Q 42.671875 74.21875 48.875 69.140625 
Q 55.078125 64.0625 55.078125 55.328125 
Q 55.078125 49.078125 51.53125 44.71875 
Q 48 40.375 41.703125 38.8125 
Q 48.828125 37.15625 52.796875 32.3125 
Q 56.78125 27.484375 56.78125 20.515625 
Q 56.78125 9.90625 50.3125 4.234375 
Q 43.84375 -1.421875 31.78125 -1.421875 
Q 19.734375 -1.421875 13.25 4.234375 
Q 6.78125 9.90625 6.78125 20.515625 
Q 6.78125 27.484375 10.78125 32.3125 
Q 14.796875 37.15625 21.921875 38.8125 
z
M 18.3125 54.390625 
Q 18.3125 48.734375 21.84375 45.5625 
Q 25.390625 42.390625 31.78125 42.390625 
Q 38.140625 42.390625 41.71875 45.5625 
Q 45.3125 48.734375 45.3125 54.390625 
Q 45.3125 60.0625 41.71875 63.234375 
Q 38.140625 66.40625 31.78125 66.40625 
Q 25.390625 66.40625 21.84375 63.234375 
Q 18.3125 60.0625 18.3125 54.390625 
z
" id="DejaVuSans-38"/>
      </defs>
      <g transform="translate(304.757528 266.598437)scale(0.1 -0.1)">
       <use xlink:href="#DejaVuSans-30"/>
       <use x="63.623047" xlink:href="#DejaVuSans-2e"/>
       <use x="95.410156" xlink:href="#DejaVuSans-38"/>
      </g>
     </g>
    </g>
    <g id="xtick_6">
     <g id="line2d_6">
      <g>
       <use style="stroke:#000000;stroke-width:0.8;" x="373.581818" xlink:href="#ma78518df3c" y="252"/>
      </g>
     </g>
     <g id="text_6">
      <!-- 1.0 -->
      <defs>
       <path d="M 12.40625 8.296875 
L 28.515625 8.296875 
L 28.515625 63.921875 
L 10.984375 60.40625 
L 10.984375 69.390625 
L 28.421875 72.90625 
L 38.28125 72.90625 
L 38.28125 8.296875 
L 54.390625 8.296875 
L 54.390625 0 
L 12.40625 0 
z
" id="DejaVuSans-31"/>
      </defs>
      <g transform="translate(365.630256 266.598437)scale(0.1 -0.1)">
       <use xlink:href="#DejaVuSans-31"/>
       <use x="63.623047" xlink:href="#DejaVuSans-2e"/>
       <use x="95.410156" xlink:href="#DejaVuSans-30"/>
      </g>
     </g>
    </g>
    <g id="text_7">
     <!-- False positive rate -->
     <defs>
      <path d="M 9.8125 72.90625 
L 51.703125 72.90625 
L 51.703125 64.59375 
L 19.671875 64.59375 
L 19.671875 43.109375 
L 48.578125 43.109375 
L 48.578125 34.8125 
L 19.671875 34.8125 
L 19.671875 0 
L 9.8125 0 
z
" id="DejaVuSans-46"/>
      <path d="M 34.28125 27.484375 
Q 23.390625 27.484375 19.1875 25 
Q 14.984375 22.515625 14.984375 16.5 
Q 14.984375 11.71875 18.140625 8.90625 
Q 21.296875 6.109375 26.703125 6.109375 
Q 34.1875 6.109375 38.703125 11.40625 
Q 43.21875 16.703125 43.21875 25.484375 
L 43.21875 27.484375 
z
M 52.203125 31.203125 
L 52.203125 0 
L 43.21875 0 
L 43.21875 8.296875 
Q 40.140625 3.328125 35.546875 0.953125 
Q 30.953125 -1.421875 24.3125 -1.421875 
Q 15.921875 -1.421875 10.953125 3.296875 
Q 6 8.015625 6 15.921875 
Q 6 25.140625 12.171875 29.828125 
Q 18.359375 34.515625 30.609375 34.515625 
L 43.21875 34.515625 
L 43.21875 35.40625 
Q 43.21875 41.609375 39.140625 45 
Q 35.0625 48.390625 27.6875 48.390625 
Q 23 48.390625 18.546875 47.265625 
Q 14.109375 46.140625 10.015625 43.890625 
L 10.015625 52.203125 
Q 14.9375 54.109375 19.578125 55.046875 
Q 24.21875 56 28.609375 56 
Q 40.484375 56 46.34375 49.84375 
Q 52.203125 43.703125 52.203125 31.203125 
z
" id="DejaVuSans-61"/>
      <path d="M 9.421875 75.984375 
L 18.40625 75.984375 
L 18.40625 0 
L 9.421875 0 
z
" id="DejaVuSans-6c"/>
      <path d="M 44.28125 53.078125 
L 44.28125 44.578125 
Q 40.484375 46.53125 36.375 47.5 
Q 32.28125 48.484375 27.875 48.484375 
Q 21.1875 48.484375 17.84375 46.4375 
Q 14.5 44.390625 14.5 40.28125 
Q 14.5 37.15625 16.890625 35.375 
Q 19.28125 33.59375 26.515625 31.984375 
L 29.59375 31.296875 
Q 39.15625 29.25 43.1875 25.515625 
Q 47.21875 21.78125 47.21875 15.09375 
Q 47.21875 7.46875 41.1875 3.015625 
Q 35.15625 -1.421875 24.609375 -1.421875 
Q 20.21875 -1.421875 15.453125 -0.5625 
Q 10.6875 0.296875 5.421875 2 
L 5.421875 11.28125 
Q 10.40625 8.6875 15.234375 7.390625 
Q 20.0625 6.109375 24.8125 6.109375 
Q 31.15625 6.109375 34.5625 8.28125 
Q 37.984375 10.453125 37.984375 14.40625 
Q 37.984375 18.0625 35.515625 20.015625 
Q 33.0625 21.96875 24.703125 23.78125 
L 21.578125 24.515625 
Q 13.234375 26.265625 9.515625 29.90625 
Q 5.8125 33.546875 5.8125 39.890625 
Q 5.8125 47.609375 11.28125 51.796875 
Q 16.75 56 26.8125 56 
Q 31.78125 56 36.171875 55.265625 
Q 40.578125 54.546875 44.28125 53.078125 
z
" id="DejaVuSans-73"/>
      <path d="M 56.203125 29.59375 
L 56.203125 25.203125 
L 14.890625 25.203125 
Q 15.484375 15.921875 20.484375 11.0625 
Q 25.484375 6.203125 34.421875 6.203125 
Q 39.59375 6.203125 44.453125 7.46875 
Q 49.3125 8.734375 54.109375 11.28125 
L 54.109375 2.78125 
Q 49.265625 0.734375 44.1875 -0.34375 
Q 39.109375 -1.421875 33.890625 -1.421875 
Q 20.796875 -1.421875 13.15625 6.1875 
Q 5.515625 13.8125 5.515625 26.8125 
Q 5.515625 40.234375 12.765625 48.109375 
Q 20.015625 56 32.328125 56 
Q 43.359375 56 49.78125 48.890625 
Q 56.203125 41.796875 56.203125 29.59375 
z
M 47.21875 32.234375 
Q 47.125 39.59375 43.09375 43.984375 
Q 39.0625 48.390625 32.421875 48.390625 
Q 24.90625 48.390625 20.390625 44.140625 
Q 15.875 39.890625 15.1875 32.171875 
z
" id="DejaVuSans-65"/>
      <path id="DejaVuSans-20"/>
      <path d="M 18.109375 8.203125 
L 18.109375 -20.796875 
L 9.078125 -20.796875 
L 9.078125 54.6875 
L 18.109375 54.6875 
L 18.109375 46.390625 
Q 20.953125 51.265625 25.265625 53.625 
Q 29.59375 56 35.59375 56 
Q 45.5625 56 51.78125 48.09375 
Q 58.015625 40.1875 58.015625 27.296875 
Q 58.015625 14.40625 51.78125 6.484375 
Q 45.5625 -1.421875 35.59375 -1.421875 
Q 29.59375 -1.421875 25.265625 0.953125 
Q 20.953125 3.328125 18.109375 8.203125 
z
M 48.6875 27.296875 
Q 48.6875 37.203125 44.609375 42.84375 
Q 40.53125 48.484375 33.40625 48.484375 
Q 26.265625 48.484375 22.1875 42.84375 
Q 18.109375 37.203125 18.109375 27.296875 
Q 18.109375 17.390625 22.1875 11.75 
Q 26.265625 6.109375 33.40625 6.109375 
Q 40.53125 6.109375 44.609375 11.75 
Q 48.6875 17.390625 48.6875 27.296875 
z
" id="DejaVuSans-70"/>
      <path d="M 30.609375 48.390625 
Q 23.390625 48.390625 19.1875 42.75 
Q 14.984375 37.109375 14.984375 27.296875 
Q 14.984375 17.484375 19.15625 11.84375 
Q 23.34375 6.203125 30.609375 6.203125 
Q 37.796875 6.203125 41.984375 11.859375 
Q 46.1875 17.53125 46.1875 27.296875 
Q 46.1875 37.015625 41.984375 42.703125 
Q 37.796875 48.390625 30.609375 48.390625 
z
M 30.609375 56 
Q 42.328125 56 49.015625 48.375 
Q 55.71875 40.765625 55.71875 27.296875 
Q 55.71875 13.875 49.015625 6.21875 
Q 42.328125 -1.421875 30.609375 -1.421875 
Q 18.84375 -1.421875 12.171875 6.21875 
Q 5.515625 13.875 5.515625 27.296875 
Q 5.515625 40.765625 12.171875 48.375 
Q 18.84375 56 30.609375 56 
z
" id="DejaVuSans-6f"/>
      <path d="M 9.421875 54.6875 
L 18.40625 54.6875 
L 18.40625 0 
L 9.421875 0 
z
M 9.421875 75.984375 
L 18.40625 75.984375 
L 18.40625 64.59375 
L 9.421875 64.59375 
z
" id="DejaVuSans-69"/>
      <path d="M 18.3125 70.21875 
L 18.3125 54.6875 
L 36.8125 54.6875 
L 36.8125 47.703125 
L 18.3125 47.703125 
L 18.3125 18.015625 
Q 18.3125 11.328125 20.140625 9.421875 
Q 21.96875 7.515625 27.59375 7.515625 
L 36.8125 7.515625 
L 36.8125 0 
L 27.59375 0 
Q 17.1875 0 13.234375 3.875 
Q 9.28125 7.765625 9.28125 18.015625 
L 9.28125 47.703125 
L 2.6875 47.703125 
L 2.6875 54.6875 
L 9.28125 54.6875 
L 9.28125 70.21875 
z
" id="DejaVuSans-74"/>
      <path d="M 2.984375 54.6875 
L 12.5 54.6875 
L 29.59375 8.796875 
L 46.6875 54.6875 
L 56.203125 54.6875 
L 35.6875 0 
L 23.484375 0 
z
" id="DejaVuSans-76"/>
      <path d="M 41.109375 46.296875 
Q 39.59375 47.171875 37.8125 47.578125 
Q 36.03125 48 33.890625 48 
Q 26.265625 48 22.1875 43.046875 
Q 18.109375 38.09375 18.109375 28.8125 
L 18.109375 0 
L 9.078125 0 
L 9.078125 54.6875 
L 18.109375 54.6875 
L 18.109375 46.1875 
Q 20.953125 51.171875 25.484375 53.578125 
Q 30.03125 56 36.53125 56 
Q 37.453125 56 38.578125 55.875 
Q 39.703125 55.765625 41.0625 55.515625 
z
" id="DejaVuSans-72"/>
     </defs>
     <g transform="translate(175.45 280.276563)scale(0.1 -0.1)">
      <use xlink:href="#DejaVuSans-46"/>
      <use x="57.378906" xlink:href="#DejaVuSans-61"/>
      <use x="118.658203" xlink:href="#DejaVuSans-6c"/>
      <use x="146.441406" xlink:href="#DejaVuSans-73"/>
      <use x="198.541016" xlink:href="#DejaVuSans-65"/>
      <use x="260.064453" xlink:href="#DejaVuSans-20"/>
      <use x="291.851562" xlink:href="#DejaVuSans-70"/>
      <use x="355.328125" xlink:href="#DejaVuSans-6f"/>
      <use x="416.509766" xlink:href="#DejaVuSans-73"/>
      <use x="468.609375" xlink:href="#DejaVuSans-69"/>
      <use x="496.392578" xlink:href="#DejaVuSans-74"/>
      <use x="535.601562" xlink:href="#DejaVuSans-69"/>
      <use x="563.384766" xlink:href="#DejaVuSans-76"/>
      <use x="622.564453" xlink:href="#DejaVuSans-65"/>
      <use x="684.087891" xlink:href="#DejaVuSans-20"/>
      <use x="715.875" xlink:href="#DejaVuSans-72"/>
      <use x="756.988281" xlink:href="#DejaVuSans-61"/>
      <use x="818.267578" xlink:href="#DejaVuSans-74"/>
      <use x="857.476562" xlink:href="#DejaVuSans-65"/>
     </g>
    </g>
   </g>
   <g id="matplotlib.axis_2">
    <g id="ytick_1">
     <g id="line2d_7">
      <defs>
       <path d="M 0 0 
L -3.5 0 
" id="md1563c7487" style="stroke:#000000;stroke-width:0.8;"/>
      </defs>
      <g>
       <use style="stroke:#000000;stroke-width:0.8;" x="54" xlink:href="#md1563c7487" y="242.14608"/>
      </g>
     </g>
     <g id="text_8">
      <!-- 0.0 -->
      <g transform="translate(31.096875 245.945299)scale(0.1 -0.1)">
       <use xlink:href="#DejaVuSans-30"/>
       <use x="63.623047" xlink:href="#DejaVuSans-2e"/>
       <use x="95.410156" xlink:href="#DejaVuSans-30"/>
      </g>
     </g>
    </g>
    <g id="ytick_2">
     <g id="line2d_8">
      <g>
       <use style="stroke:#000000;stroke-width:0.8;" x="54" xlink:href="#md1563c7487" y="202.605591"/>
      </g>
     </g>
     <g id="text_9">
      <!-- 0.2 -->
      <g transform="translate(31.096875 206.40481)scale(0.1 -0.1)">
       <use xlink:href="#DejaVuSans-30"/>
       <use x="63.623047" xlink:href="#DejaVuSans-2e"/>
       <use x="95.410156" xlink:href="#DejaVuSans-32"/>
      </g>
     </g>
    </g>
    <g id="ytick_3">
     <g id="line2d_9">
      <g>
       <use style="stroke:#000000;stroke-width:0.8;" x="54" xlink:href="#md1563c7487" y="163.065102"/>
      </g>
     </g>
     <g id="text_10">
      <!-- 0.4 -->
      <g transform="translate(31.096875 166.864321)scale(0.1 -0.1)">
       <use xlink:href="#DejaVuSans-30"/>
       <use x="63.623047" xlink:href="#DejaVuSans-2e"/>
       <use x="95.410156" xlink:href="#DejaVuSans-34"/>
      </g>
     </g>
    </g>
    <g id="ytick_4">
     <g id="line2d_10">
      <g>
       <use style="stroke:#000000;stroke-width:0.8;" x="54" xlink:href="#md1563c7487" y="123.524614"/>
      </g>
     </g>
     <g id="text_11">
      <!-- 0.6 -->
      <g transform="translate(31.096875 127.323833)scale(0.1 -0.1)">
       <use xlink:href="#DejaVuSans-30"/>
       <use x="63.623047" xlink:href="#DejaVuSans-2e"/>
       <use x="95.410156" xlink:href="#DejaVuSans-36"/>
      </g>
     </g>
    </g>
    <g id="ytick_5">
     <g id="line2d_11">
      <g>
       <use style="stroke:#000000;stroke-width:0.8;" x="54" xlink:href="#md1563c7487" y="83.984125"/>
      </g>
     </g>
     <g id="text_12">
      <!-- 0.8 -->
      <g transform="translate(31.096875 87.783344)scale(0.1 -0.1)">
       <use xlink:href="#DejaVuSans-30"/>
       <use x="63.623047" xlink:href="#DejaVuSans-2e"/>
       <use x="95.410156" xlink:href="#DejaVuSans-38"/>
      </g>
     </g>
    </g>
    <g id="ytick_6">
     <g id="line2d_12">
      <g>
       <use style="stroke:#000000;stroke-width:0.8;" x="54" xlink:href="#md1563c7487" y="44.443636"/>
      </g>
     </g>
     <g id="text_13">
      <!-- 1.0 -->
      <g transform="translate(31.096875 48.242855)scale(0.1 -0.1)">
       <use xlink:href="#DejaVuSans-31"/>
       <use x="63.623047" xlink:href="#DejaVuSans-2e"/>
       <use x="95.410156" xlink:href="#DejaVuSans-30"/>
      </g>
     </g>
    </g>
    <g id="text_14">
     <!-- True positive rate -->
     <defs>
      <path d="M -0.296875 72.90625 
L 61.375 72.90625 
L 61.375 64.59375 
L 35.5 64.59375 
L 35.5 0 
L 25.59375 0 
L 25.59375 64.59375 
L -0.296875 64.59375 
z
" id="DejaVuSans-54"/>
      <path d="M 8.5 21.578125 
L 8.5 54.6875 
L 17.484375 54.6875 
L 17.484375 21.921875 
Q 17.484375 14.15625 20.5 10.265625 
Q 23.53125 6.390625 29.59375 6.390625 
Q 36.859375 6.390625 41.078125 11.03125 
Q 45.3125 15.671875 45.3125 23.6875 
L 45.3125 54.6875 
L 54.296875 54.6875 
L 54.296875 0 
L 45.3125 0 
L 45.3125 8.40625 
Q 42.046875 3.421875 37.71875 1 
Q 33.40625 -1.421875 27.6875 -1.421875 
Q 18.265625 -1.421875 13.375 4.4375 
Q 8.5 10.296875 8.5 21.578125 
z
M 31.109375 56 
z
" id="DejaVuSans-75"/>
     </defs>
     <g transform="translate(25.017187 187.570625)rotate(-90)scale(0.1 -0.1)">
      <use xlink:href="#DejaVuSans-54"/>
      <use x="60.865234" xlink:href="#DejaVuSans-72"/>
      <use x="101.978516" xlink:href="#DejaVuSans-75"/>
      <use x="165.357422" xlink:href="#DejaVuSans-65"/>
      <use x="226.880859" xlink:href="#DejaVuSans-20"/>
      <use x="258.667969" xlink:href="#DejaVuSans-70"/>
      <use x="322.144531" xlink:href="#DejaVuSans-6f"/>
      <use x="383.326172" xlink:href="#DejaVuSans-73"/>
      <use x="435.425781" xlink:href="#DejaVuSans-69"/>
      <use x="463.208984" xlink:href="#DejaVuSans-74"/>
      <use x="502.417969" xlink:href="#DejaVuSans-69"/>
      <use x="530.201172" xlink:href="#DejaVuSans-76"/>
      <use x="589.380859" xlink:href="#DejaVuSans-65"/>
      <use x="650.904297" xlink:href="#DejaVuSans-20"/>
      <use x="682.691406" xlink:href="#DejaVuSans-72"/>
      <use x="723.804688" xlink:href="#DejaVuSans-61"/>
      <use x="785.083984" xlink:href="#DejaVuSans-74"/>
      <use x="824.292969" xlink:href="#DejaVuSans-65"/>
     </g>
    </g>
   </g>
   <g id="line2d_13">
    <path clip-path="url(#pf25996ad02)" d="M 69.218182 242.116364 
L 69.309118 208.596394 
L 69.400054 208.596394 
L 69.490991 197.660801 
L 69.581927 197.660801 
L 69.672863 194.689173 
L 69.763799 194.689173 
L 69.854736 191.866126 
L 69.945672 191.866126 
L 70.036608 189.934567 
L 70.127544 189.934567 
L 70.218481 186.457762 
L 70.309417 186.457762 
L 70.400353 180.930533 
L 70.491289 180.930533 
L 70.582226 179.860747 
L 70.673162 179.860747 
L 70.764098 178.226351 
L 70.855034 178.226351 
L 70.855034 176.562239 
L 71.036907 176.562239 
L 71.127843 165.953525 
L 71.218779 165.953525 
L 71.309716 165.002604 
L 71.400652 165.002604 
L 71.491588 163.27906 
L 71.582524 163.27906 
L 71.673461 161.912111 
L 71.764397 161.912111 
L 71.855333 160.753176 
L 71.946269 160.753176 
L 72.037206 155.017933 
L 72.128142 155.017933 
L 72.219078 153.086374 
L 72.310014 153.086374 
L 72.400951 150.946802 
L 72.491887 150.946802 
L 72.582823 145.181842 
L 72.673759 145.181842 
L 72.764696 144.409219 
L 72.855632 144.409219 
L 72.946568 143.488014 
L 73.037504 143.488014 
L 73.128441 143.309716 
L 73.219377 143.309716 
L 73.219377 143.190851 
L 73.401249 143.190851 
L 73.492186 141.289009 
L 73.674058 141.229576 
L 73.764994 140.248939 
L 73.855931 140.248939 
L 73.946867 139.11972 
L 74.037803 139.11972 
L 74.128739 138.07965 
L 74.219676 138.07965 
L 74.310612 134.394831 
L 74.401548 134.394831 
L 74.492484 133.087314 
L 74.674357 133.027882 
L 74.765293 131.809514 
L 74.856229 131.809514 
L 74.947166 130.412849 
L 75.038102 130.412849 
L 75.129038 128.24356 
L 75.219974 128.24356 
L 75.310911 127.411504 
L 75.401847 127.411504 
L 75.492783 125.301648 
L 75.674656 125.271931 
L 75.765592 123.756401 
L 75.856528 123.756401 
L 75.947464 122.122005 
L 76.038401 122.122005 
L 76.038401 121.913991 
L 76.220273 121.913991 
L 76.311209 121.646545 
L 76.402146 121.646545 
L 76.493082 120.695623 
L 76.584018 120.695623 
L 76.674955 119.923 
L 76.765891 119.923 
L 76.856827 119.417823 
L 77.0387 119.417823 
L 77.129636 118.258888 
L 77.311508 118.169739 
L 77.402445 117.634846 
L 77.493381 117.634846 
L 77.584317 117.218818 
L 77.76619 117.129669 
L 77.857126 116.059883 
L 77.948062 116.059883 
L 78.038998 115.168394 
L 78.129935 115.168394 
L 78.220871 114.395771 
L 78.402743 114.336338 
L 78.49368 113.20712 
L 78.584616 113.20712 
L 78.675552 112.196766 
L 78.857425 112.16705 
L 78.948361 111.988752 
L 79.039297 111.988752 
L 79.130233 111.156696 
L 79.22117 111.156696 
L 79.312106 110.681235 
L 79.493978 110.621803 
L 79.584915 109.670882 
L 79.675851 109.670882 
L 79.766787 108.957691 
L 79.857723 108.957691 
L 79.94866 108.749677 
L 80.130532 108.749677 
L 80.221468 107.501593 
L 80.403341 107.471877 
L 80.494277 106.9667 
L 80.67615 106.936984 
L 80.767086 106.491239 
L 80.858022 106.491239 
L 80.948958 105.986062 
L 81.039895 105.986062 
L 81.130831 105.6889 
L 81.221767 105.6889 
L 81.312703 105.035141 
L 81.40364 105.035141 
L 81.494576 104.856844 
L 81.585512 104.856844 
L 81.676448 104.08422 
L 81.767385 104.08422 
L 81.858321 103.668192 
L 82.222066 103.60876 
L 82.313002 103.430462 
L 82.403938 103.430462 
L 82.494875 102.746987 
L 82.585811 102.746987 
L 82.676747 102.212094 
L 82.767683 102.212094 
L 82.85862 101.736634 
L 82.949556 101.736634 
L 82.949556 101.469187 
L 83.131428 101.469187 
L 83.222365 100.696564 
L 83.313301 100.696564 
L 83.404237 99.299898 
L 83.495173 99.299898 
L 83.58611 98.973019 
L 83.767982 98.88387 
L 83.858918 98.259828 
L 84.040791 98.230112 
L 84.131727 97.814084 
L 84.404536 97.724935 
L 84.404536 97.695219 
L 84.677345 97.60607 
L 84.768281 97.100893 
L 84.859217 97.100893 
L 84.950153 96.566 
L 85.222962 96.476851 
L 85.313898 96.031107 
L 85.404835 96.031107 
L 85.495771 95.199051 
L 85.677643 95.169335 
L 85.76858 94.188697 
L 86.041388 94.188697 
L 86.132325 93.267492 
L 86.223261 93.267492 
L 86.314197 93.029762 
L 86.49607 93.000046 
L 86.587006 92.40572 
L 86.768879 92.316571 
L 86.859815 92.019409 
L 87.041687 91.93026 
L 87.132624 91.543948 
L 87.22356 91.543948 
L 87.22356 91.187353 
L 87.496369 91.098204 
L 87.587305 89.820403 
L 87.678241 89.820403 
L 87.769177 89.077496 
L 87.860114 89.077496 
L 87.95105 88.334589 
L 88.223859 88.275157 
L 88.314795 88.00771 
L 88.405731 88.00771 
L 88.496667 87.76998 
L 88.951349 87.710547 
L 89.042285 87.294519 
L 89.133221 87.294519 
L 89.224157 86.819059 
L 89.315094 86.819059 
L 89.40603 86.551612 
L 89.496966 86.551612 
L 89.587902 86.1653 
L 89.860711 86.135584 
L 89.951647 85.778989 
L 90.224456 85.719556 
L 90.315392 85.511542 
L 90.497265 85.422393 
L 90.588201 85.333244 
L 90.770074 85.333244 
L 90.86101 84.738919 
L 91.497564 84.64977 
L 91.5885 84.501188 
L 91.770372 84.501188 
L 91.861309 84.08516 
L 92.043181 84.025728 
L 92.134117 83.84743 
L 92.31599 83.817714 
L 92.406926 83.550267 
L 92.588799 83.550267 
L 92.679735 83.074807 
L 92.861607 83.015374 
L 92.952544 82.837076 
L 93.04348 82.837076 
L 93.134416 82.361616 
L 93.316289 82.3319 
L 93.407225 82.034737 
L 93.680034 81.945588 
L 93.77097 81.143248 
L 94.043779 81.113532 
L 94.134715 80.72722 
L 94.225651 80.72722 
L 94.316587 80.25176 
L 94.49846 80.222043 
L 94.589396 79.984313 
L 94.680332 79.984313 
L 94.771269 79.538569 
L 95.044077 79.508853 
L 95.135014 79.122541 
L 95.407822 79.033392 
L 95.498759 78.290485 
L 95.771567 78.231052 
L 95.862504 77.815024 
L 96.044376 77.785308 
L 96.135312 77.60701 
L 96.226249 77.60701 
L 96.317185 77.101833 
L 96.499058 77.012685 
L 96.589994 76.656089 
L 96.771866 76.596657 
L 96.862803 76.32921 
L 97.044675 76.269778 
L 97.135611 75.705168 
L 97.317484 75.616019 
L 97.40842 75.408005 
L 97.590293 75.378289 
L 97.681229 75.229708 
L 97.954038 75.170275 
L 98.044974 74.81368 
L 98.408719 74.724531 
L 98.499655 74.635382 
L 98.681528 74.546233 
L 98.772464 74.189638 
L 98.8634 74.189638 
L 98.954336 73.714177 
L 99.318081 73.714177 
L 99.409018 73.417014 
L 99.954635 73.327865 
L 100.045571 73.179284 
L 100.136508 73.179284 
L 100.136508 73.060419 
L 100.409316 73.000986 
L 100.500253 72.763256 
L 100.591189 72.763256 
L 100.591189 72.644391 
L 100.773061 72.644391 
L 100.863998 71.960916 
L 101.04587 71.871767 
L 101.136806 71.723186 
L 101.227743 71.723186 
L 101.318679 71.455739 
L 101.591488 71.396307 
L 101.591488 71.247725 
L 102.046169 71.158577 
L 102.137105 70.950563 
L 102.318978 70.920846 
L 102.318978 70.772265 
L 102.682723 70.772265 
L 102.773659 70.385953 
L 103.137404 70.296804 
L 103.137404 70.177939 
L 103.501149 70.08879 
L 103.592085 69.940209 
L 103.683021 69.940209 
L 103.773958 69.702479 
L 104.046766 69.672762 
L 104.137703 69.375599 
L 104.228639 69.375599 
L 104.319575 68.959571 
L 104.865193 68.900139 
L 104.956129 68.484111 
L 105.138001 68.484111 
L 105.138001 68.186948 
L 105.592683 68.097799 
L 105.592683 68.00865 
L 106.047364 67.919501 
L 106.047364 67.77092 
L 106.411109 67.711487 
L 106.502045 67.444041 
L 106.592982 67.444041 
L 106.683918 67.117162 
L 107.047663 67.087445 
L 107.138599 66.849715 
L 107.411408 66.760566 
L 107.502344 66.463403 
L 107.59328 66.463403 
L 107.59328 66.344538 
L 107.866089 66.314822 
L 107.866089 66.225673 
L 108.411707 66.136524 
L 108.502643 66.017659 
L 108.775452 65.92851 
L 108.775452 65.898794 
L 109.04826 65.869078 
L 109.139197 65.304468 
L 109.321069 65.274752 
L 109.321069 65.155887 
L 109.502942 65.155887 
L 109.593878 64.918157 
L 109.866687 64.829008 
L 109.957623 64.680426 
L 110.412304 64.591278 
L 110.50324 64.502129 
L 110.685113 64.442696 
L 110.776049 64.204966 
L 110.866985 64.204966 
L 110.866985 64.086101 
L 111.048858 64.086101 
L 111.139794 63.788938 
L 111.321667 63.699789 
L 111.321667 63.61064 
L 111.594475 63.61064 
L 111.685412 63.432342 
L 112.049157 63.402626 
L 112.049157 63.164896 
L 112.68571 63.075747 
L 112.68571 63.016314 
L 113.4132 62.927166 
L 113.504137 62.838017 
L 114.14069 62.778584 
L 114.231627 62.659719 
L 114.504435 62.57057 
L 114.595372 62.33284 
L 115.322862 62.243691 
L 115.413798 61.916812 
L 115.686607 61.916812 
L 115.686607 61.797947 
L 116.232224 61.738514 
L 116.32316 61.560216 
L 116.868778 61.471068 
L 116.959714 61.352202 
L 117.414396 61.263054 
L 117.505332 61.203621 
L 117.687204 61.144188 
L 117.778141 61.05504 
L 118.232822 60.965891 
L 118.323758 60.876742 
L 118.414694 60.876742 
L 118.505631 60.698444 
L 118.778439 60.609295 
L 118.778439 60.579579 
L 119.142184 60.520147 
L 119.233121 60.312133 
L 119.596866 60.2527 
L 119.596866 60.193267 
L 120.142483 60.104119 
L 120.233419 59.985253 
L 120.415292 59.925821 
L 120.506228 59.806956 
L 121.051846 59.717807 
L 121.142782 59.569225 
L 121.324654 59.509793 
L 121.324654 59.45036 
L 121.688399 59.420644 
L 121.688399 59.301779 
L 121.870272 59.301779 
L 121.961208 59.123481 
L 122.234017 59.034332 
L 122.234017 59.004616 
L 122.597762 58.945183 
L 122.688698 58.796602 
L 123.325252 58.707453 
L 123.416188 58.558872 
L 124.234614 58.529155 
L 124.325551 58.231993 
L 124.689296 58.17256 
L 124.780232 58.083411 
L 124.962104 58.083411 
L 125.053041 57.815965 
L 125.598658 57.726816 
L 125.689594 57.607951 
L 125.962403 57.518802 
L 125.962403 57.340504 
L 126.326148 57.251355 
L 126.326148 57.191923 
L 126.508021 57.191923 
L 126.598957 56.983909 
L 126.689893 56.983909 
L 126.78083 56.746178 
L 127.053638 56.746178 
L 127.053638 56.538164 
L 127.417383 56.508448 
L 127.417383 56.419299 
L 127.872065 56.359867 
L 127.872065 56.151853 
L 128.053937 56.151853 
L 128.053937 56.032987 
L 128.872363 55.973555 
L 128.872363 55.85469 
L 129.236108 55.824973 
L 129.327045 55.587243 
L 129.963598 55.498094 
L 129.963598 55.408945 
L 130.782025 55.319797 
L 130.782025 55.200932 
L 131.054833 55.200932 
L 131.14577 54.963201 
L 131.327642 54.903769 
L 131.418578 54.636322 
L 131.509515 54.636322 
L 131.600451 54.458024 
L 131.782323 54.398592 
L 131.782323 54.279727 
L 132.237005 54.190578 
L 132.237005 54.131145 
L 132.509813 54.131145 
L 132.509813 54.01228 
L 133.32824 53.923131 
L 133.419176 53.655685 
L 133.691985 53.566536 
L 133.782921 53.417954 
L 134.237602 53.328806 
L 134.237602 53.299089 
L 134.510411 53.239657 
L 134.510411 53.180224 
L 135.51071 53.091075 
L 135.51071 53.001926 
L 135.965391 52.912778 
L 135.965391 52.853345 
L 136.420072 52.793912 
L 136.511009 52.645331 
L 136.692881 52.645331 
L 136.692881 52.49675 
L 137.69318 52.407601 
L 137.784116 52.318452 
L 138.147861 52.229303 
L 138.238797 52.16987 
L 138.875351 52.110438 
L 138.875351 51.961856 
L 139.420969 51.872708 
L 139.420969 51.813275 
L 140.148459 51.724126 
L 140.239395 51.605261 
L 140.694076 51.516112 
L 140.694076 51.45668 
L 141.33063 51.397247 
L 141.421566 51.308098 
L 141.603439 51.218949 
L 141.603439 51.100084 
L 142.421865 51.010935 
L 142.421865 50.862354 
L 143.331227 50.773205 
L 143.331227 50.684056 
L 143.785909 50.65434 
L 143.876845 50.446326 
L 144.422462 50.386893 
L 144.422462 50.327461 
L 145.149952 50.268028 
L 145.240889 50.149163 
L 145.422761 50.08973 
L 145.422761 50.000582 
L 145.604634 50.000582 
L 145.604634 49.881717 
L 146.150251 49.822284 
L 146.241187 49.673703 
L 146.604933 49.584554 
L 146.695869 49.435972 
L 146.968678 49.37654 
L 146.968678 49.317107 
L 147.968976 49.257675 
L 148.059913 49.109093 
L 148.696466 49.019944 
L 148.696466 48.990228 
L 149.605829 48.960512 
L 149.605829 48.871363 
L 150.697064 48.782214 
L 150.788 48.693065 
L 151.51549 48.633633 
L 151.51549 48.544484 
L 152.424853 48.455335 
L 152.424853 48.395902 
L 153.334215 48.306753 
L 153.334215 48.277037 
L 153.516088 48.277037 
L 153.607024 48.128456 
L 154.152641 48.069023 
L 154.243578 47.950158 
L 155.425749 47.861009 
L 155.516685 47.801577 
L 155.88043 47.712428 
L 155.88043 47.682711 
L 157.426347 47.593563 
L 157.426347 47.53413 
L 158.244773 47.444981 
L 158.244773 47.385549 
L 159.51788 47.2964 
L 159.51788 47.266683 
L 159.972562 47.236967 
L 159.972562 47.147818 
L 161.154733 47.088386 
L 161.154733 47.028953 
L 162.882522 46.939804 
L 162.973458 46.880372 
L 163.700948 46.820939 
L 163.700948 46.761507 
L 164.883119 46.672358 
L 164.883119 46.583209 
L 168.247761 46.49406 
L 168.338697 46.434627 
L 169.975549 46.345479 
L 169.975549 46.315762 
L 171.339593 46.25633 
L 171.430529 46.137465 
L 171.794274 46.078032 
L 171.794274 46.018599 
L 173.976744 45.929451 
L 173.976744 45.899734 
L 175.886406 45.810585 
L 175.886406 45.780869 
L 177.159513 45.721437 
L 177.159513 45.662004 
L 178.250748 45.572855 
L 178.250748 45.543139 
L 182.251943 45.483706 
L 182.251943 45.424274 
L 185.25284 45.335125 
L 185.25284 45.305409 
L 188.799354 45.21626 
L 188.799354 45.127111 
L 191.527441 45.037962 
L 191.527441 45.008246 
L 194.801146 44.919097 
L 194.801146 44.889381 
L 200.893875 44.829948 
L 200.893875 44.770515 
L 216.534911 44.681367 
L 216.534911 44.65165 
L 233.630926 44.562502 
L 233.630926 44.532785 
L 373.581818 44.443636 
L 373.581818 44.443636 
" style="fill:none;stroke:#1f77b4;stroke-linecap:square;stroke-width:1.5;"/>
   </g>
   <g id="patch_3">
    <path d="M 54 252 
L 54 34.56 
" style="fill:none;stroke:#000000;stroke-linecap:square;stroke-linejoin:miter;stroke-width:0.8;"/>
   </g>
   <g id="patch_4">
    <path d="M 388.8 252 
L 388.8 34.56 
" style="fill:none;stroke:#000000;stroke-linecap:square;stroke-linejoin:miter;stroke-width:0.8;"/>
   </g>
   <g id="patch_5">
    <path d="M 54 252 
L 388.8 252 
" style="fill:none;stroke:#000000;stroke-linecap:square;stroke-linejoin:miter;stroke-width:0.8;"/>
   </g>
   <g id="patch_6">
    <path d="M 54 34.56 
L 388.8 34.56 
" style="fill:none;stroke:#000000;stroke-linecap:square;stroke-linejoin:miter;stroke-width:0.8;"/>
   </g>
  </g>
 </g>
 <defs>
  <clipPath id="pf25996ad02">
   <rect height="217.44" width="334.8" x="54" y="34.56"/>
  </clipPath>
 </defs>
</svg>
